  0
SECTION
  2
HEADER
  9
$ACADVER
  1
AC1015
  9
$ACADMAINTVER
 70
    13
  9
$DWGCODEPAGE
  3
ANSI_949
  9
$INSBASE
 10
0.0
 20
0.0
 30
0.0
  9
$EXTMIN
 10
-1058.484846059233
 20
1268.415963227077
 30
-0.0015258207003612
  9
$EXTMAX
 10
-709.3812273972257
 20
1399.297153266106
 30
0.0000000349246008
  9
$LIMMIN
 10
0.0
 20
0.0
  9
$LIMMAX
 10
420.0
 20
297.0
  9
$ORTHOMODE
 70
     1
  9
$REGENMODE
 70
     1
  9
$FILLMODE
 70
     1
  9
$QTEXTMODE
 70
     0
  9
$MIRRTEXT
 70
     1
  9
$LTSCALE
 40
1.0
  9
$ATTMODE
 70
     1
  9
$TEXTSIZE
 40
2.5
  9
$TRACEWID
 40
1.0
  9
$TEXTSTYLE
  7
Standard
  9
$CLAYER
  8
0
  9
$CELTYPE
  6
ByLayer
  9
$CECOLOR
 62
   256
  9
$CELTSCALE
 40
1.0
  9
$DISPSILH
 70
     0
  9
$DIMSCALE
 40
1.0
  9
$DIMASZ
 40
2.5
  9
$DIMEXO
 40
0.625
  9
$DIMDLI
 40
3.75
  9
$DIMRND
 40
0.0
  9
$DIMDLE
 40
0.0
  9
$DIMEXE
 40
1.25
  9
$DIMTP
 40
0.0
  9
$DIMTM
 40
0.0
  9
$DIMTXT
 40
2.5
  9
$DIMCEN
 40
2.5
  9
$DIMTSZ
 40
0.0
  9
$DIMTOL
 70
     0
  9
$DIMLIM
 70
     0
  9
$DIMTIH
 70
     0
  9
$DIMTOH
 70
     0
  9
$DIMSE1
 70
     0
  9
$DIMSE2
 70
     0
  9
$DIMTAD
 70
     1
  9
$DIMZIN
 70
     8
  9
$DIMBLK
  1

  9
$DIMASO
 70
     1
  9
$DIMSHO
 70
     1
  9
$DIMPOST
  1

  9
$DIMAPOST
  1

  9
$DIMALT
 70
     0
  9
$DIMALTD
 70
     3
  9
$DIMALTF
 40
0.03937007874016
  9
$DIMLFAC
 40
1.0
  9
$DIMTOFL
 70
     1
  9
$DIMTVP
 40
0.0
  9
$DIMTIX
 70
     0
  9
$DIMSOXD
 70
     0
  9
$DIMSAH
 70
     0
  9
$DIMBLK1
  1

  9
$DIMBLK2
  1

  9
$DIMSTYLE
  2
ISO-25
  9
$DIMCLRD
 70
     0
  9
$DIMCLRE
 70
     0
  9
$DIMCLRT
 70
     0
  9
$DIMTFAC
 40
1.0
  9
$DIMGAP
 40
0.625
  9
$DIMJUST
 70
     0
  9
$DIMSD1
 70
     0
  9
$DIMSD2
 70
     0
  9
$DIMTOLJ
 70
     0
  9
$DIMTZIN
 70
     8
  9
$DIMALTZ
 70
     0
  9
$DIMALTTZ
 70
     0
  9
$DIMUPT
 70
     0
  9
$DIMDEC
 70
     2
  9
$DIMTDEC
 70
     2
  9
$DIMALTU
 70
     2
  9
$DIMALTTD
 70
     3
  9
$DIMTXSTY
  7
Standard
  9
$DIMAUNIT
 70
     0
  9
$DIMADEC
 70
     0
  9
$DIMALTRND
 40
0.0
  9
$DIMAZIN
 70
     0
  9
$DIMDSEP
 70
    46
  9
$DIMATFIT
 70
     3
  9
$DIMFRAC
 70
     0
  9
$DIMLDRBLK
  1

  9
$DIMLUNIT
 70
     2
  9
$DIMLWD
 70
    -2
  9
$DIMLWE
 70
    -2
  9
$DIMTMOVE
 70
     0
  9
$LUNITS
 70
     2
  9
$LUPREC
 70
     4
  9
$SKETCHINC
 40
1.0
  9
$FILLETRAD
 40
0.7
  9
$AUNITS
 70
     0
  9
$AUPREC
 70
     0
  9
$MENU
  1
.
  9
$ELEVATION
 40
0.0
  9
$PELEVATION
 40
0.0
  9
$THICKNESS
 40
0.0
  9
$LIMCHECK
 70
     0
  9
$CHAMFERA
 40
10.0
  9
$CHAMFERB
 40
10.0
  9
$CHAMFERC
 40
20.0
  9
$CHAMFERD
 40
0.0
  9
$SKPOLY
 70
     0
  9
$TDCREATE
 40
2459233.537972291
  9
$TDUCREATE
 40
2459233.162972291
  9
$TDUPDATE
 40
2459233.545619201
  9
$TDUUPDATE
 40
2459233.170619201
  9
$TDINDWG
 40
0.0076470370
  9
$TDUSRTIMER
 40
0.0076470255
  9
$USRTIMER
 70
     1
  9
$ANGBASE
 50
0.0
  9
$ANGDIR
 70
     0
  9
$PDMODE
 70
     0
  9
$PDSIZE
 40
0.0
  9
$PLINEWID
 40
0.0
  9
$SPLFRAME
 70
     0
  9
$SPLINETYPE
 70
     6
  9
$SPLINESEGS
 70
     8
  9
$HANDSEED
  5
77C
  9
$SURFTAB1
 70
     6
  9
$SURFTAB2
 70
     6
  9
$SURFTYPE
 70
     6
  9
$SURFU
 70
     6
  9
$SURFV
 70
     6
  9
$UCSBASE
  2

  9
$UCSNAME
  2

  9
$UCSORG
 10
-1048.225509390009
 20
1383.842165451777
 30
0.0
  9
$UCSXDIR
 10
1.0
 20
0.0
 30
0.0
  9
$UCSYDIR
 10
0.0
 20
1.0
 30
0.0
  9
$UCSORTHOREF
  2

  9
$UCSORTHOVIEW
 70
     0
  9
$UCSORGTOP
 10
0.0
 20
0.0
 30
0.0
  9
$UCSORGBOTTOM
 10
0.0
 20
0.0
 30
0.0
  9
$UCSORGLEFT
 10
0.0
 20
0.0
 30
0.0
  9
$UCSORGRIGHT
 10
0.0
 20
0.0
 30
0.0
  9
$UCSORGFRONT
 10
0.0
 20
0.0
 30
0.0
  9
$UCSORGBACK
 10
0.0
 20
0.0
 30
0.0
  9
$PUCSBASE
  2

  9
$PUCSNAME
  2

  9
$PUCSORG
 10
0.0
 20
0.0
 30
0.0
  9
$PUCSXDIR
 10
1.0
 20
0.0
 30
0.0
  9
$PUCSYDIR
 10
0.0
 20
1.0
 30
0.0
  9
$PUCSORTHOREF
  2

  9
$PUCSORTHOVIEW
 70
     0
  9
$PUCSORGTOP
 10
0.0
 20
0.0
 30
0.0
  9
$PUCSORGBOTTOM
 10
0.0
 20
0.0
 30
0.0
  9
$PUCSORGLEFT
 10
0.0
 20
0.0
 30
0.0
  9
$PUCSORGRIGHT
 10
0.0
 20
0.0
 30
0.0
  9
$PUCSORGFRONT
 10
0.0
 20
0.0
 30
0.0
  9
$PUCSORGBACK
 10
0.0
 20
0.0
 30
0.0
  9
$USERI1
 70
     0
  9
$USERI2
 70
     0
  9
$USERI3
 70
     0
  9
$USERI4
 70
     0
  9
$USERI5
 70
     0
  9
$USERR1
 40
0.0
  9
$USERR2
 40
0.0
  9
$USERR3
 40
0.0
  9
$USERR4
 40
0.0
  9
$USERR5
 40
0.0
  9
$WORLDVIEW
 70
     1
  9
$SHADEDGE
 70
     3
  9
$SHADEDIF
 70
    70
  9
$TILEMODE
 70
     1
  9
$MAXACTVP
 70
    64
  9
$PINSBASE
 10
0.0
 20
0.0
 30
0.0
  9
$PLIMCHECK
 70
     0
  9
$PEXTMIN
 10
1.000000000000000E+20
 20
1.000000000000000E+20
 30
1.000000000000000E+20
  9
$PEXTMAX
 10
-1.000000000000000E+20
 20
-1.000000000000000E+20
 30
-1.000000000000000E+20
  9
$PLIMMIN
 10
0.0
 20
0.0
  9
$PLIMMAX
 10
420.0
 20
297.0
  9
$UNITMODE
 70
     0
  9
$VISRETAIN
 70
     1
  9
$PLINEGEN
 70
     0
  9
$PSLTSCALE
 70
     1
  9
$TREEDEPTH
 70
  3020
  9
$CMLSTYLE
  2
Standard
  9
$CMLJUST
 70
     0
  9
$CMLSCALE
 40
20.0
  9
$PROXYGRAPHICS
 70
     1
  9
$MEASUREMENT
 70
     1
  9
$CELWEIGHT
370
    -1
  9
$ENDCAPS
280
     0
  9
$JOINSTYLE
280
     0
  9
$LWDISPLAY
290
     0
  9
$INSUNITS
 70
     4
  9
$HYPERLINKBASE
  1

  9
$STYLESHEET
  1

  9
$XEDIT
290
     1
  9
$CEPSNTYPE
380
     0
  9
$PSTYLEMODE
290
     1
  9
$FINGERPRINTGUID
  2
{6D2105AB-7B3E-458A-A661-48281A7438B1}
  9
$VERSIONGUID
  2
{718E6FB3-CA90-472C-860B-7966D96DAFE5}
  9
$EXTNAMES
290
     1
  9
$PSVPSCALE
 40
0.0
  9
$OLESTARTUP
290
     0
  0
ENDSEC
  0
SECTION
  2
CLASSES
  0
CLASS
  1
ACDBDICTIONARYWDFLT
  2
AcDbDictionaryWithDefault
  3
AutoCAD 2000
 90
        0
280
     0
281
     0
  0
CLASS
  1
ACDBPLACEHOLDER
  2
AcDbPlaceHolder
  3
AutoCAD 2000
 90
        0
280
     0
281
     0
  0
CLASS
  1
LAYOUT
  2
AcDbLayout
  3
AutoCAD 2000
 90
        0
280
     0
281
     0
  0
CLASS
  1
DICTIONARYVAR
  2
AcDbDictionaryVar
  3
AutoCAD 2000
 90
        0
280
     0
281
     0
  0
ENDSEC
  0
SECTION
  2
TABLES
  0
TABLE
  2
VPORT
  5
8
330
0
100
AcDbSymbolTable
 70
    20
  0
VPORT
  5
77B
330
8
100
AcDbSymbolTableRecord
100
AcDbViewportTableRecord
  2
*Active
 70
     0
 10
0.0
 20
0.0
 11
1.0
 21
1.0
 12
-883.9330367282299
 22
1333.856558246591
 13
0.0
 23
0.0
 14
10.0
 24
10.0
 15
10.0
 25
10.0
 16
0.0
 26
0.0
 36
1.0
 17
0.0
 27
0.0
 37
0.0
 40
208.6125353462276
 41
1.678729037952338
 42
50.0
 43
0.0
 44
0.0
 50
0.0
 51
0.0
 71
     0
 72
   100
 73
     1
 74
     3
 75
     0
 76
     0
 77
     0
 78
     0
281
     0
 65
     1
110
-1048.225509390009
120
1383.842165451777
130
0.0
111
1.0
121
0.0
131
0.0
112
0.0
122
1.0
132
0.0
 79
     0
146
0.0
  0
ENDTAB
  0
TABLE
  2
LTYPE
  5
5
330
0
100
AcDbSymbolTable
 70
     1
  0
LTYPE
  5
14
330
5
100
AcDbSymbolTableRecord
100
AcDbLinetypeTableRecord
  2
ByBlock
 70
     0
  3

 72
    65
 73
     0
 40
0.0
  0
LTYPE
  5
15
330
5
100
AcDbSymbolTableRecord
100
AcDbLinetypeTableRecord
  2
ByLayer
 70
     0
  3

 72
    65
 73
     0
 40
0.0
  0
LTYPE
  5
16
330
5
100
AcDbSymbolTableRecord
100
AcDbLinetypeTableRecord
  2
Continuous
 70
     0
  3
Solid line
 72
    65
 73
     0
 40
0.0
  0
ENDTAB
  0
TABLE
  2
LAYER
  5
2
102
{ACAD_XDICTIONARY
360
2B
102
}
330
0
100
AcDbSymbolTable
 70
     2
  0
LAYER
  5
10
330
2
100
AcDbSymbolTableRecord
100
AcDbLayerTableRecord
  2
0
 70
     0
 62
     7
  6
Continuous
370
    -3
390
F
  0
LAYER
  5
35
102
{ACAD_XDICTIONARY
360
36
102
}
330
2
100
AcDbSymbolTableRecord
100
AcDbLayerTableRecord
  2
C
 70
     0
 62
     4
  6
Continuous
370
    -3
390
F
  0
ENDTAB
  0
TABLE
  2
STYLE
  5
3
330
0
100
AcDbSymbolTable
 70
     1
  0
STYLE
  5
11
330
3
100
AcDbSymbolTableRecord
100
AcDbTextStyleTableRecord
  2
Standard
 70
     0
 40
0.0
 41
1.0
 50
0.0
 71
     0
 42
2.5
  3
txt
  4

  0
ENDTAB
  0
TABLE
  2
VIEW
  5
6
330
0
100
AcDbSymbolTable
 70
     0
  0
ENDTAB
  0
TABLE
  2
UCS
  5
7
330
0
100
AcDbSymbolTable
 70
     0
  0
ENDTAB
  0
TABLE
  2
APPID
  5
9
330
0
100
AcDbSymbolTable
 70
     1
  0
APPID
  5
12
330
9
100
AcDbSymbolTableRecord
100
AcDbRegAppTableRecord
  2
ACAD
 70
     0
  0
ENDTAB
  0
TABLE
  2
DIMSTYLE
  5
A
330
0
100
AcDbSymbolTable
 70
     1
100
AcDbDimStyleTable
 71
     1
340
27
  0
DIMSTYLE
105
27
330
A
100
AcDbSymbolTableRecord
100
AcDbDimStyleTableRecord
  2
ISO-25
 70
     0
 41
2.5
 42
0.625
 43
3.75
 44
1.25
 73
     0
 74
     0
 77
     1
 78
     8
140
2.5
141
2.5
143
0.03937007874016
147
0.625
171
     3
172
     1
271
     2
272
     2
274
     3
283
     0
284
     8
340
11
  0
ENDTAB
  0
TABLE
  2
BLOCK_RECORD
  5
1
330
0
100
AcDbSymbolTable
 70
     2
  0
BLOCK_RECORD
  5
1F
330
1
100
AcDbSymbolTableRecord
100
AcDbBlockTableRecord
  2
*Model_Space
340
22
  0
BLOCK_RECORD
  5
1B
330
1
100
AcDbSymbolTableRecord
100
AcDbBlockTableRecord
  2
*Paper_Space
340
1E
  0
BLOCK_RECORD
  5
23
330
1
100
AcDbSymbolTableRecord
100
AcDbBlockTableRecord
  2
*Paper_Space0
340
26
  0
ENDTAB
  0
ENDSEC
  0
SECTION
  2
BLOCKS
  0
BLOCK
  5
20
330
1F
100
AcDbEntity
  8
0
100
AcDbBlockBegin
  2
*Model_Space
 70
     0
 10
0.0
 20
0.0
 30
0.0
  3
*Model_Space
  1

  0
ENDBLK
  5
21
330
1F
100
AcDbEntity
  8
0
100
AcDbBlockEnd
  0
BLOCK
  5
1C
330
1B
100
AcDbEntity
 67
     1
  8
0
100
AcDbBlockBegin
  2
*Paper_Space
 70
     0
 10
0.0
 20
0.0
 30
0.0
  3
*Paper_Space
  1

  0
ENDBLK
  5
1D
330
1B
100
AcDbEntity
 67
     1
  8
0
100
AcDbBlockEnd
  0
BLOCK
  5
24
330
23
100
AcDbEntity
  8
0
100
AcDbBlockBegin
  2
*Paper_Space0
 70
     0
 10
0.0
 20
0.0
 30
0.0
  3
*Paper_Space0
  1

  0
ENDBLK
  5
25
330
23
100
AcDbEntity
  8
0
100
AcDbBlockEnd
  0
ENDSEC
  0
SECTION
  2
ENTITIES
  0
LINE
  5
3A7
330
1F
100
AcDbEntity
  8
C
100
AcDbLine
 10
-914.6927252092842
 20
1393.642162774038
 30
0.0
 11
-836.1082777061945
 21
1393.642162774038
 31
0.0
1001
ACAD
1000
RTMaterial
1005
0
  0
LINE
  5
3A8
330
1F
100
AcDbEntity
  8
C
100
AcDbLine
 10
-914.6927252092842
 20
1274.02966549648
 30
0.0
 11
-836.1082777061945
 21
1274.02966549648
 31
0.0
1001
ACAD
1000
RTMaterial
1005
0
  0
LINE
  5
3A9
330
1F
100
AcDbEntity
  8
C
100
AcDbLine
 10
-1058.025517655301
 20
1276.029662099016
 30
0.0
 11
-1058.025517655301
 21
1391.642163377535
 31
0.0
1001
ACAD
1000
RTMaterial
1005
0
  0
LINE
  5
3AA
330
1F
100
AcDbEntity
  8
C
100
AcDbLine
 10
-1029.684896735239
 20
1274.02966549648
 30
0.0
 11
-934.108275143194
 21
1274.02966549648
 31
0.0
1001
ACAD
1000
RTMaterial
1005
0
  0
LINE
  5
3AB
330
1F
100
AcDbEntity
  8
C
100
AcDbLine
 10
-1047.568349671315
 20
1273.315236773622
 30
0.0
 11
-1044.386027069527
 21
1269.522697534692
 31
0.0
1001
ACAD
1000
RTMaterial
1005
0
  0
LINE
  5
3AC
330
1F
100
AcDbEntity
  8
C
100
AcDbLine
 10
-1049.100438520077
 20
1274.02966549648
 30
0.0
 11
-1056.025517327476
 21
1274.02966549648
 31
0.0
1001
ACAD
1000
RTMaterial
1005
0
  0
ARC
  5
3AD
330
1F
100
AcDbEntity
  8
C
100
AcDbCircle
 10
-1056.025517539072
 20
1276.029663982523
 30
0.0
 40
2.0
100
AcDbArc
 50
180.0
 51
270.0
1001
ACAD
1000
RTMaterial
1005
0
  0
ARC
  5
3AE
330
1F
100
AcDbEntity
  8
C
100
AcDbCircle
 10
-1049.100438529415
 20
1272.029663982523
 30
0.0
 40
2.000000000000011
100
AcDbArc
 50
40.00000000002095
 51
89.99999999998697
1001
ACAD
1000
RTMaterial
1005
0
  0
ARC
  5
3AF
330
1F
100
AcDbEntity
  8
C
100
AcDbCircle
 10
-1042.470916059358
 20
1271.129663982522
 30
0.0
 40
2.500000000000003
100
AcDbArc
 50
219.9999999999932
 51
270.0
1001
ACAD
1000
RTMaterial
1005
0
  0
ARC
  5
3B0
330
1F
100
AcDbEntity
  8
C
100
AcDbCircle
 10
-1042.092667539072
 20
1269.629663982522
 30
0.0
 40
1.000000000000001
100
AcDbArc
 50
270.0
 51
0.0
1001
ACAD
1000
RTMaterial
1005
0
  0
ARC
  5
3B1
330
1F
100
AcDbEntity
  8
C
100
AcDbCircle
 10
-1036.692667539073
 20
1269.629663982522
 30
0.0
 40
1.000000000000001
100
AcDbArc
 50
179.9999999999479
 51
270.0
1001
ACAD
1000
RTMaterial
1005
0
  0
ARC
  5
3B2
330
1F
100
AcDbEntity
  8
C
100
AcDbCircle
 10
-1036.314419018784
 20
1271.129663982522
 30
0.0
 40
2.500000000000003
100
AcDbArc
 50
269.999999999987
 51
320.0000000000455
1001
ACAD
1000
RTMaterial
1005
0
  0
LINE
  5
3B3
330
1F
100
AcDbEntity
  8
C
100
AcDbLine
 10
-1042.470915863055
 20
1268.629663493764
 30
0.0
 11
-1042.092667581278
 21
1268.629663493764
 31
0.0
1001
ACAD
1000
RTMaterial
1005
0
  0
LINE
  5
3B4
330
1F
100
AcDbEntity
  8
C
100
AcDbLine
 10
-1036.692667906869
 20
1268.629663493764
 30
0.0
 11
-1036.314418693769
 21
1268.629663493764
 31
0.0
1001
ACAD
1000
RTMaterial
1005
0
  0
LINE
  5
3B5
330
1F
100
AcDbEntity
  8
C
100
AcDbLine
 10
-1031.216985700417
 20
1273.315236773622
 30
0.0
 11
-1034.399307487297
 21
1269.522697534692
 31
0.0
1001
ACAD
1000
RTMaterial
1005
0
  0
ARC
  5
3B6
330
1F
100
AcDbEntity
  8
C
100
AcDbCircle
 10
-1039.392667539071
 20
1271.429665095031
 30
0.0
 40
1.700000000000735
100
AcDbArc
 50
359.999962504647
 51
180.0000374953268
1001
ACAD
1000
RTMaterial
1005
0
  0
LINE
  5
3B7
330
1F
100
AcDbEntity
  8
C
100
AcDbLine
 10
-1041.092667417366
 20
1271.429666187894
 30
0.0
 11
-1041.092667417366
 21
1269.629665520322
 31
0.0
1001
ACAD
1000
RTMaterial
1005
0
  0
LINE
  5
3B8
330
1F
100
AcDbEntity
  8
C
100
AcDbLine
 10
-1037.692667139459
 20
1271.429666187894
 30
0.0
 11
-1037.692667139459
 21
1269.629665520322
 31
0.0
1001
ACAD
1000
RTMaterial
1005
0
  0
ARC
  5
3B9
330
1F
100
AcDbEntity
  8
C
100
AcDbCircle
 10
-1029.684896548735
 20
1272.029663982523
 30
0.0
 40
2.000000000000003
100
AcDbArc
 50
90.00000000005213
 51
140.0000000000455
1001
ACAD
1000
RTMaterial
1005
0
  0
ARC
  5
3BA
330
1F
100
AcDbEntity
  8
C
100
AcDbCircle
 10
-927.4787511581971
 20
1271.129663982522
 30
0.0
 40
2.500000000000023
100
AcDbArc
 50
219.9999999999932
 51
270.0
1001
ACAD
1000
RTMaterial
1005
0
  0
ARC
  5
3BB
330
1F
100
AcDbEntity
  8
C
100
AcDbCircle
 10
-927.1005026379121
 20
1269.629663982522
 30
0.0
 40
1.000000000000001
100
AcDbArc
 50
270.0
 51
0.0
1001
ACAD
1000
RTMaterial
1005
0
  0
ARC
  5
3BC
330
1F
100
AcDbEntity
  8
C
100
AcDbCircle
 10
-924.4005026379113
 20
1270.129663982522
 30
0.0
 40
1.700000000000006
100
AcDbArc
 50
359.9999999999478
 51
180.0
1001
ACAD
1000
RTMaterial
1005
0
  0
ARC
  5
3BD
330
1F
100
AcDbEntity
  8
C
100
AcDbCircle
 10
-921.7005026379123
 20
1269.629663982522
 30
0.0
 40
1.000000000000001
100
AcDbArc
 50
179.9999999999479
 51
270.0
1001
ACAD
1000
RTMaterial
1005
0
  0
ARC
  5
3BE
330
1F
100
AcDbEntity
  8
C
100
AcDbCircle
 10
-921.3222541176241
 20
1271.129663982522
 30
0.0
 40
2.500000000000003
100
AcDbArc
 50
269.999999999987
 51
320.0000000000455
1001
ACAD
1000
RTMaterial
1005
0
  0
LINE
  5
3BF
330
1F
100
AcDbEntity
  8
C
100
AcDbLine
 10
-927.4787485280521
 20
1268.629663493764
 30
0.0
 11
-927.1005049028872
 21
1268.629663493764
 31
0.0
1001
ACAD
1000
RTMaterial
1005
0
  0
LINE
  5
3C0
330
1F
100
AcDbEntity
  8
C
100
AcDbLine
 10
-921.7005029001711
 20
1268.629663493764
 30
0.0
 11
-921.3222518244272
 21
1268.629663493764
 31
0.0
1001
ACAD
1000
RTMaterial
1005
0
  0
LINE
  5
3C1
330
1F
100
AcDbEntity
  8
C
100
AcDbLine
 10
-932.5761824527271
 20
1273.315236773622
 30
0.0
 11
-929.3938606658462
 21
1269.522697534692
 31
0.0
1001
ACAD
1000
RTMaterial
1005
0
  0
ARC
  5
3C2
330
1F
100
AcDbEntity
  8
C
100
AcDbCircle
 10
-934.1082736282542
 20
1272.029663982523
 30
0.0
 40
2.000000000000003
100
AcDbArc
 50
40.00000000004867
 51
90.0
1001
ACAD
1000
RTMaterial
1005
0
  0
LINE
  5
3C3
330
1F
100
AcDbEntity
  8
C
100
AcDbLine
 10
-926.1005028763301
 20
1270.129666187894
 30
0.0
 11
-926.1005028763301
 21
1269.629665520322
 31
0.0
1001
ACAD
1000
RTMaterial
1005
0
  0
LINE
  5
3C4
330
1F
100
AcDbEntity
  8
C
100
AcDbLine
 10
-916.2248178997522
 20
1273.315236773622
 30
0.0
 11
-919.4071396866322
 21
1269.522697534692
 31
0.0
1001
ACAD
1000
RTMaterial
1005
0
  0
LINE
  5
3C5
330
1F
100
AcDbEntity
  8
C
100
AcDbLine
 10
-922.700504926729
 20
1270.129666187894
 30
0.0
 11
-922.700504926729
 21
1269.629665520322
 31
0.0
1001
ACAD
1000
RTMaterial
1005
0
  0
ARC
  5
3C6
330
1F
100
AcDbEntity
  8
C
100
AcDbCircle
 10
-914.6927316475762
 20
1272.029663982523
 30
0.0
 40
2.000000000000011
100
AcDbArc
 50
90.0
 51
140.0000000000455
1001
ACAD
1000
RTMaterial
1005
0
  0
LINE
  5
3C7
330
1F
100
AcDbEntity
  8
C
100
AcDbLine
 10
-1029.684896735239
 20
1393.642162774038
 30
0.0
 11
-934.108275143194
 21
1393.642162774038
 31
0.0
1001
ACAD
1000
RTMaterial
1005
0
  0
LINE
  5
3C8
330
1F
100
AcDbEntity
  8
C
100
AcDbLine
 10
-1047.568349671315
 20
1394.356587771605
 30
0.0
 11
-1044.386027069527
 21
1398.149132598471
 31
0.0
1001
ACAD
1000
RTMaterial
1005
0
  0
LINE
  5
3C9
330
1F
100
AcDbEntity
  8
C
100
AcDbLine
 10
-1049.100438520077
 20
1393.642162774038
 30
0.0
 11
-1056.025517327476
 21
1393.642162774038
 31
0.0
1001
ACAD
1000
RTMaterial
1005
0
  0
ARC
  5
3CA
330
1F
100
AcDbEntity
  8
C
100
AcDbCircle
 10
-1056.025517539072
 20
1391.64216319574
 30
0.0
 40
2.0
100
AcDbArc
 50
90.0
 51
180.0
1001
ACAD
1000
RTMaterial
1005
0
  0
ARC
  5
3CB
330
1F
100
AcDbEntity
  8
C
100
AcDbCircle
 10
-1049.100438529414
 20
1395.64216319574
 30
0.0
 40
2.0
100
AcDbArc
 50
270.0
 51
319.9999999999513
1001
ACAD
1000
RTMaterial
1005
0
  0
LINE
  5
3CC
330
1F
100
AcDbEntity
  8
C
100
AcDbLine
 10
-1031.216985700417
 20
1394.356587771605
 30
0.0
 11
-1034.399307487297
 21
1398.149132598471
 31
0.0
1001
ACAD
1000
RTMaterial
1005
0
  0
ARC
  5
3CD
330
1F
100
AcDbEntity
  8
C
100
AcDbCircle
 10
-1039.392667539072
 20
1396.242162084031
 30
0.0
 40
1.700000000000735
100
AcDbArc
 50
179.999962531588
 51
0.0000374684640708
1001
ACAD
1000
RTMaterial
1005
0
  0
ARC
  5
3CE
330
1F
100
AcDbEntity
  8
C
100
AcDbCircle
 10
-1042.470916059357
 20
1396.542163195741
 30
0.0
 40
2.500000000000003
100
AcDbArc
 50
90.0
 51
140.0000000000067
1001
ACAD
1000
RTMaterial
1005
0
  0
LINE
  5
3CF
330
1F
100
AcDbEntity
  8
C
100
AcDbLine
 10
-1041.092667417366
 20
1396.242163013947
 30
0.0
 11
-1041.092667417366
 21
1398.042162750195
 31
0.0
1001
ACAD
1000
RTMaterial
1005
0
  0
ARC
  5
3D0
330
1F
100
AcDbEntity
  8
C
100
AcDbCircle
 10
-1042.092667539072
 20
1398.042163195741
 30
0.0
 40
1.0
100
AcDbArc
 50
0.0
 51
90.0
1001
ACAD
1000
RTMaterial
1005
0
  0
LINE
  5
3D1
330
1F
100
AcDbEntity
  8
C
100
AcDbLine
 10
-1042.470915863055
 20
1399.042162914109
 30
0.0
 11
-1042.092667581278
 21
1399.042162914109
 31
0.0
1001
ACAD
1000
RTMaterial
1005
0
  0
ARC
  5
3D2
330
1F
100
AcDbEntity
  8
C
100
AcDbCircle
 10
-1036.692667539072
 20
1398.042163195741
 30
0.0
 40
1.0
100
AcDbArc
 50
90.0
 51
180.000000000052
1001
ACAD
1000
RTMaterial
1005
0
  0
LINE
  5
3D3
330
1F
100
AcDbEntity
  8
C
100
AcDbLine
 10
-1037.692667139459
 20
1396.242163013947
 30
0.0
 11
-1037.692667139459
 21
1398.042162750195
 31
0.0
1001
ACAD
1000
RTMaterial
1005
0
  0
ARC
  5
3D4
330
1F
100
AcDbEntity
  8
C
100
AcDbCircle
 10
-1036.314419018784
 20
1396.542163195741
 30
0.0
 40
2.500000000000019
100
AcDbArc
 50
39.99999999995443
 51
90.0
1001
ACAD
1000
RTMaterial
1005
0
  0
LINE
  5
3D5
330
1F
100
AcDbEntity
  8
C
100
AcDbLine
 10
-1036.692667906869
 20
1399.042162914109
 30
0.0
 11
-1036.314418693769
 21
1399.042162914109
 31
0.0
1001
ACAD
1000
RTMaterial
1005
0
  0
ARC
  5
3D6
330
1F
100
AcDbEntity
  8
C
100
AcDbCircle
 10
-1029.684896548735
 20
1395.642163195741
 30
0.0
 40
2.0
100
AcDbArc
 50
219.9999999999544
 51
269.9999999999478
1001
ACAD
1000
RTMaterial
1005
0
  0
ARC
  5
3D7
330
1F
100
AcDbEntity
  8
C
100
AcDbCircle
 10
-924.4005026379113
 20
1396.242163195741
 30
0.0
 40
1.700000000000006
100
AcDbArc
 50
180.0
 51
0.0000000000521102
1001
ACAD
1000
RTMaterial
1005
0
  0
LINE
  5
3D8
330
1F
100
AcDbEntity
  8
C
100
AcDbLine
 10
-932.5761824527271
 20
1394.356587771605
 30
0.0
 11
-929.3938606658462
 21
1398.149132598471
 31
0.0
1001
ACAD
1000
RTMaterial
1005
0
  0
ARC
  5
3D9
330
1F
100
AcDbEntity
  8
C
100
AcDbCircle
 10
-934.1082736282542
 20
1395.64216319574
 30
0.0
 40
2.0
100
AcDbArc
 50
270.0
 51
319.9999999999513
1001
ACAD
1000
RTMaterial
1005
0
  0
ARC
  5
3DA
330
1F
100
AcDbEntity
  8
C
100
AcDbCircle
 10
-927.1005026379121
 20
1398.042163195741
 30
0.0
 40
1.0
100
AcDbArc
 50
0.0
 51
90.0
1001
ACAD
1000
RTMaterial
1005
0
  0
LINE
  5
3DB
330
1F
100
AcDbEntity
  8
C
100
AcDbLine
 10
-927.4787485280521
 20
1399.042162914109
 30
0.0
 11
-927.1005049028872
 21
1399.042162914109
 31
0.0
1001
ACAD
1000
RTMaterial
1005
0
  0
ARC
  5
3DC
330
1F
100
AcDbEntity
  8
C
100
AcDbCircle
 10
-927.4787511581971
 20
1396.542163195741
 30
0.0
 40
2.5
100
AcDbArc
 50
90.0
 51
140.0000000000067
1001
ACAD
1000
RTMaterial
1005
0
  0
LINE
  5
3DD
330
1F
100
AcDbEntity
  8
C
100
AcDbLine
 10
-926.1005028763301
 20
1396.242163013947
 30
0.0
 11
-926.1005028763301
 21
1398.042162750195
 31
0.0
1001
ACAD
1000
RTMaterial
1005
0
  0
LINE
  5
3DE
330
1F
100
AcDbEntity
  8
C
100
AcDbLine
 10
-916.2248178997522
 20
1394.356587771605
 30
0.0
 11
-919.4071396866322
 21
1398.149132598471
 31
0.0
1001
ACAD
1000
RTMaterial
1005
0
  0
ARC
  5
3DF
330
1F
100
AcDbEntity
  8
C
100
AcDbCircle
 10
-914.6927316475762
 20
1395.642163195741
 30
0.0
 40
2.0
100
AcDbArc
 50
219.9999999999544
 51
270.0
1001
ACAD
1000
RTMaterial
1005
0
  0
ARC
  5
3E0
330
1F
100
AcDbEntity
  8
C
100
AcDbCircle
 10
-921.3222541176241
 20
1396.542163195741
 30
0.0
 40
2.500000000000019
100
AcDbArc
 50
39.99999999995443
 51
90.0
1001
ACAD
1000
RTMaterial
1005
0
  0
LINE
  5
3E1
330
1F
100
AcDbEntity
  8
C
100
AcDbLine
 10
-921.7005029001711
 20
1399.042162914109
 30
0.0
 11
-921.3222518244272
 21
1399.042162914109
 31
0.0
1001
ACAD
1000
RTMaterial
1005
0
  0
ARC
  5
3E2
330
1F
100
AcDbEntity
  8
C
100
AcDbCircle
 10
-921.7005026379123
 20
1398.042163195741
 30
0.0
 40
1.0
100
AcDbArc
 50
90.0
 51
180.000000000052
1001
ACAD
1000
RTMaterial
1005
0
  0
LINE
  5
3E3
330
1F
100
AcDbEntity
  8
C
100
AcDbLine
 10
-922.700504926729
 20
1396.242163013947
 30
0.0
 11
-922.700504926729
 21
1398.042162750195
 31
0.0
1001
ACAD
1000
RTMaterial
1005
0
  0
LINE
  5
3E4
330
1F
100
AcDbEntity
  8
C
100
AcDbLine
 10
-709.8130091705804
 20
1276.029662099016
 30
0.0
 11
-709.8130091705804
 21
1391.642163377535
 31
0.0
1001
ACAD
1000
RTMaterial
1005
0
  0
LINE
  5
3E5
330
1F
100
AcDbEntity
  8
C
100
AcDbLine
 10
-816.6927352228645
 20
1274.02966549648
 30
0.0
 11
-738.1536170521264
 21
1274.02966549648
 31
0.0
1001
ACAD
1000
RTMaterial
1005
0
  0
ARC
  5
3E6
330
1F
100
AcDbEntity
  8
C
100
AcDbCircle
 10
-826.4005026379113
 20
1271.429663982522
 30
0.0
 40
1.700000000000017
100
AcDbArc
 50
0.0
 51
180.000000000052
1001
ACAD
1000
RTMaterial
1005
0
  0
ARC
  5
3E7
330
1F
100
AcDbEntity
  8
C
100
AcDbCircle
 10
-829.4787511581992
 20
1271.129663982522
 30
0.0
 40
2.500000000000003
100
AcDbArc
 50
219.9999999999544
 51
270.000000000013
1001
ACAD
1000
RTMaterial
1005
0
  0
ARC
  5
3E8
330
1F
100
AcDbEntity
  8
C
100
AcDbCircle
 10
-829.1005026379103
 20
1269.629663982522
 30
0.0
 40
1.000000000000001
100
AcDbArc
 50
270.0
 51
0.0000000000521102
1001
ACAD
1000
RTMaterial
1005
0
  0
LINE
  5
3E9
330
1F
100
AcDbEntity
  8
C
100
AcDbLine
 10
-829.1005000153072
 20
1268.629663493764
 30
0.0
 11
-829.4787510910511
 21
1268.629663493764
 31
0.0
1001
ACAD
1000
RTMaterial
1005
0
  0
LINE
  5
3EA
330
1F
100
AcDbEntity
  8
C
100
AcDbLine
 10
-834.5761850157261
 20
1273.315236773622
 30
0.0
 11
-831.3938632288461
 21
1269.522697534692
 31
0.0
1001
ACAD
1000
RTMaterial
1005
0
  0
ARC
  5
3EB
330
1F
100
AcDbEntity
  8
C
100
AcDbCircle
 10
-836.1082736282492
 20
1272.029663982523
 30
0.0
 40
2.000000000000011
100
AcDbArc
 50
39.99999999995443
 51
89.99999999994789
1001
ACAD
1000
RTMaterial
1005
0
  0
LINE
  5
3EC
330
1F
100
AcDbEntity
  8
C
100
AcDbLine
 10
-828.1004979887494
 20
1271.429666187894
 30
0.0
 11
-828.1004979887494
 21
1269.629665520322
 31
0.0
1001
ACAD
1000
RTMaterial
1005
0
  0
ARC
  5
3ED
330
1F
100
AcDbEntity
  8
C
100
AcDbCircle
 10
-823.7005026379101
 20
1269.629663982522
 30
0.0
 40
1.000000000000001
100
AcDbArc
 50
180.0
 51
270.0
1001
ACAD
1000
RTMaterial
1005
0
  0
ARC
  5
3EE
330
1F
100
AcDbEntity
  8
C
100
AcDbCircle
 10
-823.3222541176251
 20
1271.129663982522
 30
0.0
 40
2.500000000000003
100
AcDbArc
 50
270.0
 51
320.0000000000067
1001
ACAD
1000
RTMaterial
1005
0
  0
LINE
  5
3EF
330
1F
100
AcDbEntity
  8
C
100
AcDbLine
 10
-823.3222469368461
 20
1268.629663493764
 30
0.0
 11
-823.7004980125911
 21
1268.629663493764
 31
0.0
1001
ACAD
1000
RTMaterial
1005
0
  0
LINE
  5
3F0
330
1F
100
AcDbEntity
  8
C
100
AcDbLine
 10
-818.2248279133323
 20
1273.315236773622
 30
0.0
 11
-821.4071497002132
 21
1269.522697534692
 31
0.0
1001
ACAD
1000
RTMaterial
1005
0
  0
LINE
  5
3F1
330
1F
100
AcDbEntity
  8
C
100
AcDbLine
 10
-824.7005000391482
 20
1271.429666187894
 30
0.0
 11
-824.7005000391482
 21
1269.629665520322
 31
0.0
1001
ACAD
1000
RTMaterial
1005
0
  0
ARC
  5
3F2
330
1F
100
AcDbEntity
  8
C
100
AcDbCircle
 10
-816.6927316475691
 20
1272.029663982523
 30
0.0
 40
2.000000000000078
100
AcDbArc
 50
90.0
 51
139.9999999999513
1001
ACAD
1000
RTMaterial
1005
0
  0
LINE
  5
3F3
330
1F
100
AcDbEntity
  8
C
100
AcDbLine
 10
-718.7380894699582
 20
1274.02966549648
 30
0.0
 11
-711.8130132236963
 21
1274.02966549648
 31
0.0
1001
ACAD
1000
RTMaterial
1005
0
  0
ARC
  5
3F4
330
1F
100
AcDbEntity
  8
C
100
AcDbCircle
 10
-731.5241011581991
 20
1271.129663982522
 30
0.0
 40
2.500000000000003
100
AcDbArc
 50
219.9999999999544
 51
270.000000000013
1001
ACAD
1000
RTMaterial
1005
0
  0
ARC
  5
3F5
330
1F
100
AcDbEntity
  8
C
100
AcDbCircle
 10
-731.1458526379111
 20
1269.629663982522
 30
0.0
 40
1.000000000000001
100
AcDbArc
 50
270.0
 51
0.0000000000521102
1001
ACAD
1000
RTMaterial
1005
0
  0
ARC
  5
3F6
330
1F
100
AcDbEntity
  8
C
100
AcDbCircle
 10
-725.7458526379113
 20
1269.629663982522
 30
0.0
 40
1.000000000000001
100
AcDbArc
 50
180.0
 51
270.0
1001
ACAD
1000
RTMaterial
1005
0
  0
ARC
  5
3F7
330
1F
100
AcDbEntity
  8
C
100
AcDbCircle
 10
-725.3676041176261
 20
1271.129663982522
 30
0.0
 40
2.500000000000071
100
AcDbArc
 50
270.0
 51
320.0000000000067
1001
ACAD
1000
RTMaterial
1005
0
  0
LINE
  5
3F8
330
1F
100
AcDbEntity
  8
C
100
AcDbLine
 10
-731.1458393612394
 20
1268.629663493764
 30
0.0
 11
-731.524090436983
 21
1268.629663493764
 31
0.0
1001
ACAD
1000
RTMaterial
1005
0
  0
LINE
  5
3F9
330
1F
100
AcDbEntity
  8
C
100
AcDbLine
 10
-725.3676160851001
 20
1268.629663493764
 30
0.0
 11
-725.7458671608453
 21
1268.629663493764
 31
0.0
1001
ACAD
1000
RTMaterial
1005
0
  0
ARC
  5
3FA
330
1F
100
AcDbEntity
  8
C
100
AcDbCircle
 10
-738.1536236282495
 20
1272.029663982523
 30
0.0
 40
2.000000000000019
100
AcDbArc
 50
39.99999999995443
 51
89.99999999994789
1001
ACAD
1000
RTMaterial
1005
0
  0
LINE
  5
3FB
330
1F
100
AcDbEntity
  8
C
100
AcDbLine
 10
-736.6215392628192
 20
1273.315236773622
 30
0.0
 11
-733.4392174759394
 21
1269.522697534692
 31
0.0
1001
ACAD
1000
RTMaterial
1005
0
  0
ARC
  5
3FC
330
1F
100
AcDbEntity
  8
C
100
AcDbCircle
 10
-728.4458526379109
 20
1271.429665086012
 30
0.0
 40
1.700000000000744
100
AcDbArc
 50
359.9999628086059
 51
180.0000371914201
1001
ACAD
1000
RTMaterial
1005
0
  0
LINE
  5
3FD
330
1F
100
AcDbEntity
  8
C
100
AcDbLine
 10
-730.1458522358423
 20
1271.429666187894
 30
0.0
 11
-730.1458522358423
 21
1269.629665520322
 31
0.0
1001
ACAD
1000
RTMaterial
1005
0
  0
LINE
  5
3FE
330
1F
100
AcDbEntity
  8
C
100
AcDbLine
 10
-726.7458542862421
 20
1271.429666187894
 30
0.0
 11
-726.7458542862421
 21
1269.629665520322
 31
0.0
1001
ACAD
1000
RTMaterial
1005
0
  0
LINE
  5
3FF
330
1F
100
AcDbEntity
  8
C
100
AcDbLine
 10
-720.2701672592643
 20
1273.315236773622
 30
0.0
 11
-723.4524890461454
 21
1269.522697534692
 31
0.0
1001
ACAD
1000
RTMaterial
1005
0
  0
ARC
  5
400
330
1F
100
AcDbEntity
  8
C
100
AcDbCircle
 10
-718.7380816475694
 20
1272.029663982523
 30
0.0
 40
2.000000000000003
100
AcDbArc
 50
90.00000000001303
 51
139.999999999979
1001
ACAD
1000
RTMaterial
1005
0
  0
ARC
  5
401
330
1F
100
AcDbEntity
  8
C
100
AcDbCircle
 10
-711.8130026379125
 20
1276.029663982523
 30
0.0
 40
2.0
100
AcDbArc
 50
270.0
 51
0.0
1001
ACAD
1000
RTMaterial
1005
0
  0
LINE
  5
402
330
1F
100
AcDbEntity
  8
C
100
AcDbLine
 10
-773.1192513981341
 20
1390.442163377535
 30
0.0
 11
-766.1192521133904
 21
1390.442163377535
 31
0.0
1001
ACAD
1000
RTMaterial
1005
0
  0
ARC
  5
403
330
1F
100
AcDbEntity
  8
C
100
AcDbCircle
 10
-826.4005026379113
 20
1396.242163195741
 30
0.0
 40
1.700000000000017
100
AcDbArc
 50
179.9999999999479
 51
0.0
1001
ACAD
1000
RTMaterial
1005
0
  0
LINE
  5
404
330
1F
100
AcDbEntity
  8
C
100
AcDbLine
 10
-834.5761850157261
 20
1394.356587771605
 30
0.0
 11
-831.3938632288461
 21
1398.149132598471
 31
0.0
1001
ACAD
1000
RTMaterial
1005
0
  0
ARC
  5
405
330
1F
100
AcDbEntity
  8
C
100
AcDbCircle
 10
-836.1082736282492
 20
1395.642163195741
 30
0.0
 40
2.000000000000031
100
AcDbArc
 50
270.0000000000521
 51
320.0000000000455
1001
ACAD
1000
RTMaterial
1005
0
  0
ARC
  5
406
330
1F
100
AcDbEntity
  8
C
100
AcDbCircle
 10
-829.4787511581992
 20
1396.542163195741
 30
0.0
 40
2.5
100
AcDbArc
 50
90.0
 51
140.0000000000455
1001
ACAD
1000
RTMaterial
1005
0
  0
LINE
  5
407
330
1F
100
AcDbEntity
  8
C
100
AcDbLine
 10
-828.1004979887494
 20
1396.242163013947
 30
0.0
 11
-828.1004979887494
 21
1398.042162750195
 31
0.0
1001
ACAD
1000
RTMaterial
1005
0
  0
ARC
  5
408
330
1F
100
AcDbEntity
  8
C
100
AcDbCircle
 10
-829.1005026379103
 20
1398.042163195741
 30
0.0
 40
1.0
100
AcDbArc
 50
359.9999999999478
 51
90.0
1001
ACAD
1000
RTMaterial
1005
0
  0
LINE
  5
409
330
1F
100
AcDbEntity
  8
C
100
AcDbLine
 10
-829.1005000153072
 20
1399.042162914109
 30
0.0
 11
-829.4787510910511
 21
1399.042162914109
 31
0.0
1001
ACAD
1000
RTMaterial
1005
0
  0
LINE
  5
40A
330
1F
100
AcDbEntity
  8
C
100
AcDbLine
 10
-816.6927352228645
 20
1393.642162774038
 30
0.0
 11
-775.1192554512503
 21
1393.642162774038
 31
0.0
1001
ACAD
1000
RTMaterial
1005
0
  0
LINE
  5
40B
330
1F
100
AcDbEntity
  8
C
100
AcDbLine
 10
-818.2248279133323
 20
1394.356587771605
 30
0.0
 11
-821.4071497002132
 21
1398.149132598471
 31
0.0
1001
ACAD
1000
RTMaterial
1005
0
  0
ARC
  5
40C
330
1F
100
AcDbEntity
  8
C
100
AcDbCircle
 10
-816.6927316475682
 20
1395.64216319574
 30
0.0
 40
2.0
100
AcDbArc
 50
220.0000000000209
 51
269.999999999987
1001
ACAD
1000
RTMaterial
1005
0
  0
LINE
  5
40D
330
1F
100
AcDbEntity
  8
C
100
AcDbLine
 10
-823.3222469368461
 20
1399.042162914109
 30
0.0
 11
-823.7004980125911
 21
1399.042162914109
 31
0.0
1001
ACAD
1000
RTMaterial
1005
0
  0
ARC
  5
40E
330
1F
100
AcDbEntity
  8
C
100
AcDbCircle
 10
-823.7005026379101
 20
1398.042163195741
 30
0.0
 40
1.0
100
AcDbArc
 50
90.0
 51
180.0
1001
ACAD
1000
RTMaterial
1005
0
  0
LINE
  5
40F
330
1F
100
AcDbEntity
  8
C
100
AcDbLine
 10
-824.7005000391482
 20
1396.242163013947
 30
0.0
 11
-824.7005000391482
 21
1398.042162750195
 31
0.0
1001
ACAD
1000
RTMaterial
1005
0
  0
ARC
  5
410
330
1F
100
AcDbEntity
  8
C
100
AcDbCircle
 10
-823.3222541176251
 20
1396.542163195741
 30
0.0
 40
2.500000000000041
100
AcDbArc
 50
39.99999999999321
 51
90.0
1001
ACAD
1000
RTMaterial
1005
0
  0
ARC
  5
411
330
1F
100
AcDbEntity
  8
C
100
AcDbCircle
 10
-773.1192526379111
 20
1391.442163195741
 30
0.0
 40
1.0
100
AcDbArc
 50
180.0
 51
270.0
1001
ACAD
1000
RTMaterial
1005
0
  0
LINE
  5
412
330
1F
100
AcDbEntity
  8
C
100
AcDbLine
 10
-774.1192526379111
 20
1391.442163195741
 30
0.0
 11
-774.1192526379111
 21
1392.642163195741
 31
0.0
1001
ACAD
1000
RTMaterial
1005
0
  0
ARC
  5
413
330
1F
100
AcDbEntity
  8
C
100
AcDbCircle
 10
-775.1192526379111
 20
1392.642163195741
 30
0.0
 40
1.0
100
AcDbArc
 50
0.0
 51
90.0
1001
ACAD
1000
RTMaterial
1005
0
  0
LINE
  5
414
330
1F
100
AcDbEntity
  8
C
100
AcDbLine
 10
-718.7380894699582
 20
1393.642162774038
 30
0.0
 11
-711.8130132236963
 21
1393.642162774038
 31
0.0
1001
ACAD
1000
RTMaterial
1005
0
  0
LINE
  5
415
330
1F
100
AcDbEntity
  8
C
100
AcDbLine
 10
-764.119248060274
 20
1393.642162774038
 30
0.0
 11
-738.1536170521264
 21
1393.642162774038
 31
0.0
1001
ACAD
1000
RTMaterial
1005
0
  0
ARC
  5
416
330
1F
100
AcDbEntity
  8
C
100
AcDbCircle
 10
-764.1192526379112
 20
1392.642163195741
 30
0.0
 40
1.0
100
AcDbArc
 50
90.0
 51
180.0
1001
ACAD
1000
RTMaterial
1005
0
  0
ARC
  5
417
330
1F
100
AcDbEntity
  8
C
100
AcDbCircle
 10
-766.1192526379112
 20
1391.442163195741
 30
0.0
 40
1.0
100
AcDbArc
 50
270.0
 51
0.0
1001
ACAD
1000
RTMaterial
1005
0
  0
LINE
  5
418
330
1F
100
AcDbEntity
  8
C
100
AcDbLine
 10
-765.1192526379111
 20
1392.642163195741
 30
0.0
 11
-765.1192526379111
 21
1391.442163195741
 31
0.0
1001
ACAD
1000
RTMaterial
1005
0
  0
ARC
  5
419
330
1F
100
AcDbEntity
  8
C
100
AcDbCircle
 10
-730.6458526379111
 20
1398.54216319574
 30
0.0
 40
0.5
100
AcDbArc
 50
359.9999999999739
 51
90.0
1001
ACAD
1000
RTMaterial
1005
0
  0
LINE
  5
41A
330
1F
100
AcDbEntity
  8
C
100
AcDbLine
 10
-736.6215392628192
 20
1394.356587771605
 30
0.0
 11
-733.4392174759394
 21
1398.149132598471
 31
0.0
1001
ACAD
1000
RTMaterial
1005
0
  0
ARC
  5
41B
330
1F
100
AcDbEntity
  8
C
100
AcDbCircle
 10
-738.1536236282495
 20
1395.642163195741
 30
0.0
 40
2.000000000000006
100
AcDbArc
 50
270.0000000000521
 51
320.0000000000455
1001
ACAD
1000
RTMaterial
1005
0
  0
LINE
  5
41C
330
1F
100
AcDbEntity
  8
C
100
AcDbLine
 10
-730.6458457985406
 20
1399.042162914109
 30
0.0
 11
-731.524090436983
 21
1399.042162914109
 31
0.0
1001
ACAD
1000
RTMaterial
1005
0
  0
ARC
  5
41D
330
1F
100
AcDbEntity
  8
C
100
AcDbCircle
 10
-731.5241011581991
 20
1396.542163195741
 30
0.0
 40
2.5
100
AcDbArc
 50
90.0
 51
140.0000000000455
1001
ACAD
1000
RTMaterial
1005
0
  0
LINE
  5
41E
330
1F
100
AcDbEntity
  8
C
100
AcDbLine
 10
-720.2701672592643
 20
1394.356587771605
 30
0.0
 11
-723.4524890461454
 21
1398.149132598471
 31
0.0
1001
ACAD
1000
RTMaterial
1005
0
  0
ARC
  5
41F
330
1F
100
AcDbEntity
  8
C
100
AcDbCircle
 10
-728.4458526379125
 20
1396.24216209225
 30
0.0
 40
1.700000000000744
100
AcDbArc
 50
179.9999628085798
 51
0.0000371913940954
1001
ACAD
1000
RTMaterial
1005
0
  0
ARC
  5
420
330
1F
100
AcDbEntity
  8
C
100
AcDbCircle
 10
-718.7380816475694
 20
1395.64216319574
 30
0.0
 40
2.000000000000003
100
AcDbArc
 50
220.0000000000209
 51
269.999999999987
1001
ACAD
1000
RTMaterial
1005
0
  0
ARC
  5
421
330
1F
100
AcDbEntity
  8
C
100
AcDbCircle
 10
-725.3676041176261
 20
1396.542163195741
 30
0.0
 40
2.500000000000028
100
AcDbArc
 50
39.99999999999321
 51
90.0
1001
ACAD
1000
RTMaterial
1005
0
  0
LINE
  5
422
330
1F
100
AcDbEntity
  8
C
100
AcDbLine
 10
-730.1458522358423
 20
1396.242163013947
 30
0.0
 11
-730.1458522358423
 21
1398.542162832153
 31
0.0
1001
ACAD
1000
RTMaterial
1005
0
  0
LINE
  5
423
330
1F
100
AcDbEntity
  8
C
100
AcDbLine
 10
-725.3676160851001
 20
1399.042162914109
 30
0.0
 11
-726.2458607235431
 21
1399.042162914109
 31
0.0
1001
ACAD
1000
RTMaterial
1005
0
  0
ARC
  5
424
330
1F
100
AcDbEntity
  8
C
100
AcDbCircle
 10
-726.2458526379113
 20
1398.54216319574
 30
0.0
 40
0.5
100
AcDbArc
 50
90.0
 51
180.0
1001
ACAD
1000
RTMaterial
1005
0
  0
LINE
  5
425
330
1F
100
AcDbEntity
  8
C
100
AcDbLine
 10
-726.7458542862421
 20
1396.242163013947
 30
0.0
 11
-726.7458542862421
 21
1398.542162832153
 31
0.0
1001
ACAD
1000
RTMaterial
1005
0
  0
ARC
  5
426
330
1F
100
AcDbEntity
  8
C
100
AcDbCircle
 10
-711.8130026379125
 20
1391.64216319574
 30
0.0
 40
2.0
100
AcDbArc
 50
0.0
 51
90.0
1001
ACAD
1000
RTMaterial
1005
0
  0
LINE
  5
427
330
1F
100
AcDbEntity
  8
C
100
AcDbLine
 10
-1054.555509390009
 20
1390.872165451777
 30
0.0
 11
-1041.895509390009
 21
1390.872165451777
 31
0.0
  0
LINE
  5
428
330
1F
100
AcDbEntity
  8
C
100
AcDbLine
 10
-1054.555509390009
 20
1376.812165451777
 30
0.0
 11
-1041.895509390009
 21
1376.812165451777
 31
0.0
  0
LINE
  5
429
330
1F
100
AcDbEntity
  8
C
100
AcDbLine
 10
-1041.195509390009
 20
1390.172165451777
 30
0.0
 11
-1041.195509390009
 21
1377.512165451777
 31
0.0
  0
LINE
  5
42A
330
1F
100
AcDbEntity
  8
C
100
AcDbLine
 10
-1055.255509390009
 20
1390.172165451777
 30
0.0
 11
-1055.255509390009
 21
1377.512165451777
 31
0.0
  0
ARC
  5
42B
330
1F
100
AcDbEntity
  8
C
100
AcDbCircle
 10
-1041.895509390009
 20
1377.512165451777
 30
0.0
 40
0.7
100
AcDbArc
 50
270.0
 51
0.0
  0
ARC
  5
42C
330
1F
100
AcDbEntity
  8
C
100
AcDbCircle
 10
-1054.555509390009
 20
1377.512165451777
 30
0.0
 40
0.7
100
AcDbArc
 50
180.0
 51
270.0
  0
ARC
  5
42D
330
1F
100
AcDbEntity
  8
C
100
AcDbCircle
 10
-1054.555509390009
 20
1390.172165451777
 30
0.0
 40
0.7
100
AcDbArc
 50
90.0
 51
180.0
  0
ARC
  5
42E
330
1F
100
AcDbEntity
  8
C
100
AcDbCircle
 10
-1041.895509390009
 20
1390.172165451777
 30
0.0
 40
0.7
100
AcDbArc
 50
0.0
 51
90.0
  0
LINE
  5
42F
330
1F
100
AcDbEntity
  8
C
100
AcDbLine
 10
-1016.455509390008
 20
1390.872165451777
 30
0.0
 11
-1003.795509390009
 21
1390.872165451777
 31
0.0
  0
LINE
  5
430
330
1F
100
AcDbEntity
  8
C
100
AcDbLine
 10
-1016.455509390008
 20
1376.812165451777
 30
0.0
 11
-1003.795509390009
 21
1376.812165451777
 31
0.0
  0
LINE
  5
431
330
1F
100
AcDbEntity
  8
C
100
AcDbLine
 10
-1003.095509390008
 20
1390.172165451777
 30
0.0
 11
-1003.095509390008
 21
1377.512165451777
 31
0.0
  0
LINE
  5
432
330
1F
100
AcDbEntity
  8
C
100
AcDbLine
 10
-1017.155509390008
 20
1390.172165451777
 30
0.0
 11
-1017.155509390008
 21
1377.512165451777
 31
0.0
  0
ARC
  5
433
330
1F
100
AcDbEntity
  8
C
100
AcDbCircle
 10
-1003.795509390009
 20
1377.512165451777
 30
0.0
 40
0.7
100
AcDbArc
 50
270.0
 51
0.0
  0
ARC
  5
434
330
1F
100
AcDbEntity
  8
C
100
AcDbCircle
 10
-1016.455509390008
 20
1377.512165451777
 30
0.0
 40
0.7
100
AcDbArc
 50
180.0
 51
270.0
  0
ARC
  5
435
330
1F
100
AcDbEntity
  8
C
100
AcDbCircle
 10
-1016.455509390008
 20
1390.172165451777
 30
0.0
 40
0.7
100
AcDbArc
 50
90.0
 51
180.0
  0
ARC
  5
436
330
1F
100
AcDbEntity
  8
C
100
AcDbCircle
 10
-1003.795509390009
 20
1390.172165451777
 30
0.0
 40
0.7
100
AcDbArc
 50
0.0
 51
90.0
  0
LINE
  5
437
330
1F
100
AcDbEntity
  8
C
100
AcDbLine
 10
-997.4055093900078
 20
1390.872165451777
 30
0.0
 11
-984.7455093900078
 21
1390.872165451777
 31
0.0
  0
LINE
  5
438
330
1F
100
AcDbEntity
  8
C
100
AcDbLine
 10
-997.4055093900078
 20
1376.812165451777
 30
0.0
 11
-984.7455093900078
 21
1376.812165451777
 31
0.0
  0
LINE
  5
439
330
1F
100
AcDbEntity
  8
C
100
AcDbLine
 10
-984.0455093900077
 20
1390.172165451777
 30
0.0
 11
-984.0455093900077
 21
1377.512165451777
 31
0.0
  0
LINE
  5
43A
330
1F
100
AcDbEntity
  8
C
100
AcDbLine
 10
-998.1055093900076
 20
1390.172165451777
 30
0.0
 11
-998.1055093900076
 21
1377.512165451777
 31
0.0
  0
ARC
  5
43B
330
1F
100
AcDbEntity
  8
C
100
AcDbCircle
 10
-984.7455093900078
 20
1377.512165451777
 30
0.0
 40
0.7
100
AcDbArc
 50
270.0
 51
0.0
  0
ARC
  5
43C
330
1F
100
AcDbEntity
  8
C
100
AcDbCircle
 10
-997.4055093900078
 20
1377.512165451777
 30
0.0
 40
0.7
100
AcDbArc
 50
180.0
 51
270.0
  0
ARC
  5
43D
330
1F
100
AcDbEntity
  8
C
100
AcDbCircle
 10
-997.4055093900078
 20
1390.172165451777
 30
0.0
 40
0.7
100
AcDbArc
 50
90.0
 51
180.0
  0
ARC
  5
43E
330
1F
100
AcDbEntity
  8
C
100
AcDbCircle
 10
-984.7455093900078
 20
1390.172165451777
 30
0.0
 40
0.7
100
AcDbArc
 50
0.0
 51
90.0
  0
LINE
  5
43F
330
1F
100
AcDbEntity
  8
C
100
AcDbLine
 10
-978.3555093900085
 20
1390.872165451777
 30
0.0
 11
-965.6955093900085
 21
1390.872165451777
 31
0.0
  0
LINE
  5
440
330
1F
100
AcDbEntity
  8
C
100
AcDbLine
 10
-978.3555093900085
 20
1376.812165451777
 30
0.0
 11
-965.6955093900085
 21
1376.812165451777
 31
0.0
  0
LINE
  5
441
330
1F
100
AcDbEntity
  8
C
100
AcDbLine
 10
-964.9955093900084
 20
1390.172165451777
 30
0.0
 11
-964.9955093900084
 21
1377.512165451777
 31
0.0
  0
LINE
  5
442
330
1F
100
AcDbEntity
  8
C
100
AcDbLine
 10
-979.0555093900083
 20
1390.172165451777
 30
0.0
 11
-979.0555093900083
 21
1377.512165451777
 31
0.0
  0
ARC
  5
443
330
1F
100
AcDbEntity
  8
C
100
AcDbCircle
 10
-965.6955093900085
 20
1377.512165451777
 30
0.0
 40
0.7
100
AcDbArc
 50
270.0
 51
0.0
  0
ARC
  5
444
330
1F
100
AcDbEntity
  8
C
100
AcDbCircle
 10
-978.3555093900085
 20
1377.512165451777
 30
0.0
 40
0.7
100
AcDbArc
 50
180.0
 51
270.0
  0
ARC
  5
445
330
1F
100
AcDbEntity
  8
C
100
AcDbCircle
 10
-978.3555093900085
 20
1390.172165451777
 30
0.0
 40
0.7
100
AcDbArc
 50
90.0
 51
180.0
  0
ARC
  5
446
330
1F
100
AcDbEntity
  8
C
100
AcDbCircle
 10
-965.6955093900085
 20
1390.172165451777
 30
0.0
 40
0.7
100
AcDbArc
 50
0.0
 51
90.0
  0
LINE
  5
447
330
1F
100
AcDbEntity
  8
C
100
AcDbLine
 10
-959.3055093900057
 20
1390.872165451777
 30
0.0
 11
-946.6455093900055
 21
1390.872165451777
 31
0.0
  0
LINE
  5
448
330
1F
100
AcDbEntity
  8
C
100
AcDbLine
 10
-959.3055093900057
 20
1376.812165451777
 30
0.0
 11
-946.6455093900055
 21
1376.812165451777
 31
0.0
  0
LINE
  5
449
330
1F
100
AcDbEntity
  8
C
100
AcDbLine
 10
-945.9455093900055
 20
1390.172165451777
 30
0.0
 11
-945.9455093900055
 21
1377.512165451777
 31
0.0
  0
LINE
  5
44A
330
1F
100
AcDbEntity
  8
C
100
AcDbLine
 10
-960.0055093900055
 20
1390.172165451777
 30
0.0
 11
-960.0055093900055
 21
1377.512165451777
 31
0.0
  0
ARC
  5
44B
330
1F
100
AcDbEntity
  8
C
100
AcDbCircle
 10
-946.6455093900055
 20
1377.512165451777
 30
0.0
 40
0.7
100
AcDbArc
 50
270.0
 51
0.0
  0
ARC
  5
44C
330
1F
100
AcDbEntity
  8
C
100
AcDbCircle
 10
-959.3055093900057
 20
1377.512165451777
 30
0.0
 40
0.7
100
AcDbArc
 50
180.0
 51
270.0
  0
ARC
  5
44D
330
1F
100
AcDbEntity
  8
C
100
AcDbCircle
 10
-959.3055093900057
 20
1390.172165451777
 30
0.0
 40
0.7
100
AcDbArc
 50
90.0
 51
180.0
  0
ARC
  5
44E
330
1F
100
AcDbEntity
  8
C
100
AcDbCircle
 10
-946.6455093900055
 20
1390.172165451777
 30
0.0
 40
0.7
100
AcDbArc
 50
0.0
 51
90.0
  0
LINE
  5
44F
330
1F
100
AcDbEntity
  8
C
100
AcDbLine
 10
-930.7305093900049
 20
1390.872165451777
 30
0.0
 11
-918.0705093900048
 21
1390.872165451777
 31
0.0
  0
LINE
  5
450
330
1F
100
AcDbEntity
  8
C
100
AcDbLine
 10
-930.7305093900049
 20
1376.812165451777
 30
0.0
 11
-918.0705093900048
 21
1376.812165451777
 31
0.0
  0
LINE
  5
451
330
1F
100
AcDbEntity
  8
C
100
AcDbLine
 10
-917.3705093900048
 20
1390.172165451777
 30
0.0
 11
-917.3705093900048
 21
1377.512165451777
 31
0.0
  0
LINE
  5
452
330
1F
100
AcDbEntity
  8
C
100
AcDbLine
 10
-931.4305093900047
 20
1390.172165451777
 30
0.0
 11
-931.4305093900047
 21
1377.512165451777
 31
0.0
  0
ARC
  5
453
330
1F
100
AcDbEntity
  8
C
100
AcDbCircle
 10
-918.0705093900048
 20
1377.512165451777
 30
0.0
 40
0.7
100
AcDbArc
 50
270.0
 51
0.0
  0
ARC
  5
454
330
1F
100
AcDbEntity
  8
C
100
AcDbCircle
 10
-930.7305093900049
 20
1377.512165451777
 30
0.0
 40
0.7
100
AcDbArc
 50
180.0
 51
270.0
  0
ARC
  5
455
330
1F
100
AcDbEntity
  8
C
100
AcDbCircle
 10
-930.7305093900049
 20
1390.172165451777
 30
0.0
 40
0.7
100
AcDbArc
 50
90.0
 51
180.0
  0
ARC
  5
456
330
1F
100
AcDbEntity
  8
C
100
AcDbCircle
 10
-918.0705093900048
 20
1390.172165451777
 30
0.0
 40
0.7
100
AcDbArc
 50
0.0
 51
90.0
  0
LINE
  5
457
330
1F
100
AcDbEntity
  8
C
100
AcDbLine
 10
-911.6805093900056
 20
1390.872165451777
 30
0.0
 11
-899.0205093900057
 21
1390.872165451777
 31
0.0
  0
LINE
  5
458
330
1F
100
AcDbEntity
  8
C
100
AcDbLine
 10
-911.6805093900056
 20
1376.812165451777
 30
0.0
 11
-899.0205093900057
 21
1376.812165451777
 31
0.0
  0
LINE
  5
459
330
1F
100
AcDbEntity
  8
C
100
AcDbLine
 10
-898.3205093900055
 20
1390.172165451777
 30
0.0
 11
-898.3205093900055
 21
1377.512165451777
 31
0.0
  0
LINE
  5
45A
330
1F
100
AcDbEntity
  8
C
100
AcDbLine
 10
-912.3805093900054
 20
1390.172165451777
 30
0.0
 11
-912.3805093900054
 21
1377.512165451777
 31
0.0
  0
ARC
  5
45B
330
1F
100
AcDbEntity
  8
C
100
AcDbCircle
 10
-899.0205093900057
 20
1377.512165451777
 30
0.0
 40
0.7
100
AcDbArc
 50
270.0
 51
0.0
  0
ARC
  5
45C
330
1F
100
AcDbEntity
  8
C
100
AcDbCircle
 10
-911.6805093900056
 20
1377.512165451777
 30
0.0
 40
0.7
100
AcDbArc
 50
180.0
 51
270.0
  0
ARC
  5
45D
330
1F
100
AcDbEntity
  8
C
100
AcDbCircle
 10
-911.6805093900056
 20
1390.172165451777
 30
0.0
 40
0.7
100
AcDbArc
 50
90.0
 51
180.0
  0
ARC
  5
45E
330
1F
100
AcDbEntity
  8
C
100
AcDbCircle
 10
-899.0205093900057
 20
1390.172165451777
 30
0.0
 40
0.7
100
AcDbArc
 50
0.0
 51
90.0
  0
LINE
  5
45F
330
1F
100
AcDbEntity
  8
C
100
AcDbLine
 10
-892.6305093900046
 20
1390.872165451777
 30
0.0
 11
-879.9705093900044
 21
1390.872165451777
 31
0.0
  0
LINE
  5
460
330
1F
100
AcDbEntity
  8
C
100
AcDbLine
 10
-892.6305093900046
 20
1376.812165451777
 30
0.0
 11
-879.9705093900044
 21
1376.812165451777
 31
0.0
  0
LINE
  5
461
330
1F
100
AcDbEntity
  8
C
100
AcDbLine
 10
-879.2705093900044
 20
1390.172165451777
 30
0.0
 11
-879.2705093900044
 21
1377.512165451777
 31
0.0
  0
LINE
  5
462
330
1F
100
AcDbEntity
  8
C
100
AcDbLine
 10
-893.3305093900044
 20
1390.172165451777
 30
0.0
 11
-893.3305093900044
 21
1377.512165451777
 31
0.0
  0
ARC
  5
463
330
1F
100
AcDbEntity
  8
C
100
AcDbCircle
 10
-879.9705093900044
 20
1377.512165451777
 30
0.0
 40
0.7
100
AcDbArc
 50
270.0
 51
0.0
  0
ARC
  5
464
330
1F
100
AcDbEntity
  8
C
100
AcDbCircle
 10
-892.6305093900046
 20
1377.512165451777
 30
0.0
 40
0.7
100
AcDbArc
 50
180.0
 51
270.0
  0
ARC
  5
465
330
1F
100
AcDbEntity
  8
C
100
AcDbCircle
 10
-892.6305093900046
 20
1390.172165451777
 30
0.0
 40
0.7
100
AcDbArc
 50
90.0
 51
180.0
  0
ARC
  5
466
330
1F
100
AcDbEntity
  8
C
100
AcDbCircle
 10
-879.9705093900044
 20
1390.172165451777
 30
0.0
 40
0.7
100
AcDbArc
 50
0.0
 51
90.0
  0
LINE
  5
467
330
1F
100
AcDbEntity
  8
C
100
AcDbLine
 10
-873.5805093900035
 20
1390.872165451777
 30
0.0
 11
-860.9205093900033
 21
1390.872165451777
 31
0.0
  0
LINE
  5
468
330
1F
100
AcDbEntity
  8
C
100
AcDbLine
 10
-873.5805093900035
 20
1376.812165451777
 30
0.0
 11
-860.9205093900033
 21
1376.812165451777
 31
0.0
  0
LINE
  5
469
330
1F
100
AcDbEntity
  8
C
100
AcDbLine
 10
-860.2205093900034
 20
1390.172165451777
 30
0.0
 11
-860.2205093900034
 21
1377.512165451777
 31
0.0
  0
LINE
  5
46A
330
1F
100
AcDbEntity
  8
C
100
AcDbLine
 10
-874.2805093900033
 20
1390.172165451777
 30
0.0
 11
-874.2805093900033
 21
1377.512165451777
 31
0.0
  0
ARC
  5
46B
330
1F
100
AcDbEntity
  8
C
100
AcDbCircle
 10
-860.9205093900033
 20
1377.512165451777
 30
0.0
 40
0.7
100
AcDbArc
 50
270.0
 51
0.0
  0
ARC
  5
46C
330
1F
100
AcDbEntity
  8
C
100
AcDbCircle
 10
-873.5805093900035
 20
1377.512165451777
 30
0.0
 40
0.7
100
AcDbArc
 50
180.0
 51
270.0
  0
ARC
  5
46D
330
1F
100
AcDbEntity
  8
C
100
AcDbCircle
 10
-873.5805093900035
 20
1390.172165451777
 30
0.0
 40
0.7
100
AcDbArc
 50
90.0
 51
180.0
  0
ARC
  5
46E
330
1F
100
AcDbEntity
  8
C
100
AcDbCircle
 10
-860.9205093900033
 20
1390.172165451777
 30
0.0
 40
0.7
100
AcDbArc
 50
0.0
 51
90.0
  0
LINE
  5
46F
330
1F
100
AcDbEntity
  8
C
100
AcDbLine
 10
-845.005509390001
 20
1390.872165451777
 30
0.0
 11
-832.3455093900008
 21
1390.872165451777
 31
0.0
  0
LINE
  5
470
330
1F
100
AcDbEntity
  8
C
100
AcDbLine
 10
-845.005509390001
 20
1376.812165451777
 30
0.0
 11
-832.3455093900008
 21
1376.812165451777
 31
0.0
  0
LINE
  5
471
330
1F
100
AcDbEntity
  8
C
100
AcDbLine
 10
-831.6455093900009
 20
1390.172165451777
 30
0.0
 11
-831.6455093900009
 21
1377.512165451777
 31
0.0
  0
LINE
  5
472
330
1F
100
AcDbEntity
  8
C
100
AcDbLine
 10
-845.7055093900008
 20
1390.172165451777
 30
0.0
 11
-845.7055093900008
 21
1377.512165451777
 31
0.0
  0
ARC
  5
473
330
1F
100
AcDbEntity
  8
C
100
AcDbCircle
 10
-832.3455093900008
 20
1377.512165451777
 30
0.0
 40
0.7
100
AcDbArc
 50
270.0
 51
0.0
  0
ARC
  5
474
330
1F
100
AcDbEntity
  8
C
100
AcDbCircle
 10
-845.005509390001
 20
1377.512165451777
 30
0.0
 40
0.7
100
AcDbArc
 50
180.0
 51
270.0
  0
ARC
  5
475
330
1F
100
AcDbEntity
  8
C
100
AcDbCircle
 10
-845.005509390001
 20
1390.172165451777
 30
0.0
 40
0.7
100
AcDbArc
 50
90.0
 51
180.0
  0
ARC
  5
476
330
1F
100
AcDbEntity
  8
C
100
AcDbCircle
 10
-832.3455093900008
 20
1390.172165451777
 30
0.0
 40
0.7
100
AcDbArc
 50
0.0
 51
90.0
  0
LINE
  5
477
330
1F
100
AcDbEntity
  8
C
100
AcDbLine
 10
-825.9555093899999
 20
1390.872165451777
 30
0.0
 11
-813.2955093899997
 21
1390.872165451777
 31
0.0
  0
LINE
  5
478
330
1F
100
AcDbEntity
  8
C
100
AcDbLine
 10
-825.9555093899999
 20
1376.812165451777
 30
0.0
 11
-813.2955093899997
 21
1376.812165451777
 31
0.0
  0
LINE
  5
479
330
1F
100
AcDbEntity
  8
C
100
AcDbLine
 10
-812.5955093899998
 20
1390.172165451777
 30
0.0
 11
-812.5955093899998
 21
1377.512165451777
 31
0.0
  0
LINE
  5
47A
330
1F
100
AcDbEntity
  8
C
100
AcDbLine
 10
-826.6555093899997
 20
1390.172165451777
 30
0.0
 11
-826.6555093899997
 21
1377.512165451777
 31
0.0
  0
ARC
  5
47B
330
1F
100
AcDbEntity
  8
C
100
AcDbCircle
 10
-813.2955093899997
 20
1377.512165451777
 30
0.0
 40
0.7
100
AcDbArc
 50
270.0
 51
0.0
  0
ARC
  5
47C
330
1F
100
AcDbEntity
  8
C
100
AcDbCircle
 10
-825.9555093899999
 20
1377.512165451777
 30
0.0
 40
0.7
100
AcDbArc
 50
180.0
 51
270.0
  0
ARC
  5
47D
330
1F
100
AcDbEntity
  8
C
100
AcDbCircle
 10
-825.9555093899999
 20
1390.172165451777
 30
0.0
 40
0.7
100
AcDbArc
 50
90.0
 51
180.0
  0
ARC
  5
47E
330
1F
100
AcDbEntity
  8
C
100
AcDbCircle
 10
-813.2955093899997
 20
1390.172165451777
 30
0.0
 40
0.7
100
AcDbArc
 50
0.0
 51
90.0
  0
LINE
  5
47F
330
1F
100
AcDbEntity
  8
C
100
AcDbLine
 10
-806.9055093899986
 20
1390.872165451777
 30
0.0
 11
-794.2455093899987
 21
1390.872165451777
 31
0.0
  0
LINE
  5
480
330
1F
100
AcDbEntity
  8
C
100
AcDbLine
 10
-806.9055093899986
 20
1376.812165451777
 30
0.0
 11
-794.2455093899987
 21
1376.812165451777
 31
0.0
  0
LINE
  5
481
330
1F
100
AcDbEntity
  8
C
100
AcDbLine
 10
-793.5455093899986
 20
1390.172165451777
 30
0.0
 11
-793.5455093899986
 21
1377.512165451777
 31
0.0
  0
LINE
  5
482
330
1F
100
AcDbEntity
  8
C
100
AcDbLine
 10
-807.6055093899986
 20
1390.172165451777
 30
0.0
 11
-807.6055093899986
 21
1377.512165451777
 31
0.0
  0
ARC
  5
483
330
1F
100
AcDbEntity
  8
C
100
AcDbCircle
 10
-794.2455093899987
 20
1377.512165451777
 30
0.0
 40
0.7
100
AcDbArc
 50
270.0
 51
0.0
  0
ARC
  5
484
330
1F
100
AcDbEntity
  8
C
100
AcDbCircle
 10
-806.9055093899986
 20
1377.512165451777
 30
0.0
 40
0.7
100
AcDbArc
 50
180.0
 51
270.0
  0
ARC
  5
485
330
1F
100
AcDbEntity
  8
C
100
AcDbCircle
 10
-806.9055093899986
 20
1390.172165451777
 30
0.0
 40
0.7
100
AcDbArc
 50
90.0
 51
180.0
  0
ARC
  5
486
330
1F
100
AcDbEntity
  8
C
100
AcDbCircle
 10
-794.2455093899987
 20
1390.172165451777
 30
0.0
 40
0.7
100
AcDbArc
 50
0.0
 51
90.0
  0
LINE
  5
487
330
1F
100
AcDbEntity
  8
C
100
AcDbLine
 10
-787.8555093899977
 20
1390.872165451777
 30
0.0
 11
-775.1955093899976
 21
1390.872165451777
 31
0.0
  0
LINE
  5
488
330
1F
100
AcDbEntity
  8
C
100
AcDbLine
 10
-787.8555093899977
 20
1376.812165451777
 30
0.0
 11
-775.1955093899976
 21
1376.812165451777
 31
0.0
  0
LINE
  5
489
330
1F
100
AcDbEntity
  8
C
100
AcDbLine
 10
-774.4955093899975
 20
1390.172165451777
 30
0.0
 11
-774.4955093899975
 21
1377.512165451777
 31
0.0
  0
LINE
  5
48A
330
1F
100
AcDbEntity
  8
C
100
AcDbLine
 10
-788.5555093899974
 20
1390.172165451777
 30
0.0
 11
-788.5555093899974
 21
1377.512165451777
 31
0.0
  0
ARC
  5
48B
330
1F
100
AcDbEntity
  8
C
100
AcDbCircle
 10
-775.1955093899976
 20
1377.512165451777
 30
0.0
 40
0.7
100
AcDbArc
 50
270.0
 51
0.0
  0
ARC
  5
48C
330
1F
100
AcDbEntity
  8
C
100
AcDbCircle
 10
-787.8555093899977
 20
1377.512165451777
 30
0.0
 40
0.7
100
AcDbArc
 50
180.0
 51
270.0
  0
ARC
  5
48D
330
1F
100
AcDbEntity
  8
C
100
AcDbCircle
 10
-787.8555093899977
 20
1390.172165451777
 30
0.0
 40
0.7
100
AcDbArc
 50
90.0
 51
180.0
  0
ARC
  5
48E
330
1F
100
AcDbEntity
  8
C
100
AcDbCircle
 10
-775.1955093899976
 20
1390.172165451777
 30
0.0
 40
0.7
100
AcDbArc
 50
0.0
 51
90.0
  0
LINE
  5
48F
330
1F
100
AcDbEntity
  8
C
100
AcDbLine
 10
-764.0430093899957
 20
1390.872165451777
 30
0.0
 11
-751.3830093899957
 21
1390.872165451777
 31
0.0
  0
LINE
  5
490
330
1F
100
AcDbEntity
  8
C
100
AcDbLine
 10
-764.0430093899957
 20
1376.812165451777
 30
0.0
 11
-751.3830093899957
 21
1376.812165451777
 31
0.0
  0
LINE
  5
491
330
1F
100
AcDbEntity
  8
C
100
AcDbLine
 10
-750.6830093899957
 20
1390.172165451777
 30
0.0
 11
-750.6830093899957
 21
1377.512165451777
 31
0.0
  0
LINE
  5
492
330
1F
100
AcDbEntity
  8
C
100
AcDbLine
 10
-764.7430093899957
 20
1390.172165451777
 30
0.0
 11
-764.7430093899957
 21
1377.512165451777
 31
0.0
  0
ARC
  5
493
330
1F
100
AcDbEntity
  8
C
100
AcDbCircle
 10
-751.3830093899957
 20
1377.512165451777
 30
0.0
 40
0.7
100
AcDbArc
 50
270.0
 51
0.0
  0
ARC
  5
494
330
1F
100
AcDbEntity
  8
C
100
AcDbCircle
 10
-764.0430093899957
 20
1377.512165451777
 30
0.0
 40
0.7
100
AcDbArc
 50
180.0
 51
270.0
  0
ARC
  5
495
330
1F
100
AcDbEntity
  8
C
100
AcDbCircle
 10
-764.0430093899957
 20
1390.172165451777
 30
0.0
 40
0.7
100
AcDbArc
 50
90.0
 51
180.0
  0
ARC
  5
496
330
1F
100
AcDbEntity
  8
C
100
AcDbCircle
 10
-751.3830093899957
 20
1390.172165451777
 30
0.0
 40
0.7
100
AcDbArc
 50
0.0
 51
90.0
  0
LINE
  5
497
330
1F
100
AcDbEntity
  8
C
100
AcDbLine
 10
-744.9930093899965
 20
1390.872165451777
 30
0.0
 11
-732.3330093899965
 21
1390.872165451777
 31
0.0
  0
LINE
  5
498
330
1F
100
AcDbEntity
  8
C
100
AcDbLine
 10
-744.9930093899965
 20
1376.812165451777
 30
0.0
 11
-732.3330093899965
 21
1376.812165451777
 31
0.0
  0
LINE
  5
499
330
1F
100
AcDbEntity
  8
C
100
AcDbLine
 10
-731.6330093899964
 20
1390.172165451777
 30
0.0
 11
-731.6330093899964
 21
1377.512165451777
 31
0.0
  0
LINE
  5
49A
330
1F
100
AcDbEntity
  8
C
100
AcDbLine
 10
-745.6930093899964
 20
1390.172165451777
 30
0.0
 11
-745.6930093899964
 21
1377.512165451777
 31
0.0
  0
ARC
  5
49B
330
1F
100
AcDbEntity
  8
C
100
AcDbCircle
 10
-732.3330093899965
 20
1377.512165451777
 30
0.0
 40
0.7
100
AcDbArc
 50
270.0
 51
0.0
  0
ARC
  5
49C
330
1F
100
AcDbEntity
  8
C
100
AcDbCircle
 10
-744.9930093899965
 20
1377.512165451777
 30
0.0
 40
0.7
100
AcDbArc
 50
180.0
 51
270.0
  0
ARC
  5
49D
330
1F
100
AcDbEntity
  8
C
100
AcDbCircle
 10
-744.9930093899965
 20
1390.172165451777
 30
0.0
 40
0.7
100
AcDbArc
 50
90.0
 51
180.0
  0
ARC
  5
49E
330
1F
100
AcDbEntity
  8
C
100
AcDbCircle
 10
-732.3330093899965
 20
1390.172165451777
 30
0.0
 40
0.7
100
AcDbArc
 50
0.0
 51
90.0
  0
LINE
  5
49F
330
1F
100
AcDbEntity
  8
C
100
AcDbLine
 10
-725.9430093899953
 20
1390.872165451777
 30
0.0
 11
-713.2830093899954
 21
1390.872165451777
 31
0.0
  0
LINE
  5
4A0
330
1F
100
AcDbEntity
  8
C
100
AcDbLine
 10
-725.9430093899953
 20
1376.812165451777
 30
0.0
 11
-713.2830093899954
 21
1376.812165451777
 31
0.0
  0
LINE
  5
4A1
330
1F
100
AcDbEntity
  8
C
100
AcDbLine
 10
-712.5830093899954
 20
1390.172165451777
 30
0.0
 11
-712.5830093899954
 21
1377.512165451777
 31
0.0
  0
LINE
  5
4A2
330
1F
100
AcDbEntity
  8
C
100
AcDbLine
 10
-726.6430093899953
 20
1390.172165451777
 30
0.0
 11
-726.6430093899953
 21
1377.512165451777
 31
0.0
  0
ARC
  5
4A3
330
1F
100
AcDbEntity
  8
C
100
AcDbCircle
 10
-713.2830093899954
 20
1377.512165451777
 30
0.0
 40
0.7
100
AcDbArc
 50
270.0
 51
0.0
  0
ARC
  5
4A4
330
1F
100
AcDbEntity
  8
C
100
AcDbCircle
 10
-725.9430093899953
 20
1377.512165451777
 30
0.0
 40
0.7
100
AcDbArc
 50
180.0
 51
270.0
  0
ARC
  5
4A5
330
1F
100
AcDbEntity
  8
C
100
AcDbCircle
 10
-725.9430093899953
 20
1390.172165451777
 30
0.0
 40
0.7
100
AcDbArc
 50
90.0
 51
180.0
  0
ARC
  5
4A6
330
1F
100
AcDbEntity
  8
C
100
AcDbCircle
 10
-713.2830093899954
 20
1390.172165451777
 30
0.0
 40
0.7
100
AcDbArc
 50
0.0
 51
90.0
  0
LINE
  5
4A7
330
1F
100
AcDbEntity
  8
C
100
AcDbLine
 10
-744.9930093899965
 20
1309.909665451775
 30
0.0
 11
-732.3330093899965
 21
1309.909665451776
 31
0.0
  0
LINE
  5
4A8
330
1F
100
AcDbEntity
  8
C
100
AcDbLine
 10
-744.9930093899965
 20
1295.849665451775
 30
0.0
 11
-732.3330093899965
 21
1295.849665451776
 31
0.0
  0
LINE
  5
4A9
330
1F
100
AcDbEntity
  8
C
100
AcDbLine
 10
-731.6330093899964
 20
1309.209665451775
 30
0.0
 11
-731.6330093899964
 21
1296.549665451776
 31
0.0
  0
LINE
  5
4AA
330
1F
100
AcDbEntity
  8
C
100
AcDbLine
 10
-745.6930093899964
 20
1309.209665451775
 30
0.0
 11
-745.6930093899964
 21
1296.549665451776
 31
0.0
  0
ARC
  5
4AB
330
1F
100
AcDbEntity
  8
C
100
AcDbCircle
 10
-732.3330093899965
 20
1296.549665451776
 30
0.0
 40
0.7
100
AcDbArc
 50
270.0
 51
0.0
  0
ARC
  5
4AC
330
1F
100
AcDbEntity
  8
C
100
AcDbCircle
 10
-744.9930093899965
 20
1296.549665451776
 30
0.0
 40
0.7
100
AcDbArc
 50
180.0
 51
270.0
  0
ARC
  5
4AD
330
1F
100
AcDbEntity
  8
C
100
AcDbCircle
 10
-744.9930093899965
 20
1309.209665451775
 30
0.0
 40
0.7
100
AcDbArc
 50
90.0
 51
180.0
  0
ARC
  5
4AE
330
1F
100
AcDbEntity
  8
C
100
AcDbCircle
 10
-732.3330093899965
 20
1309.209665451775
 30
0.0
 40
0.7
100
AcDbArc
 50
0.0
 51
90.0
  0
LINE
  5
4AF
330
1F
100
AcDbEntity
  8
C
100
AcDbLine
 10
-1049.793009390012
 20
1348.009665451777
 30
0.0
 11
-1037.133009390012
 21
1348.009665451778
 31
0.0
  0
LINE
  5
4B0
330
1F
100
AcDbEntity
  8
C
100
AcDbLine
 10
-1049.793009390012
 20
1333.949665451777
 30
0.0
 11
-1037.133009390012
 21
1333.949665451778
 31
0.0
  0
LINE
  5
4B1
330
1F
100
AcDbEntity
  8
C
100
AcDbLine
 10
-1036.433009390012
 20
1347.309665451778
 30
0.0
 11
-1036.433009390012
 21
1334.649665451778
 31
0.0
  0
LINE
  5
4B2
330
1F
100
AcDbEntity
  8
C
100
AcDbLine
 10
-1050.493009390012
 20
1347.309665451778
 30
0.0
 11
-1050.493009390012
 21
1334.649665451778
 31
0.0
  0
ARC
  5
4B3
330
1F
100
AcDbEntity
  8
C
100
AcDbCircle
 10
-1037.133009390012
 20
1334.649665451778
 30
0.0
 40
0.7
100
AcDbArc
 50
270.0
 51
0.0
  0
ARC
  5
4B4
330
1F
100
AcDbEntity
  8
C
100
AcDbCircle
 10
-1049.793009390012
 20
1334.649665451778
 30
0.0
 40
0.7
100
AcDbArc
 50
180.0
 51
270.0
  0
ARC
  5
4B5
330
1F
100
AcDbEntity
  8
C
100
AcDbCircle
 10
-1049.793009390012
 20
1347.309665451778
 30
0.0
 40
0.7
100
AcDbArc
 50
90.0
 51
180.0
  0
ARC
  5
4B6
330
1F
100
AcDbEntity
  8
C
100
AcDbCircle
 10
-1037.133009390012
 20
1347.309665451778
 30
0.0
 40
0.7
100
AcDbArc
 50
0.0
 51
90.0
  0
LINE
  5
4B7
330
1F
100
AcDbEntity
  8
C
100
AcDbLine
 10
-1052.17425939001
 20
1328.959665451776
 30
0.0
 11
-1034.751759390009
 21
1328.959665451777
 31
0.0
  0
LINE
  5
4B8
330
1F
100
AcDbEntity
  8
C
100
AcDbLine
 10
-1052.17425939001
 20
1314.899665451777
 30
0.0
 11
-1034.751759390009
 21
1314.899665451777
 31
0.0
  0
LINE
  5
4B9
330
1F
100
AcDbEntity
  8
C
100
AcDbLine
 10
-1052.87425939001
 20
1328.259665451777
 30
0.0
 11
-1052.87425939001
 21
1315.599665451777
 31
0.0
  0
ARC
  5
4BA
330
1F
100
AcDbEntity
  8
C
100
AcDbCircle
 10
-1052.17425939001
 20
1315.599665451777
 30
0.0
 40
0.7
100
AcDbArc
 50
180.0
 51
270.0
  0
ARC
  5
4BB
330
1F
100
AcDbEntity
  8
C
100
AcDbCircle
 10
-1052.17425939001
 20
1328.259665451777
 30
0.0
 40
0.7
100
AcDbArc
 50
90.0
 51
180.0
  0
LINE
  5
4BC
330
1F
100
AcDbEntity
  8
C
100
AcDbLine
 10
-1034.05175939001
 20
1328.259665451777
 30
0.0
 11
-1034.05175939001
 21
1315.599665451777
 31
0.0
  0
ARC
  5
4BD
330
1F
100
AcDbEntity
  8
C
100
AcDbCircle
 10
-1034.751759390009
 20
1315.599665451777
 30
0.0
 40
0.7
100
AcDbArc
 50
270.0
 51
0.0
  0
ARC
  5
4BE
330
1F
100
AcDbEntity
  8
C
100
AcDbCircle
 10
-1034.751759390009
 20
1328.259665451777
 30
0.0
 40
0.7
100
AcDbArc
 50
0.0
 51
90.0
  0
LINE
  5
4BF
330
1F
100
AcDbEntity
  8
C
100
AcDbLine
 10
-764.0430093899957
 20
1367.059665451777
 30
0.0
 11
-751.3830093899957
 21
1367.059665451777
 31
0.0
  0
LINE
  5
4C0
330
1F
100
AcDbEntity
  8
C
100
AcDbLine
 10
-764.0430093899957
 20
1352.999665451777
 30
0.0
 11
-751.3830093899957
 21
1352.999665451777
 31
0.0
  0
LINE
  5
4C1
330
1F
100
AcDbEntity
  8
C
100
AcDbLine
 10
-750.6830093899957
 20
1366.359665451777
 30
0.0
 11
-750.6830093899957
 21
1353.699665451777
 31
0.0
  0
LINE
  5
4C2
330
1F
100
AcDbEntity
  8
C
100
AcDbLine
 10
-764.7430093899957
 20
1366.359665451777
 30
0.0
 11
-764.7430093899957
 21
1353.699665451777
 31
0.0
  0
ARC
  5
4C3
330
1F
100
AcDbEntity
  8
C
100
AcDbCircle
 10
-751.3830093899957
 20
1353.699665451777
 30
0.0
 40
0.7
100
AcDbArc
 50
270.0
 51
0.0
  0
ARC
  5
4C4
330
1F
100
AcDbEntity
  8
C
100
AcDbCircle
 10
-764.0430093899957
 20
1353.699665451777
 30
0.0
 40
0.7
100
AcDbArc
 50
180.0
 51
270.0
  0
ARC
  5
4C5
330
1F
100
AcDbEntity
  8
C
100
AcDbCircle
 10
-764.0430093899957
 20
1366.359665451777
 30
0.0
 40
0.7
100
AcDbArc
 50
90.0
 51
180.0
  0
ARC
  5
4C6
330
1F
100
AcDbEntity
  8
C
100
AcDbCircle
 10
-751.3830093899957
 20
1366.359665451777
 30
0.0
 40
0.7
100
AcDbArc
 50
0.0
 51
90.0
  0
LINE
  5
4C7
330
1F
100
AcDbEntity
  8
C
100
AcDbLine
 10
-744.9930093899965
 20
1367.059665451777
 30
0.0
 11
-732.3330093899965
 21
1367.059665451777
 31
0.0
  0
LINE
  5
4C8
330
1F
100
AcDbEntity
  8
C
100
AcDbLine
 10
-744.9930093899965
 20
1352.999665451777
 30
0.0
 11
-732.3330093899965
 21
1352.999665451777
 31
0.0
  0
LINE
  5
4C9
330
1F
100
AcDbEntity
  8
C
100
AcDbLine
 10
-731.6330093899964
 20
1366.359665451777
 30
0.0
 11
-731.6330093899964
 21
1353.699665451777
 31
0.0
  0
LINE
  5
4CA
330
1F
100
AcDbEntity
  8
C
100
AcDbLine
 10
-745.6930093899964
 20
1366.359665451777
 30
0.0
 11
-745.6930093899964
 21
1353.699665451777
 31
0.0
  0
ARC
  5
4CB
330
1F
100
AcDbEntity
  8
C
100
AcDbCircle
 10
-732.3330093899965
 20
1353.699665451777
 30
0.0
 40
0.7
100
AcDbArc
 50
270.0
 51
0.0
  0
ARC
  5
4CC
330
1F
100
AcDbEntity
  8
C
100
AcDbCircle
 10
-744.9930093899965
 20
1353.699665451777
 30
0.0
 40
0.7
100
AcDbArc
 50
180.0
 51
270.0
  0
ARC
  5
4CD
330
1F
100
AcDbEntity
  8
C
100
AcDbCircle
 10
-744.9930093899965
 20
1366.359665451777
 30
0.0
 40
0.7
100
AcDbArc
 50
90.0
 51
180.0
  0
ARC
  5
4CE
330
1F
100
AcDbEntity
  8
C
100
AcDbCircle
 10
-732.3330093899965
 20
1366.359665451777
 30
0.0
 40
0.7
100
AcDbArc
 50
0.0
 51
90.0
  0
LINE
  5
4CF
330
1F
100
AcDbEntity
  8
C
100
AcDbLine
 10
-725.9430093899953
 20
1367.059665451777
 30
0.0
 11
-713.2830093899954
 21
1367.059665451777
 31
0.0
  0
LINE
  5
4D0
330
1F
100
AcDbEntity
  8
C
100
AcDbLine
 10
-725.9430093899953
 20
1352.999665451777
 30
0.0
 11
-713.2830093899954
 21
1352.999665451777
 31
0.0
  0
LINE
  5
4D1
330
1F
100
AcDbEntity
  8
C
100
AcDbLine
 10
-712.5830093899954
 20
1366.359665451777
 30
0.0
 11
-712.5830093899954
 21
1353.699665451777
 31
0.0
  0
LINE
  5
4D2
330
1F
100
AcDbEntity
  8
C
100
AcDbLine
 10
-726.6430093899953
 20
1366.359665451777
 30
0.0
 11
-726.6430093899953
 21
1353.699665451777
 31
0.0
  0
ARC
  5
4D3
330
1F
100
AcDbEntity
  8
C
100
AcDbCircle
 10
-713.2830093899954
 20
1353.699665451777
 30
0.0
 40
0.7
100
AcDbArc
 50
270.0
 51
0.0
  0
ARC
  5
4D4
330
1F
100
AcDbEntity
  8
C
100
AcDbCircle
 10
-725.9430093899953
 20
1353.699665451777
 30
0.0
 40
0.7
100
AcDbArc
 50
180.0
 51
270.0
  0
ARC
  5
4D5
330
1F
100
AcDbEntity
  8
C
100
AcDbCircle
 10
-725.9430093899953
 20
1366.359665451777
 30
0.0
 40
0.7
100
AcDbArc
 50
90.0
 51
180.0
  0
ARC
  5
4D6
330
1F
100
AcDbEntity
  8
C
100
AcDbCircle
 10
-713.2830093899954
 20
1366.359665451777
 30
0.0
 40
0.7
100
AcDbArc
 50
0.0
 51
90.0
  0
LINE
  5
4D7
330
1F
100
AcDbEntity
  8
C
100
AcDbLine
 10
-764.0430093899957
 20
1348.009665451776
 30
0.0
 11
-751.3830093899957
 21
1348.009665451776
 31
0.0
  0
LINE
  5
4D8
330
1F
100
AcDbEntity
  8
C
100
AcDbLine
 10
-764.0430093899957
 20
1333.949665451776
 30
0.0
 11
-751.3830093899957
 21
1333.949665451776
 31
0.0
  0
LINE
  5
4D9
330
1F
100
AcDbEntity
  8
C
100
AcDbLine
 10
-750.6830093899957
 20
1347.309665451776
 30
0.0
 11
-750.6830093899957
 21
1334.649665451776
 31
0.0
  0
LINE
  5
4DA
330
1F
100
AcDbEntity
  8
C
100
AcDbLine
 10
-764.7430093899957
 20
1347.309665451776
 30
0.0
 11
-764.7430093899957
 21
1334.649665451776
 31
0.0
  0
ARC
  5
4DB
330
1F
100
AcDbEntity
  8
C
100
AcDbCircle
 10
-751.3830093899957
 20
1334.649665451776
 30
0.0
 40
0.7
100
AcDbArc
 50
270.0
 51
0.0
  0
ARC
  5
4DC
330
1F
100
AcDbEntity
  8
C
100
AcDbCircle
 10
-764.0430093899957
 20
1334.649665451776
 30
0.0
 40
0.7
100
AcDbArc
 50
180.0
 51
270.0
  0
ARC
  5
4DD
330
1F
100
AcDbEntity
  8
C
100
AcDbCircle
 10
-764.0430093899957
 20
1347.309665451776
 30
0.0
 40
0.7
100
AcDbArc
 50
90.0
 51
180.0
  0
ARC
  5
4DE
330
1F
100
AcDbEntity
  8
C
100
AcDbCircle
 10
-751.3830093899957
 20
1347.309665451776
 30
0.0
 40
0.7
100
AcDbArc
 50
0.0
 51
90.0
  0
LINE
  5
4DF
330
1F
100
AcDbEntity
  8
C
100
AcDbLine
 10
-744.9930093899965
 20
1348.009665451776
 30
0.0
 11
-732.3330093899965
 21
1348.009665451776
 31
0.0
  0
LINE
  5
4E0
330
1F
100
AcDbEntity
  8
C
100
AcDbLine
 10
-744.9930093899965
 20
1333.949665451776
 30
0.0
 11
-732.3330093899965
 21
1333.949665451776
 31
0.0
  0
LINE
  5
4E1
330
1F
100
AcDbEntity
  8
C
100
AcDbLine
 10
-731.6330093899964
 20
1347.309665451776
 30
0.0
 11
-731.6330093899964
 21
1334.649665451776
 31
0.0
  0
LINE
  5
4E2
330
1F
100
AcDbEntity
  8
C
100
AcDbLine
 10
-745.6930093899964
 20
1347.309665451776
 30
0.0
 11
-745.6930093899964
 21
1334.649665451776
 31
0.0
  0
ARC
  5
4E3
330
1F
100
AcDbEntity
  8
C
100
AcDbCircle
 10
-732.3330093899965
 20
1334.649665451776
 30
0.0
 40
0.7
100
AcDbArc
 50
270.0
 51
0.0
  0
ARC
  5
4E4
330
1F
100
AcDbEntity
  8
C
100
AcDbCircle
 10
-744.9930093899965
 20
1334.649665451776
 30
0.0
 40
0.7
100
AcDbArc
 50
180.0
 51
270.0
  0
ARC
  5
4E5
330
1F
100
AcDbEntity
  8
C
100
AcDbCircle
 10
-744.9930093899965
 20
1347.309665451776
 30
0.0
 40
0.7
100
AcDbArc
 50
90.0
 51
180.0
  0
ARC
  5
4E6
330
1F
100
AcDbEntity
  8
C
100
AcDbCircle
 10
-732.3330093899965
 20
1347.309665451776
 30
0.0
 40
0.7
100
AcDbArc
 50
0.0
 51
90.0
  0
LINE
  5
4E7
330
1F
100
AcDbEntity
  8
C
100
AcDbLine
 10
-725.9430093899953
 20
1348.009665451776
 30
0.0
 11
-713.2830093899954
 21
1348.009665451776
 31
0.0
  0
LINE
  5
4E8
330
1F
100
AcDbEntity
  8
C
100
AcDbLine
 10
-725.9430093899953
 20
1333.949665451776
 30
0.0
 11
-713.2830093899954
 21
1333.949665451776
 31
0.0
  0
LINE
  5
4E9
330
1F
100
AcDbEntity
  8
C
100
AcDbLine
 10
-712.5830093899954
 20
1347.309665451776
 30
0.0
 11
-712.5830093899954
 21
1334.649665451776
 31
0.0
  0
LINE
  5
4EA
330
1F
100
AcDbEntity
  8
C
100
AcDbLine
 10
-726.6430093899953
 20
1347.309665451776
 30
0.0
 11
-726.6430093899953
 21
1334.649665451776
 31
0.0
  0
ARC
  5
4EB
330
1F
100
AcDbEntity
  8
C
100
AcDbCircle
 10
-713.2830093899954
 20
1334.649665451776
 30
0.0
 40
0.7
100
AcDbArc
 50
270.0
 51
0.0
  0
ARC
  5
4EC
330
1F
100
AcDbEntity
  8
C
100
AcDbCircle
 10
-725.9430093899953
 20
1334.649665451776
 30
0.0
 40
0.7
100
AcDbArc
 50
180.0
 51
270.0
  0
ARC
  5
4ED
330
1F
100
AcDbEntity
  8
C
100
AcDbCircle
 10
-725.9430093899953
 20
1347.309665451776
 30
0.0
 40
0.7
100
AcDbArc
 50
90.0
 51
180.0
  0
ARC
  5
4EE
330
1F
100
AcDbEntity
  8
C
100
AcDbCircle
 10
-713.2830093899954
 20
1347.309665451776
 30
0.0
 40
0.7
100
AcDbArc
 50
0.0
 51
90.0
  0
LINE
  5
4EF
330
1F
100
AcDbEntity
  8
C
100
AcDbLine
 10
-764.0430093899957
 20
1290.859665451776
 30
0.0
 11
-751.3830093899957
 21
1290.859665451776
 31
0.0
  0
LINE
  5
4F0
330
1F
100
AcDbEntity
  8
C
100
AcDbLine
 10
-764.0430093899957
 20
1276.799665451776
 30
0.0
 11
-751.3830093899957
 21
1276.799665451777
 31
0.0
  0
LINE
  5
4F1
330
1F
100
AcDbEntity
  8
C
100
AcDbLine
 10
-750.6830093899957
 20
1290.159665451776
 30
0.0
 11
-750.6830093899957
 21
1277.499665451776
 31
0.0
  0
LINE
  5
4F2
330
1F
100
AcDbEntity
  8
C
100
AcDbLine
 10
-764.7430093899957
 20
1290.159665451776
 30
0.0
 11
-764.7430093899957
 21
1277.499665451776
 31
0.0
  0
ARC
  5
4F3
330
1F
100
AcDbEntity
  8
C
100
AcDbCircle
 10
-751.3830093899957
 20
1277.499665451776
 30
0.0
 40
0.7
100
AcDbArc
 50
270.0
 51
0.0
  0
ARC
  5
4F4
330
1F
100
AcDbEntity
  8
C
100
AcDbCircle
 10
-764.0430093899957
 20
1277.499665451776
 30
0.0
 40
0.7
100
AcDbArc
 50
180.0
 51
270.0
  0
ARC
  5
4F5
330
1F
100
AcDbEntity
  8
C
100
AcDbCircle
 10
-764.0430093899957
 20
1290.159665451776
 30
0.0
 40
0.7
100
AcDbArc
 50
90.0
 51
180.0
  0
ARC
  5
4F6
330
1F
100
AcDbEntity
  8
C
100
AcDbCircle
 10
-751.3830093899957
 20
1290.159665451776
 30
0.0
 40
0.7
100
AcDbArc
 50
0.0
 51
90.0
  0
LINE
  5
4F7
330
1F
100
AcDbEntity
  8
C
100
AcDbLine
 10
-744.9930093899965
 20
1290.859665451776
 30
0.0
 11
-732.3330093899965
 21
1290.859665451776
 31
0.0
  0
LINE
  5
4F8
330
1F
100
AcDbEntity
  8
C
100
AcDbLine
 10
-744.9930093899965
 20
1276.799665451776
 30
0.0
 11
-732.3330093899965
 21
1276.799665451777
 31
0.0
  0
LINE
  5
4F9
330
1F
100
AcDbEntity
  8
C
100
AcDbLine
 10
-731.6330093899964
 20
1290.159665451776
 30
0.0
 11
-731.6330093899964
 21
1277.499665451776
 31
0.0
  0
LINE
  5
4FA
330
1F
100
AcDbEntity
  8
C
100
AcDbLine
 10
-745.6930093899964
 20
1290.159665451776
 30
0.0
 11
-745.6930093899964
 21
1277.499665451776
 31
0.0
  0
ARC
  5
4FB
330
1F
100
AcDbEntity
  8
C
100
AcDbCircle
 10
-732.3330093899965
 20
1277.499665451776
 30
0.0
 40
0.7
100
AcDbArc
 50
270.0
 51
0.0
  0
ARC
  5
4FC
330
1F
100
AcDbEntity
  8
C
100
AcDbCircle
 10
-744.9930093899965
 20
1277.499665451776
 30
0.0
 40
0.7
100
AcDbArc
 50
180.0
 51
270.0
  0
ARC
  5
4FD
330
1F
100
AcDbEntity
  8
C
100
AcDbCircle
 10
-744.9930093899965
 20
1290.159665451776
 30
0.0
 40
0.7
100
AcDbArc
 50
90.0
 51
180.0
  0
ARC
  5
4FE
330
1F
100
AcDbEntity
  8
C
100
AcDbCircle
 10
-732.3330093899965
 20
1290.159665451776
 30
0.0
 40
0.7
100
AcDbArc
 50
0.0
 51
90.0
  0
LINE
  5
4FF
330
1F
100
AcDbEntity
  8
C
100
AcDbLine
 10
-725.9430093899953
 20
1290.859665451776
 30
0.0
 11
-713.2830093899954
 21
1290.859665451776
 31
0.0
  0
LINE
  5
500
330
1F
100
AcDbEntity
  8
C
100
AcDbLine
 10
-725.9430093899953
 20
1276.799665451776
 30
0.0
 11
-713.2830093899954
 21
1276.799665451777
 31
0.0
  0
LINE
  5
501
330
1F
100
AcDbEntity
  8
C
100
AcDbLine
 10
-712.5830093899954
 20
1290.159665451776
 30
0.0
 11
-712.5830093899954
 21
1277.499665451776
 31
0.0
  0
LINE
  5
502
330
1F
100
AcDbEntity
  8
C
100
AcDbLine
 10
-726.6430093899953
 20
1290.159665451776
 30
0.0
 11
-726.6430093899953
 21
1277.499665451776
 31
0.0
  0
ARC
  5
503
330
1F
100
AcDbEntity
  8
C
100
AcDbCircle
 10
-713.2830093899954
 20
1277.499665451776
 30
0.0
 40
0.7
100
AcDbArc
 50
270.0
 51
0.0
  0
ARC
  5
504
330
1F
100
AcDbEntity
  8
C
100
AcDbCircle
 10
-725.9430093899953
 20
1277.499665451776
 30
0.0
 40
0.7
100
AcDbArc
 50
180.0
 51
270.0
  0
ARC
  5
505
330
1F
100
AcDbEntity
  8
C
100
AcDbCircle
 10
-725.9430093899953
 20
1290.159665451776
 30
0.0
 40
0.7
100
AcDbArc
 50
90.0
 51
180.0
  0
ARC
  5
506
330
1F
100
AcDbEntity
  8
C
100
AcDbCircle
 10
-713.2830093899954
 20
1290.159665451776
 30
0.0
 40
0.7
100
AcDbArc
 50
0.0
 51
90.0
  0
LINE
  5
507
330
1F
100
AcDbEntity
  8
C
100
AcDbLine
 10
-1054.555509390009
 20
1367.059665451777
 30
0.0
 11
-1041.895509390009
 21
1367.059665451777
 31
0.0
  0
LINE
  5
508
330
1F
100
AcDbEntity
  8
C
100
AcDbLine
 10
-1054.555509390009
 20
1352.999665451777
 30
0.0
 11
-1041.895509390009
 21
1352.999665451777
 31
0.0
  0
LINE
  5
509
330
1F
100
AcDbEntity
  8
C
100
AcDbLine
 10
-1041.195509390009
 20
1366.359665451777
 30
0.0
 11
-1041.195509390009
 21
1353.699665451777
 31
0.0
  0
LINE
  5
50A
330
1F
100
AcDbEntity
  8
C
100
AcDbLine
 10
-1055.255509390009
 20
1366.359665451777
 30
0.0
 11
-1055.255509390009
 21
1353.699665451777
 31
0.0
  0
ARC
  5
50B
330
1F
100
AcDbEntity
  8
C
100
AcDbCircle
 10
-1041.895509390009
 20
1353.699665451777
 30
0.0
 40
0.7
100
AcDbArc
 50
270.0
 51
0.0
  0
ARC
  5
50C
330
1F
100
AcDbEntity
  8
C
100
AcDbCircle
 10
-1054.555509390009
 20
1353.699665451777
 30
0.0
 40
0.7
100
AcDbArc
 50
180.0
 51
270.0
  0
ARC
  5
50D
330
1F
100
AcDbEntity
  8
C
100
AcDbCircle
 10
-1054.555509390009
 20
1366.359665451777
 30
0.0
 40
0.7
100
AcDbArc
 50
90.0
 51
180.0
  0
ARC
  5
50E
330
1F
100
AcDbEntity
  8
C
100
AcDbCircle
 10
-1041.895509390009
 20
1366.359665451777
 30
0.0
 40
0.7
100
AcDbArc
 50
0.0
 51
90.0
  0
LINE
  5
50F
330
1F
100
AcDbEntity
  8
C
100
AcDbLine
 10
-1035.505509390008
 20
1367.059665451777
 30
0.0
 11
-1022.845509390008
 21
1367.059665451777
 31
0.0
  0
LINE
  5
510
330
1F
100
AcDbEntity
  8
C
100
AcDbLine
 10
-1035.505509390008
 20
1352.999665451777
 30
0.0
 11
-1022.845509390008
 21
1352.999665451777
 31
0.0
  0
LINE
  5
511
330
1F
100
AcDbEntity
  8
C
100
AcDbLine
 10
-1022.145509390008
 20
1366.359665451777
 30
0.0
 11
-1022.145509390008
 21
1353.699665451777
 31
0.0
  0
LINE
  5
512
330
1F
100
AcDbEntity
  8
C
100
AcDbLine
 10
-1036.205509390008
 20
1366.359665451777
 30
0.0
 11
-1036.205509390008
 21
1353.699665451777
 31
0.0
  0
ARC
  5
513
330
1F
100
AcDbEntity
  8
C
100
AcDbCircle
 10
-1022.845509390008
 20
1353.699665451777
 30
0.0
 40
0.7
100
AcDbArc
 50
270.0
 51
0.0
  0
ARC
  5
514
330
1F
100
AcDbEntity
  8
C
100
AcDbCircle
 10
-1035.505509390008
 20
1353.699665451777
 30
0.0
 40
0.7
100
AcDbArc
 50
180.0
 51
270.0
  0
ARC
  5
515
330
1F
100
AcDbEntity
  8
C
100
AcDbCircle
 10
-1035.505509390008
 20
1366.359665451777
 30
0.0
 40
0.7
100
AcDbArc
 50
90.0
 51
180.0
  0
ARC
  5
516
330
1F
100
AcDbEntity
  8
C
100
AcDbCircle
 10
-1022.845509390008
 20
1366.359665451777
 30
0.0
 40
0.7
100
AcDbArc
 50
0.0
 51
90.0
  0
LINE
  5
517
330
1F
100
AcDbEntity
  8
C
100
AcDbLine
 10
-1016.455509390008
 20
1367.059665451777
 30
0.0
 11
-1003.795509390009
 21
1367.059665451777
 31
0.0
  0
LINE
  5
518
330
1F
100
AcDbEntity
  8
C
100
AcDbLine
 10
-1016.455509390008
 20
1352.999665451777
 30
0.0
 11
-1003.795509390009
 21
1352.999665451777
 31
0.0
  0
LINE
  5
519
330
1F
100
AcDbEntity
  8
C
100
AcDbLine
 10
-1003.095509390008
 20
1366.359665451777
 30
0.0
 11
-1003.095509390008
 21
1353.699665451777
 31
0.0
  0
LINE
  5
51A
330
1F
100
AcDbEntity
  8
C
100
AcDbLine
 10
-1017.155509390008
 20
1366.359665451777
 30
0.0
 11
-1017.155509390008
 21
1353.699665451777
 31
0.0
  0
ARC
  5
51B
330
1F
100
AcDbEntity
  8
C
100
AcDbCircle
 10
-1003.795509390009
 20
1353.699665451777
 30
0.0
 40
0.7
100
AcDbArc
 50
270.0
 51
0.0
  0
ARC
  5
51C
330
1F
100
AcDbEntity
  8
C
100
AcDbCircle
 10
-1016.455509390008
 20
1353.699665451777
 30
0.0
 40
0.7
100
AcDbArc
 50
180.0
 51
270.0
  0
ARC
  5
51D
330
1F
100
AcDbEntity
  8
C
100
AcDbCircle
 10
-1016.455509390008
 20
1366.359665451777
 30
0.0
 40
0.7
100
AcDbArc
 50
90.0
 51
180.0
  0
ARC
  5
51E
330
1F
100
AcDbEntity
  8
C
100
AcDbCircle
 10
-1003.795509390009
 20
1366.359665451777
 30
0.0
 40
0.7
100
AcDbArc
 50
0.0
 51
90.0
  0
LINE
  5
51F
330
1F
100
AcDbEntity
  8
C
100
AcDbLine
 10
-997.405509390006
 20
1367.059665451777
 30
0.0
 11
-984.7455093900059
 21
1367.059665451777
 31
0.0
  0
LINE
  5
520
330
1F
100
AcDbEntity
  8
C
100
AcDbLine
 10
-997.405509390006
 20
1352.999665451777
 30
0.0
 11
-984.7455093900059
 21
1352.999665451777
 31
0.0
  0
LINE
  5
521
330
1F
100
AcDbEntity
  8
C
100
AcDbLine
 10
-984.0455093900059
 20
1366.359665451777
 30
0.0
 11
-984.0455093900059
 21
1353.699665451777
 31
0.0
  0
LINE
  5
522
330
1F
100
AcDbEntity
  8
C
100
AcDbLine
 10
-998.1055093900058
 20
1366.359665451777
 30
0.0
 11
-998.1055093900058
 21
1353.699665451777
 31
0.0
  0
ARC
  5
523
330
1F
100
AcDbEntity
  8
C
100
AcDbCircle
 10
-984.7455093900059
 20
1353.699665451777
 30
0.0
 40
0.7
100
AcDbArc
 50
270.0
 51
0.0
  0
ARC
  5
524
330
1F
100
AcDbEntity
  8
C
100
AcDbCircle
 10
-997.405509390006
 20
1353.699665451777
 30
0.0
 40
0.7
100
AcDbArc
 50
180.0
 51
270.0
  0
ARC
  5
525
330
1F
100
AcDbEntity
  8
C
100
AcDbCircle
 10
-997.405509390006
 20
1366.359665451777
 30
0.0
 40
0.7
100
AcDbArc
 50
90.0
 51
180.0
  0
ARC
  5
526
330
1F
100
AcDbEntity
  8
C
100
AcDbCircle
 10
-984.7455093900059
 20
1366.359665451777
 30
0.0
 40
0.7
100
AcDbArc
 50
0.0
 51
90.0
  0
LINE
  5
527
330
1F
100
AcDbEntity
  8
C
100
AcDbLine
 10
-978.355509390005
 20
1367.059665451777
 30
0.0
 11
-965.6955093900048
 21
1367.059665451777
 31
0.0
  0
LINE
  5
528
330
1F
100
AcDbEntity
  8
C
100
AcDbLine
 10
-978.355509390005
 20
1352.999665451777
 30
0.0
 11
-965.6955093900048
 21
1352.999665451777
 31
0.0
  0
LINE
  5
529
330
1F
100
AcDbEntity
  8
C
100
AcDbLine
 10
-964.9955093900048
 20
1366.359665451777
 30
0.0
 11
-964.9955093900048
 21
1353.699665451777
 31
0.0
  0
LINE
  5
52A
330
1F
100
AcDbEntity
  8
C
100
AcDbLine
 10
-979.0555093900048
 20
1366.359665451777
 30
0.0
 11
-979.0555093900048
 21
1353.699665451777
 31
0.0
  0
ARC
  5
52B
330
1F
100
AcDbEntity
  8
C
100
AcDbCircle
 10
-965.6955093900048
 20
1353.699665451777
 30
0.0
 40
0.7
100
AcDbArc
 50
270.0
 51
0.0
  0
ARC
  5
52C
330
1F
100
AcDbEntity
  8
C
100
AcDbCircle
 10
-978.355509390005
 20
1353.699665451777
 30
0.0
 40
0.7
100
AcDbArc
 50
180.0
 51
270.0
  0
ARC
  5
52D
330
1F
100
AcDbEntity
  8
C
100
AcDbCircle
 10
-978.355509390005
 20
1366.359665451777
 30
0.0
 40
0.7
100
AcDbArc
 50
90.0
 51
180.0
  0
ARC
  5
52E
330
1F
100
AcDbEntity
  8
C
100
AcDbCircle
 10
-965.6955093900048
 20
1366.359665451777
 30
0.0
 40
0.7
100
AcDbArc
 50
0.0
 51
90.0
  0
LINE
  5
52F
330
1F
100
AcDbEntity
  8
C
100
AcDbLine
 10
-959.3055093900039
 20
1367.059665451777
 30
0.0
 11
-946.6455093900037
 21
1367.059665451777
 31
0.0
  0
LINE
  5
530
330
1F
100
AcDbEntity
  8
C
100
AcDbLine
 10
-959.3055093900039
 20
1352.999665451777
 30
0.0
 11
-946.6455093900037
 21
1352.999665451777
 31
0.0
  0
LINE
  5
531
330
1F
100
AcDbEntity
  8
C
100
AcDbLine
 10
-945.9455093900038
 20
1366.359665451777
 30
0.0
 11
-945.9455093900038
 21
1353.699665451777
 31
0.0
  0
LINE
  5
532
330
1F
100
AcDbEntity
  8
C
100
AcDbLine
 10
-960.0055093900037
 20
1366.359665451777
 30
0.0
 11
-960.0055093900037
 21
1353.699665451777
 31
0.0
  0
ARC
  5
533
330
1F
100
AcDbEntity
  8
C
100
AcDbCircle
 10
-946.6455093900037
 20
1353.699665451777
 30
0.0
 40
0.7
100
AcDbArc
 50
270.0
 51
0.0
  0
ARC
  5
534
330
1F
100
AcDbEntity
  8
C
100
AcDbCircle
 10
-959.3055093900039
 20
1353.699665451777
 30
0.0
 40
0.7
100
AcDbArc
 50
180.0
 51
270.0
  0
ARC
  5
535
330
1F
100
AcDbEntity
  8
C
100
AcDbCircle
 10
-959.3055093900039
 20
1366.359665451777
 30
0.0
 40
0.7
100
AcDbArc
 50
90.0
 51
180.0
  0
ARC
  5
536
330
1F
100
AcDbEntity
  8
C
100
AcDbCircle
 10
-946.6455093900037
 20
1366.359665451777
 30
0.0
 40
0.7
100
AcDbArc
 50
0.0
 51
90.0
  0
LINE
  5
537
330
1F
100
AcDbEntity
  8
C
100
AcDbLine
 10
-940.2555093900046
 20
1367.059665451777
 30
0.0
 11
-927.5955093900044
 21
1367.059665451777
 31
0.0
  0
LINE
  5
538
330
1F
100
AcDbEntity
  8
C
100
AcDbLine
 10
-940.2555093900046
 20
1352.999665451777
 30
0.0
 11
-927.5955093900044
 21
1352.999665451777
 31
0.0
  0
LINE
  5
539
330
1F
100
AcDbEntity
  8
C
100
AcDbLine
 10
-926.8955093900045
 20
1366.359665451777
 30
0.0
 11
-926.8955093900045
 21
1353.699665451777
 31
0.0
  0
LINE
  5
53A
330
1F
100
AcDbEntity
  8
C
100
AcDbLine
 10
-940.9555093900044
 20
1366.359665451777
 30
0.0
 11
-940.9555093900044
 21
1353.699665451777
 31
0.0
  0
ARC
  5
53B
330
1F
100
AcDbEntity
  8
C
100
AcDbCircle
 10
-927.5955093900044
 20
1353.699665451777
 30
0.0
 40
0.7
100
AcDbArc
 50
270.0
 51
0.0
  0
ARC
  5
53C
330
1F
100
AcDbEntity
  8
C
100
AcDbCircle
 10
-940.2555093900046
 20
1353.699665451777
 30
0.0
 40
0.7
100
AcDbArc
 50
180.0
 51
270.0
  0
ARC
  5
53D
330
1F
100
AcDbEntity
  8
C
100
AcDbCircle
 10
-940.2555093900046
 20
1366.359665451777
 30
0.0
 40
0.7
100
AcDbArc
 50
90.0
 51
180.0
  0
ARC
  5
53E
330
1F
100
AcDbEntity
  8
C
100
AcDbCircle
 10
-927.5955093900044
 20
1366.359665451777
 30
0.0
 40
0.7
100
AcDbArc
 50
0.0
 51
90.0
  0
LINE
  5
53F
330
1F
100
AcDbEntity
  8
C
100
AcDbLine
 10
-921.2055093900017
 20
1367.059665451777
 30
0.0
 11
-908.5455093900016
 21
1367.059665451777
 31
0.0
  0
LINE
  5
540
330
1F
100
AcDbEntity
  8
C
100
AcDbLine
 10
-921.2055093900017
 20
1352.999665451777
 30
0.0
 11
-908.5455093900016
 21
1352.999665451777
 31
0.0
  0
LINE
  5
541
330
1F
100
AcDbEntity
  8
C
100
AcDbLine
 10
-907.8455093900016
 20
1366.359665451777
 30
0.0
 11
-907.8455093900016
 21
1353.699665451777
 31
0.0
  0
LINE
  5
542
330
1F
100
AcDbEntity
  8
C
100
AcDbLine
 10
-921.9055093900015
 20
1366.359665451777
 30
0.0
 11
-921.9055093900015
 21
1353.699665451777
 31
0.0
  0
ARC
  5
543
330
1F
100
AcDbEntity
  8
C
100
AcDbCircle
 10
-908.5455093900016
 20
1353.699665451777
 30
0.0
 40
0.7
100
AcDbArc
 50
270.0
 51
0.0
  0
ARC
  5
544
330
1F
100
AcDbEntity
  8
C
100
AcDbCircle
 10
-921.2055093900017
 20
1353.699665451777
 30
0.0
 40
0.7
100
AcDbArc
 50
180.0
 51
270.0
  0
ARC
  5
545
330
1F
100
AcDbEntity
  8
C
100
AcDbCircle
 10
-921.2055093900017
 20
1366.359665451777
 30
0.0
 40
0.7
100
AcDbArc
 50
90.0
 51
180.0
  0
ARC
  5
546
330
1F
100
AcDbEntity
  8
C
100
AcDbCircle
 10
-908.5455093900016
 20
1366.359665451777
 30
0.0
 40
0.7
100
AcDbArc
 50
0.0
 51
90.0
  0
LINE
  5
547
330
1F
100
AcDbEntity
  8
C
100
AcDbLine
 10
-902.1555093900005
 20
1367.059665451777
 30
0.0
 11
-889.4955093900005
 21
1367.059665451777
 31
0.0
  0
LINE
  5
548
330
1F
100
AcDbEntity
  8
C
100
AcDbLine
 10
-902.1555093900005
 20
1352.999665451777
 30
0.0
 11
-889.4955093900005
 21
1352.999665451777
 31
0.0
  0
LINE
  5
549
330
1F
100
AcDbEntity
  8
C
100
AcDbLine
 10
-888.7955093900004
 20
1366.359665451777
 30
0.0
 11
-888.7955093900004
 21
1353.699665451777
 31
0.0
  0
LINE
  5
54A
330
1F
100
AcDbEntity
  8
C
100
AcDbLine
 10
-902.8555093900004
 20
1366.359665451777
 30
0.0
 11
-902.8555093900004
 21
1353.699665451777
 31
0.0
  0
ARC
  5
54B
330
1F
100
AcDbEntity
  8
C
100
AcDbCircle
 10
-889.4955093900005
 20
1353.699665451777
 30
0.0
 40
0.7
100
AcDbArc
 50
270.0
 51
0.0
  0
ARC
  5
54C
330
1F
100
AcDbEntity
  8
C
100
AcDbCircle
 10
-902.1555093900005
 20
1353.699665451777
 30
0.0
 40
0.7
100
AcDbArc
 50
180.0
 51
270.0
  0
ARC
  5
54D
330
1F
100
AcDbEntity
  8
C
100
AcDbCircle
 10
-902.1555093900005
 20
1366.359665451777
 30
0.0
 40
0.7
100
AcDbArc
 50
90.0
 51
180.0
  0
ARC
  5
54E
330
1F
100
AcDbEntity
  8
C
100
AcDbCircle
 10
-889.4955093900005
 20
1366.359665451777
 30
0.0
 40
0.7
100
AcDbArc
 50
0.0
 51
90.0
  0
LINE
  5
54F
330
1F
100
AcDbEntity
  8
C
100
AcDbLine
 10
-883.1055093899994
 20
1367.059665451777
 30
0.0
 11
-870.4455093899994
 21
1367.059665451777
 31
0.0
  0
LINE
  5
550
330
1F
100
AcDbEntity
  8
C
100
AcDbLine
 10
-883.1055093899994
 20
1352.999665451777
 30
0.0
 11
-870.4455093899994
 21
1352.999665451777
 31
0.0
  0
LINE
  5
551
330
1F
100
AcDbEntity
  8
C
100
AcDbLine
 10
-869.7455093899993
 20
1366.359665451777
 30
0.0
 11
-869.7455093899993
 21
1353.699665451777
 31
0.0
  0
LINE
  5
552
330
1F
100
AcDbEntity
  8
C
100
AcDbLine
 10
-883.8055093899994
 20
1366.359665451777
 30
0.0
 11
-883.8055093899994
 21
1353.699665451777
 31
0.0
  0
ARC
  5
553
330
1F
100
AcDbEntity
  8
C
100
AcDbCircle
 10
-870.4455093899994
 20
1353.699665451777
 30
0.0
 40
0.7
100
AcDbArc
 50
270.0
 51
0.0
  0
ARC
  5
554
330
1F
100
AcDbEntity
  8
C
100
AcDbCircle
 10
-883.1055093899994
 20
1353.699665451777
 30
0.0
 40
0.7
100
AcDbArc
 50
180.0
 51
270.0
  0
ARC
  5
555
330
1F
100
AcDbEntity
  8
C
100
AcDbCircle
 10
-883.1055093899994
 20
1366.359665451777
 30
0.0
 40
0.7
100
AcDbArc
 50
90.0
 51
180.0
  0
ARC
  5
556
330
1F
100
AcDbEntity
  8
C
100
AcDbCircle
 10
-870.4455093899994
 20
1366.359665451777
 30
0.0
 40
0.7
100
AcDbArc
 50
0.0
 51
90.0
  0
LINE
  5
557
330
1F
100
AcDbEntity
  8
C
100
AcDbLine
 10
-864.0555093900003
 20
1367.059665451777
 30
0.0
 11
-851.3955093900001
 21
1367.059665451777
 31
0.0
  0
LINE
  5
558
330
1F
100
AcDbEntity
  8
C
100
AcDbLine
 10
-864.0555093900003
 20
1352.999665451777
 30
0.0
 11
-851.3955093900001
 21
1352.999665451777
 31
0.0
  0
LINE
  5
559
330
1F
100
AcDbEntity
  8
C
100
AcDbLine
 10
-850.69550939
 20
1366.359665451777
 30
0.0
 11
-850.69550939
 21
1353.699665451777
 31
0.0
  0
LINE
  5
55A
330
1F
100
AcDbEntity
  8
C
100
AcDbLine
 10
-864.7555093900001
 20
1366.359665451777
 30
0.0
 11
-864.7555093900001
 21
1353.699665451777
 31
0.0
  0
ARC
  5
55B
330
1F
100
AcDbEntity
  8
C
100
AcDbCircle
 10
-851.3955093900001
 20
1353.699665451777
 30
0.0
 40
0.7
100
AcDbArc
 50
270.0
 51
0.0
  0
ARC
  5
55C
330
1F
100
AcDbEntity
  8
C
100
AcDbCircle
 10
-864.0555093900003
 20
1353.699665451777
 30
0.0
 40
0.7
100
AcDbArc
 50
180.0
 51
270.0
  0
ARC
  5
55D
330
1F
100
AcDbEntity
  8
C
100
AcDbCircle
 10
-864.0555093900003
 20
1366.359665451777
 30
0.0
 40
0.7
100
AcDbArc
 50
90.0
 51
180.0
  0
ARC
  5
55E
330
1F
100
AcDbEntity
  8
C
100
AcDbCircle
 10
-851.3955093900001
 20
1366.359665451777
 30
0.0
 40
0.7
100
AcDbArc
 50
0.0
 51
90.0
  0
LINE
  5
55F
330
1F
100
AcDbEntity
  8
C
100
AcDbLine
 10
-845.0055093899973
 20
1367.059665451777
 30
0.0
 11
-832.3455093899973
 21
1367.059665451777
 31
0.0
  0
LINE
  5
560
330
1F
100
AcDbEntity
  8
C
100
AcDbLine
 10
-845.0055093899973
 20
1352.999665451777
 30
0.0
 11
-832.3455093899973
 21
1352.999665451777
 31
0.0
  0
LINE
  5
561
330
1F
100
AcDbEntity
  8
C
100
AcDbLine
 10
-831.6455093899971
 20
1366.359665451777
 30
0.0
 11
-831.6455093899971
 21
1353.699665451777
 31
0.0
  0
LINE
  5
562
330
1F
100
AcDbEntity
  8
C
100
AcDbLine
 10
-845.705509389997
 20
1366.359665451777
 30
0.0
 11
-845.705509389997
 21
1353.699665451777
 31
0.0
  0
ARC
  5
563
330
1F
100
AcDbEntity
  8
C
100
AcDbCircle
 10
-832.3455093899973
 20
1353.699665451777
 30
0.0
 40
0.7
100
AcDbArc
 50
270.0
 51
0.0
  0
ARC
  5
564
330
1F
100
AcDbEntity
  8
C
100
AcDbCircle
 10
-845.0055093899973
 20
1353.699665451777
 30
0.0
 40
0.7
100
AcDbArc
 50
180.0
 51
270.0
  0
ARC
  5
565
330
1F
100
AcDbEntity
  8
C
100
AcDbCircle
 10
-845.0055093899973
 20
1366.359665451777
 30
0.0
 40
0.7
100
AcDbArc
 50
90.0
 51
180.0
  0
ARC
  5
566
330
1F
100
AcDbEntity
  8
C
100
AcDbCircle
 10
-832.3455093899973
 20
1366.359665451777
 30
0.0
 40
0.7
100
AcDbArc
 50
0.0
 51
90.0
  0
LINE
  5
567
330
1F
100
AcDbEntity
  8
C
100
AcDbLine
 10
-825.9555093899971
 20
1367.059665451777
 30
0.0
 11
-813.2955093899973
 21
1367.059665451777
 31
0.0
  0
LINE
  5
568
330
1F
100
AcDbEntity
  8
C
100
AcDbLine
 10
-825.9555093899971
 20
1352.999665451777
 30
0.0
 11
-813.2955093899973
 21
1352.999665451777
 31
0.0
  0
LINE
  5
569
330
1F
100
AcDbEntity
  8
C
100
AcDbLine
 10
-812.5955093899971
 20
1366.359665451777
 30
0.0
 11
-812.5955093899971
 21
1353.699665451777
 31
0.0
  0
LINE
  5
56A
330
1F
100
AcDbEntity
  8
C
100
AcDbLine
 10
-826.6555093899972
 20
1366.359665451777
 30
0.0
 11
-826.6555093899972
 21
1353.699665451777
 31
0.0
  0
ARC
  5
56B
330
1F
100
AcDbEntity
  8
C
100
AcDbCircle
 10
-813.2955093899973
 20
1353.699665451777
 30
0.0
 40
0.7
100
AcDbArc
 50
270.0
 51
0.0
  0
ARC
  5
56C
330
1F
100
AcDbEntity
  8
C
100
AcDbCircle
 10
-825.9555093899971
 20
1353.699665451777
 30
0.0
 40
0.7
100
AcDbArc
 50
180.0
 51
270.0
  0
ARC
  5
56D
330
1F
100
AcDbEntity
  8
C
100
AcDbCircle
 10
-825.9555093899971
 20
1366.359665451777
 30
0.0
 40
0.7
100
AcDbArc
 50
90.0
 51
180.0
  0
ARC
  5
56E
330
1F
100
AcDbEntity
  8
C
100
AcDbCircle
 10
-813.2955093899973
 20
1366.359665451777
 30
0.0
 40
0.7
100
AcDbArc
 50
0.0
 51
90.0
  0
LINE
  5
56F
330
1F
100
AcDbEntity
  8
C
100
AcDbLine
 10
-1025.980509390014
 20
1348.009665451777
 30
0.0
 11
-1013.320509390013
 21
1348.009665451778
 31
0.0
  0
LINE
  5
570
330
1F
100
AcDbEntity
  8
C
100
AcDbLine
 10
-1025.980509390014
 20
1333.949665451777
 30
0.0
 11
-1013.320509390013
 21
1333.949665451778
 31
0.0
  0
LINE
  5
571
330
1F
100
AcDbEntity
  8
C
100
AcDbLine
 10
-1012.620509390014
 20
1347.309665451778
 30
0.0
 11
-1012.620509390014
 21
1334.649665451778
 31
0.0
  0
LINE
  5
572
330
1F
100
AcDbEntity
  8
C
100
AcDbLine
 10
-1026.680509390013
 20
1347.309665451778
 30
0.0
 11
-1026.680509390013
 21
1334.649665451778
 31
0.0
  0
ARC
  5
573
330
1F
100
AcDbEntity
  8
C
100
AcDbCircle
 10
-1013.320509390013
 20
1334.649665451778
 30
0.0
 40
0.7
100
AcDbArc
 50
270.0
 51
0.0
  0
ARC
  5
574
330
1F
100
AcDbEntity
  8
C
100
AcDbCircle
 10
-1025.980509390014
 20
1334.649665451778
 30
0.0
 40
0.7
100
AcDbArc
 50
180.0
 51
270.0
  0
ARC
  5
575
330
1F
100
AcDbEntity
  8
C
100
AcDbCircle
 10
-1025.980509390014
 20
1347.309665451778
 30
0.0
 40
0.7
100
AcDbArc
 50
90.0
 51
180.0
  0
ARC
  5
576
330
1F
100
AcDbEntity
  8
C
100
AcDbCircle
 10
-1013.320509390013
 20
1347.309665451778
 30
0.0
 40
0.7
100
AcDbArc
 50
0.0
 51
90.0
  0
LINE
  5
577
330
1F
100
AcDbEntity
  8
C
100
AcDbLine
 10
-1006.930509390011
 20
1348.009665451777
 30
0.0
 11
-994.270509390011
 21
1348.009665451778
 31
0.0
  0
LINE
  5
578
330
1F
100
AcDbEntity
  8
C
100
AcDbLine
 10
-1006.930509390011
 20
1333.949665451777
 30
0.0
 11
-994.270509390011
 21
1333.949665451778
 31
0.0
  0
LINE
  5
579
330
1F
100
AcDbEntity
  8
C
100
AcDbLine
 10
-993.5705093900109
 20
1347.309665451778
 30
0.0
 11
-993.5705093900109
 21
1334.649665451778
 31
0.0
  0
LINE
  5
57A
330
1F
100
AcDbEntity
  8
C
100
AcDbLine
 10
-1007.630509390011
 20
1347.309665451778
 30
0.0
 11
-1007.630509390011
 21
1334.649665451778
 31
0.0
  0
ARC
  5
57B
330
1F
100
AcDbEntity
  8
C
100
AcDbCircle
 10
-994.270509390011
 20
1334.649665451778
 30
0.0
 40
0.7
100
AcDbArc
 50
270.0
 51
0.0
  0
ARC
  5
57C
330
1F
100
AcDbEntity
  8
C
100
AcDbCircle
 10
-1006.930509390011
 20
1334.649665451778
 30
0.0
 40
0.7
100
AcDbArc
 50
180.0
 51
270.0
  0
ARC
  5
57D
330
1F
100
AcDbEntity
  8
C
100
AcDbCircle
 10
-1006.930509390011
 20
1347.309665451778
 30
0.0
 40
0.7
100
AcDbArc
 50
90.0
 51
180.0
  0
ARC
  5
57E
330
1F
100
AcDbEntity
  8
C
100
AcDbCircle
 10
-994.270509390011
 20
1347.309665451778
 30
0.0
 40
0.7
100
AcDbArc
 50
0.0
 51
90.0
  0
LINE
  5
57F
330
1F
100
AcDbEntity
  8
C
100
AcDbLine
 10
-987.8805093900099
 20
1348.009665451777
 30
0.0
 11
-975.22050939001
 21
1348.009665451778
 31
0.0
  0
LINE
  5
580
330
1F
100
AcDbEntity
  8
C
100
AcDbLine
 10
-987.8805093900099
 20
1333.949665451777
 30
0.0
 11
-975.22050939001
 21
1333.949665451778
 31
0.0
  0
LINE
  5
581
330
1F
100
AcDbEntity
  8
C
100
AcDbLine
 10
-974.5205093900098
 20
1347.309665451778
 30
0.0
 11
-974.5205093900098
 21
1334.649665451778
 31
0.0
  0
LINE
  5
582
330
1F
100
AcDbEntity
  8
C
100
AcDbLine
 10
-988.5805093900099
 20
1347.309665451778
 30
0.0
 11
-988.5805093900099
 21
1334.649665451778
 31
0.0
  0
ARC
  5
583
330
1F
100
AcDbEntity
  8
C
100
AcDbCircle
 10
-975.22050939001
 20
1334.649665451778
 30
0.0
 40
0.7
100
AcDbArc
 50
270.0
 51
0.0
  0
ARC
  5
584
330
1F
100
AcDbEntity
  8
C
100
AcDbCircle
 10
-987.8805093900099
 20
1334.649665451778
 30
0.0
 40
0.7
100
AcDbArc
 50
180.0
 51
270.0
  0
ARC
  5
585
330
1F
100
AcDbEntity
  8
C
100
AcDbCircle
 10
-987.8805093900099
 20
1347.309665451778
 30
0.0
 40
0.7
100
AcDbArc
 50
90.0
 51
180.0
  0
ARC
  5
586
330
1F
100
AcDbEntity
  8
C
100
AcDbCircle
 10
-975.22050939001
 20
1347.309665451778
 30
0.0
 40
0.7
100
AcDbArc
 50
0.0
 51
90.0
  0
LINE
  5
587
330
1F
100
AcDbEntity
  8
C
100
AcDbLine
 10
-968.8305093900089
 20
1348.009665451777
 30
0.0
 11
-956.1705093900089
 21
1348.009665451778
 31
0.0
  0
LINE
  5
588
330
1F
100
AcDbEntity
  8
C
100
AcDbLine
 10
-968.8305093900089
 20
1333.949665451777
 30
0.0
 11
-956.1705093900089
 21
1333.949665451778
 31
0.0
  0
LINE
  5
589
330
1F
100
AcDbEntity
  8
C
100
AcDbLine
 10
-955.4705093900087
 20
1347.309665451778
 30
0.0
 11
-955.4705093900087
 21
1334.649665451778
 31
0.0
  0
LINE
  5
58A
330
1F
100
AcDbEntity
  8
C
100
AcDbLine
 10
-969.5305093900087
 20
1347.309665451778
 30
0.0
 11
-969.5305093900087
 21
1334.649665451778
 31
0.0
  0
ARC
  5
58B
330
1F
100
AcDbEntity
  8
C
100
AcDbCircle
 10
-956.1705093900089
 20
1334.649665451778
 30
0.0
 40
0.7
100
AcDbArc
 50
270.0
 51
0.0
  0
ARC
  5
58C
330
1F
100
AcDbEntity
  8
C
100
AcDbCircle
 10
-968.8305093900089
 20
1334.649665451778
 30
0.0
 40
0.7
100
AcDbArc
 50
180.0
 51
270.0
  0
ARC
  5
58D
330
1F
100
AcDbEntity
  8
C
100
AcDbCircle
 10
-968.8305093900089
 20
1347.309665451778
 30
0.0
 40
0.7
100
AcDbArc
 50
90.0
 51
180.0
  0
ARC
  5
58E
330
1F
100
AcDbEntity
  8
C
100
AcDbCircle
 10
-956.1705093900089
 20
1347.309665451778
 30
0.0
 40
0.7
100
AcDbArc
 50
0.0
 51
90.0
  0
LINE
  5
58F
330
1F
100
AcDbEntity
  8
C
100
AcDbLine
 10
-949.7805093900096
 20
1348.009665451777
 30
0.0
 11
-937.1205093900096
 21
1348.009665451778
 31
0.0
  0
LINE
  5
590
330
1F
100
AcDbEntity
  8
C
100
AcDbLine
 10
-949.7805093900096
 20
1333.949665451777
 30
0.0
 11
-937.1205093900096
 21
1333.949665451778
 31
0.0
  0
LINE
  5
591
330
1F
100
AcDbEntity
  8
C
100
AcDbLine
 10
-936.4205093900094
 20
1347.309665451778
 30
0.0
 11
-936.4205093900094
 21
1334.649665451778
 31
0.0
  0
LINE
  5
592
330
1F
100
AcDbEntity
  8
C
100
AcDbLine
 10
-950.4805093900095
 20
1347.309665451778
 30
0.0
 11
-950.4805093900095
 21
1334.649665451778
 31
0.0
  0
ARC
  5
593
330
1F
100
AcDbEntity
  8
C
100
AcDbCircle
 10
-937.1205093900096
 20
1334.649665451778
 30
0.0
 40
0.7
100
AcDbArc
 50
270.0
 51
0.0
  0
ARC
  5
594
330
1F
100
AcDbEntity
  8
C
100
AcDbCircle
 10
-949.7805093900096
 20
1334.649665451778
 30
0.0
 40
0.7
100
AcDbArc
 50
180.0
 51
270.0
  0
ARC
  5
595
330
1F
100
AcDbEntity
  8
C
100
AcDbCircle
 10
-949.7805093900096
 20
1347.309665451778
 30
0.0
 40
0.7
100
AcDbArc
 50
90.0
 51
180.0
  0
ARC
  5
596
330
1F
100
AcDbEntity
  8
C
100
AcDbCircle
 10
-937.1205093900096
 20
1347.309665451778
 30
0.0
 40
0.7
100
AcDbArc
 50
0.0
 51
90.0
  0
LINE
  5
597
330
1F
100
AcDbEntity
  8
C
100
AcDbLine
 10
-930.7305093900067
 20
1348.009665451777
 30
0.0
 11
-918.0705093900067
 21
1348.009665451778
 31
0.0
  0
LINE
  5
598
330
1F
100
AcDbEntity
  8
C
100
AcDbLine
 10
-930.7305093900067
 20
1333.949665451777
 30
0.0
 11
-918.0705093900067
 21
1333.949665451778
 31
0.0
  0
LINE
  5
599
330
1F
100
AcDbEntity
  8
C
100
AcDbLine
 10
-917.3705093900066
 20
1347.309665451778
 30
0.0
 11
-917.3705093900066
 21
1334.649665451778
 31
0.0
  0
LINE
  5
59A
330
1F
100
AcDbEntity
  8
C
100
AcDbLine
 10
-931.4305093900065
 20
1347.309665451778
 30
0.0
 11
-931.4305093900065
 21
1334.649665451778
 31
0.0
  0
ARC
  5
59B
330
1F
100
AcDbEntity
  8
C
100
AcDbCircle
 10
-918.0705093900067
 20
1334.649665451778
 30
0.0
 40
0.7
100
AcDbArc
 50
270.0
 51
0.0
  0
ARC
  5
59C
330
1F
100
AcDbEntity
  8
C
100
AcDbCircle
 10
-930.7305093900067
 20
1334.649665451778
 30
0.0
 40
0.7
100
AcDbArc
 50
180.0
 51
270.0
  0
ARC
  5
59D
330
1F
100
AcDbEntity
  8
C
100
AcDbCircle
 10
-930.7305093900067
 20
1347.309665451778
 30
0.0
 40
0.7
100
AcDbArc
 50
90.0
 51
180.0
  0
ARC
  5
59E
330
1F
100
AcDbEntity
  8
C
100
AcDbCircle
 10
-918.0705093900067
 20
1347.309665451778
 30
0.0
 40
0.7
100
AcDbArc
 50
0.0
 51
90.0
  0
LINE
  5
59F
330
1F
100
AcDbEntity
  8
C
100
AcDbLine
 10
-911.6805093900056
 20
1348.009665451777
 30
0.0
 11
-899.0205093900057
 21
1348.009665451778
 31
0.0
  0
LINE
  5
5A0
330
1F
100
AcDbEntity
  8
C
100
AcDbLine
 10
-911.6805093900056
 20
1333.949665451777
 30
0.0
 11
-899.0205093900057
 21
1333.949665451778
 31
0.0
  0
LINE
  5
5A1
330
1F
100
AcDbEntity
  8
C
100
AcDbLine
 10
-898.3205093900055
 20
1347.309665451778
 30
0.0
 11
-898.3205093900055
 21
1334.649665451778
 31
0.0
  0
LINE
  5
5A2
330
1F
100
AcDbEntity
  8
C
100
AcDbLine
 10
-912.3805093900054
 20
1347.309665451778
 30
0.0
 11
-912.3805093900054
 21
1334.649665451778
 31
0.0
  0
ARC
  5
5A3
330
1F
100
AcDbEntity
  8
C
100
AcDbCircle
 10
-899.0205093900057
 20
1334.649665451778
 30
0.0
 40
0.7
100
AcDbArc
 50
270.0
 51
0.0
  0
ARC
  5
5A4
330
1F
100
AcDbEntity
  8
C
100
AcDbCircle
 10
-911.6805093900056
 20
1334.649665451778
 30
0.0
 40
0.7
100
AcDbArc
 50
180.0
 51
270.0
  0
ARC
  5
5A5
330
1F
100
AcDbEntity
  8
C
100
AcDbCircle
 10
-911.6805093900056
 20
1347.309665451778
 30
0.0
 40
0.7
100
AcDbArc
 50
90.0
 51
180.0
  0
ARC
  5
5A6
330
1F
100
AcDbEntity
  8
C
100
AcDbCircle
 10
-899.0205093900057
 20
1347.309665451778
 30
0.0
 40
0.7
100
AcDbArc
 50
0.0
 51
90.0
  0
LINE
  5
5A7
330
1F
100
AcDbEntity
  8
C
100
AcDbLine
 10
-892.6305093900046
 20
1348.009665451777
 30
0.0
 11
-879.9705093900044
 21
1348.009665451778
 31
0.0
  0
LINE
  5
5A8
330
1F
100
AcDbEntity
  8
C
100
AcDbLine
 10
-892.6305093900046
 20
1333.949665451777
 30
0.0
 11
-879.9705093900044
 21
1333.949665451778
 31
0.0
  0
LINE
  5
5A9
330
1F
100
AcDbEntity
  8
C
100
AcDbLine
 10
-879.2705093900044
 20
1347.309665451778
 30
0.0
 11
-879.2705093900044
 21
1334.649665451778
 31
0.0
  0
LINE
  5
5AA
330
1F
100
AcDbEntity
  8
C
100
AcDbLine
 10
-893.3305093900044
 20
1347.309665451778
 30
0.0
 11
-893.3305093900044
 21
1334.649665451778
 31
0.0
  0
ARC
  5
5AB
330
1F
100
AcDbEntity
  8
C
100
AcDbCircle
 10
-879.9705093900044
 20
1334.649665451778
 30
0.0
 40
0.7
100
AcDbArc
 50
270.0
 51
0.0
  0
ARC
  5
5AC
330
1F
100
AcDbEntity
  8
C
100
AcDbCircle
 10
-892.6305093900046
 20
1334.649665451778
 30
0.0
 40
0.7
100
AcDbArc
 50
180.0
 51
270.0
  0
ARC
  5
5AD
330
1F
100
AcDbEntity
  8
C
100
AcDbCircle
 10
-892.6305093900046
 20
1347.309665451778
 30
0.0
 40
0.7
100
AcDbArc
 50
90.0
 51
180.0
  0
ARC
  5
5AE
330
1F
100
AcDbEntity
  8
C
100
AcDbCircle
 10
-879.9705093900044
 20
1347.309665451778
 30
0.0
 40
0.7
100
AcDbArc
 50
0.0
 51
90.0
  0
LINE
  5
5AF
330
1F
100
AcDbEntity
  8
C
100
AcDbLine
 10
-873.5805093900053
 20
1348.009665451777
 30
0.0
 11
-860.9205093900053
 21
1348.009665451778
 31
0.0
  0
LINE
  5
5B0
330
1F
100
AcDbEntity
  8
C
100
AcDbLine
 10
-873.5805093900053
 20
1333.949665451777
 30
0.0
 11
-860.9205093900053
 21
1333.949665451778
 31
0.0
  0
LINE
  5
5B1
330
1F
100
AcDbEntity
  8
C
100
AcDbLine
 10
-860.2205093900051
 20
1347.309665451778
 30
0.0
 11
-860.2205093900051
 21
1334.649665451778
 31
0.0
  0
LINE
  5
5B2
330
1F
100
AcDbEntity
  8
C
100
AcDbLine
 10
-874.2805093900051
 20
1347.309665451778
 30
0.0
 11
-874.2805093900051
 21
1334.649665451778
 31
0.0
  0
ARC
  5
5B3
330
1F
100
AcDbEntity
  8
C
100
AcDbCircle
 10
-860.9205093900053
 20
1334.649665451778
 30
0.0
 40
0.7
100
AcDbArc
 50
270.0
 51
0.0
  0
ARC
  5
5B4
330
1F
100
AcDbEntity
  8
C
100
AcDbCircle
 10
-873.5805093900053
 20
1334.649665451778
 30
0.0
 40
0.7
100
AcDbArc
 50
180.0
 51
270.0
  0
ARC
  5
5B5
330
1F
100
AcDbEntity
  8
C
100
AcDbCircle
 10
-873.5805093900053
 20
1347.309665451778
 30
0.0
 40
0.7
100
AcDbArc
 50
90.0
 51
180.0
  0
ARC
  5
5B6
330
1F
100
AcDbEntity
  8
C
100
AcDbCircle
 10
-860.9205093900053
 20
1347.309665451778
 30
0.0
 40
0.7
100
AcDbArc
 50
0.0
 51
90.0
  0
LINE
  5
5B7
330
1F
100
AcDbEntity
  8
C
100
AcDbLine
 10
-854.5305093900024
 20
1348.009665451777
 30
0.0
 11
-841.8705093900022
 21
1348.009665451778
 31
0.0
  0
LINE
  5
5B8
330
1F
100
AcDbEntity
  8
C
100
AcDbLine
 10
-854.5305093900024
 20
1333.949665451777
 30
0.0
 11
-841.8705093900022
 21
1333.949665451778
 31
0.0
  0
LINE
  5
5B9
330
1F
100
AcDbEntity
  8
C
100
AcDbLine
 10
-841.1705093900023
 20
1347.309665451778
 30
0.0
 11
-841.1705093900023
 21
1334.649665451778
 31
0.0
  0
LINE
  5
5BA
330
1F
100
AcDbEntity
  8
C
100
AcDbLine
 10
-855.2305093900022
 20
1347.309665451778
 30
0.0
 11
-855.2305093900022
 21
1334.649665451778
 31
0.0
  0
ARC
  5
5BB
330
1F
100
AcDbEntity
  8
C
100
AcDbCircle
 10
-841.8705093900022
 20
1334.649665451778
 30
0.0
 40
0.7
100
AcDbArc
 50
270.0
 51
0.0
  0
ARC
  5
5BC
330
1F
100
AcDbEntity
  8
C
100
AcDbCircle
 10
-854.5305093900024
 20
1334.649665451778
 30
0.0
 40
0.7
100
AcDbArc
 50
180.0
 51
270.0
  0
ARC
  5
5BD
330
1F
100
AcDbEntity
  8
C
100
AcDbCircle
 10
-854.5305093900024
 20
1347.309665451778
 30
0.0
 40
0.7
100
AcDbArc
 50
90.0
 51
180.0
  0
ARC
  5
5BE
330
1F
100
AcDbEntity
  8
C
100
AcDbCircle
 10
-841.8705093900022
 20
1347.309665451778
 30
0.0
 40
0.7
100
AcDbArc
 50
0.0
 51
90.0
  0
LINE
  5
5BF
330
1F
100
AcDbEntity
  8
C
100
AcDbLine
 10
-835.4805093900022
 20
1348.009665451777
 30
0.0
 11
-822.8205093900024
 21
1348.009665451778
 31
0.0
  0
LINE
  5
5C0
330
1F
100
AcDbEntity
  8
C
100
AcDbLine
 10
-835.4805093900022
 20
1333.949665451777
 30
0.0
 11
-822.8205093900024
 21
1333.949665451778
 31
0.0
  0
LINE
  5
5C1
330
1F
100
AcDbEntity
  8
C
100
AcDbLine
 10
-822.1205093900023
 20
1347.309665451778
 30
0.0
 11
-822.1205093900023
 21
1334.649665451778
 31
0.0
  0
LINE
  5
5C2
330
1F
100
AcDbEntity
  8
C
100
AcDbLine
 10
-836.1805093900022
 20
1347.309665451778
 30
0.0
 11
-836.1805093900022
 21
1334.649665451778
 31
0.0
  0
ARC
  5
5C3
330
1F
100
AcDbEntity
  8
C
100
AcDbCircle
 10
-822.8205093900024
 20
1334.649665451778
 30
0.0
 40
0.7
100
AcDbArc
 50
270.0
 51
0.0
  0
ARC
  5
5C4
330
1F
100
AcDbEntity
  8
C
100
AcDbCircle
 10
-835.4805093900022
 20
1334.649665451778
 30
0.0
 40
0.7
100
AcDbArc
 50
180.0
 51
270.0
  0
ARC
  5
5C5
330
1F
100
AcDbEntity
  8
C
100
AcDbCircle
 10
-835.4805093900022
 20
1347.309665451778
 30
0.0
 40
0.7
100
AcDbArc
 50
90.0
 51
180.0
  0
ARC
  5
5C6
330
1F
100
AcDbEntity
  8
C
100
AcDbCircle
 10
-822.8205093900024
 20
1347.309665451778
 30
0.0
 40
0.7
100
AcDbArc
 50
0.0
 51
90.0
  0
LINE
  5
5C7
330
1F
100
AcDbEntity
  8
C
100
AcDbLine
 10
-816.4305093899994
 20
1348.009665451777
 30
0.0
 11
-803.7705093899994
 21
1348.009665451778
 31
0.0
  0
LINE
  5
5C8
330
1F
100
AcDbEntity
  8
C
100
AcDbLine
 10
-816.4305093899994
 20
1333.949665451777
 30
0.0
 11
-803.7705093899994
 21
1333.949665451778
 31
0.0
  0
LINE
  5
5C9
330
1F
100
AcDbEntity
  8
C
100
AcDbLine
 10
-803.0705093899994
 20
1347.309665451778
 30
0.0
 11
-803.0705093899994
 21
1334.649665451778
 31
0.0
  0
LINE
  5
5CA
330
1F
100
AcDbEntity
  8
C
100
AcDbLine
 10
-817.1305093899993
 20
1347.309665451778
 30
0.0
 11
-817.1305093899993
 21
1334.649665451778
 31
0.0
  0
ARC
  5
5CB
330
1F
100
AcDbEntity
  8
C
100
AcDbCircle
 10
-803.7705093899994
 20
1334.649665451778
 30
0.0
 40
0.7
100
AcDbArc
 50
270.0
 51
0.0
  0
ARC
  5
5CC
330
1F
100
AcDbEntity
  8
C
100
AcDbCircle
 10
-816.4305093899994
 20
1334.649665451778
 30
0.0
 40
0.7
100
AcDbArc
 50
180.0
 51
270.0
  0
ARC
  5
5CD
330
1F
100
AcDbEntity
  8
C
100
AcDbCircle
 10
-816.4305093899994
 20
1347.309665451778
 30
0.0
 40
0.7
100
AcDbArc
 50
90.0
 51
180.0
  0
ARC
  5
5CE
330
1F
100
AcDbEntity
  8
C
100
AcDbCircle
 10
-803.7705093899994
 20
1347.309665451778
 30
0.0
 40
0.7
100
AcDbArc
 50
0.0
 51
90.0
  0
LINE
  5
5CF
330
1F
100
AcDbEntity
  8
C
100
AcDbLine
 10
-1021.218009390013
 20
1328.959665451776
 30
0.0
 11
-1008.558009390013
 21
1328.959665451777
 31
0.0
  0
LINE
  5
5D0
330
1F
100
AcDbEntity
  8
C
100
AcDbLine
 10
-1021.218009390013
 20
1314.899665451777
 30
0.0
 11
-1008.558009390013
 21
1314.899665451777
 31
0.0
  0
LINE
  5
5D1
330
1F
100
AcDbEntity
  8
C
100
AcDbLine
 10
-1007.858009390013
 20
1328.259665451777
 30
0.0
 11
-1007.858009390013
 21
1315.599665451777
 31
0.0
  0
LINE
  5
5D2
330
1F
100
AcDbEntity
  8
C
100
AcDbLine
 10
-1021.918009390013
 20
1328.259665451777
 30
0.0
 11
-1021.918009390013
 21
1315.599665451777
 31
0.0
  0
ARC
  5
5D3
330
1F
100
AcDbEntity
  8
C
100
AcDbCircle
 10
-1008.558009390013
 20
1315.599665451777
 30
0.0
 40
0.7
100
AcDbArc
 50
270.0
 51
0.0
  0
ARC
  5
5D4
330
1F
100
AcDbEntity
  8
C
100
AcDbCircle
 10
-1021.218009390013
 20
1315.599665451777
 30
0.0
 40
0.7
100
AcDbArc
 50
180.0
 51
270.0
  0
ARC
  5
5D5
330
1F
100
AcDbEntity
  8
C
100
AcDbCircle
 10
-1021.218009390013
 20
1328.259665451777
 30
0.0
 40
0.7
100
AcDbArc
 50
90.0
 51
180.0
  0
ARC
  5
5D6
330
1F
100
AcDbEntity
  8
C
100
AcDbCircle
 10
-1008.558009390013
 20
1328.259665451777
 30
0.0
 40
0.7
100
AcDbArc
 50
0.0
 51
90.0
  0
LINE
  5
5D7
330
1F
100
AcDbEntity
  8
C
100
AcDbLine
 10
-1002.16800939001
 20
1328.959665451776
 30
0.0
 11
-989.5080093900103
 21
1328.959665451777
 31
0.0
  0
LINE
  5
5D8
330
1F
100
AcDbEntity
  8
C
100
AcDbLine
 10
-1002.16800939001
 20
1314.899665451777
 30
0.0
 11
-989.5080093900103
 21
1314.899665451777
 31
0.0
  0
LINE
  5
5D9
330
1F
100
AcDbEntity
  8
C
100
AcDbLine
 10
-988.8080093900102
 20
1328.259665451777
 30
0.0
 11
-988.8080093900102
 21
1315.599665451777
 31
0.0
  0
LINE
  5
5DA
330
1F
100
AcDbEntity
  8
C
100
AcDbLine
 10
-1002.86800939001
 20
1328.259665451777
 30
0.0
 11
-1002.86800939001
 21
1315.599665451777
 31
0.0
  0
ARC
  5
5DB
330
1F
100
AcDbEntity
  8
C
100
AcDbCircle
 10
-989.5080093900103
 20
1315.599665451777
 30
0.0
 40
0.7
100
AcDbArc
 50
270.0
 51
0.0
  0
ARC
  5
5DC
330
1F
100
AcDbEntity
  8
C
100
AcDbCircle
 10
-1002.16800939001
 20
1315.599665451777
 30
0.0
 40
0.7
100
AcDbArc
 50
180.0
 51
270.0
  0
ARC
  5
5DD
330
1F
100
AcDbEntity
  8
C
100
AcDbCircle
 10
-1002.16800939001
 20
1328.259665451777
 30
0.0
 40
0.7
100
AcDbArc
 50
90.0
 51
180.0
  0
ARC
  5
5DE
330
1F
100
AcDbEntity
  8
C
100
AcDbCircle
 10
-989.5080093900103
 20
1328.259665451777
 30
0.0
 40
0.7
100
AcDbArc
 50
0.0
 51
90.0
  0
LINE
  5
5DF
330
1F
100
AcDbEntity
  8
C
100
AcDbLine
 10
-983.1180093900092
 20
1328.959665451776
 30
0.0
 11
-970.4580093900093
 21
1328.959665451777
 31
0.0
  0
LINE
  5
5E0
330
1F
100
AcDbEntity
  8
C
100
AcDbLine
 10
-983.1180093900092
 20
1314.899665451777
 30
0.0
 11
-970.4580093900093
 21
1314.899665451777
 31
0.0
  0
LINE
  5
5E1
330
1F
100
AcDbEntity
  8
C
100
AcDbLine
 10
-969.7580093900091
 20
1328.259665451777
 30
0.0
 11
-969.7580093900091
 21
1315.599665451777
 31
0.0
  0
LINE
  5
5E2
330
1F
100
AcDbEntity
  8
C
100
AcDbLine
 10
-983.818009390009
 20
1328.259665451777
 30
0.0
 11
-983.818009390009
 21
1315.599665451777
 31
0.0
  0
ARC
  5
5E3
330
1F
100
AcDbEntity
  8
C
100
AcDbCircle
 10
-970.4580093900093
 20
1315.599665451777
 30
0.0
 40
0.7
100
AcDbArc
 50
270.0
 51
0.0
  0
ARC
  5
5E4
330
1F
100
AcDbEntity
  8
C
100
AcDbCircle
 10
-983.1180093900092
 20
1315.599665451777
 30
0.0
 40
0.7
100
AcDbArc
 50
180.0
 51
270.0
  0
ARC
  5
5E5
330
1F
100
AcDbEntity
  8
C
100
AcDbCircle
 10
-983.1180093900092
 20
1328.259665451777
 30
0.0
 40
0.7
100
AcDbArc
 50
90.0
 51
180.0
  0
ARC
  5
5E6
330
1F
100
AcDbEntity
  8
C
100
AcDbCircle
 10
-970.4580093900093
 20
1328.259665451777
 30
0.0
 40
0.7
100
AcDbArc
 50
0.0
 51
90.0
  0
LINE
  5
5E7
330
1F
100
AcDbEntity
  8
C
100
AcDbLine
 10
-964.0680093900082
 20
1328.959665451776
 30
0.0
 11
-951.4080093900082
 21
1328.959665451777
 31
0.0
  0
LINE
  5
5E8
330
1F
100
AcDbEntity
  8
C
100
AcDbLine
 10
-964.0680093900082
 20
1314.899665451777
 30
0.0
 11
-951.4080093900082
 21
1314.899665451777
 31
0.0
  0
LINE
  5
5E9
330
1F
100
AcDbEntity
  8
C
100
AcDbLine
 10
-950.708009390008
 20
1328.259665451777
 30
0.0
 11
-950.708009390008
 21
1315.599665451777
 31
0.0
  0
LINE
  5
5EA
330
1F
100
AcDbEntity
  8
C
100
AcDbLine
 10
-964.7680093900079
 20
1328.259665451777
 30
0.0
 11
-964.7680093900079
 21
1315.599665451777
 31
0.0
  0
ARC
  5
5EB
330
1F
100
AcDbEntity
  8
C
100
AcDbCircle
 10
-951.4080093900082
 20
1315.599665451777
 30
0.0
 40
0.7
100
AcDbArc
 50
270.0
 51
0.0
  0
ARC
  5
5EC
330
1F
100
AcDbEntity
  8
C
100
AcDbCircle
 10
-964.0680093900082
 20
1315.599665451777
 30
0.0
 40
0.7
100
AcDbArc
 50
180.0
 51
270.0
  0
ARC
  5
5ED
330
1F
100
AcDbEntity
  8
C
100
AcDbCircle
 10
-964.0680093900082
 20
1328.259665451777
 30
0.0
 40
0.7
100
AcDbArc
 50
90.0
 51
180.0
  0
ARC
  5
5EE
330
1F
100
AcDbEntity
  8
C
100
AcDbCircle
 10
-951.4080093900082
 20
1328.259665451777
 30
0.0
 40
0.7
100
AcDbArc
 50
0.0
 51
90.0
  0
LINE
  5
5EF
330
1F
100
AcDbEntity
  8
C
100
AcDbLine
 10
-945.0180093900089
 20
1328.959665451776
 30
0.0
 11
-932.3580093900089
 21
1328.959665451777
 31
0.0
  0
LINE
  5
5F0
330
1F
100
AcDbEntity
  8
C
100
AcDbLine
 10
-945.0180093900089
 20
1314.899665451777
 30
0.0
 11
-932.3580093900089
 21
1314.899665451777
 31
0.0
  0
LINE
  5
5F1
330
1F
100
AcDbEntity
  8
C
100
AcDbLine
 10
-931.6580093900087
 20
1328.259665451777
 30
0.0
 11
-931.6580093900087
 21
1315.599665451777
 31
0.0
  0
LINE
  5
5F2
330
1F
100
AcDbEntity
  8
C
100
AcDbLine
 10
-945.7180093900088
 20
1328.259665451777
 30
0.0
 11
-945.7180093900088
 21
1315.599665451777
 31
0.0
  0
ARC
  5
5F3
330
1F
100
AcDbEntity
  8
C
100
AcDbCircle
 10
-932.3580093900089
 20
1315.599665451777
 30
0.0
 40
0.7
100
AcDbArc
 50
270.0
 51
0.0
  0
ARC
  5
5F4
330
1F
100
AcDbEntity
  8
C
100
AcDbCircle
 10
-945.0180093900089
 20
1315.599665451777
 30
0.0
 40
0.7
100
AcDbArc
 50
180.0
 51
270.0
  0
ARC
  5
5F5
330
1F
100
AcDbEntity
  8
C
100
AcDbCircle
 10
-945.0180093900089
 20
1328.259665451777
 30
0.0
 40
0.7
100
AcDbArc
 50
90.0
 51
180.0
  0
ARC
  5
5F6
330
1F
100
AcDbEntity
  8
C
100
AcDbCircle
 10
-932.3580093900089
 20
1328.259665451777
 30
0.0
 40
0.7
100
AcDbArc
 50
0.0
 51
90.0
  0
LINE
  5
5F7
330
1F
100
AcDbEntity
  8
C
100
AcDbLine
 10
-925.968009390006
 20
1328.959665451776
 30
0.0
 11
-913.308009390006
 21
1328.959665451777
 31
0.0
  0
LINE
  5
5F8
330
1F
100
AcDbEntity
  8
C
100
AcDbLine
 10
-925.968009390006
 20
1314.899665451777
 30
0.0
 11
-913.308009390006
 21
1314.899665451777
 31
0.0
  0
LINE
  5
5F9
330
1F
100
AcDbEntity
  8
C
100
AcDbLine
 10
-912.6080093900059
 20
1328.259665451777
 30
0.0
 11
-912.6080093900059
 21
1315.599665451777
 31
0.0
  0
LINE
  5
5FA
330
1F
100
AcDbEntity
  8
C
100
AcDbLine
 10
-926.6680093900058
 20
1328.259665451777
 30
0.0
 11
-926.6680093900058
 21
1315.599665451777
 31
0.0
  0
ARC
  5
5FB
330
1F
100
AcDbEntity
  8
C
100
AcDbCircle
 10
-913.308009390006
 20
1315.599665451777
 30
0.0
 40
0.7
100
AcDbArc
 50
270.0
 51
0.0
  0
ARC
  5
5FC
330
1F
100
AcDbEntity
  8
C
100
AcDbCircle
 10
-925.968009390006
 20
1315.599665451777
 30
0.0
 40
0.7
100
AcDbArc
 50
180.0
 51
270.0
  0
ARC
  5
5FD
330
1F
100
AcDbEntity
  8
C
100
AcDbCircle
 10
-925.968009390006
 20
1328.259665451777
 30
0.0
 40
0.7
100
AcDbArc
 50
90.0
 51
180.0
  0
ARC
  5
5FE
330
1F
100
AcDbEntity
  8
C
100
AcDbCircle
 10
-913.308009390006
 20
1328.259665451777
 30
0.0
 40
0.7
100
AcDbArc
 50
0.0
 51
90.0
  0
LINE
  5
5FF
330
1F
100
AcDbEntity
  8
C
100
AcDbLine
 10
-906.9180093900049
 20
1328.959665451776
 30
0.0
 11
-894.2580093900048
 21
1328.959665451777
 31
0.0
  0
LINE
  5
600
330
1F
100
AcDbEntity
  8
C
100
AcDbLine
 10
-906.9180093900049
 20
1314.899665451777
 30
0.0
 11
-894.2580093900048
 21
1314.899665451777
 31
0.0
  0
LINE
  5
601
330
1F
100
AcDbEntity
  8
C
100
AcDbLine
 10
-893.5580093900048
 20
1328.259665451777
 30
0.0
 11
-893.5580093900048
 21
1315.599665451777
 31
0.0
  0
LINE
  5
602
330
1F
100
AcDbEntity
  8
C
100
AcDbLine
 10
-907.6180093900047
 20
1328.259665451777
 30
0.0
 11
-907.6180093900047
 21
1315.599665451777
 31
0.0
  0
ARC
  5
603
330
1F
100
AcDbEntity
  8
C
100
AcDbCircle
 10
-894.2580093900048
 20
1315.599665451777
 30
0.0
 40
0.7
100
AcDbArc
 50
270.0
 51
0.0
  0
ARC
  5
604
330
1F
100
AcDbEntity
  8
C
100
AcDbCircle
 10
-906.9180093900049
 20
1315.599665451777
 30
0.0
 40
0.7
100
AcDbArc
 50
180.0
 51
270.0
  0
ARC
  5
605
330
1F
100
AcDbEntity
  8
C
100
AcDbCircle
 10
-906.9180093900049
 20
1328.259665451777
 30
0.0
 40
0.7
100
AcDbArc
 50
90.0
 51
180.0
  0
ARC
  5
606
330
1F
100
AcDbEntity
  8
C
100
AcDbCircle
 10
-894.2580093900048
 20
1328.259665451777
 30
0.0
 40
0.7
100
AcDbArc
 50
0.0
 51
90.0
  0
LINE
  5
607
330
1F
100
AcDbEntity
  8
C
100
AcDbLine
 10
-887.8680093900038
 20
1328.959665451776
 30
0.0
 11
-875.2080093900037
 21
1328.959665451777
 31
0.0
  0
LINE
  5
608
330
1F
100
AcDbEntity
  8
C
100
AcDbLine
 10
-887.8680093900038
 20
1314.899665451777
 30
0.0
 11
-875.2080093900037
 21
1314.899665451777
 31
0.0
  0
LINE
  5
609
330
1F
100
AcDbEntity
  8
C
100
AcDbLine
 10
-874.5080093900037
 20
1328.259665451777
 30
0.0
 11
-874.5080093900037
 21
1315.599665451777
 31
0.0
  0
LINE
  5
60A
330
1F
100
AcDbEntity
  8
C
100
AcDbLine
 10
-888.5680093900036
 20
1328.259665451777
 30
0.0
 11
-888.5680093900036
 21
1315.599665451777
 31
0.0
  0
ARC
  5
60B
330
1F
100
AcDbEntity
  8
C
100
AcDbCircle
 10
-875.2080093900037
 20
1315.599665451777
 30
0.0
 40
0.7
100
AcDbArc
 50
270.0
 51
0.0
  0
ARC
  5
60C
330
1F
100
AcDbEntity
  8
C
100
AcDbCircle
 10
-887.8680093900038
 20
1315.599665451777
 30
0.0
 40
0.7
100
AcDbArc
 50
180.0
 51
270.0
  0
ARC
  5
60D
330
1F
100
AcDbEntity
  8
C
100
AcDbCircle
 10
-887.8680093900038
 20
1328.259665451777
 30
0.0
 40
0.7
100
AcDbArc
 50
90.0
 51
180.0
  0
ARC
  5
60E
330
1F
100
AcDbEntity
  8
C
100
AcDbCircle
 10
-875.2080093900037
 20
1328.259665451777
 30
0.0
 40
0.7
100
AcDbArc
 50
0.0
 51
90.0
  0
LINE
  5
60F
330
1F
100
AcDbEntity
  8
C
100
AcDbLine
 10
-868.8180093900045
 20
1328.959665451776
 30
0.0
 11
-856.1580093900046
 21
1328.959665451777
 31
0.0
  0
LINE
  5
610
330
1F
100
AcDbEntity
  8
C
100
AcDbLine
 10
-868.8180093900045
 20
1314.899665451777
 30
0.0
 11
-856.1580093900046
 21
1314.899665451777
 31
0.0
  0
LINE
  5
611
330
1F
100
AcDbEntity
  8
C
100
AcDbLine
 10
-855.4580093900044
 20
1328.259665451777
 30
0.0
 11
-855.4580093900044
 21
1315.599665451777
 31
0.0
  0
LINE
  5
612
330
1F
100
AcDbEntity
  8
C
100
AcDbLine
 10
-869.5180093900043
 20
1328.259665451777
 30
0.0
 11
-869.5180093900043
 21
1315.599665451777
 31
0.0
  0
ARC
  5
613
330
1F
100
AcDbEntity
  8
C
100
AcDbCircle
 10
-856.1580093900046
 20
1315.599665451777
 30
0.0
 40
0.7
100
AcDbArc
 50
270.0
 51
0.0
  0
ARC
  5
614
330
1F
100
AcDbEntity
  8
C
100
AcDbCircle
 10
-868.8180093900045
 20
1315.599665451777
 30
0.0
 40
0.7
100
AcDbArc
 50
180.0
 51
270.0
  0
ARC
  5
615
330
1F
100
AcDbEntity
  8
C
100
AcDbCircle
 10
-868.8180093900045
 20
1328.259665451777
 30
0.0
 40
0.7
100
AcDbArc
 50
90.0
 51
180.0
  0
ARC
  5
616
330
1F
100
AcDbEntity
  8
C
100
AcDbCircle
 10
-856.1580093900046
 20
1328.259665451777
 30
0.0
 40
0.7
100
AcDbArc
 50
0.0
 51
90.0
  0
LINE
  5
617
330
1F
100
AcDbEntity
  8
C
100
AcDbLine
 10
-849.7680093900017
 20
1328.959665451776
 30
0.0
 11
-837.1080093900015
 21
1328.959665451777
 31
0.0
  0
LINE
  5
618
330
1F
100
AcDbEntity
  8
C
100
AcDbLine
 10
-849.7680093900017
 20
1314.899665451777
 30
0.0
 11
-837.1080093900015
 21
1314.899665451777
 31
0.0
  0
LINE
  5
619
330
1F
100
AcDbEntity
  8
C
100
AcDbLine
 10
-836.4080093900016
 20
1328.259665451777
 30
0.0
 11
-836.4080093900016
 21
1315.599665451777
 31
0.0
  0
LINE
  5
61A
330
1F
100
AcDbEntity
  8
C
100
AcDbLine
 10
-850.4680093900015
 20
1328.259665451777
 30
0.0
 11
-850.4680093900015
 21
1315.599665451777
 31
0.0
  0
ARC
  5
61B
330
1F
100
AcDbEntity
  8
C
100
AcDbCircle
 10
-837.1080093900015
 20
1315.599665451777
 30
0.0
 40
0.7
100
AcDbArc
 50
270.0
 51
0.0
  0
ARC
  5
61C
330
1F
100
AcDbEntity
  8
C
100
AcDbCircle
 10
-849.7680093900017
 20
1315.599665451777
 30
0.0
 40
0.7
100
AcDbArc
 50
180.0
 51
270.0
  0
ARC
  5
61D
330
1F
100
AcDbEntity
  8
C
100
AcDbCircle
 10
-849.7680093900017
 20
1328.259665451777
 30
0.0
 40
0.7
100
AcDbArc
 50
90.0
 51
180.0
  0
ARC
  5
61E
330
1F
100
AcDbEntity
  8
C
100
AcDbCircle
 10
-837.1080093900015
 20
1328.259665451777
 30
0.0
 40
0.7
100
AcDbArc
 50
0.0
 51
90.0
  0
LINE
  5
61F
330
1F
100
AcDbEntity
  8
C
100
AcDbLine
 10
-830.7180093900015
 20
1328.959665451776
 30
0.0
 11
-818.0580093900015
 21
1328.959665451777
 31
0.0
  0
LINE
  5
620
330
1F
100
AcDbEntity
  8
C
100
AcDbLine
 10
-830.7180093900015
 20
1314.899665451777
 30
0.0
 11
-818.0580093900015
 21
1314.899665451777
 31
0.0
  0
LINE
  5
621
330
1F
100
AcDbEntity
  8
C
100
AcDbLine
 10
-817.3580093900016
 20
1328.259665451777
 30
0.0
 11
-817.3580093900016
 21
1315.599665451777
 31
0.0
  0
LINE
  5
622
330
1F
100
AcDbEntity
  8
C
100
AcDbLine
 10
-831.4180093900015
 20
1328.259665451777
 30
0.0
 11
-831.4180093900015
 21
1315.599665451777
 31
0.0
  0
ARC
  5
623
330
1F
100
AcDbEntity
  8
C
100
AcDbCircle
 10
-818.0580093900015
 20
1315.599665451777
 30
0.0
 40
0.7
100
AcDbArc
 50
270.0
 51
0.0
  0
ARC
  5
624
330
1F
100
AcDbEntity
  8
C
100
AcDbCircle
 10
-830.7180093900015
 20
1315.599665451777
 30
0.0
 40
0.7
100
AcDbArc
 50
180.0
 51
270.0
  0
ARC
  5
625
330
1F
100
AcDbEntity
  8
C
100
AcDbCircle
 10
-830.7180093900015
 20
1328.259665451777
 30
0.0
 40
0.7
100
AcDbArc
 50
90.0
 51
180.0
  0
ARC
  5
626
330
1F
100
AcDbEntity
  8
C
100
AcDbCircle
 10
-818.0580093900015
 20
1328.259665451777
 30
0.0
 40
0.7
100
AcDbArc
 50
0.0
 51
90.0
  0
LINE
  5
627
330
1F
100
AcDbEntity
  8
C
100
AcDbLine
 10
-1011.693009390008
 20
1309.909665451777
 30
0.0
 11
-999.0330093900082
 21
1309.909665451778
 31
0.0
  0
LINE
  5
628
330
1F
100
AcDbEntity
  8
C
100
AcDbLine
 10
-1011.693009390008
 20
1295.849665451777
 30
0.0
 11
-999.0330093900082
 21
1295.849665451778
 31
0.0
  0
LINE
  5
629
330
1F
100
AcDbEntity
  8
C
100
AcDbLine
 10
-998.3330093900081
 20
1309.209665451777
 30
0.0
 11
-998.3330093900081
 21
1296.549665451777
 31
0.0
  0
LINE
  5
62A
330
1F
100
AcDbEntity
  8
C
100
AcDbLine
 10
-1012.393009390008
 20
1309.209665451777
 30
0.0
 11
-1012.393009390008
 21
1296.549665451777
 31
0.0
  0
ARC
  5
62B
330
1F
100
AcDbEntity
  8
C
100
AcDbCircle
 10
-999.0330093900082
 20
1296.549665451777
 30
0.0
 40
0.7
100
AcDbArc
 50
270.0
 51
0.0
  0
ARC
  5
62C
330
1F
100
AcDbEntity
  8
C
100
AcDbCircle
 10
-1011.693009390008
 20
1296.549665451777
 30
0.0
 40
0.7
100
AcDbArc
 50
180.0
 51
270.0
  0
ARC
  5
62D
330
1F
100
AcDbEntity
  8
C
100
AcDbCircle
 10
-1011.693009390008
 20
1309.209665451777
 30
0.0
 40
0.7
100
AcDbArc
 50
90.0
 51
180.0
  0
ARC
  5
62E
330
1F
100
AcDbEntity
  8
C
100
AcDbCircle
 10
-999.0330093900082
 20
1309.209665451777
 30
0.0
 40
0.7
100
AcDbArc
 50
0.0
 51
90.0
  0
LINE
  5
62F
330
1F
100
AcDbEntity
  8
C
100
AcDbLine
 10
-992.6430093900071
 20
1309.909665451777
 30
0.0
 11
-979.9830093900069
 21
1309.909665451778
 31
0.0
  0
LINE
  5
630
330
1F
100
AcDbEntity
  8
C
100
AcDbLine
 10
-992.6430093900071
 20
1295.849665451777
 30
0.0
 11
-979.9830093900069
 21
1295.849665451778
 31
0.0
  0
LINE
  5
631
330
1F
100
AcDbEntity
  8
C
100
AcDbLine
 10
-979.283009390007
 20
1309.209665451777
 30
0.0
 11
-979.283009390007
 21
1296.549665451777
 31
0.0
  0
LINE
  5
632
330
1F
100
AcDbEntity
  8
C
100
AcDbLine
 10
-993.3430093900069
 20
1309.209665451777
 30
0.0
 11
-993.3430093900069
 21
1296.549665451777
 31
0.0
  0
ARC
  5
633
330
1F
100
AcDbEntity
  8
C
100
AcDbCircle
 10
-979.9830093900069
 20
1296.549665451777
 30
0.0
 40
0.7
100
AcDbArc
 50
270.0
 51
0.0
  0
ARC
  5
634
330
1F
100
AcDbEntity
  8
C
100
AcDbCircle
 10
-992.6430093900071
 20
1296.549665451777
 30
0.0
 40
0.7
100
AcDbArc
 50
180.0
 51
270.0
  0
ARC
  5
635
330
1F
100
AcDbEntity
  8
C
100
AcDbCircle
 10
-992.6430093900071
 20
1309.209665451777
 30
0.0
 40
0.7
100
AcDbArc
 50
90.0
 51
180.0
  0
ARC
  5
636
330
1F
100
AcDbEntity
  8
C
100
AcDbCircle
 10
-979.9830093900069
 20
1309.209665451777
 30
0.0
 40
0.7
100
AcDbArc
 50
0.0
 51
90.0
  0
LINE
  5
637
330
1F
100
AcDbEntity
  8
C
100
AcDbLine
 10
-973.593009390006
 20
1309.909665451777
 30
0.0
 11
-960.9330093900059
 21
1309.909665451778
 31
0.0
  0
LINE
  5
638
330
1F
100
AcDbEntity
  8
C
100
AcDbLine
 10
-973.593009390006
 20
1295.849665451777
 30
0.0
 11
-960.9330093900059
 21
1295.849665451778
 31
0.0
  0
LINE
  5
639
330
1F
100
AcDbEntity
  8
C
100
AcDbLine
 10
-960.2330093900059
 20
1309.209665451777
 30
0.0
 11
-960.2330093900059
 21
1296.549665451777
 31
0.0
  0
LINE
  5
63A
330
1F
100
AcDbEntity
  8
C
100
AcDbLine
 10
-974.2930093900058
 20
1309.209665451777
 30
0.0
 11
-974.2930093900058
 21
1296.549665451777
 31
0.0
  0
ARC
  5
63B
330
1F
100
AcDbEntity
  8
C
100
AcDbCircle
 10
-960.9330093900059
 20
1296.549665451777
 30
0.0
 40
0.7
100
AcDbArc
 50
270.0
 51
0.0
  0
ARC
  5
63C
330
1F
100
AcDbEntity
  8
C
100
AcDbCircle
 10
-973.593009390006
 20
1296.549665451777
 30
0.0
 40
0.7
100
AcDbArc
 50
180.0
 51
270.0
  0
ARC
  5
63D
330
1F
100
AcDbEntity
  8
C
100
AcDbCircle
 10
-973.593009390006
 20
1309.209665451777
 30
0.0
 40
0.7
100
AcDbArc
 50
90.0
 51
180.0
  0
ARC
  5
63E
330
1F
100
AcDbEntity
  8
C
100
AcDbCircle
 10
-960.9330093900059
 20
1309.209665451777
 30
0.0
 40
0.7
100
AcDbArc
 50
0.0
 51
90.0
  0
LINE
  5
63F
330
1F
100
AcDbEntity
  8
C
100
AcDbLine
 10
-954.5430093900067
 20
1309.909665451777
 30
0.0
 11
-941.8830093900067
 21
1309.909665451778
 31
0.0
  0
LINE
  5
640
330
1F
100
AcDbEntity
  8
C
100
AcDbLine
 10
-954.5430093900067
 20
1295.849665451777
 30
0.0
 11
-941.8830093900067
 21
1295.849665451778
 31
0.0
  0
LINE
  5
641
330
1F
100
AcDbEntity
  8
C
100
AcDbLine
 10
-941.1830093900066
 20
1309.209665451777
 30
0.0
 11
-941.1830093900066
 21
1296.549665451777
 31
0.0
  0
LINE
  5
642
330
1F
100
AcDbEntity
  8
C
100
AcDbLine
 10
-955.2430093900065
 20
1309.209665451777
 30
0.0
 11
-955.2430093900065
 21
1296.549665451777
 31
0.0
  0
ARC
  5
643
330
1F
100
AcDbEntity
  8
C
100
AcDbCircle
 10
-941.8830093900067
 20
1296.549665451777
 30
0.0
 40
0.7
100
AcDbArc
 50
270.0
 51
0.0
  0
ARC
  5
644
330
1F
100
AcDbEntity
  8
C
100
AcDbCircle
 10
-954.5430093900067
 20
1296.549665451777
 30
0.0
 40
0.7
100
AcDbArc
 50
180.0
 51
270.0
  0
ARC
  5
645
330
1F
100
AcDbEntity
  8
C
100
AcDbCircle
 10
-954.5430093900067
 20
1309.209665451777
 30
0.0
 40
0.7
100
AcDbArc
 50
90.0
 51
180.0
  0
ARC
  5
646
330
1F
100
AcDbEntity
  8
C
100
AcDbCircle
 10
-941.8830093900067
 20
1309.209665451777
 30
0.0
 40
0.7
100
AcDbArc
 50
0.0
 51
90.0
  0
LINE
  5
647
330
1F
100
AcDbEntity
  8
C
100
AcDbLine
 10
-935.4930093900039
 20
1309.909665451777
 30
0.0
 11
-922.8330093900037
 21
1309.909665451778
 31
0.0
  0
LINE
  5
648
330
1F
100
AcDbEntity
  8
C
100
AcDbLine
 10
-935.4930093900039
 20
1295.849665451777
 30
0.0
 11
-922.8330093900037
 21
1295.849665451778
 31
0.0
  0
LINE
  5
649
330
1F
100
AcDbEntity
  8
C
100
AcDbLine
 10
-922.1330093900037
 20
1309.209665451777
 30
0.0
 11
-922.1330093900037
 21
1296.549665451777
 31
0.0
  0
LINE
  5
64A
330
1F
100
AcDbEntity
  8
C
100
AcDbLine
 10
-936.1930093900037
 20
1309.209665451777
 30
0.0
 11
-936.1930093900037
 21
1296.549665451777
 31
0.0
  0
ARC
  5
64B
330
1F
100
AcDbEntity
  8
C
100
AcDbCircle
 10
-922.8330093900037
 20
1296.549665451777
 30
0.0
 40
0.7
100
AcDbArc
 50
270.0
 51
0.0
  0
ARC
  5
64C
330
1F
100
AcDbEntity
  8
C
100
AcDbCircle
 10
-935.4930093900039
 20
1296.549665451777
 30
0.0
 40
0.7
100
AcDbArc
 50
180.0
 51
270.0
  0
ARC
  5
64D
330
1F
100
AcDbEntity
  8
C
100
AcDbCircle
 10
-935.4930093900039
 20
1309.209665451777
 30
0.0
 40
0.7
100
AcDbArc
 50
90.0
 51
180.0
  0
ARC
  5
64E
330
1F
100
AcDbEntity
  8
C
100
AcDbCircle
 10
-922.8330093900037
 20
1309.209665451777
 30
0.0
 40
0.7
100
AcDbArc
 50
0.0
 51
90.0
  0
LINE
  5
64F
330
1F
100
AcDbEntity
  8
C
100
AcDbLine
 10
-916.4430093900028
 20
1309.909665451777
 30
0.0
 11
-903.7830093900026
 21
1309.909665451778
 31
0.0
  0
LINE
  5
650
330
1F
100
AcDbEntity
  8
C
100
AcDbLine
 10
-916.4430093900028
 20
1295.849665451777
 30
0.0
 11
-903.7830093900026
 21
1295.849665451778
 31
0.0
  0
LINE
  5
651
330
1F
100
AcDbEntity
  8
C
100
AcDbLine
 10
-903.0830093900027
 20
1309.209665451777
 30
0.0
 11
-903.0830093900027
 21
1296.549665451777
 31
0.0
  0
LINE
  5
652
330
1F
100
AcDbEntity
  8
C
100
AcDbLine
 10
-917.1430093900026
 20
1309.209665451777
 30
0.0
 11
-917.1430093900026
 21
1296.549665451777
 31
0.0
  0
ARC
  5
653
330
1F
100
AcDbEntity
  8
C
100
AcDbCircle
 10
-903.7830093900026
 20
1296.549665451777
 30
0.0
 40
0.7
100
AcDbArc
 50
270.0
 51
0.0
  0
ARC
  5
654
330
1F
100
AcDbEntity
  8
C
100
AcDbCircle
 10
-916.4430093900028
 20
1296.549665451777
 30
0.0
 40
0.7
100
AcDbArc
 50
180.0
 51
270.0
  0
ARC
  5
655
330
1F
100
AcDbEntity
  8
C
100
AcDbCircle
 10
-916.4430093900028
 20
1309.209665451777
 30
0.0
 40
0.7
100
AcDbArc
 50
90.0
 51
180.0
  0
ARC
  5
656
330
1F
100
AcDbEntity
  8
C
100
AcDbCircle
 10
-903.7830093900026
 20
1309.209665451777
 30
0.0
 40
0.7
100
AcDbArc
 50
0.0
 51
90.0
  0
LINE
  5
657
330
1F
100
AcDbEntity
  8
C
100
AcDbLine
 10
-897.3930093900017
 20
1309.909665451777
 30
0.0
 11
-884.7330093900016
 21
1309.909665451778
 31
0.0
  0
LINE
  5
658
330
1F
100
AcDbEntity
  8
C
100
AcDbLine
 10
-897.3930093900017
 20
1295.849665451777
 30
0.0
 11
-884.7330093900016
 21
1295.849665451778
 31
0.0
  0
LINE
  5
659
330
1F
100
AcDbEntity
  8
C
100
AcDbLine
 10
-884.0330093900016
 20
1309.209665451777
 30
0.0
 11
-884.0330093900016
 21
1296.549665451777
 31
0.0
  0
LINE
  5
65A
330
1F
100
AcDbEntity
  8
C
100
AcDbLine
 10
-898.0930093900015
 20
1309.209665451777
 30
0.0
 11
-898.0930093900015
 21
1296.549665451777
 31
0.0
  0
ARC
  5
65B
330
1F
100
AcDbEntity
  8
C
100
AcDbCircle
 10
-884.7330093900016
 20
1296.549665451777
 30
0.0
 40
0.7
100
AcDbArc
 50
270.0
 51
0.0
  0
ARC
  5
65C
330
1F
100
AcDbEntity
  8
C
100
AcDbCircle
 10
-897.3930093900017
 20
1296.549665451777
 30
0.0
 40
0.7
100
AcDbArc
 50
180.0
 51
270.0
  0
ARC
  5
65D
330
1F
100
AcDbEntity
  8
C
100
AcDbCircle
 10
-897.3930093900017
 20
1309.209665451777
 30
0.0
 40
0.7
100
AcDbArc
 50
90.0
 51
180.0
  0
ARC
  5
65E
330
1F
100
AcDbEntity
  8
C
100
AcDbCircle
 10
-884.7330093900016
 20
1309.209665451777
 30
0.0
 40
0.7
100
AcDbArc
 50
0.0
 51
90.0
  0
LINE
  5
65F
330
1F
100
AcDbEntity
  8
C
100
AcDbLine
 10
-878.3430093900024
 20
1309.909665451777
 30
0.0
 11
-865.6830093900023
 21
1309.909665451778
 31
0.0
  0
LINE
  5
660
330
1F
100
AcDbEntity
  8
C
100
AcDbLine
 10
-878.3430093900024
 20
1295.849665451777
 30
0.0
 11
-865.6830093900023
 21
1295.849665451778
 31
0.0
  0
LINE
  5
661
330
1F
100
AcDbEntity
  8
C
100
AcDbLine
 10
-864.9830093900023
 20
1309.209665451777
 30
0.0
 11
-864.9830093900023
 21
1296.549665451777
 31
0.0
  0
LINE
  5
662
330
1F
100
AcDbEntity
  8
C
100
AcDbLine
 10
-879.0430093900022
 20
1309.209665451777
 30
0.0
 11
-879.0430093900022
 21
1296.549665451777
 31
0.0
  0
ARC
  5
663
330
1F
100
AcDbEntity
  8
C
100
AcDbCircle
 10
-865.6830093900023
 20
1296.549665451777
 30
0.0
 40
0.7
100
AcDbArc
 50
270.0
 51
0.0
  0
ARC
  5
664
330
1F
100
AcDbEntity
  8
C
100
AcDbCircle
 10
-878.3430093900024
 20
1296.549665451777
 30
0.0
 40
0.7
100
AcDbArc
 50
180.0
 51
270.0
  0
ARC
  5
665
330
1F
100
AcDbEntity
  8
C
100
AcDbCircle
 10
-878.3430093900024
 20
1309.209665451777
 30
0.0
 40
0.7
100
AcDbArc
 50
90.0
 51
180.0
  0
ARC
  5
666
330
1F
100
AcDbEntity
  8
C
100
AcDbCircle
 10
-865.6830093900023
 20
1309.209665451777
 30
0.0
 40
0.7
100
AcDbArc
 50
0.0
 51
90.0
  0
LINE
  5
667
330
1F
100
AcDbEntity
  8
C
100
AcDbLine
 10
-859.2930093899994
 20
1309.909665451777
 30
0.0
 11
-846.6330093899994
 21
1309.909665451778
 31
0.0
  0
LINE
  5
668
330
1F
100
AcDbEntity
  8
C
100
AcDbLine
 10
-859.2930093899994
 20
1295.849665451777
 30
0.0
 11
-846.6330093899994
 21
1295.849665451778
 31
0.0
  0
LINE
  5
669
330
1F
100
AcDbEntity
  8
C
100
AcDbLine
 10
-845.9330093899993
 20
1309.209665451777
 30
0.0
 11
-845.9330093899993
 21
1296.549665451777
 31
0.0
  0
LINE
  5
66A
330
1F
100
AcDbEntity
  8
C
100
AcDbLine
 10
-859.9930093899994
 20
1309.209665451777
 30
0.0
 11
-859.9930093899994
 21
1296.549665451777
 31
0.0
  0
ARC
  5
66B
330
1F
100
AcDbEntity
  8
C
100
AcDbCircle
 10
-846.6330093899994
 20
1296.549665451777
 30
0.0
 40
0.7
100
AcDbArc
 50
270.0
 51
0.0
  0
ARC
  5
66C
330
1F
100
AcDbEntity
  8
C
100
AcDbCircle
 10
-859.2930093899994
 20
1296.549665451777
 30
0.0
 40
0.7
100
AcDbArc
 50
180.0
 51
270.0
  0
ARC
  5
66D
330
1F
100
AcDbEntity
  8
C
100
AcDbCircle
 10
-859.2930093899994
 20
1309.209665451777
 30
0.0
 40
0.7
100
AcDbArc
 50
90.0
 51
180.0
  0
ARC
  5
66E
330
1F
100
AcDbEntity
  8
C
100
AcDbCircle
 10
-846.6330093899994
 20
1309.209665451777
 30
0.0
 40
0.7
100
AcDbArc
 50
0.0
 51
90.0
  0
LINE
  5
66F
330
1F
100
AcDbEntity
  8
C
100
AcDbLine
 10
-840.2430093899992
 20
1309.909665451777
 30
0.0
 11
-827.5830093899994
 21
1309.909665451778
 31
0.0
  0
LINE
  5
670
330
1F
100
AcDbEntity
  8
C
100
AcDbLine
 10
-840.2430093899992
 20
1295.849665451777
 30
0.0
 11
-827.5830093899994
 21
1295.849665451778
 31
0.0
  0
LINE
  5
671
330
1F
100
AcDbEntity
  8
C
100
AcDbLine
 10
-826.8830093899994
 20
1309.209665451777
 30
0.0
 11
-826.8830093899994
 21
1296.549665451777
 31
0.0
  0
LINE
  5
672
330
1F
100
AcDbEntity
  8
C
100
AcDbLine
 10
-840.9430093899993
 20
1309.209665451777
 30
0.0
 11
-840.9430093899993
 21
1296.549665451777
 31
0.0
  0
ARC
  5
673
330
1F
100
AcDbEntity
  8
C
100
AcDbCircle
 10
-827.5830093899994
 20
1296.549665451777
 30
0.0
 40
0.7
100
AcDbArc
 50
270.0
 51
0.0
  0
ARC
  5
674
330
1F
100
AcDbEntity
  8
C
100
AcDbCircle
 10
-840.2430093899992
 20
1296.549665451777
 30
0.0
 40
0.7
100
AcDbArc
 50
180.0
 51
270.0
  0
ARC
  5
675
330
1F
100
AcDbEntity
  8
C
100
AcDbCircle
 10
-840.2430093899992
 20
1309.209665451777
 30
0.0
 40
0.7
100
AcDbArc
 50
90.0
 51
180.0
  0
ARC
  5
676
330
1F
100
AcDbEntity
  8
C
100
AcDbCircle
 10
-827.5830093899994
 20
1309.209665451777
 30
0.0
 40
0.7
100
AcDbArc
 50
0.0
 51
90.0
  0
LINE
  5
677
330
1F
100
AcDbEntity
  8
C
100
AcDbLine
 10
-968.3572547355179
 20
1276.509665451777
 30
0.0
 11
-968.3572547355181
 21
1291.149665451777
 31
0.0
  0
LINE
  5
678
330
1F
100
AcDbEntity
  8
C
100
AcDbLine
 10
-980.5515140444844
 20
1276.509665451777
 30
0.0
 11
-980.5515140444843
 21
1291.149665451777
 31
0.0
  0
LINE
  5
679
330
1F
100
AcDbEntity
  8
C
100
AcDbLine
 10
-849.1242077029914
 20
1290.849665451777
 30
0.0
 11
-854.0575047745928
 21
1290.849665451777
 31
0.0
  0
LINE
  5
67A
330
1F
100
AcDbEntity
  8
C
100
AcDbLine
 10
-792.5080093900149
 20
1276.809665451777
 30
0.0
 11
-777.6867077029995
 21
1276.809665451776
 31
0.0
  0
LINE
  5
67B
330
1F
100
AcDbEntity
  8
C
100
AcDbLine
 10
-792.5080093900149
 20
1290.849665451777
 30
0.0
 11
-777.6867077029995
 21
1290.849665451776
 31
0.0
  0
LINE
  5
67C
330
1F
100
AcDbEntity
  8
C
100
AcDbLine
 10
-793.3080093900145
 20
1290.049665451777
 30
0.0
 11
-793.3080093900145
 21
1277.609665451778
 31
0.0
  0
ARC
  5
67D
330
1F
100
AcDbEntity
  8
C
100
AcDbCircle
 10
-792.5080093900149
 20
1277.609665451778
 30
0.0
 40
0.8
100
AcDbArc
 50
180.0
 51
270.0
  0
ARC
  5
67E
330
1F
100
AcDbEntity
  8
C
100
AcDbCircle
 10
-792.5080093900149
 20
1290.049665451777
 30
0.0
 40
0.8
100
AcDbArc
 50
90.0
 51
180.0
  0
LINE
  5
67F
330
1F
100
AcDbEntity
  8
C
100
AcDbLine
 10
-776.8867077029993
 20
1290.049665451776
 30
0.0
 11
-776.8867077029981
 21
1277.609665451776
 31
0.0
  0
ARC
  5
680
330
1F
100
AcDbEntity
  8
C
100
AcDbCircle
 10
-777.6867077029995
 20
1277.609665451776
 30
0.0
 40
0.8
100
AcDbArc
 50
270.0
 51
0.0
  0
ARC
  5
681
330
1F
100
AcDbEntity
  8
C
100
AcDbCircle
 10
-777.6867077029995
 20
1290.049665451776
 30
0.0
 40
0.8
100
AcDbArc
 50
0.0
 51
90.0
  0
LINE
  5
682
330
1F
100
AcDbEntity
  8
C
100
AcDbLine
 10
-840.1330093900128
 20
1276.809665451777
 30
0.0
 11
-825.3117077030065
 21
1276.809665451776
 31
0.0
  0
LINE
  5
683
330
1F
100
AcDbEntity
  8
C
100
AcDbLine
 10
-840.1330093900128
 20
1290.849665451777
 30
0.0
 11
-825.3117077030065
 21
1290.849665451776
 31
0.0
  0
LINE
  5
684
330
1F
100
AcDbEntity
  8
C
100
AcDbLine
 10
-840.9330093900127
 20
1290.049665451777
 30
0.0
 11
-840.9330093900127
 21
1277.609665451778
 31
0.0
  0
ARC
  5
685
330
1F
100
AcDbEntity
  8
C
100
AcDbCircle
 10
-840.1330093900128
 20
1277.609665451778
 30
0.0
 40
0.8
100
AcDbArc
 50
180.0
 51
270.0
  0
ARC
  5
686
330
1F
100
AcDbEntity
  8
C
100
AcDbCircle
 10
-840.1330093900128
 20
1290.049665451777
 30
0.0
 40
0.8
100
AcDbArc
 50
90.0
 51
180.0
  0
LINE
  5
687
330
1F
100
AcDbEntity
  8
C
100
AcDbLine
 10
-824.5117077030068
 20
1290.049665451776
 30
0.0
 11
-824.5117077030055
 21
1277.609665451776
 31
0.0
  0
ARC
  5
688
330
1F
100
AcDbEntity
  8
C
100
AcDbCircle
 10
-825.3117077030065
 20
1277.609665451776
 30
0.0
 40
0.8
100
AcDbArc
 50
270.0
 51
0.0
  0
ARC
  5
689
330
1F
100
AcDbEntity
  8
C
100
AcDbCircle
 10
-825.3117077030065
 20
1290.049665451776
 30
0.0
 40
0.8
100
AcDbArc
 50
0.0
 51
90.0
  0
LINE
  5
68A
330
1F
100
AcDbEntity
  8
C
100
AcDbLine
 10
-1004.439207702991
 20
1276.809665451777
 30
0.0
 11
-989.618009390012
 21
1276.809665451777
 31
0.0
  0
LINE
  5
68B
330
1F
100
AcDbEntity
  8
C
100
AcDbLine
 10
-1004.439207702991
 20
1290.849665451777
 30
0.0
 11
-989.618009390012
 21
1290.849665451777
 31
0.0
  0
LINE
  5
68C
330
1F
100
AcDbEntity
  8
C
100
AcDbLine
 10
-1005.239207702992
 20
1290.049665451777
 30
0.0
 11
-1005.239207702992
 21
1277.609665451778
 31
0.0
  0
ARC
  5
68D
330
1F
100
AcDbEntity
  8
C
100
AcDbCircle
 10
-1004.439207702991
 20
1277.609665451778
 30
0.0
 40
0.8
100
AcDbArc
 50
180.0
 51
270.0
  0
ARC
  5
68E
330
1F
100
AcDbEntity
  8
C
100
AcDbCircle
 10
-1004.439207702991
 20
1290.049665451777
 30
0.0
 40
0.8
100
AcDbArc
 50
90.0
 51
180.0
  0
LINE
  5
68F
330
1F
100
AcDbEntity
  8
C
100
AcDbLine
 10
-988.8180093900121
 20
1290.049665451777
 30
0.0
 11
-988.8180093900109
 21
1277.609665451778
 31
0.0
  0
ARC
  5
690
330
1F
100
AcDbEntity
  8
C
100
AcDbCircle
 10
-989.618009390012
 20
1277.609665451778
 30
0.0
 40
0.8
100
AcDbArc
 50
270.0
 51
0.0
  0
ARC
  5
691
330
1F
100
AcDbEntity
  8
C
100
AcDbCircle
 10
-989.618009390012
 20
1290.049665451777
 30
0.0
 40
0.8
100
AcDbArc
 50
0.0
 51
90.0
  0
LINE
  5
692
330
1F
100
AcDbEntity
  8
C
100
AcDbLine
 10
-1052.064207702993
 20
1276.809665451776
 30
0.0
 11
-1037.24300939001
 21
1276.809665451777
 31
0.0
  0
LINE
  5
693
330
1F
100
AcDbEntity
  8
C
100
AcDbLine
 10
-1052.064207702993
 20
1290.849665451776
 30
0.0
 11
-1037.24300939001
 21
1290.849665451777
 31
0.0
  0
LINE
  5
694
330
1F
100
AcDbEntity
  8
C
100
AcDbLine
 10
-1052.864207702993
 20
1290.049665451776
 30
0.0
 11
-1052.864207702993
 21
1277.609665451776
 31
0.0
  0
ARC
  5
695
330
1F
100
AcDbEntity
  8
C
100
AcDbCircle
 10
-1052.064207702993
 20
1277.609665451776
 30
0.0
 40
0.8
100
AcDbArc
 50
180.0
 51
270.0
  0
ARC
  5
696
330
1F
100
AcDbEntity
  8
C
100
AcDbCircle
 10
-1052.064207702993
 20
1290.049665451776
 30
0.0
 40
0.8
100
AcDbArc
 50
90.0
 51
180.0
  0
LINE
  5
697
330
1F
100
AcDbEntity
  8
C
100
AcDbLine
 10
-1036.44300939001
 20
1290.049665451777
 30
0.0
 11
-1036.443009390009
 21
1277.609665451778
 31
0.0
  0
ARC
  5
698
330
1F
100
AcDbEntity
  8
C
100
AcDbCircle
 10
-1037.24300939001
 20
1277.609665451778
 30
0.0
 40
0.8
100
AcDbArc
 50
270.0
 51
0.0
  0
ARC
  5
699
330
1F
100
AcDbEntity
  8
C
100
AcDbCircle
 10
-1037.24300939001
 20
1290.049665451777
 30
0.0
 40
0.8
100
AcDbArc
 50
0.0
 51
90.0
  0
ARC
  5
69A
330
1F
100
AcDbEntity
  8
C
100
AcDbCircle
 10
-908.6555093900098
 20
1290.049665451777
 30
0.0
 40
0.8
100
AcDbArc
 50
0.0
 51
90.0
  0
ARC
  5
69B
330
1F
100
AcDbEntity
  8
C
100
AcDbCircle
 10
-933.0017077029895
 20
1290.049665451777
 30
0.0
 40
0.8
100
AcDbArc
 50
90.0
 51
180.0
  0
LINE
  5
69C
330
1F
100
AcDbEntity
  8
C
100
AcDbLine
 10
-907.8555093900099
 20
1290.049665451777
 30
0.0
 11
-907.8555093900089
 21
1277.609665451776
 31
0.0
  0
ARC
  5
69D
330
1F
100
AcDbEntity
  8
C
100
AcDbCircle
 10
-908.6555093900088
 20
1277.609665451776
 30
0.0
 40
0.8
100
AcDbArc
 50
270.0
 51
0.0
  0
LINE
  5
69E
330
1F
100
AcDbEntity
  8
C
100
AcDbLine
 10
-933.0017077029895
 20
1276.809665451777
 30
0.0
 11
-908.6555093900088
 21
1276.809665451777
 31
0.0
  0
ARC
  5
69F
330
1F
100
AcDbEntity
  8
C
100
AcDbCircle
 10
-933.0017077029895
 20
1277.609665451776
 30
0.0
 40
0.8
100
AcDbArc
 50
180.0
 51
270.0
  0
LINE
  5
6A0
330
1F
100
AcDbEntity
  8
C
100
AcDbLine
 10
-933.8017077029894
 20
1290.049665451777
 30
0.0
 11
-933.8017077029894
 21
1277.609665451776
 31
0.0
  0
LINE
  5
6A1
330
1F
100
AcDbEntity
  8
C
100
AcDbLine
 10
-933.0017077029895
 20
1290.849665451777
 30
0.0
 11
-908.6555093900098
 21
1290.849665451777
 31
0.0
  0
ARC
  5
6A2
330
1F
100
AcDbEntity
  8
C
100
AcDbCircle
 10
-1013.430509390002
 20
1290.049665451777
 30
0.0
 40
0.8
100
AcDbArc
 50
0.0
 51
90.0
  0
ARC
  5
6A3
330
1F
100
AcDbEntity
  8
C
100
AcDbCircle
 10
-1028.251707702984
 20
1290.049665451776
 30
0.0
 40
0.8
100
AcDbArc
 50
90.0
 51
180.0
  0
LINE
  5
6A4
330
1F
100
AcDbEntity
  8
C
100
AcDbLine
 10
-1028.251707702984
 20
1276.809665451776
 30
0.0
 11
-1013.430509390001
 21
1276.809665451777
 31
0.0
  0
ARC
  5
6A5
330
1F
100
AcDbEntity
  8
C
100
AcDbCircle
 10
-1028.251707702984
 20
1277.609665451775
 30
0.0
 40
0.8
100
AcDbArc
 50
180.0
 51
270.0
  0
LINE
  5
6A6
330
1F
100
AcDbEntity
  8
C
100
AcDbLine
 10
-1029.051707702984
 20
1290.049665451776
 30
0.0
 11
-1029.051707702984
 21
1277.609665451775
 31
0.0
  0
LINE
  5
6A7
330
1F
100
AcDbEntity
  8
C
100
AcDbLine
 10
-1012.630509390002
 20
1290.049665451777
 30
0.0
 11
-1012.630509390001
 21
1277.609665451776
 31
0.0
  0
ARC
  5
6A8
330
1F
100
AcDbEntity
  8
C
100
AcDbCircle
 10
-1013.430509390001
 20
1277.609665451776
 30
0.0
 40
0.8
100
AcDbArc
 50
270.0
 51
0.0
  0
LINE
  5
6A9
330
1F
100
AcDbEntity
  8
C
100
AcDbLine
 10
-1028.251707702984
 20
1290.849665451776
 30
0.0
 11
-1013.430509390002
 21
1290.849665451777
 31
0.0
  0
ARC
  5
6AA
330
1F
100
AcDbEntity
  8
C
100
AcDbCircle
 10
-801.4992077030091
 20
1290.049665451776
 30
0.0
 40
0.8
100
AcDbArc
 50
0.0
 51
90.0
  0
ARC
  5
6AB
330
1F
100
AcDbEntity
  8
C
100
AcDbCircle
 10
-816.3205093900149
 20
1290.049665451777
 30
0.0
 40
0.8
100
AcDbArc
 50
90.0
 51
180.0
  0
LINE
  5
6AC
330
1F
100
AcDbEntity
  8
C
100
AcDbLine
 10
-800.6992077030083
 20
1290.049665451776
 30
0.0
 11
-800.6992077030075
 21
1277.609665451775
 31
0.0
  0
ARC
  5
6AD
330
1F
100
AcDbEntity
  8
C
100
AcDbCircle
 10
-801.4992077030081
 20
1277.609665451775
 30
0.0
 40
0.8
100
AcDbArc
 50
270.0
 51
0.0
  0
LINE
  5
6AE
330
1F
100
AcDbEntity
  8
C
100
AcDbLine
 10
-816.3205093900149
 20
1276.809665451777
 30
0.0
 11
-801.4992077030081
 21
1276.809665451776
 31
0.0
  0
ARC
  5
6AF
330
1F
100
AcDbEntity
  8
C
100
AcDbCircle
 10
-816.3205093900149
 20
1277.609665451776
 30
0.0
 40
0.8
100
AcDbArc
 50
180.0
 51
270.0
  0
LINE
  5
6B0
330
1F
100
AcDbEntity
  8
C
100
AcDbLine
 10
-817.1205093900143
 20
1290.049665451777
 30
0.0
 11
-817.1205093900143
 21
1277.609665451776
 31
0.0
  0
LINE
  5
6B1
330
1F
100
AcDbEntity
  8
C
100
AcDbLine
 10
-816.3205093900149
 20
1290.849665451777
 30
0.0
 11
-801.4992077030091
 21
1290.849665451776
 31
0.0
  0
LINE
  5
6B2
330
1F
100
AcDbEntity
  8
C
100
AcDbLine
 10
-880.4755140444866
 20
1276.509665451777
 30
0.0
 11
-880.4755140444868
 21
1291.149665451777
 31
0.0
  0
LINE
  5
6B3
330
1F
100
AcDbEntity
  8
C
100
AcDbLine
 10
-873.0755047355197
 20
1276.509665451777
 30
0.0
 11
-873.0755047355197
 21
1291.149665451777
 31
0.0
  0
LINE
  5
6BC
330
1F
100
AcDbEntity
  8
C
100
AcDbLine
 10
-854.0575047745926
 20
1276.809665451777
 30
0.0
 11
-849.1242077029914
 21
1276.809665451777
 31
0.0
  0
LINE
  5
6BD
330
1F
100
AcDbEntity
  8
C
100
AcDbLine
 10
-862.3642077029916
 20
1291.149665451777
 30
0.0
 11
-862.3642077029916
 21
1276.509665451778
 31
0.0
  0
LINE
  5
6BE
330
1F
100
AcDbEntity
  8
C
100
AcDbLine
 10
-848.3242077029917
 20
1290.049665451777
 30
0.0
 11
-848.3242077029917
 21
1277.609665451776
 31
0.0
  0
ARC
  5
6BF
330
1F
100
AcDbEntity
  8
C
100
AcDbCircle
 10
-849.1242077029914
 20
1277.609665451776
 30
0.0
 40
0.8
100
AcDbArc
 50
270.0
 51
0.0
  0
ARC
  5
6C1
330
1F
100
AcDbEntity
  8
C
100
AcDbCircle
 10
-849.1242077029914
 20
1290.049665451777
 30
0.0
 40
0.8
100
AcDbArc
 50
0.0
 51
90.0
  0
LINE
  5
6C5
330
1F
100
AcDbEntity
  8
C
100
AcDbLine
 10
-1052.844266328724
 20
1295.549665451778
 30
0.0
 11
-1052.844266328726
 21
1309.209665451778
 31
0.0
  0
LINE
  5
6C6
330
1F
100
AcDbEntity
  8
C
100
AcDbLine
 10
-1020.681309389998
 20
1295.859665451777
 30
0.0
 11
-1018.213016795876
 21
1295.859665451777
 31
0.0
  0
ARC
  5
6C7
330
1F
100
AcDbEntity
  8
C
100
AcDbCircle
 10
-1018.213016795876
 20
1296.659665451777
 30
0.0
 40
0.8
100
AcDbArc
 50
270.0
 51
0.0
  0
LINE
  5
6C8
330
1F
100
AcDbEntity
  8
C
100
AcDbLine
 10
-1017.413016795876
 20
1296.659665451777
 30
0.0
 11
-1017.413016795876
 21
1309.209665451777
 31
0.0
  0
LINE
  5
6C9
330
1F
100
AcDbEntity
  8
C
100
AcDbLine
 10
-779.2580093900103
 20
1347.092665451776
 30
0.0
 11
-777.6867077029947
 21
1347.092665451776
 31
0.0
  0
LINE
  5
6CA
330
1F
100
AcDbEntity
  8
C
100
AcDbLine
 10
-790.9585093900006
 20
1333.949665451777
 30
0.0
 11
-790.9585093900006
 21
1329.459665451777
 31
0.0
  0
LINE
  5
6CB
330
1F
100
AcDbEntity
  8
C
100
AcDbLine
 10
-811.5580093900003
 20
1328.959665451776
 30
0.0
 11
-809.0697093900011
 21
1328.959665451776
 31
0.0
  0
ARC
  5
6CC
330
1F
100
AcDbEntity
  8
C
100
AcDbCircle
 10
-791.4585093900007
 20
1329.459665451777
 30
0.0
 40
0.5
100
AcDbArc
 50
270.0
 51
0.0
  0
LINE
  5
6CD
330
1F
100
AcDbEntity
  8
C
100
AcDbLine
 10
-812.3580093900004
 20
1328.159665451776
 30
0.0
 11
-812.3580093900004
 21
1315.699665451776
 31
0.0
  0
ARC
  5
6CE
330
1F
100
AcDbEntity
  8
C
100
AcDbCircle
 10
-811.5580093900003
 20
1328.159665451776
 30
0.0
 40
0.8
100
AcDbArc
 50
90.0
 51
180.0
  0
LINE
  5
6CF
330
1F
100
AcDbEntity
  8
C
100
AcDbLine
 10
-814.7392593899985
 20
1309.109665451777
 30
0.0
 11
-814.7392593899985
 21
1295.549665451777
 31
0.0
  0
ARC
  5
6D0
330
1F
100
AcDbEntity
  8
C
100
AcDbCircle
 10
-813.9392593899984
 20
1309.109665451777
 30
0.0
 40
0.8
100
AcDbArc
 50
90.0
 51
180.0
  0
ARC
  5
6D1
330
1F
100
AcDbEntity
  8
C
100
AcDbCircle
 10
-775.3055093899984
 20
1309.109665451777
 30
0.0
 40
0.8
100
AcDbArc
 50
0.0
 51
90.0
  0
LINE
  5
6D2
330
1F
100
AcDbEntity
  8
C
100
AcDbLine
 10
-774.5055093899982
 20
1309.109665451777
 30
0.0
 11
-774.5055093899975
 21
1296.659665451776
 31
0.0
  0
ARC
  5
6D3
330
1F
100
AcDbEntity
  8
C
100
AcDbCircle
 10
-775.3055093899974
 20
1296.659665451776
 30
0.0
 40
0.8
100
AcDbArc
 50
270.0
 51
0.0
  0
LINE
  5
6D4
330
1F
100
AcDbEntity
  8
C
100
AcDbLine
 10
-782.5563093899987
 20
1295.859665451777
 30
0.0
 11
-775.3055093899974
 21
1295.859665451777
 31
0.0
  0
LINE
  5
6D5
330
1F
100
AcDbEntity
  8
C
100
AcDbLine
 10
-806.4323093899986
 20
1295.849665451777
 30
0.0
 11
-789.9562093900012
 21
1295.849665451777
 31
0.0
  0
LINE
  5
6D6
330
1F
100
AcDbEntity
  8
C
100
AcDbLine
 10
-811.5580093900003
 20
1314.899665451777
 30
0.0
 11
-809.0697093900011
 21
1314.899665451777
 31
0.0
  0
LINE
  5
6D7
330
1F
100
AcDbEntity
  8
C
100
AcDbLine
 10
-801.6698093899986
 20
1328.959665451776
 30
0.0
 11
-791.4585093900007
 21
1328.959665451776
 31
0.0
  0
LINE
  5
6DA
330
1F
100
AcDbEntity
  8
C
100
AcDbLine
 10
-809.0697093900011
 20
1329.259665451776
 30
0.0
 11
-809.0697093900011
 21
1328.959665451776
 31
0.0
  0
LINE
  5
6DC
330
1F
100
AcDbEntity
  8
C
100
AcDbLine
 10
-801.6698093899986
 20
1329.259665451776
 30
0.0
 11
-801.6698093899986
 21
1328.959665451776
 31
0.0
  0
LINE
  5
6DF
330
1F
100
AcDbEntity
  8
C
100
AcDbLine
 10
-806.4323093899986
 20
1295.549665451777
 30
0.0
 11
-806.4323093899986
 21
1295.849665451777
 31
0.0
  0
LINE
  5
6E3
330
1F
100
AcDbEntity
  8
C
100
AcDbLine
 10
-782.5563093899987
 20
1295.549665451777
 30
0.0
 11
-782.5563093899987
 21
1295.859665451777
 31
0.0
  0
LINE
  5
6E4
330
1F
100
AcDbEntity
  8
C
100
AcDbLine
 10
-813.9392593899984
 20
1309.909665451777
 30
0.0
 11
-775.3055093899984
 21
1309.909665451775
 31
0.0
  0
LINE
  5
6E6
330
1F
100
AcDbEntity
  8
C
100
AcDbLine
 10
-789.9562093900014
 20
1295.549665451777
 30
0.0
 11
-789.9562093900012
 21
1295.849665451777
 31
0.0
  0
LINE
  5
6E7
330
1F
100
AcDbEntity
  8
C
100
AcDbLine
 10
-1044.557309389998
 20
1295.849665451778
 30
0.0
 11
-1028.081209390001
 21
1295.849665451778
 31
0.0
  0
LINE
  5
6E8
330
1F
100
AcDbEntity
  8
C
100
AcDbLine
 10
-799.2885593899987
 20
1353.009665451777
 30
0.0
 11
-782.8124593900015
 21
1353.009665451777
 31
0.0
  0
LINE
  5
6E9
330
1F
100
AcDbEntity
  8
C
100
AcDbLine
 10
-806.8955093899999
 20
1367.059665451777
 30
0.0
 11
-775.20550939
 21
1367.059665451777
 31
0.0
  0
LINE
  5
6EA
330
1F
100
AcDbEntity
  8
C
100
AcDbLine
 10
-807.5955093900001
 20
1366.359665451777
 30
0.0
 11
-807.5955093900002
 21
1352.709665451777
 31
0.0
  0
LINE
  5
6EC
330
1F
100
AcDbEntity
  8
C
100
AcDbLine
 10
-774.5055093899999
 20
1366.359665451777
 30
0.0
 11
-774.5055093899987
 21
1352.709665451777
 31
0.0
  0
LINE
  5
6F0
330
1F
100
AcDbEntity
  8
C
100
AcDbLine
 10
-799.2885593899985
 20
1352.709665451777
 30
0.0
 11
-799.2885593899987
 21
1353.009665451777
 31
0.0
  0
LINE
  5
6F3
330
1F
100
AcDbEntity
  8
C
100
AcDbLine
 10
-782.8124593900015
 20
1352.709665451777
 30
0.0
 11
-782.8124593900015
 21
1353.009665451777
 31
0.0
  0
ARC
  5
6F4
330
1F
100
AcDbEntity
  8
C
100
AcDbCircle
 10
-811.5580093900003
 20
1315.699665451776
 30
0.0
 40
0.8
100
AcDbArc
 50
180.0
 51
270.0
  0
LINE
  5
6F5
330
1F
100
AcDbEntity
  8
C
100
AcDbLine
 10
-1020.681309389999
 20
1295.549665451778
 30
0.0
 11
-1020.681309389999
 21
1295.859665451777
 31
0.0
  0
LINE
  5
6F6
330
1F
100
AcDbEntity
  8
C
100
AcDbLine
 10
-1028.081209390001
 20
1295.849665451778
 30
0.0
 11
-1028.081367090829
 21
1295.550033872774
 31
0.0
  0
LINE
  5
6F9
330
1F
100
AcDbEntity
  8
C
100
AcDbLine
 10
-1044.557309389998
 20
1295.849665451778
 30
0.0
 11
-1044.557151689169
 21
1295.550033872773
 31
0.0
  0
ARC
  5
6FD
330
1F
100
AcDbEntity
  8
C
100
AcDbCircle
 10
-777.6867077029947
 20
1346.292665451776
 30
0.0
 40
0.8
100
AcDbArc
 50
0.0000000000260551
 51
90.0
  0
LINE
  5
6FE
330
1F
100
AcDbEntity
  8
C
100
AcDbLine
 10
-776.8867077029942
 20
1346.292665451776
 30
0.0
 11
-776.8867077029942
 21
1315.699665451776
 31
0.0
  0
ARC
  5
6FF
330
1F
100
AcDbEntity
  8
C
100
AcDbCircle
 10
-777.6867077029944
 20
1315.699665451776
 30
0.0
 40
0.8
100
AcDbArc
 50
270.0
 51
0.0
  0
LINE
  5
701
330
1F
100
AcDbEntity
  8
C
100
AcDbLine
 10
-1018.113016795876
 20
1309.909665451777
 30
0.0
 11
-1052.144266328726
 21
1309.909665451778
 31
0.0
  0
ARC
  5
702
330
1F
100
AcDbEntity
  8
C
100
AcDbCircle
 10
-1018.113016795876
 20
1309.209665451777
 30
0.0
 40
0.7
100
AcDbArc
 50
0.0
 51
90.0
  0
ARC
  5
703
330
1F
100
AcDbEntity
  8
C
100
AcDbCircle
 10
-1052.144266328726
 20
1309.209665451778
 30
0.0
 40
0.7
100
AcDbArc
 50
90.0
 51
180.0
  0
LINE
  5
704
330
1F
100
AcDbEntity
  8
C
100
AcDbLine
 10
-792.6180093900102
 20
1348.009665451777
 30
0.0
 11
-779.9580093900104
 21
1348.009665451778
 31
0.0
  0
LINE
  5
705
330
1F
100
AcDbEntity
  8
C
100
AcDbLine
 10
-792.6180093900102
 20
1333.949665451777
 30
0.0
 11
-790.9585093900006
 21
1333.949665451777
 31
0.0
  0
LINE
  5
706
330
1F
100
AcDbEntity
  8
C
100
AcDbLine
 10
-793.3180093900102
 20
1347.309665451778
 30
0.0
 11
-793.3180093900102
 21
1334.649665451778
 31
0.0
  0
ARC
  5
707
330
1F
100
AcDbEntity
  8
C
100
AcDbCircle
 10
-792.6180093900102
 20
1334.649665451778
 30
0.0
 40
0.7
100
AcDbArc
 50
180.0
 51
270.0
  0
ARC
  5
708
330
1F
100
AcDbEntity
  8
C
100
AcDbCircle
 10
-792.6180093900102
 20
1347.309665451778
 30
0.0
 40
0.7
100
AcDbArc
 50
90.0
 51
180.0
  0
ARC
  5
709
330
1F
100
AcDbEntity
  8
C
100
AcDbCircle
 10
-779.9580093900104
 20
1347.309665451778
 30
0.0
 40
0.7
100
AcDbArc
 50
0.0
 51
90.0
  0
LINE
  5
70A
330
1F
100
AcDbEntity
  8
C
100
AcDbLine
 10
-779.2580093900103
 20
1347.309665451778
 30
0.0
 11
-779.2580093900103
 21
1347.092665451776
 31
0.0
  0
LINE
  5
71D
330
1F
100
AcDbEntity
  8
C
100
AcDbLine
 10
-801.6698093899986
 20
1314.599665451777
 30
0.0
 11
-801.6698093899986
 21
1314.899665451777
 31
0.0
  0
LINE
  5
71F
330
1F
100
AcDbEntity
  8
C
100
AcDbLine
 10
-809.0697093900011
 20
1314.599665451777
 30
0.0
 11
-809.0697093900011
 21
1314.899665451777
 31
0.0
  0
LINE
  5
722
330
1F
100
AcDbEntity
  8
C
100
AcDbLine
 10
-801.6698093899986
 20
1314.899665451777
 30
0.0
 11
-777.6867077029944
 21
1314.899665451777
 31
0.0
  0
ARC
  5
733
330
1F
100
AcDbEntity
  8
C
100
AcDbCircle
 10
-806.8955093899999
 20
1366.359665451777
 30
0.0
 40
0.7
100
AcDbArc
 50
90.0
 51
180.0
  0
ARC
  5
734
330
1F
100
AcDbEntity
  8
C
100
AcDbCircle
 10
-775.20550939
 20
1366.359665451777
 30
0.0
 40
0.7
100
AcDbArc
 50
0.0000000000058649
 51
90.0
  0
LINE
  5
746
330
1F
100
AcDbEntity
  8
C
100
AcDbLine
 10
-854.0575047745928
 20
1290.849665451777
 30
0.0
 11
-854.0575047745928
 21
1291.149665451777
 31
0.0
  0
LINE
  5
747
330
1F
100
AcDbEntity
  8
C
100
AcDbLine
 10
-1027.381367187782
 20
1294.849665451778
 30
0.0
 11
-1021.381309389999
 21
1294.849665451778
 31
0.0
  0
ARC
  5
748
330
1F
100
AcDbEntity
  8
C
100
AcDbCircle
 10
-1021.381309389999
 20
1295.549665451778
 30
0.0
 40
0.7
100
AcDbArc
 50
270.0
 51
0.0
  0
ARC
  5
749
330
1F
100
AcDbEntity
  8
C
100
AcDbCircle
 10
-1027.381367187782
 20
1295.549665451778
 30
0.0
 40
0.7
100
AcDbArc
 50
179.9698443297755
 51
270.0
  0
LINE
  5
74A
330
1F
100
AcDbEntity
  8
C
100
AcDbLine
 10
-1045.257151592217
 20
1294.849665451778
 30
0.0
 11
-1052.144266328724
 21
1294.849665451778
 31
0.0
  0
ARC
  5
74B
330
1F
100
AcDbEntity
  8
C
100
AcDbCircle
 10
-1045.257151592217
 20
1295.549665451778
 30
0.0
 40
0.7
100
AcDbArc
 50
270.0
 51
0.0301556701558611
  0
ARC
  5
74C
330
1F
100
AcDbEntity
  8
C
100
AcDbCircle
 10
-1052.144266328724
 20
1295.549665451778
 30
0.0
 40
0.7
100
AcDbArc
 50
180.0000000000076
 51
270.0
  0
LINE
  5
74D
330
1F
100
AcDbEntity
  8
C
100
AcDbLine
 10
-879.7755140444868
 20
1291.849665451777
 30
0.0
 11
-873.7755047355197
 21
1291.849665451777
 31
0.0
  0
LINE
  5
74E
330
1F
100
AcDbEntity
  8
C
100
AcDbLine
 10
-979.8515140444843
 20
1275.809665451777
 30
0.0
 11
-969.0572547355179
 21
1275.809665451777
 31
0.0
  0
ARC
  5
74F
330
1F
100
AcDbEntity
  8
C
100
AcDbCircle
 10
-873.7755047355197
 20
1291.149665451777
 30
0.0
 40
0.7
100
AcDbArc
 50
0.0
 51
90.0
  0
ARC
  5
750
330
1F
100
AcDbEntity
  8
C
100
AcDbCircle
 10
-879.7755140444868
 20
1291.149665451777
 30
0.0
 40
0.7
100
AcDbArc
 50
90.0
 51
180.0
  0
ARC
  5
751
330
1F
100
AcDbEntity
  8
C
100
AcDbCircle
 10
-979.8515140444843
 20
1276.509665451777
 30
0.0
 40
0.7
100
AcDbArc
 50
180.0
 51
270.0
  0
ARC
  5
752
330
1F
100
AcDbEntity
  8
C
100
AcDbCircle
 10
-969.0572547355179
 20
1276.509665451777
 30
0.0
 40
0.7
100
AcDbArc
 50
270.0
 51
0.0
  0
LINE
  5
753
330
1F
100
AcDbEntity
  8
C
100
AcDbLine
 10
-979.8515140444843
 20
1291.849665451777
 30
0.0
 11
-969.0572547355181
 21
1291.849665451777
 31
0.0
  0
ARC
  5
754
330
1F
100
AcDbEntity
  8
C
100
AcDbCircle
 10
-969.0572547355181
 20
1291.149665451777
 30
0.0
 40
0.7
100
AcDbArc
 50
0.0
 51
90.0
  0
ARC
  5
755
330
1F
100
AcDbEntity
  8
C
100
AcDbCircle
 10
-979.8515140444843
 20
1291.149665451777
 30
0.0
 40
0.7
100
AcDbArc
 50
90.0
 51
179.9999999999995
  0
LINE
  5
756
330
1F
100
AcDbEntity
  8
C
100
AcDbLine
 10
-861.6642077029915
 20
1275.809665451777
 30
0.0
 11
-854.7575047745926
 21
1275.809665451777
 31
0.0
  0
ARC
  5
757
330
1F
100
AcDbEntity
  8
C
100
AcDbCircle
 10
-861.6642077029915
 20
1276.509665451778
 30
0.0
 40
0.7
100
AcDbArc
 50
180.0000000000004
 51
270.0
  0
LINE
  5
758
330
1F
100
AcDbEntity
  8
C
100
AcDbLine
 10
-854.0575047745926
 20
1276.809665451777
 30
0.0
 11
-854.0575047745926
 21
1276.509665451777
 31
0.0
  0
ARC
  5
759
330
1F
100
AcDbEntity
  8
C
100
AcDbCircle
 10
-854.7575047745926
 20
1276.509665451777
 30
0.0
 40
0.7
100
AcDbArc
 50
269.9999999999992
 51
0.0
  0
LINE
  5
75A
330
1F
100
AcDbEntity
  8
C
100
AcDbLine
 10
-861.6642077029917
 20
1291.849665451777
 30
0.0
 11
-854.7575047745928
 21
1291.849665451777
 31
0.0
  0
ARC
  5
75B
330
1F
100
AcDbEntity
  8
C
100
AcDbCircle
 10
-861.6642077029917
 20
1291.149665451777
 30
0.0
 40
0.7
100
AcDbArc
 50
90.0
 51
180.0000000000004
  0
ARC
  5
75C
330
1F
100
AcDbEntity
  8
C
100
AcDbCircle
 10
-854.7575047745928
 20
1291.149665451777
 30
0.0
 40
0.7
100
AcDbArc
 50
0.0
 51
90.0
  0
LINE
  5
75D
330
1F
100
AcDbEntity
  8
C
100
AcDbLine
 10
-873.7755047355198
 20
1275.809665451777
 30
0.0
 11
-879.7755140444866
 21
1275.809665451777
 31
0.0
  0
ARC
  5
75E
330
1F
100
AcDbEntity
  8
C
100
AcDbCircle
 10
-879.7755140444866
 20
1276.509665451777
 30
0.0
 40
0.7
100
AcDbArc
 50
180.0000000000004
 51
270.0
  0
ARC
  5
75F
330
1F
100
AcDbEntity
  8
C
100
AcDbCircle
 10
-873.7755047355198
 20
1276.509665451777
 30
0.0
 40
0.7
100
AcDbArc
 50
270.0
 51
0.0
  0
LINE
  5
760
330
1F
100
AcDbEntity
  8
C
100
AcDbLine
 10
-814.0392593899983
 20
1294.849665451777
 30
0.0
 11
-807.1323093899987
 21
1294.849665451777
 31
0.0
  0
ARC
  5
761
330
1F
100
AcDbEntity
  8
C
100
AcDbCircle
 10
-814.0392593899983
 20
1295.549665451777
 30
0.0
 40
0.7
100
AcDbArc
 50
180.0
 51
270.0
  0
ARC
  5
762
330
1F
100
AcDbEntity
  8
C
100
AcDbCircle
 10
-807.1323093899987
 20
1295.549665451777
 30
0.0
 40
0.7
100
AcDbArc
 50
270.0
 51
0.0
  0
LINE
  5
763
330
1F
100
AcDbEntity
  8
C
100
AcDbLine
 10
-789.2562093900013
 20
1294.849665451777
 30
0.0
 11
-783.2563093899986
 21
1294.849665451777
 31
0.0
  0
ARC
  5
764
330
1F
100
AcDbEntity
  8
C
100
AcDbCircle
 10
-783.2563093899986
 20
1295.549665451777
 30
0.0
 40
0.7
100
AcDbArc
 50
270.0
 51
0.0
  0
ARC
  5
765
330
1F
100
AcDbEntity
  8
C
100
AcDbCircle
 10
-789.2562093900013
 20
1295.549665451777
 30
0.0
 40
0.7
100
AcDbArc
 50
180.0
 51
270.0
  0
LINE
  5
766
330
1F
100
AcDbEntity
  8
C
100
AcDbLine
 10
-808.3697093900012
 20
1313.899665451776
 30
0.0
 11
-802.3698093899987
 21
1313.899665451777
 31
0.0
  0
LINE
  5
767
330
1F
100
AcDbEntity
  8
C
100
AcDbLine
 10
-808.3697093900012
 20
1329.959665451776
 30
0.0
 11
-802.3698093899986
 21
1329.959665451776
 31
0.0
  0
ARC
  5
768
330
1F
100
AcDbEntity
  8
C
100
AcDbCircle
 10
-808.3697093900012
 20
1329.259665451776
 30
0.0
 40
0.7
100
AcDbArc
 50
90.0
 51
180.0
  0
ARC
  5
769
330
1F
100
AcDbEntity
  8
C
100
AcDbCircle
 10
-802.3698093899986
 20
1329.259665451776
 30
0.0
 40
0.7
100
AcDbArc
 50
0.0
 51
90.0
  0
ARC
  5
76A
330
1F
100
AcDbEntity
  8
C
100
AcDbCircle
 10
-808.3697093900012
 20
1314.599665451777
 30
0.0
 40
0.7
100
AcDbArc
 50
180.0
 51
270.0
  0
ARC
  5
76B
330
1F
100
AcDbEntity
  8
C
100
AcDbCircle
 10
-802.3698093899987
 20
1314.599665451777
 30
0.0
 40
0.7
100
AcDbArc
 50
270.0000000000004
 51
0.0
  0
LINE
  5
76C
330
1F
100
AcDbEntity
  8
C
100
AcDbLine
 10
-806.8955093900003
 20
1352.009665451777
 30
0.0
 11
-799.9885593899985
 21
1352.009665451777
 31
0.0
  0
ARC
  5
76D
330
1F
100
AcDbEntity
  8
C
100
AcDbCircle
 10
-806.8955093900003
 20
1352.709665451777
 30
0.0
 40
0.7
100
AcDbArc
 50
179.9999999999995
 51
270.0
  0
ARC
  5
76E
330
1F
100
AcDbEntity
  8
C
100
AcDbCircle
 10
-799.9885593899985
 20
1352.709665451777
 30
0.0
 40
0.7
100
AcDbArc
 50
270.0
 51
0.0
  0
LINE
  5
76F
330
1F
100
AcDbEntity
  8
C
100
AcDbLine
 10
-782.1124593900015
 20
1352.009665451777
 30
0.0
 11
-775.2055093899987
 21
1352.009665451777
 31
0.0
  0
ARC
  5
770
330
1F
100
AcDbEntity
  8
C
100
AcDbCircle
 10
-775.2055093899987
 20
1352.709665451777
 30
0.0
 40
0.7
100
AcDbArc
 50
270.0
 51
0.0000000000052924
  0
ARC
  5
771
330
1F
100
AcDbEntity
  8
C
100
AcDbCircle
 10
-782.1124593900015
 20
1352.709665451777
 30
0.0
 40
0.7
100
AcDbArc
 50
180.0
 51
270.0
  0
ENDSEC
  0
SECTION
  2
OBJECTS
  0
DICTIONARY
  5
C
330
0
100
AcDbDictionary
281
     1
  3
ACAD_GROUP
350
D
  3
ACAD_LAYOUT
350
1A
  3
ACAD_MLINESTYLE
350
17
  3
ACAD_PLOTSETTINGS
350
19
  3
ACAD_PLOTSTYLENAME
350
E
  3
AcDbVariableDictionary
350
72C
  0
DICTIONARY
  5
2B
330
2
100
AcDbDictionary
280
     1
281
     1
  3
ACAD_LAYERFILTERS
360
2C
  3
ACAD_LAYERSTATES
360
38
  0
DICTIONARY
  5
36
330
35
100
AcDbDictionary
280
     1
281
     1
  3
ADSK_XREC_LAYER_RECONCILED
360
37
  0
DICTIONARY
  5
D
102
{ACAD_REACTORS
330
C
102
}
330
C
100
AcDbDictionary
281
     1
  0
DICTIONARY
  5
1A
102
{ACAD_REACTORS
330
C
102
}
330
C
100
AcDbDictionary
281
     1
  3
Model
350
22
  3
1
350
1E
  3
2
350
26
  0
DICTIONARY
  5
17
102
{ACAD_REACTORS
330
C
102
}
330
C
100
AcDbDictionary
281
     1
  3
Standard
350
18
  0
DICTIONARY
  5
19
102
{ACAD_REACTORS
330
C
102
}
330
C
100
AcDbDictionary
281
     1
  0
ACDBDICTIONARYWDFLT
  5
E
102
{ACAD_REACTORS
330
C
102
}
330
C
100
AcDbDictionary
281
     1
  3
Normal
350
F
100
AcDbDictionaryWithDefault
340
F
  0
DICTIONARY
  5
72C
102
{ACAD_REACTORS
330
C
102
}
330
C
100
AcDbDictionary
281
     1
  3
DIMASSOC
350
72E
  3
HIDETEXT
350
72D
  0
DICTIONARY
  5
2C
102
{ACAD_REACTORS
330
2B
102
}
330
2B
100
AcDbDictionary
280
     1
281
     1
  3
ABJ
360
2D
  3
kd-1912
360
2E
  3
SSSS
360
2F
  3
_pf & fst
360
30
  3

360
31
  3
 
360
32
  3
 
360
33
  3
 
360
34
  0
DICTIONARY
  5
38
102
{ACAD_REACTORS
330
2B
102
}
330
2B
100
AcDbDictionary
281
     1
  0
XRECORD
  5
37
102
{ACAD_REACTORS
330
36
102
}
330
36
100
AcDbXrecord
280
     1
290
     1
  0
LAYOUT
  5
22
102
{ACAD_REACTORS
330
1A
102
}
330
1A
100
AcDbPlotSettings
  1

  2
iR-ADV C3325
  4

  6

 40
0.0
 41
0.0
 42
0.0
 43
0.0
 44
0.0
 45
0.0
 46
0.0
 47
0.0
 48
0.0
 49
0.0
140
0.0
141
0.0
142
1.0
143
1.0
 70
  1712
 72
     0
 73
     0
 74
     0
  7
NEX1.CTB
 75
     0
147
1.0
148
0.0
149
0.0
100
AcDbLayout
  1
Model
 70
     1
 71
     0
 10
0.0
 20
0.0
 11
12.0
 21
9.0
 12
0.0
 22
0.0
 32
0.0
 14
0.0
 24
0.0
 34
0.0
 15
0.0
 25
0.0
 35
0.0
146
0.0
 13
0.0
 23
0.0
 33
0.0
 16
1.0
 26
0.0
 36
0.0
 17
0.0
 27
1.0
 37
0.0
 76
     0
330
1F
  0
LAYOUT
  5
1E
102
{ACAD_REACTORS
330
1A
102
}
330
1A
100
AcDbPlotSettings
  1

  2
iR-ADV C3325
  4

  6

 40
0.0
 41
0.0
 42
0.0
 43
0.0
 44
0.0
 45
0.0
 46
0.0
 47
0.0
 48
0.0
 49
0.0
140
0.0
141
0.0
142
1.0
143
1.0
 70
   688
 72
     0
 73
     0
 74
     5
  7
NEX1.CTB
 75
    16
147
1.0
148
0.0
149
0.0
100
AcDbLayout
  1
1
 70
     1
 71
     1
 10
0.0
 20
0.0
 11
420.0
 21
297.0
 12
0.0
 22
0.0
 32
0.0
 14
1.000000000000000E+20
 24
1.000000000000000E+20
 34
1.000000000000000E+20
 15
-1.000000000000000E+20
 25
-1.000000000000000E+20
 35
-1.000000000000000E+20
146
0.0
 13
0.0
 23
0.0
 33
0.0
 16
1.0
 26
0.0
 36
0.0
 17
0.0
 27
1.0
 37
0.0
 76
     0
330
1B
  0
LAYOUT
  5
26
102
{ACAD_REACTORS
330
1A
102
}
330
1A
100
AcDbPlotSettings
  1

  2
iR-ADV C3325
  4

  6

 40
0.0
 41
0.0
 42
0.0
 43
0.0
 44
0.0
 45
0.0
 46
0.0
 47
0.0
 48
0.0
 49
0.0
140
0.0
141
0.0
142
1.0
143
1.0
 70
   688
 72
     0
 73
     0
 74
     5
  7
NEX1.CTB
 75
    16
147
1.0
148
0.0
149
0.0
100
AcDbLayout
  1
2
 70
     1
 71
     2
 10
0.0
 20
0.0
 11
12.0
 21
9.0
 12
0.0
 22
0.0
 32
0.0
 14
0.0
 24
0.0
 34
0.0
 15
0.0
 25
0.0
 35
0.0
146
0.0
 13
0.0
 23
0.0
 33
0.0
 16
1.0
 26
0.0
 36
0.0
 17
0.0
 27
1.0
 37
0.0
 76
     0
330
23
  0
MLINESTYLE
  5
18
102
{ACAD_REACTORS
330
17
102
}
330
17
100
AcDbMlineStyle
  2
STANDARD
 70
     0
  3

 62
   256
 51
90.0
 52
90.0
 71
     2
 49
0.5
 62
   256
  6
BYLAYER
 49
-0.5
 62
   256
  6
BYLAYER
  0
ACDBPLACEHOLDER
  5
F
102
{ACAD_REACTORS
330
E
102
}
330
E
  0
DICTIONARYVAR
  5
72E
102
{ACAD_REACTORS
330
72C
102
}
330
72C
100
DictionaryVariables
280
     0
  1
2
  0
DICTIONARYVAR
  5
72D
102
{ACAD_REACTORS
330
72C
102
}
330
72C
100
DictionaryVariables
280
     0
  1
1
  0
XRECORD
  5
2D
102
{ACAD_REACTORS
330
2C
102
}
330
2C
100
AcDbXrecord
280
     1
  1
ABJ
  1
*
  1
*
  1
*
 70
     0
  1
*
  1
*
  0
XRECORD
  5
2E
102
{ACAD_REACTORS
330
2C
102
}
330
2C
100
AcDbXrecord
280
     1
  1
kd-1912
  1
new*
  1
*
  1
*
 70
     0
  1
*
  1
*
  0
XRECORD
  5
2F
102
{ACAD_REACTORS
330
2C
102
}
330
2C
100
AcDbXrecord
280
     1
  1
SSSS
  1
*
  1
*
  1
*
 70
     0
  1
*
  1
*
  0
XRECORD
  5
30
102
{ACAD_REACTORS
330
2C
102
}
330
2C
100
AcDbXrecord
280
     1
  1
_pf & fst
  1
*
  1
*
  1
*
 70
  3072
  1
*
  1
*
  0
XRECORD
  5
31
102
{ACAD_REACTORS
330
2C
102
}
330
2C
100
AcDbXrecord
280
     1
  1

  1
*
  1
*
  1
*
 70
   256
  1
*
  1
*
  0
XRECORD
  5
32
102
{ACAD_REACTORS
330
2C
102
}
330
2C
100
AcDbXrecord
280
     1
  1
 
  1
*
  1
*
  1
*
 70
  1025
  1
*
  1
*
  0
XRECORD
  5
33
102
{ACAD_REACTORS
330
2C
102
}
330
2C
100
AcDbXrecord
280
     1
  1
 
  1
*
  1
*
  1
*
 70
     1
  1
*
  1
*
  0
XRECORD
  5
34
102
{ACAD_REACTORS
330
2C
102
}
330
2C
100
AcDbXrecord
280
     1
  1
 
  1
*
  1
*
  1
*
 70
   257
  1
*
  1
*
  0
ENDSEC
  0
EOF
