  0
SECTION
  2
HEADER
  9
$ACADVER
  1
AC1015
  9
$ACADMAINTVER
 70
    13
  9
$DWGCODEPAGE
  3
ANSI_949
  9
$INSBASE
 10
0.0
 20
0.0
 30
0.0
  9
$EXTMIN
 10
302.186780631152
 20
-459.4479660812298
 30
-0.0000000000000053
  9
$EXTMAX
 10
694.8352496627762
 20
-377.1400313655499
 30
0.0000000000000099
  9
$LIMMIN
 10
0.0
 20
0.0
  9
$LIMMAX
 10
279.4
 20
215.9
  9
$ORTHOMODE
 70
     1
  9
$REGENMODE
 70
     1
  9
$FILLMODE
 70
     1
  9
$QTEXTMODE
 70
     0
  9
$MIRRTEXT
 70
     1
  9
$LTSCALE
 40
1.0
  9
$ATTMODE
 70
     1
  9
$TEXTSIZE
 40
27.07208874367324
  9
$TRACEWID
 40
1.0
  9
$TEXTSTYLE
  7
Standard
  9
$CLAYER
  8
0
  9
$CELTYPE
  6
ByLayer
  9
$CECOLOR
 62
   256
  9
$CELTSCALE
 40
1.0
  9
$DISPSILH
 70
     0
  9
$DIMSCALE
 40
1.0
  9
$DIMASZ
 40
3.5
  9
$DIMEXO
 40
1.0
  9
$DIMDLI
 40
10.0
  9
$DIMRND
 40
0.0
  9
$DIMDLE
 40
0.0
  9
$DIMEXE
 40
1.0
  9
$DIMTP
 40
0.0
  9
$DIMTM
 40
0.0
  9
$DIMTXT
 40
5.0
  9
$DIMCEN
 40
-1.0
  9
$DIMTSZ
 40
0.0
  9
$DIMTOL
 70
     0
  9
$DIMLIM
 70
     0
  9
$DIMTIH
 70
     0
  9
$DIMTOH
 70
     0
  9
$DIMSE1
 70
     0
  9
$DIMSE2
 70
     0
  9
$DIMTAD
 70
     0
  9
$DIMZIN
 70
     0
  9
$DIMBLK
  1

  9
$DIMASO
 70
     1
  9
$DIMSHO
 70
     1
  9
$DIMPOST
  1

  9
$DIMAPOST
  1

  9
$DIMALT
 70
     0
  9
$DIMALTD
 70
     2
  9
$DIMALTF
 40
25.4
  9
$DIMLFAC
 40
1.0
  9
$DIMTOFL
 70
     1
  9
$DIMTVP
 40
0.0
  9
$DIMTIX
 70
     1
  9
$DIMSOXD
 70
     0
  9
$DIMSAH
 70
     0
  9
$DIMBLK1
  1

  9
$DIMBLK2
  1

  9
$DIMSTYLE
  2
STANDARD
  9
$DIMCLRD
 70
     6
  9
$DIMCLRE
 70
     6
  9
$DIMCLRT
 70
     3
  9
$DIMTFAC
 40
1.0
  9
$DIMGAP
 40
1.0
  9
$DIMJUST
 70
     0
  9
$DIMSD1
 70
     0
  9
$DIMSD2
 70
     0
  9
$DIMTOLJ
 70
     1
  9
$DIMTZIN
 70
     0
  9
$DIMALTZ
 70
     0
  9
$DIMALTTZ
 70
     0
  9
$DIMUPT
 70
     0
  9
$DIMDEC
 70
     0
  9
$DIMTDEC
 70
     0
  9
$DIMALTU
 70
     2
  9
$DIMALTTD
 70
     2
  9
$DIMTXSTY
  7
DD
  9
$DIMAUNIT
 70
     1
  9
$DIMADEC
 70
     0
  9
$DIMALTRND
 40
0.0
  9
$DIMAZIN
 70
     0
  9
$DIMDSEP
 70
    46
  9
$DIMATFIT
 70
     2
  9
$DIMFRAC
 70
     0
  9
$DIMLDRBLK
  1

  9
$DIMLUNIT
 70
     2
  9
$DIMLWD
 70
    -2
  9
$DIMLWE
 70
    -2
  9
$DIMTMOVE
 70
     1
  9
$LUNITS
 70
     2
  9
$LUPREC
 70
     2
  9
$SKETCHINC
 40
1.0
  9
$FILLETRAD
 40
3.0
  9
$AUNITS
 70
     0
  9
$AUPREC
 70
     2
  9
$MENU
  1
.
  9
$ELEVATION
 40
0.0
  9
$PELEVATION
 40
0.0
  9
$THICKNESS
 40
0.0
  9
$LIMCHECK
 70
     0
  9
$CHAMFERA
 40
0.0
  9
$CHAMFERB
 40
0.0
  9
$CHAMFERC
 40
0.0
  9
$CHAMFERD
 40
0.0
  9
$SKPOLY
 70
     0
  9
$TDCREATE
 40
2458775.427739039
  9
$TDUCREATE
 40
2458775.052739039
  9
$TDUPDATE
 40
2458949.375668310
  9
$TDUUPDATE
 40
2458949.000668310
  9
$TDINDWG
 40
0.2212119676
  9
$TDUSRTIMER
 40
0.2212119676
  9
$USRTIMER
 70
     1
  9
$ANGBASE
 50
0.0
  9
$ANGDIR
 70
     0
  9
$PDMODE
 70
     0
  9
$PDSIZE
 40
-1.0
  9
$PLINEWID
 40
0.0
  9
$SPLFRAME
 70
     0
  9
$SPLINETYPE
 70
     6
  9
$SPLINESEGS
 70
     8
  9
$HANDSEED
  5
657C
  9
$SURFTAB1
 70
     6
  9
$SURFTAB2
 70
     6
  9
$SURFTYPE
 70
     6
  9
$SURFU
 70
     6
  9
$SURFV
 70
     6
  9
$UCSBASE
  2

  9
$UCSNAME
  2

  9
$UCSORG
 10
146.5645947398613
 20
262.9876939414909
 30
0.0
  9
$UCSXDIR
 10
1.0
 20
0.0
 30
0.0
  9
$UCSYDIR
 10
0.0
 20
1.0
 30
0.0
  9
$UCSORTHOREF
  2

  9
$UCSORTHOVIEW
 70
     0
  9
$UCSORGTOP
 10
0.0
 20
0.0
 30
0.0
  9
$UCSORGBOTTOM
 10
0.0
 20
0.0
 30
0.0
  9
$UCSORGLEFT
 10
0.0
 20
0.0
 30
0.0
  9
$UCSORGRIGHT
 10
0.0
 20
0.0
 30
0.0
  9
$UCSORGFRONT
 10
0.0
 20
0.0
 30
0.0
  9
$UCSORGBACK
 10
0.0
 20
0.0
 30
0.0
  9
$PUCSBASE
  2

  9
$PUCSNAME
  2

  9
$PUCSORG
 10
0.0
 20
0.0
 30
0.0
  9
$PUCSXDIR
 10
1.0
 20
0.0
 30
0.0
  9
$PUCSYDIR
 10
0.0
 20
1.0
 30
0.0
  9
$PUCSORTHOREF
  2

  9
$PUCSORTHOVIEW
 70
     0
  9
$PUCSORGTOP
 10
0.0
 20
0.0
 30
0.0
  9
$PUCSORGBOTTOM
 10
0.0
 20
0.0
 30
0.0
  9
$PUCSORGLEFT
 10
0.0
 20
0.0
 30
0.0
  9
$PUCSORGRIGHT
 10
0.0
 20
0.0
 30
0.0
  9
$PUCSORGFRONT
 10
0.0
 20
0.0
 30
0.0
  9
$PUCSORGBACK
 10
0.0
 20
0.0
 30
0.0
  9
$USERI1
 70
     0
  9
$USERI2
 70
     0
  9
$USERI3
 70
     0
  9
$USERI4
 70
     0
  9
$USERI5
 70
     0
  9
$USERR1
 40
0.0
  9
$USERR2
 40
0.0
  9
$USERR3
 40
0.0
  9
$USERR4
 40
0.0
  9
$USERR5
 40
0.0
  9
$WORLDVIEW
 70
     1
  9
$SHADEDGE
 70
     3
  9
$SHADEDIF
 70
    70
  9
$TILEMODE
 70
     1
  9
$MAXACTVP
 70
    64
  9
$PINSBASE
 10
0.0
 20
0.0
 30
0.0
  9
$PLIMCHECK
 70
     0
  9
$PEXTMIN
 10
1.000000000000000E+20
 20
1.000000000000000E+20
 30
1.000000000000000E+20
  9
$PEXTMAX
 10
-1.000000000000000E+20
 20
-1.000000000000000E+20
 30
-1.000000000000000E+20
  9
$PLIMMIN
 10
0.0
 20
0.0
  9
$PLIMMAX
 10
420.0
 20
297.0
  9
$UNITMODE
 70
     0
  9
$VISRETAIN
 70
     1
  9
$PLINEGEN
 70
     0
  9
$PSLTSCALE
 70
     1
  9
$TREEDEPTH
 70
  3020
  9
$CMLSTYLE
  2
Standard
  9
$CMLJUST
 70
     0
  9
$CMLSCALE
 40
20.0
  9
$PROXYGRAPHICS
 70
     1
  9
$MEASUREMENT
 70
     1
  9
$CELWEIGHT
370
    -1
  9
$ENDCAPS
280
     0
  9
$JOINSTYLE
280
     0
  9
$LWDISPLAY
290
     1
  9
$INSUNITS
 70
     4
  9
$HYPERLINKBASE
  1

  9
$STYLESHEET
  1
NEX1.CTB
  9
$XEDIT
290
     1
  9
$CEPSNTYPE
380
     0
  9
$PSTYLEMODE
290
     1
  9
$FINGERPRINTGUID
  2
{6978BF6B-26EC-4CB5-8782-0DFD91C79F63}
  9
$VERSIONGUID
  2
{CD58B370-198B-4772-94B3-07C930A220DB}
  9
$EXTNAMES
290
     1
  9
$PSVPSCALE
 40
0.0
  9
$OLESTARTUP
290
     0
  0
ENDSEC
  0
SECTION
  2
CLASSES
  0
CLASS
  1
ACDBDICTIONARYWDFLT
  2
AcDbDictionaryWithDefault
  3
AutoCAD 2000
 90
        0
280
     0
281
     0
  0
CLASS
  1
VISUALSTYLE
  2
AcDbVisualStyle
  3
ObjectDBX Classes
 90
    36863
280
     0
281
     0
  0
CLASS
  1
MATERIAL
  2
AcDbMaterial
  3
ObjectDBX Classes
 90
    33921
280
     0
281
     0
  0
CLASS
  1
SCALE
  2
AcDbScale
  3
ObjectDBX Classes
 90
     1153
280
     0
281
     0
  0
CLASS
  1
TABLESTYLE
  2
AcDbTableStyle
  3
ObjectDBX Classes
 90
    36863
280
     0
281
     0
  0
CLASS
  1
MLEADERSTYLE
  2
AcDbMLeaderStyle
  3
ACDB_MLEADERSTYLE_CLASS
 90
    36863
280
     0
281
     0
  0
CLASS
  1
SUN
  2
AcDbSun
  3
SCENEOE
 90
    33921
280
     0
281
     0
  0
CLASS
  1
ACDBPLACEHOLDER
  2
AcDbPlaceHolder
  3
AutoCAD 2000
 90
        0
280
     0
281
     0
  0
CLASS
  1
LAYOUT
  2
AcDbLayout
  3
AutoCAD 2000
 90
        0
280
     0
281
     0
  0
CLASS
  1
DICTIONARYVAR
  2
AcDbDictionaryVar
  3
AutoCAD 2000
 90
        0
280
     0
281
     0
  0
ENDSEC
  0
SECTION
  2
TABLES
  0
TABLE
  2
VPORT
  5
8
330
0
100
AcDbSymbolTable
 70
     3
  0
VPORT
  5
657B
330
8
100
AcDbSymbolTableRecord
100
AcDbViewportTableRecord
  2
*Active
 70
     0
 10
0.0
 20
0.0
 11
1.0
 21
1.0
 12
498.5110151469641
 22
-418.2939987233899
 13
0.0
 23
0.0
 14
10.0
 24
10.0
 15
10.0
 25
10.0
 16
0.0
 26
0.0
 36
1.0
 17
0.0
 27
0.0
 37
0.0
 40
187.8865286226563
 41
2.095030514385352
 42
50.0
 43
0.0
 44
0.0
 50
0.0
 51
0.0
 71
     0
 72
  2000
 73
     1
 74
     3
 75
     0
 76
     0
 77
     0
 78
     0
281
     0
 65
     1
110
146.5645947398613
120
262.9876939414909
130
0.0
111
1.0
121
0.0
131
0.0
112
0.0
122
1.0
132
0.0
 79
     0
146
0.0
  0
ENDTAB
  0
TABLE
  2
LTYPE
  5
5
330
0
100
AcDbSymbolTable
 70
     1
  0
LTYPE
  5
14
330
5
100
AcDbSymbolTableRecord
100
AcDbLinetypeTableRecord
  2
ByBlock
 70
     0
  3

 72
    65
 73
     0
 40
0.0
  0
LTYPE
  5
15
330
5
100
AcDbSymbolTableRecord
100
AcDbLinetypeTableRecord
  2
ByLayer
 70
     0
  3

 72
    65
 73
     0
 40
0.0
  0
LTYPE
  5
16
330
5
100
AcDbSymbolTableRecord
100
AcDbLinetypeTableRecord
  2
Continuous
 70
     0
  3
Solid line
 72
    65
 73
     0
 40
0.0
  0
ENDTAB
  0
TABLE
  2
LAYER
  5
2
102
{ACAD_XDICTIONARY
360
1CD3
102
}
330
0
100
AcDbSymbolTable
 70
     3
  0
LAYER
  5
10
330
2
100
AcDbSymbolTableRecord
100
AcDbLayerTableRecord
  2
0
 70
     0
 62
     7
  6
Continuous
370
    -3
390
F
  0
LAYER
  5
1CC8
102
{ACAD_XDICTIONARY
360
1CC9
102
}
330
2
100
AcDbSymbolTableRecord
100
AcDbLayerTableRecord
  2
BR
 70
     0
 62
    11
  6
Continuous
370
    -3
390
F
  0
LAYER
  5
64BF
330
2
100
AcDbSymbolTableRecord
100
AcDbLayerTableRecord
  2
Defpoints
 70
     0
 62
     7
  6
Continuous
290
     0
370
    -3
390
F
  0
ENDTAB
  0
TABLE
  2
STYLE
  5
3
330
0
100
AcDbSymbolTable
 70
     2
  0
STYLE
  5
11
330
3
100
AcDbSymbolTableRecord
100
AcDbTextStyleTableRecord
  2
Standard
 70
     0
 40
0.0
 41
1.0
 50
0.0
 71
     0
 42
27.07208874367324
  3
txt
  4

  0
STYLE
  5
1CCE
330
3
100
AcDbSymbolTableRecord
100
AcDbTextStyleTableRecord
  2
DD
 70
     0
 40
5.0
 41
1.0
 50
0.0
 71
     0
 42
3.2
  3
Gulim.ttf
  4

1001
ACAD
1000
Gulim
1071
    33074
  0
ENDTAB
  0
TABLE
  2
VIEW
  5
6
330
0
100
AcDbSymbolTable
 70
     0
  0
ENDTAB
  0
TABLE
  2
UCS
  5
7
330
0
100
AcDbSymbolTable
 70
     0
  0
ENDTAB
  0
TABLE
  2
APPID
  5
9
330
0
100
AcDbSymbolTable
 70
     3
  0
APPID
  5
12
330
9
100
AcDbSymbolTableRecord
100
AcDbRegAppTableRecord
  2
ACAD
 70
     0
  0
APPID
  5
1CD1
330
9
100
AcDbSymbolTableRecord
100
AcDbRegAppTableRecord
  2
ACAD_PSEXT
 70
     0
  0
APPID
  5
1CD2
330
9
100
AcDbSymbolTableRecord
100
AcDbRegAppTableRecord
  2
ACAD_DSTYLE_DIMTEXT_FILL
 70
     0
  0
ENDTAB
  0
TABLE
  2
DIMSTYLE
  5
A
330
0
100
AcDbSymbolTable
 70
     1
100
AcDbDimStyleTable
 71
     1
340
1CD0
  0
DIMSTYLE
105
1CD0
102
{ACAD_REACTORS
330
64BE
330
64D7
102
}
330
A
100
AcDbSymbolTableRecord
100
AcDbDimStyleTableRecord
  2
STANDARD
 70
     0
 41
3.5
 42
1.0
 43
10.0
 44
1.0
 73
     0
 74
     0
140
5.0
141
-1.0
147
1.0
172
     1
174
     1
176
     6
177
     6
178
     3
271
     0
272
     0
275
     1
279
     1
289
     2
340
1CCE
  0
ENDTAB
  0
TABLE
  2
BLOCK_RECORD
  5
1
330
0
100
AcDbSymbolTable
 70
     8
  0
BLOCK_RECORD
  5
1F
330
1
100
AcDbSymbolTableRecord
100
AcDbBlockTableRecord
  2
*Model_Space
340
22
  0
BLOCK_RECORD
  5
1B
330
1
100
AcDbSymbolTableRecord
100
AcDbBlockTableRecord
  2
*Paper_Space
340
1E
  0
BLOCK_RECORD
  5
23
330
1
100
AcDbSymbolTableRecord
100
AcDbBlockTableRecord
  2
*Paper_Space0
340
26
  0
BLOCK_RECORD
  5
63D8
330
1
100
AcDbSymbolTableRecord
100
AcDbBlockTableRecord
  2
WR_PhysiX_R1
340
0
102
{BLKREFS
331
646B
102
}
  0
BLOCK_RECORD
  5
64C0
330
1
100
AcDbSymbolTableRecord
100
AcDbBlockTableRecord
  2
*D2
340
0
  0
BLOCK_RECORD
  5
64D8
330
1
100
AcDbSymbolTableRecord
100
AcDbBlockTableRecord
  2
*D3
340
0
  0
BLOCK_RECORD
  5
64E6
330
1
100
AcDbSymbolTableRecord
100
AcDbBlockTableRecord
  2
*D4
340
0
  0
BLOCK_RECORD
  5
64F4
330
1
100
AcDbSymbolTableRecord
100
AcDbBlockTableRecord
  2
*D5
340
0
  0
BLOCK_RECORD
  5
652E
330
1
100
AcDbSymbolTableRecord
100
AcDbBlockTableRecord
  2
*D6
340
0
  0
BLOCK_RECORD
  5
653C
330
1
100
AcDbSymbolTableRecord
100
AcDbBlockTableRecord
  2
*D7
340
0
  0
ENDTAB
  0
ENDSEC
  0
SECTION
  2
BLOCKS
  0
BLOCK
  5
20
330
1F
100
AcDbEntity
  8
0
100
AcDbBlockBegin
  2
*Model_Space
 70
     0
 10
0.0
 20
0.0
 30
0.0
  3
*Model_Space
  1

  0
ENDBLK
  5
21
330
1F
100
AcDbEntity
  8
0
100
AcDbBlockEnd
  0
BLOCK
  5
1C
330
1B
100
AcDbEntity
 67
     1
  8
0
100
AcDbBlockBegin
  2
*Paper_Space
 70
     0
 10
0.0
 20
0.0
 30
0.0
  3
*Paper_Space
  1

  0
ENDBLK
  5
1D
330
1B
100
AcDbEntity
 67
     1
  8
0
100
AcDbBlockEnd
  0
BLOCK
  5
24
330
23
100
AcDbEntity
  8
0
100
AcDbBlockBegin
  2
*Paper_Space0
 70
     0
 10
0.0
 20
0.0
 30
0.0
  3
*Paper_Space0
  1

  0
ENDBLK
  5
25
330
23
100
AcDbEntity
  8
0
100
AcDbBlockEnd
  0
BLOCK
  5
6469
330
63D8
100
AcDbEntity
  8
0
100
AcDbBlockBegin
  2
WR_PhysiX_R1
 70
     0
 10
0.0
 20
0.0
 30
0.0
  3
WR_PhysiX_R1
  1

  0
LINE
  5
63D9
330
63D8
100
AcDbEntity
  8
0
  6
Continuous
 62
     7
370
    25
100
AcDbLine
 10
108.6452583288096
 20
113.4059325647977
 30
0.0
 11
109.0854999950008
 21
112.5550020416156
 31
0.0
  0
LINE
  5
63DA
330
63D8
100
AcDbEntity
  8
0
  6
Continuous
 62
     7
370
    25
100
AcDbLine
 10
125.7152857270193
 20
115.1461414291051
 30
0.0
 11
125.2750440608281
 21
115.9970719522872
 31
0.0
  0
LINE
  5
63DB
330
63D8
100
AcDbEntity
  8
0
  6
Continuous
 62
     7
370
    25
100
AcDbLine
 10
141.3126484422556
 20
107.277387710811
 30
0.0
 11
140.8724067760644
 21
108.128318233993
 31
0.0
  0
LINE
  5
63DC
330
63D8
100
AcDbEntity
  8
0
  6
Continuous
 62
     7
370
    25
100
AcDbLine
 10
109.0854999950008
 20
112.5550020416156
 30
0.0
 11
109.5257416611921
 21
111.7040715184336
 31
0.0
  0
LINE
  5
63DD
330
63D8
100
AcDbEntity
  8
0
  6
Continuous
 62
     7
370
    25
100
AcDbLine
 10
126.1555273932106
 20
114.2952109059231
 30
0.0
 11
125.7152857270193
 21
115.1461414291051
 31
0.0
  0
LINE
  5
63DE
330
63D8
100
AcDbEntity
  8
0
  6
Continuous
 62
     7
370
    25
100
AcDbLine
 10
141.7528901084469
 20
106.4264571876289
 30
0.0
 11
141.3126484422556
 21
107.277387710811
 31
0.0
  0
LINE
  5
63DF
330
63D8
100
AcDbEntity
  8
0
  6
Continuous
 62
     7
370
    25
100
AcDbLine
 10
113.8803175421791
 20
114.6724752901098
 30
0.0
 11
114.3205592083704
 21
113.8215447669278
 31
0.0
  0
LINE
  5
63E0
330
63D8
100
AcDbEntity
  8
0
  6
Continuous
 62
     7
370
    25
100
AcDbLine
 10
126.5957690594019
 20
113.444280382741
 30
0.0
 11
126.1555273932106
 21
114.2952109059231
 31
0.0
  0
LINE
  5
63E1
330
63D8
100
AcDbEntity
  8
0
  6
Continuous
 62
     7
370
    25
100
AcDbLine
 10
142.1931317746381
 20
105.5755266644469
 30
0.0
 11
141.7528901084469
 21
106.4264571876289
 31
0.0
  0
LWPOLYLINE
  5
63E2
330
63D8
100
AcDbEntity
  8
0
  6
Continuous
 62
     7
370
    25
100
AcDbPolyline
 90
        9
 70
   128
 43
0.0
 10
110.2458827480716
 20
113.7873336046474
 10
109.9623285700306
 20
113.6084482595906
 10
109.706105763816
 20
113.4254784136839
 10
109.4849995297394
 20
113.2439835131082
 10
109.3057280688382
 20
113.0694781885764
 10
109.1737384537361
 20
112.9072646960705
 10
109.0930411220981
 20
112.7622718104764
 10
109.066088021511
 20
112.6389050672529
 10
109.0854999950008
 20
112.5550020416156
  0
LINE
  5
63E3
330
63D8
100
AcDbEntity
  8
0
  6
Continuous
 62
     7
370
    25
100
AcDbLine
 10
118.1739050309276
 20
118.5002510019532
 30
0.0
 11
110.2458827480716
 21
113.7873336046474
 31
0.0
  0
ARC
  5
63E4
330
63D8
100
AcDbEntity
  8
0
  6
Continuous
 62
     7
370
    25
100
AcDbCircle
 10
118.8023911376038
 20
117.6581888454081
 30
0.0
 40
1.050744241844946
100
AcDbArc
 50
86.59831210926611
 51
126.7363888433499
  0
LINE
  5
63E5
330
63D8
100
AcDbEntity
  8
0
  6
Continuous
 62
     7
370
    25
100
AcDbLine
 10
118.8647378677698
 20
118.7070817603465
 30
0.0
 11
125.5362206345573
 21
115.313600061522
 31
0.0
  0
ARC
  5
63E6
330
63D8
100
AcDbEntity
  8
0
  6
Continuous
 62
     7
370
    25
100
AcDbCircle
 10
125.3714791386598
 20
114.9579731177785
 30
0.0
 40
0.3919314781781888
100
AcDbArc
 50
28.69226811844869
 51
65.1444254103575
  0
LINE
  5
63E7
330
63D8
100
AcDbEntity
  8
0
  6
Continuous
 62
     7
370
    25
100
AcDbLine
 10
127.8582349329032
 20
110.4109892341398
 30
0.0
 11
128.9501032397275
 21
109.855605184408
 31
0.0
  0
ARC
  5
63E8
330
63D8
100
AcDbEntity
  8
0
  6
Continuous
 62
     7
370
    25
100
AcDbCircle
 10
129.3636612177903
 20
110.7517298859564
 30
0.0
 40
0.9869496856196695
100
AcDbArc
 50
245.2268644208026
 51
267.0979011609841
  0
LINE
  5
63E9
330
63D8
100
AcDbEntity
  8
0
  6
Continuous
 62
     7
370
    25
100
AcDbLine
 10
129.3136924242237
 20
109.7660459601393
 30
0.0
 11
137.5769173394426
 21
109.093659687232
 31
0.0
  0
ARC
  5
63EA
330
63D8
100
AcDbEntity
  8
0
  6
Continuous
 62
     7
370
    25
100
AcDbCircle
 10
137.5269482865012
 20
108.1079759937981
 30
0.0
 40
0.9869494666664316
100
AcDbArc
 50
65.22686717822992
 51
87.09788543968457
  0
LINE
  5
63EB
330
63D8
100
AcDbEntity
  8
0
  6
Continuous
 62
     7
370
    25
100
AcDbLine
 10
137.9405061296898
 20
109.0041005164458
 30
0.0
 11
141.2857887015734
 21
107.3025064957585
 31
0.0
  0
LWPOLYLINE
  5
63EC
330
63D8
100
AcDbEntity
  8
0
  6
Continuous
 62
     7
370
    25
100
AcDbPolyline
 90
        3
 70
   128
 43
0.0
 10
141.2857887015734
 20
107.3025064957585
 10
141.3121157300435
 20
107.278388966713
 10
141.3126484422556
 20
107.277387710811
  0
LINE
  5
63ED
330
63D8
100
AcDbEntity
  8
0
  6
Continuous
 62
     7
370
    25
100
AcDbLine
 10
117.7336633647364
 20
119.3511815251353
 30
0.0
 11
118.1739050309276
 21
118.5002510019532
 31
0.0
  0
ARC
  5
63EE
330
63D8
100
AcDbEntity
  8
0
  6
Continuous
 62
     7
370
    25
100
AcDbCircle
 10
118.3621494714126
 20
118.50911936859
 30
0.0
 40
1.05074424184512
100
AcDbArc
 50
86.59831210927055
 51
126.7363888433457
  0
LINE
  5
63EF
330
63D8
100
AcDbEntity
  8
0
  6
Continuous
 62
     7
370
    25
100
AcDbLine
 10
118.4244962015786
 20
119.5580122835286
 30
0.0
 11
118.8647378677698
 21
118.7070817603465
 31
0.0
  0
LINE
  5
63F0
330
63D8
100
AcDbEntity
  8
0
  6
Continuous
 62
     7
370
    25
100
AcDbLine
 10
109.8056410818803
 20
114.6382641278295
 30
0.0
 11
110.2458827480716
 21
113.7873336046474
 31
0.0
  0
LINE
  5
63F1
330
63D8
100
AcDbEntity
  8
0
  6
Continuous
 62
     7
370
    25
100
AcDbLine
 10
117.7336633647364
 20
119.3511815251353
 30
0.0
 11
109.8056410818803
 21
114.6382641278295
 31
0.0
  0
LINE
  5
63F2
330
63D8
100
AcDbEntity
  8
0
  6
Continuous
 62
     7
370
    25
100
AcDbLine
 10
125.095978968366
 20
116.1645305847041
 30
0.0
 11
125.5362206345573
 21
115.313600061522
 31
0.0
  0
LINE
  5
63F3
330
63D8
100
AcDbEntity
  8
0
  6
Continuous
 62
     7
370
    25
100
AcDbLine
 10
118.4244962015786
 20
119.5580122835286
 30
0.0
 11
125.095978968366
 21
116.1645305847041
 31
0.0
  0
LWPOLYLINE
  5
63F4
330
63D8
100
AcDbEntity
  8
0
  6
Continuous
 62
     7
370
    25
100
AcDbPolyline
 90
        9
 70
   128
 43
0.0
 10
108.6452583288096
 20
113.4059325647977
 10
108.6258463553198
 20
113.489835590435
 10
108.6527994559068
 20
113.6132023336585
 10
108.7334967875449
 20
113.7581952192526
 10
108.8654864026469
 20
113.9204087117584
 10
109.0447578635481
 20
114.0949140362902
 10
109.2658640976247
 20
114.276408936866
 10
109.5220869038394
 20
114.4593787827726
 10
109.8056410818803
 20
114.6382641278295
  0
ARC
  5
63F5
330
63D8
100
AcDbEntity
  8
0
  6
Continuous
 62
     7
370
    25
100
AcDbCircle
 10
124.9312374724683
 20
115.8089036409603
 30
0.0
 40
0.3919314781785566
100
AcDbArc
 50
28.69226811846436
 51
65.14442541033914
  0
LINE
  5
63F6
330
63D8
100
AcDbEntity
  8
0
  6
Continuous
 62
     7
370
    25
100
AcDbLine
 10
128.5098615735362
 20
110.70653570759
 30
0.0
 11
128.9501032397275
 21
109.855605184408
 31
0.0
  0
LINE
  5
63F7
330
63D8
100
AcDbEntity
  8
0
  6
Continuous
 62
     7
370
    25
100
AcDbLine
 10
127.5276044890133
 20
111.2061654835168
 30
0.0
 11
128.5098615735362
 21
110.70653570759
 31
0.0
  0
LINE
  5
63F8
330
63D8
100
AcDbEntity
  8
0
  6
Continuous
 62
     7
370
    25
100
AcDbLine
 10
128.8734507580324
 20
110.6169764833214
 30
0.0
 11
129.3136924242237
 21
109.7660459601393
 31
0.0
  0
ARC
  5
63F9
330
63D8
100
AcDbEntity
  8
0
  6
Continuous
 62
     7
370
    25
100
AcDbCircle
 10
128.9234195515991
 20
111.6026604091386
 30
0.0
 40
0.986949685619734
100
AcDbArc
 50
245.2268644208043
 51
267.0979011609859
  0
LINE
  5
63FA
330
63D8
100
AcDbEntity
  8
0
  6
Continuous
 62
     7
370
    25
100
AcDbLine
 10
137.1366756732513
 20
109.944590210414
 30
0.0
 11
137.5769173394426
 21
109.093659687232
 31
0.0
  0
LINE
  5
63FB
330
63D8
100
AcDbEntity
  8
0
  6
Continuous
 62
     7
370
    25
100
AcDbLine
 10
128.8734507580324
 20
110.6169764833214
 30
0.0
 11
137.1366756732513
 21
109.944590210414
 31
0.0
  0
LINE
  5
63FC
330
63D8
100
AcDbEntity
  8
0
  6
Continuous
 62
     7
370
    25
100
AcDbLine
 10
137.5002644634986
 20
109.8550310396278
 30
0.0
 11
137.9405061296898
 21
109.0041005164458
 31
0.0
  0
ARC
  5
63FD
330
63D8
100
AcDbEntity
  8
0
  6
Continuous
 62
     7
370
    25
100
AcDbCircle
 10
137.0867066203099
 20
108.9589065169803
 30
0.0
 40
0.986949466666365
100
AcDbArc
 50
65.22686717822634
 51
87.09788543968436
  0
LINE
  5
63FE
330
63D8
100
AcDbEntity
  8
0
  6
Continuous
 62
     7
370
    25
100
AcDbLine
 10
140.8455470353821
 20
108.1534370189406
 30
0.0
 11
141.2857887015734
 21
107.3025064957585
 31
0.0
  0
LINE
  5
63FF
330
63D8
100
AcDbEntity
  8
0
  6
Continuous
 62
     7
370
    25
100
AcDbLine
 10
137.5002644634986
 20
109.8550310396278
 30
0.0
 11
140.8455470353821
 21
108.1534370189406
 31
0.0
  0
LWPOLYLINE
  5
6400
330
63D8
100
AcDbEntity
  8
0
  6
Continuous
 62
     7
370
    25
100
AcDbPolyline
 90
        3
 70
   128
 43
0.0
 10
140.8455470353821
 20
108.1534370189406
 10
140.8718740638522
 20
108.1293194898951
 10
140.8724067760644
 20
108.128318233993
  0
LWPOLYLINE
  5
6401
330
63D8
100
AcDbEntity
  8
0
  6
Continuous
 62
     7
370
    25
100
AcDbPolyline
 90
       10
 70
   128
 43
0.0
 10
110.6861244142628
 20
112.9364030814653
 10
110.4025702362219
 20
112.7575177364085
 10
110.1463474300072
 20
112.5745478905019
 10
109.9252411959307
 20
112.3930529899261
 10
109.7459697350295
 20
112.2185476653943
 10
109.6139801199274
 20
112.0563341728885
 10
109.5332827882893
 20
111.9113412872944
 10
109.5063296877023
 20
111.7879745440709
 10
109.5339397744887
 20
111.6899823792842
 10
109.6152741301329
 20
111.620342235275
  0
LINE
  5
6402
330
63D8
100
AcDbEntity
  8
0
  6
Continuous
 62
     7
370
    25
100
AcDbLine
 10
118.6141466971189
 20
117.6493204787712
 30
0.0
 11
110.6861244142628
 21
112.9364030814653
 31
0.0
  0
ARC
  5
6403
330
63D8
100
AcDbEntity
  8
0
  6
Continuous
 62
     7
370
    25
100
AcDbCircle
 10
119.2426328037951
 20
116.8072583222261
 30
0.0
 40
1.050744241844946
100
AcDbArc
 50
86.59831210926611
 51
126.7363888433499
  0
LINE
  5
6404
330
63D8
100
AcDbEntity
  8
0
  6
Continuous
 62
     7
370
    25
100
AcDbLine
 10
125.9764623007486
 20
114.46266953834
 30
0.0
 11
119.3049795339611
 21
117.8561512371645
 31
0.0
  0
ARC
  5
6405
330
63D8
100
AcDbEntity
  8
0
  6
Continuous
 62
     7
370
    25
100
AcDbCircle
 10
125.811720804851
 20
114.1070425945963
 30
0.0
 40
0.3919314781782796
100
AcDbArc
 50
28.69226811845563
 51
65.14442541034968
  0
LINE
  5
6406
330
63D8
100
AcDbEntity
  8
0
  6
Continuous
 62
     7
370
    25
100
AcDbLine
 10
128.2196143408652
 20
109.6001723767475
 30
0.0
 11
128.1881772992496
 21
109.6174678321323
 31
0.0
  0
LINE
  5
6407
330
63D8
100
AcDbEntity
  8
0
  6
Continuous
 62
     7
370
    25
100
AcDbLine
 10
129.3903449059188
 20
109.0046746612259
 30
0.0
 11
128.2196143408652
 21
109.6001723767475
 31
0.0
  0
ARC
  5
6408
330
63D8
100
AcDbEntity
  8
0
  6
Continuous
 62
     7
370
    25
100
AcDbCircle
 10
129.8039028839817
 20
109.9007993627746
 30
0.0
 40
0.9869496856199237
100
AcDbArc
 50
245.2268644208021
 51
267.0979011609782
  0
LINE
  5
6409
330
63D8
100
AcDbEntity
  8
0
  6
Continuous
 62
     7
370
    25
100
AcDbLine
 10
138.0171590056338
 20
108.2427291640499
 30
0.0
 11
129.7539340904149
 21
108.9151154369573
 31
0.0
  0
ARC
  5
640A
330
63D8
100
AcDbEntity
  8
0
  6
Continuous
 62
     7
370
    25
100
AcDbCircle
 10
137.9671899526925
 20
107.2570454706157
 30
0.0
 40
0.9869494666668533
100
AcDbArc
 50
65.22686717823578
 51
87.09788543968578
  0
LINE
  5
640B
330
63D8
100
AcDbEntity
  8
0
  6
Continuous
 62
     7
370
    25
100
AcDbLine
 10
141.7260303677646
 20
106.4515759725765
 30
0.0
 11
138.3807477958811
 21
108.1531699932637
 31
0.0
  0
LWPOLYLINE
  5
640C
330
63D8
100
AcDbEntity
  8
0
  6
Continuous
 62
     7
370
    25
100
AcDbPolyline
 90
        3
 70
   128
 43
0.0
 10
141.7528901084469
 20
106.4264571876289
 10
141.7523573962347
 20
106.4274584435309
 10
141.7260303677646
 20
106.4515759725765
  0
LINE
  5
640D
330
63D8
100
AcDbEntity
  8
0
  6
Continuous
 62
     7
370
    25
100
AcDbLine
 10
133.4767532262229
 20
101.3438404560912
 30
0.0
 11
135.9446287975926
 21
102.8109016347467
 31
0.0
  0
LWPOLYLINE
  5
640E
330
63D8
100
AcDbEntity
  8
0
  6
Continuous
 62
     7
370
    25
100
AcDbPolyline
 90
       10
 70
   128
 43
0.0
 10
131.1739771034154
 20
100.6544045947802
 10
131.3065644246784
 20
100.6152324520845
 10
131.4863761128959
 20
100.6077185364362
 10
131.7079486809106
 20
100.6320911543599
 10
131.9645497583645
 20
100.6876097561932
 10
132.2483826513656
 20
100.7725874373132
 10
132.5508232410864
 20
100.8844421938797
 10
132.8626820232505
 20
101.0197753757159
 10
133.1744833265701
 20
101.1744749525733
 10
133.4767532262229
 20
101.3438404560912
  0
LINE
  5
640F
330
63D8
100
AcDbEntity
  8
0
  6
Continuous
 62
     7
370
    25
100
AcDbLine
 10
109.6152741301329
 20
111.620342235275
 30
0.0
 11
131.1739771034154
 21
100.6544045947802
 31
0.0
  0
LINE
  5
6410
330
63D8
100
AcDbEntity
  8
0
  6
Continuous
 62
     7
370
    25
100
AcDbLine
 10
119.3049795339611
 20
117.8561512371645
 30
0.0
 11
118.8647378677698
 21
118.7070817603465
 31
0.0
  0
LINE
  5
6411
330
63D8
100
AcDbEntity
  8
0
  6
Continuous
 62
     7
370
    25
100
AcDbLine
 10
118.6141466971189
 20
117.6493204787712
 30
0.0
 11
118.1739050309276
 21
118.5002510019532
 31
0.0
  0
LINE
  5
6412
330
63D8
100
AcDbEntity
  8
0
  6
Continuous
 62
     7
370
    25
100
AcDbLine
 10
110.2458827480716
 20
113.7873336046474
 30
0.0
 11
110.6861244142628
 21
112.9364030814653
 31
0.0
  0
LINE
  5
6413
330
63D8
100
AcDbEntity
  8
0
  6
Continuous
 62
     7
370
    25
100
AcDbLine
 10
125.9764623007486
 20
114.46266953834
 30
0.0
 11
125.5362206345573
 21
115.313600061522
 31
0.0
  0
LWPOLYLINE
  5
6414
330
63D8
100
AcDbEntity
  8
0
  6
Continuous
 62
     7
370
    25
100
AcDbPolyline
 90
        9
 70
   128
 43
0.0
 10
109.0854999950008
 20
112.5550020416156
 10
109.066088021511
 20
112.6389050672529
 10
109.0930411220981
 20
112.7622718104764
 10
109.1737384537361
 20
112.9072646960705
 10
109.3057280688382
 20
113.0694781885764
 10
109.4849995297394
 20
113.2439835131082
 10
109.706105763816
 20
113.4254784136839
 10
109.9623285700306
 20
113.6084482595906
 10
110.2458827480716
 20
113.7873336046474
  0
LINE
  5
6415
330
63D8
100
AcDbEntity
  8
0
  6
Continuous
 62
     7
370
    25
100
AcDbLine
 10
129.3903449059188
 20
109.0046746612259
 30
0.0
 11
128.9501032397275
 21
109.855605184408
 31
0.0
  0
LINE
  5
6416
330
63D8
100
AcDbEntity
  8
0
  6
Continuous
 62
     7
370
    25
100
AcDbLine
 10
129.7539340904149
 20
108.9151154369573
 30
0.0
 11
129.3136924242237
 21
109.7660459601393
 31
0.0
  0
LINE
  5
6417
330
63D8
100
AcDbEntity
  8
0
  6
Continuous
 62
     7
370
    25
100
AcDbLine
 10
138.0171590056338
 20
108.2427291640499
 30
0.0
 11
137.5769173394426
 21
109.0936596872319
 31
0.0
  0
LINE
  5
6418
330
63D8
100
AcDbEntity
  8
0
  6
Continuous
 62
     7
370
    25
100
AcDbLine
 10
138.3807477958811
 20
108.1531699932637
 30
0.0
 11
137.9405061296898
 21
109.0041005164458
 31
0.0
  0
LINE
  5
6419
330
63D8
100
AcDbEntity
  8
0
  6
Continuous
 62
     7
370
    25
100
AcDbLine
 10
141.7260303677646
 20
106.4515759725765
 30
0.0
 11
141.2857887015734
 21
107.3025064957585
 31
0.0
  0
LWPOLYLINE
  5
641A
330
63D8
100
AcDbEntity
  8
0
  6
Continuous
 62
     7
370
    25
100
AcDbPolyline
 90
        3
 70
   128
 43
0.0
 10
141.3126484422556
 20
107.277387710811
 10
141.3121157300435
 20
107.278388966713
 10
141.2857887015734
 20
107.3025064957585
  0
ARC
  5
641B
330
63D8
100
AcDbEntity
  8
0
  6
Continuous
 62
     7
370
    25
100
AcDbCircle
 10
119.6828744699864
 20
115.9563277990439
 30
0.0
 40
1.050744241845151
100
AcDbArc
 50
86.59831210926986
 51
126.7363888433454
  0
LINE
  5
641C
330
63D8
100
AcDbEntity
  8
0
  6
Continuous
 62
     7
370
    25
100
AcDbLine
 10
126.4167039669398
 20
113.6117390151579
 30
0.0
 11
119.7452212001524
 21
117.0052207139824
 31
0.0
  0
ARC
  5
641D
330
63D8
100
AcDbEntity
  8
0
  6
Continuous
 62
     7
370
    25
100
AcDbCircle
 10
126.2557156883869
 20
113.2615114424649
 30
0.0
 40
0.3854563250303067
100
AcDbArc
 50
24.17712949755714
 51
65.31328928346363
  0
LINE
  5
641E
330
63D8
100
AcDbEntity
  8
0
  6
Continuous
 62
     7
370
    25
100
AcDbLine
 10
128.4691988170212
 20
108.9416025552789
 30
0.0
 11
126.607361199466
 21
113.4193785164347
 31
0.0
  0
ARC
  5
641F
330
63D8
100
AcDbEntity
  8
0
  6
Continuous
 62
     7
370
    25
100
AcDbCircle
 10
128.8208443601449
 20
109.0994692558679
 30
0.0
 40
0.3854562013428397
100
AcDbArc
 50
204.1770769142298
 51
245.3132686385768
  0
LINE
  5
6420
330
63D8
100
AcDbEntity
  8
0
  6
Continuous
 62
     7
370
    25
100
AcDbLine
 10
129.83058657211
 20
108.1537441380439
 30
0.0
 11
128.6598560070565
 21
108.7492418535655
 31
0.0
  0
ARC
  5
6421
330
63D8
100
AcDbEntity
  8
0
  6
Continuous
 62
     7
370
    25
100
AcDbCircle
 10
130.2441445501727
 20
109.0498688395916
 30
0.0
 40
0.9869496856189673
100
AcDbArc
 50
245.2268644207994
 51
267.0979011609953
  0
LINE
  5
6422
330
63D8
100
AcDbEntity
  8
0
  6
Continuous
 62
     7
370
    25
100
AcDbLine
 10
138.4574006718251
 20
107.3917986408678
 30
0.0
 11
130.1941757566062
 21
108.0641849137752
 31
0.0
  0
ARC
  5
6423
330
63D8
100
AcDbEntity
  8
0
  6
Continuous
 62
     7
370
    25
100
AcDbCircle
 10
138.4074316188836
 20
106.4061149474337
 30
0.0
 40
0.9869494666668192
100
AcDbArc
 50
65.2268671782329
 51
87.09788543968075
  0
LINE
  5
6424
330
63D8
100
AcDbEntity
  8
0
  6
Continuous
 62
     7
370
    25
100
AcDbLine
 10
142.1662720339559
 20
105.6006454493944
 30
0.0
 11
138.8209894620723
 21
107.3022394700816
 31
0.0
  0
LWPOLYLINE
  5
6425
330
63D8
100
AcDbEntity
  8
0
  6
Continuous
 62
     7
370
    25
100
AcDbPolyline
 90
        9
 70
   128
 43
0.0
 10
141.8450169487169
 20
105.2058271955373
 10
141.9401905615975
 20
105.2663212088142
 10
142.0246053730428
 20
105.3281025980992
 10
142.0950173691894
 20
105.3887971392497
 10
142.1487206565128
 20
105.4460723750871
 10
142.1836514477983
 20
105.4977272504185
 10
142.1984673723263
 20
105.5417766973532
 10
142.192599062426
 20
105.5765279203489
 10
142.1662720339559
 20
105.6006454493944
  0
LINE
  5
6426
330
63D8
100
AcDbEntity
  8
0
  6
Continuous
 62
     7
370
    25
100
AcDbLine
 10
137.4593028462517
 20
102.5986816104631
 30
0.0
 11
141.8450169487169
 21
105.2058271955373
 31
0.0
  0
ARC
  5
6427
330
63D8
100
AcDbEntity
  8
0
  6
Continuous
 62
     7
370
    25
100
AcDbCircle
 10
136.8308167395756
 20
103.4407437670079
 30
0.0
 40
1.050744241844663
100
AcDbArc
 50
266.598312109259
 51
306.736388843355
  0
LINE
  5
6428
330
63D8
100
AcDbEntity
  8
0
  6
Continuous
 62
     7
370
    25
100
AcDbLine
 10
114.3474189490526
 20
113.7964259819802
 30
0.0
 11
136.7684700094094
 21
102.3918508520698
 31
0.0
  0
LWPOLYLINE
  5
6429
330
63D8
100
AcDbEntity
  8
0
  6
Continuous
 62
     7
370
    25
100
AcDbPolyline
 90
        9
 70
   128
 43
0.0
 10
114.6686740342916
 20
114.1912442358373
 10
114.573500421411
 20
114.1307502225605
 10
114.4890856099657
 20
114.0689688332754
 10
114.4186736138191
 20
114.0082742921249
 10
114.3649703264957
 20
113.9509990562876
 10
114.3300395352102
 20
113.8993441809562
 10
114.3152236106822
 20
113.8552947340214
 10
114.3210919205825
 20
113.8205435110258
 10
114.3474189490526
 20
113.7964259819802
  0
LINE
  5
642A
330
63D8
100
AcDbEntity
  8
0
  6
Continuous
 62
     7
370
    25
100
AcDbLine
 10
119.0543883633101
 20
116.7983899555891
 30
0.0
 11
114.6686740342916
 21
114.1912442358373
 31
0.0
  0
LINE
  5
642B
330
63D8
100
AcDbEntity
  8
0
  6
Continuous
 62
     7
370
    25
100
AcDbLine
 10
119.7452212001524
 20
117.0052207139824
 30
0.0
 11
119.3049795339611
 21
117.8561512371645
 31
0.0
  0
LINE
  5
642C
330
63D8
100
AcDbEntity
  8
0
  6
Continuous
 62
     7
370
    25
100
AcDbLine
 10
119.0543883633101
 20
116.7983899555891
 30
0.0
 11
118.6141466971189
 21
117.6493204787712
 31
0.0
  0
LINE
  5
642D
330
63D8
100
AcDbEntity
  8
0
  6
Continuous
 62
     7
370
    25
100
AcDbLine
 10
114.2284323681003
 20
115.0421747590194
 30
0.0
 11
114.6686740342916
 21
114.1912442358373
 31
0.0
  0
LINE
  5
642E
330
63D8
100
AcDbEntity
  8
0
  6
Continuous
 62
     7
370
    25
100
AcDbLine
 10
118.6141466971189
 20
117.6493204787712
 30
0.0
 11
114.2284323681003
 21
115.0421747590194
 31
0.0
  0
LINE
  5
642F
330
63D8
100
AcDbEntity
  8
0
  6
Continuous
 62
     7
370
    25
100
AcDbLine
 10
126.4167039669398
 20
113.6117390151579
 30
0.0
 11
125.9764623007486
 21
114.46266953834
 31
0.0
  0
LWPOLYLINE
  5
6430
330
63D8
100
AcDbEntity
  8
0
  6
Continuous
 62
     7
370
    25
100
AcDbPolyline
 90
        8
 70
   128
 43
0.0
 10
113.8803175421791
 20
114.6724752901098
 10
113.8749819444909
 20
114.7062252572035
 10
113.889797869019
 20
114.7502747041382
 10
113.9247286603045
 20
114.8019295794696
 10
113.9784319476279
 20
114.859204815307
 10
114.0488439437744
 20
114.9198993564575
 10
114.1332587552197
 20
114.9816807457425
 10
114.2284323681003
 20
115.0421747590194
  0
LINE
  5
6431
330
63D8
100
AcDbEntity
  8
0
  6
Continuous
 62
     7
370
    25
100
AcDbLine
 10
128.6598560070565
 20
108.7492418535655
 30
0.0
 11
128.2196143408652
 21
109.6001723767475
 31
0.0
  0
LINE
  5
6432
330
63D8
100
AcDbEntity
  8
0
  6
Continuous
 62
     7
370
    25
100
AcDbLine
 10
129.83058657211
 20
108.1537441380439
 30
0.0
 11
129.3903449059188
 21
109.0046746612259
 31
0.0
  0
LINE
  5
6433
330
63D8
100
AcDbEntity
  8
0
  6
Continuous
 62
     7
370
    25
100
AcDbLine
 10
130.1941757566062
 20
108.0641849137752
 30
0.0
 11
129.7539340904149
 21
108.9151154369573
 31
0.0
  0
LINE
  5
6434
330
63D8
100
AcDbEntity
  8
0
  6
Continuous
 62
     7
370
    25
100
AcDbLine
 10
138.4574006718251
 20
107.3917986408678
 30
0.0
 11
138.0171590056338
 21
108.2427291640499
 31
0.0
  0
LINE
  5
6435
330
63D8
100
AcDbEntity
  8
0
  6
Continuous
 62
     7
370
    25
100
AcDbLine
 10
138.8209894620723
 20
107.3022394700816
 30
0.0
 11
138.3807477958811
 21
108.1531699932637
 31
0.0
  0
LINE
  5
6436
330
63D8
100
AcDbEntity
  8
0
  6
Continuous
 62
     7
370
    25
100
AcDbLine
 10
142.1662720339559
 20
105.6006454493944
 30
0.0
 11
141.7260303677646
 21
106.4515759725765
 31
0.0
  0
LWPOLYLINE
  5
6437
330
63D8
100
AcDbEntity
  8
0
  6
Continuous
 62
     7
370
    25
100
AcDbPolyline
 90
        3
 70
   128
 43
0.0
 10
141.7528901084469
 20
106.4264571876289
 10
141.7523573962347
 20
106.4274584435309
 10
141.7260303677646
 20
106.4515759725765
  0
LINE
  5
6438
330
63D8
100
AcDbEntity
  8
0
  6
Continuous
 62
     8
370
    25
100
AcDbLine
 10
128.2196143408652
 20
109.6001723767475
 30
0.0
 11
128.0961144391897
 21
109.8388818039012
 31
0.0
  0
LINE
  5
6439
330
63D8
100
AcDbEntity
  8
0
  6
Continuous
 62
     7
370
    25
100
AcDbLine
 10
103.7662012948949
 20
93.8497266187802
 30
0.0
 11
103.7662012948949
 21
94.66626743066596
 31
0.0
  0
LINE
  5
643A
330
63D8
100
AcDbEntity
  8
0
  6
Continuous
 62
     7
370
    25
100
AcDbLine
 10
44.03197135653591
 20
119.9749198431161
 30
0.0
 11
44.03197135653591
 21
119.1583790312303
 31
0.0
  0
LINE
  5
643B
330
63D8
100
AcDbEntity
  8
0
  6
Continuous
 62
     7
370
    25
100
AcDbLine
 10
103.7662012948949
 20
93.03318580689447
 30
0.0
 11
103.7662012948949
 21
93.8497266187802
 31
0.0
  0
LINE
  5
643C
330
63D8
100
AcDbEntity
  8
0
  6
Continuous
 62
     7
370
    25
100
AcDbLine
 10
44.03197135653591
 20
119.1583790312303
 30
0.0
 11
44.03197135653591
 21
118.3418382193446
 31
0.0
  0
LINE
  5
643D
330
63D8
100
AcDbEntity
  8
0
  6
Continuous
 62
     7
370
    25
100
AcDbLine
 10
103.7662012948949
 20
92.21664499500871
 30
0.0
 11
103.7662012948949
 21
93.03318580689447
 31
0.0
  0
ARC
  5
643E
330
63D8
100
AcDbEntity
  8
0
  6
Continuous
 62
     7
370
    25
100
AcDbCircle
 10
51.68882560602832
 20
123.8096194295321
 30
0.0
 40
0.9222131447470809
100
AcDbArc
 50
62.60967223660085
 51
117.3903277633991
  0
LINE
  5
643F
330
63D8
100
AcDbEntity
  8
0
  6
Continuous
 62
     7
370
    25
100
AcDbLine
 10
59.79365588188574
 20
120.1945495872609
 30
0.0
 11
52.11308967474025
 21
124.6284460805055
 31
0.0
  0
ARC
  5
6440
330
63D8
100
AcDbEntity
  8
0
  6
Continuous
 62
     7
370
    25
100
AcDbCircle
 10
58.23661598765136
 20
117.4561502485789
 30
0.0
 40
3.150111771085549
100
AcDbArc
 50
47.68179034186771
 51
60.3776606716025
  0
LINE
  5
6441
330
63D8
100
AcDbEntity
  8
0
  6
Continuous
 62
     7
370
    25
100
AcDbLine
 10
69.29724489553438
 20
111.5263110135975
 30
0.0
 11
60.3574210133145
 21
119.7853969537292
 31
0.0
  0
ARC
  5
6442
330
63D8
100
AcDbEntity
  8
0
  6
Continuous
 62
     7
370
    25
100
AcDbCircle
 10
71.41804992232803
 20
113.8555568283038
 30
0.0
 40
3.150111113437119
100
AcDbArc
 50
227.6817794228568
 51
240.377664043302
  0
LINE
  5
6443
330
63D8
100
AcDbEntity
  8
0
  6
Continuous
 62
     7
370
    25
100
AcDbLine
 10
72.54893699656811
 20
109.5654510404891
 30
0.0
 11
69.8610105143039
 21
111.1171579696895
 31
0.0
  0
ARC
  5
6444
330
63D8
100
AcDbEntity
  8
0
  6
Continuous
 62
     7
370
    25
100
AcDbCircle
 10
74.73912451465955
 20
113.4006133672463
 30
0.0
 40
4.416490851001618
100
AcDbArc
 50
240.2701425488188
 51
250.4011201145468
  0
LINE
  5
6445
330
63D8
100
AcDbEntity
  8
0
  6
Continuous
 62
     7
370
    25
100
AcDbLine
 10
87.56439540410786
 20
104.0791453738855
 30
0.0
 11
73.25768706438132
 21
109.23999628346
 31
0.0
  0
ARC
  5
6446
330
63D8
100
AcDbEntity
  8
0
  6
Continuous
 62
     7
370
    25
100
AcDbCircle
 10
86.0829578370285
 20
99.91853031870778
 30
0.0
 40
4.416488979101615
100
AcDbArc
 50
60.2701350120947
 51
70.40110985931296
  0
LINE
  5
6447
330
63D8
100
AcDbEntity
  8
0
  6
Continuous
 62
     7
370
    25
100
AcDbLine
 10
103.5904653636068
 20
94.91118986421275
 30
0.0
 11
88.27314493130311
 21
103.7536907318585
 31
0.0
  0
ARC
  5
6448
330
63D8
100
AcDbEntity
  8
0
  6
Continuous
 62
     7
370
    25
100
AcDbCircle
 10
103.4975091475293
 20
94.66626743066596
 30
0.0
 40
0.2619691901005708
100
AcDbArc
 50
290.7834207994625
 51
69.21657920053196
  0
LINE
  5
6449
330
63D8
100
AcDbEntity
  8
0
  6
Continuous
 62
     7
370
    25
100
AcDbLine
 10
103.5904653636068
 20
94.42134499711913
 30
0.0
 11
96.94366143051244
 21
90.58422676190188
 31
0.0
  0
ARC
  5
644A
330
63D8
100
AcDbEntity
  8
0
  6
Continuous
 62
     7
370
    25
100
AcDbCircle
 10
95.52944786813934
 20
93.29865428549021
 30
0.0
 40
3.060737947099341
100
AcDbArc
 50
242.4805390039352
 51
297.5194609960661
  0
LINE
  5
644B
330
63D8
100
AcDbEntity
  8
0
  6
Continuous
 62
     7
370
    25
100
AcDbLine
 10
94.11523430576623
 20
90.58422676190188
 30
0.0
 11
44.61775779416282
 21
119.1585117312934
 31
0.0
  0
LWPOLYLINE
  5
644C
330
63D8
100
AcDbEntity
  8
0
  6
Continuous
 62
     7
370
    25
100
AcDbPolyline
 90
       10
 70
   128
 43
0.0
 10
44.61775779416282
 20
120.7913279549388
 10
44.39366726795793
 20
120.6371571004106
 10
44.21935578246261
 20
120.4628645019278
 10
44.10011970395778
 20
120.2737459518989
 10
44.03958196035243
 20
120.0755477217679
 10
44.03958196035243
 20
119.8742919644643
 10
44.10011970395778
 20
119.6760937343333
 10
44.21935578246261
 20
119.4869751843044
 10
44.39366726795793
 20
119.3126825858215
 10
44.61775779416282
 20
119.1585117312934
  0
LINE
  5
644D
330
63D8
100
AcDbEntity
  8
0
  6
Continuous
 62
     7
370
    25
100
AcDbLine
 10
44.61775779416282
 20
120.7913279549388
 30
0.0
 11
51.26456153731639
 21
124.6284460805055
 31
0.0
  0
LINE
  5
644E
330
63D8
100
AcDbEntity
  8
0
  6
Continuous
 62
     7
370
    25
100
AcDbLine
 10
96.94366143051244
 20
90.58422676190188
 30
0.0
 11
96.94366143051244
 21
89.76768595001614
 31
0.0
  0
ARC
  5
644F
330
63D8
100
AcDbEntity
  8
0
  6
Continuous
 62
     7
370
    25
100
AcDbCircle
 10
95.52944786813934
 20
92.48211347360445
 30
0.0
 40
3.060737947099341
100
AcDbArc
 50
242.4805390039352
 51
297.5194609960661
  0
LINE
  5
6450
330
63D8
100
AcDbEntity
  8
0
  6
Continuous
 62
     7
370
    25
100
AcDbLine
 10
94.11523430576623
 20
89.76768595001614
 30
0.0
 11
94.11523430576623
 21
90.58422676190188
 31
0.0
  0
LINE
  5
6451
330
63D8
100
AcDbEntity
  8
0
  6
Continuous
 62
     7
370
    25
100
AcDbLine
 10
103.5904653636068
 20
94.42134499711913
 30
0.0
 11
103.5904653636068
 21
93.60480418523339
 31
0.0
  0
LINE
  5
6452
330
63D8
100
AcDbEntity
  8
0
  6
Continuous
 62
     7
370
    25
100
AcDbLine
 10
103.5904653636068
 20
93.60480418523339
 30
0.0
 11
96.94366143051244
 21
89.76768595001614
 31
0.0
  0
LINE
  5
6453
330
63D8
100
AcDbEntity
  8
0
  6
Continuous
 62
     7
370
    25
100
AcDbLine
 10
44.61775779416282
 20
119.1585117312934
 30
0.0
 11
44.61775779416282
 21
118.3419709194076
 31
0.0
  0
LINE
  5
6454
330
63D8
100
AcDbEntity
  8
0
  6
Continuous
 62
     7
370
    25
100
AcDbLine
 10
94.11523430576623
 20
89.76768595001614
 30
0.0
 11
44.61775779416282
 21
118.3419709194076
 31
0.0
  0
ARC
  5
6455
330
63D8
100
AcDbEntity
  8
0
  6
Continuous
 62
     7
370
    25
100
AcDbCircle
 10
103.4659270574006
 20
93.87967044491974
 30
0.0
 40
0.3017635670963015
100
AcDbArc
 50
294.3746582935815
 51
354.3052007487959
  0
ARC
  5
6456
330
63D8
100
AcDbEntity
  8
0
  6
Continuous
 62
     7
370
    25
100
AcDbCircle
 10
45.0075238513775
 20
119.2399943923807
 30
0.0
 40
0.9789605392289161
100
AcDbArc
 50
184.7822660225989
 51
246.5378749350185
  0
ARC
  5
6457
330
63D8
100
AcDbEntity
  8
0
  6
Continuous
 62
     7
370
    25
100
AcDbCircle
 10
45.03170401491465
 20
119.2573440630351
 30
0.0
 40
1.004619064993868
100
AcDbArc
 50
185.6533765496132
 51
245.6667644080044
  0
LINE
  5
6458
330
63D8
100
AcDbEntity
  8
0
  6
Continuous
 62
     7
370
    25
100
AcDbLine
 10
94.11523430576623
 20
88.95114513813039
 30
0.0
 11
94.11523430576623
 21
89.76768595001614
 31
0.0
  0
LINE
  5
6459
330
63D8
100
AcDbEntity
  8
0
  6
Continuous
 62
     7
370
    25
100
AcDbLine
 10
96.94366143051244
 20
89.76768595001614
 30
0.0
 11
96.94366143051244
 21
88.95114513813037
 31
0.0
  0
ARC
  5
645A
330
63D8
100
AcDbEntity
  8
0
  6
Continuous
 62
     7
370
    25
100
AcDbCircle
 10
95.52944786813934
 20
91.66557266171869
 30
0.0
 40
3.060737947099322
100
AcDbArc
 50
242.480539003935
 51
297.5194609960663
  0
LINE
  5
645B
330
63D8
100
AcDbEntity
  8
0
  6
Continuous
 62
     7
370
    25
100
AcDbLine
 10
103.5904653636068
 20
92.78826337334765
 30
0.0
 11
103.5904653636068
 21
93.60480418523339
 31
0.0
  0
LINE
  5
645C
330
63D8
100
AcDbEntity
  8
0
  6
Continuous
 62
     7
370
    25
100
AcDbLine
 10
103.5904653636068
 20
92.78826337334765
 30
0.0
 11
96.94366143051244
 21
88.95114513813037
 31
0.0
  0
LINE
  5
645D
330
63D8
100
AcDbEntity
  8
0
  6
Continuous
 62
     7
370
    25
100
AcDbLine
 10
44.61775779416282
 20
118.3419709194076
 30
0.0
 11
44.61775779416282
 21
117.5254301075219
 31
0.0
  0
LINE
  5
645E
330
63D8
100
AcDbEntity
  8
0
  6
Continuous
 62
     7
370
    25
100
AcDbLine
 10
94.11523430576623
 20
88.95114513813039
 30
0.0
 11
44.61775779416282
 21
117.5254301075219
 31
0.0
  0
ARC
  5
645F
330
63D8
100
AcDbEntity
  8
0
  6
Continuous
 62
     7
370
    25
100
AcDbCircle
 10
103.4659270574006
 20
93.06312963303396
 30
0.0
 40
0.3017635670962617
100
AcDbArc
 50
294.3746582935799
 51
354.3052007488034
  0
ARC
  5
6460
330
63D8
100
AcDbEntity
  8
0
  6
Continuous
 62
     7
370
    25
100
AcDbCircle
 10
45.00752385137745
 20
118.423453580495
 30
0.0
 40
0.9789605392288571
100
AcDbArc
 50
184.7822660225975
 51
246.5378749350209
  0
LINE
  5
6461
330
63D8
100
AcDbEntity
  8
0
  6
Continuous
 62
     7
370
    25
100
AcDbLine
 10
99.91351010143681
 20
90.66560228260859
 30
0.0
 11
99.91351010143681
 21
89.84906147072285
 31
0.0
  0
ARC
  5
6462
330
63D8
100
AcDbEntity
  8
0
  6
Continuous
 62
     7
370
    25
100
AcDbCircle
 10
99.48924603272487
 20
90.66788812169614
 30
0.0
 40
0.9222131447469832
100
AcDbArc
 50
242.6096722365988
 51
297.3903277634036
  0
LINE
  5
6463
330
63D8
100
AcDbEntity
  8
0
  6
Continuous
 62
     7
370
    25
100
AcDbLine
 10
103.5904653636068
 20
92.78826337334765
 30
0.0
 11
99.91351010143681
 21
90.66560228260859
 31
0.0
  0
LINE
  5
6464
330
63D8
100
AcDbEntity
  8
0
  6
Continuous
 62
     7
370
    25
100
AcDbLine
 10
99.06498196401294
 20
89.84906147072285
 30
0.0
 11
98.78202431745931
 21
90.01240944311891
 31
0.0
  0
LINE
  5
6465
330
63D8
100
AcDbEntity
  8
0
  6
Continuous
 62
     7
370
    25
100
AcDbLine
 10
103.5904653636068
 20
91.97172256146188
 30
0.0
 11
103.5904653636068
 21
92.78826337334765
 31
0.0
  0
LINE
  5
6466
330
63D8
100
AcDbEntity
  8
0
  6
Continuous
 62
     7
370
    25
100
AcDbLine
 10
103.5904653636068
 20
91.97172256146188
 30
0.0
 11
99.91351010143681
 21
89.84906147072285
 31
0.0
  0
ARC
  5
6467
330
63D8
100
AcDbEntity
  8
0
  6
Continuous
 62
     7
370
    25
100
AcDbCircle
 10
103.4659270574006
 20
92.24658882114823
 30
0.0
 40
0.3017635670962914
100
AcDbArc
 50
294.3746582935826
 51
354.3052007488012
  0
LINE
  5
6468
330
63D8
100
AcDbEntity
  8
0
  6
Continuous
 62
     8
370
    25
100
AcDbLine
 10
99.06498196401294
 20
89.84906147072285
 30
0.0
 11
99.06498196401294
 21
90.17575741551498
 31
0.0
  0
ENDBLK
  5
646A
330
63D8
100
AcDbEntity
  8
0
100
AcDbBlockEnd
  0
BLOCK
  5
64CB
330
64C0
100
AcDbEntity
  8
0
100
AcDbBlockBegin
  2
*D2
 70
     1
 10
0.0
 20
0.0
 30
0.0
  3
*D2
  1

  0
LINE
  5
64CD
330
64C0
100
AcDbEntity
  8
0
 62
     6
370
    -2
100
AcDbLine
 10
324.742861598954
 20
-387.3387388645746
 30
0.0
 11
304.6460871982951
 21
-387.3387388645746
 31
0.0
  0
LINE
  5
64CE
330
64C0
100
AcDbEntity
  8
0
 62
     6
370
    -2
100
AcDbLine
 10
331.742861598954
 20
-457.3387388645747
 30
0.0
 11
304.6460871982951
 21
-457.3387388645747
 31
0.0
  0
LINE
  5
64CF
330
64C0
100
AcDbEntity
  8
0
 62
     6
370
    -2
100
AcDbLine
 10
305.6460871982951
 20
-390.8387388645746
 30
0.0
 11
305.6460871982951
 21
-417.8700304757597
 31
0.0
  0
LINE
  5
64D0
330
64C0
100
AcDbEntity
  8
0
 62
     6
370
    -2
100
AcDbLine
 10
305.6460871982951
 20
-453.8387388645747
 30
0.0
 11
305.6460871982951
 21
-426.8074472533895
 31
0.0
  0
SOLID
  5
64D1
330
64C0
100
AcDbEntity
  8
0
 62
     6
100
AcDbTrace
 10
305.0627538649618
 20
-390.8387388645746
 30
0.0
 11
306.2294205316284
 21
-390.8387388645746
 31
0.0
 12
305.6460871982951
 22
-387.3387388645746
 32
0.0
 13
305.6460871982951
 23
-387.3387388645746
 33
0.0
  0
SOLID
  5
64D2
330
64C0
100
AcDbEntity
  8
0
 62
     6
100
AcDbTrace
 10
305.0627538649618
 20
-453.8387388645747
 30
0.0
 11
306.2294205316284
 21
-453.8387388645747
 31
0.0
 12
305.6460871982951
 22
-457.3387388645747
 32
0.0
 13
305.6460871982951
 23
-457.3387388645747
 33
0.0
  0
MTEXT
  5
64D3
330
64C0
100
AcDbEntity
  8
0
 62
     3
100
AcDbMText
 10
305.6460871982952
 20
-422.3387388645746
 30
0.0
 40
5.0
 41
0.0
 71
     5
 72
     1
  1
\A1;70
  7
DD
 11
0.0000000000000001
 21
1.0
 31
0.0
 73
     1
 44
1.0
  0
POINT
  5
64D4
330
64C0
100
AcDbEntity
  8
Defpoints
 62
     0
100
AcDbPoint
 10
325.742861598954
 20
-387.3387388645746
 30
0.0
  0
POINT
  5
64D5
330
64C0
100
AcDbEntity
  8
Defpoints
 62
     0
100
AcDbPoint
 10
332.742861598954
 20
-457.3387388645747
 30
0.0
  0
POINT
  5
64D6
330
64C0
100
AcDbEntity
  8
Defpoints
 62
     0
100
AcDbPoint
 10
305.6460871982951
 20
-457.3387388645747
 30
0.0
  0
ENDBLK
  5
64CC
330
64C0
100
AcDbEntity
  8
0
100
AcDbBlockEnd
  0
BLOCK
  5
64E3
330
64D8
100
AcDbEntity
  8
0
100
AcDbBlockBegin
  2
*D3
 70
     1
 10
0.0
 20
0.0
 30
0.0
  3
*D3
  1

  0
LINE
  5
6501
330
64D8
100
AcDbEntity
  8
0
 62
     6
370
    -2
100
AcDbLine
 10
322.742861598954
 20
-389.3387388645746
 30
0.0
 11
322.742861598954
 21
-379.6214557288974
 31
0.0
  0
LINE
  5
6502
330
64D8
100
AcDbEntity
  8
0
 62
     6
370
    -2
100
AcDbLine
 10
692.7428738179062
 20
-389.3387388645746
 30
0.0
 11
692.7428738179062
 21
-379.6214557288974
 31
0.0
  0
LINE
  5
6503
330
64D8
100
AcDbEntity
  8
0
 62
     6
370
    -2
100
AcDbLine
 10
326.242861598954
 20
-380.6214557288975
 30
0.0
 11
501.2834802250746
 21
-380.6214557288975
 31
0.0
  0
LINE
  5
6504
330
64D8
100
AcDbEntity
  8
0
 62
     6
370
    -2
100
AcDbLine
 10
689.2428738179062
 20
-380.6214557288975
 30
0.0
 11
514.2022551917856
 21
-380.6214557288975
 31
0.0
  0
SOLID
  5
6505
330
64D8
100
AcDbEntity
  8
0
 62
     6
100
AcDbTrace
 10
326.242861598954
 20
-380.0381223955641
 30
0.0
 11
326.242861598954
 21
-381.2047890622308
 31
0.0
 12
322.742861598954
 22
-380.6214557288975
 32
0.0
 13
322.742861598954
 23
-380.6214557288975
 33
0.0
  0
SOLID
  5
6506
330
64D8
100
AcDbEntity
  8
0
 62
     6
100
AcDbTrace
 10
689.2428738179062
 20
-380.0381223955641
 30
0.0
 11
689.2428738179062
 21
-381.2047890622308
 31
0.0
 12
692.7428738179062
 22
-380.6214557288975
 32
0.0
 13
692.7428738179062
 23
-380.6214557288975
 33
0.0
  0
MTEXT
  5
6507
330
64D8
100
AcDbEntity
  8
0
 62
     3
100
AcDbMText
 10
507.7428677084301
 20
-380.6214557288975
 30
0.0
 40
5.0
 41
0.0
 71
     5
 72
     1
  1
\A1;370
  7
DD
 73
     1
 44
1.0
  0
POINT
  5
6508
330
64D8
100
AcDbEntity
  8
Defpoints
 62
     0
100
AcDbPoint
 10
322.742861598954
 20
-390.3387388645746
 30
0.0
  0
POINT
  5
6509
330
64D8
100
AcDbEntity
  8
Defpoints
 62
     0
100
AcDbPoint
 10
692.7428738179062
 20
-390.3387388645746
 30
0.0
  0
POINT
  5
650A
330
64D8
100
AcDbEntity
  8
Defpoints
 62
     0
100
AcDbPoint
 10
692.7428738179062
 20
-380.6214557288975
 30
0.0
  0
ENDBLK
  5
64E4
330
64D8
100
AcDbEntity
  8
0
100
AcDbBlockEnd
  0
BLOCK
  5
64F1
330
64E6
100
AcDbEntity
  8
0
100
AcDbBlockBegin
  2
*D4
 70
     1
 10
0.0
 20
0.0
 30
0.0
  3
*D4
  1

  0
LINE
  5
6567
330
64E6
100
AcDbEntity
  8
0
 62
     6
370
    -2
100
AcDbLine
 10
324.742861598954
 20
-482.3155868651486
 30
0.0
 11
304.6460871982951
 21
-482.3155868651486
 31
0.0
  0
LINE
  5
6568
330
64E6
100
AcDbEntity
  8
0
 62
     6
370
    -2
100
AcDbLine
 10
331.742861598954
 20
-552.3155868651488
 30
0.0
 11
304.6460871982951
 21
-552.3155868651488
 31
0.0
  0
LINE
  5
6569
330
64E6
100
AcDbEntity
  8
0
 62
     6
370
    -2
100
AcDbLine
 10
305.6460871982951
 20
-485.8155868651486
 30
0.0
 11
305.6460871982951
 21
-512.8468784763338
 31
0.0
  0
LINE
  5
656A
330
64E6
100
AcDbEntity
  8
0
 62
     6
370
    -2
100
AcDbLine
 10
305.6460871982951
 20
-548.8155868651488
 30
0.0
 11
305.6460871982951
 21
-521.7842952539635
 31
0.0
  0
SOLID
  5
656B
330
64E6
100
AcDbEntity
  8
0
 62
     6
100
AcDbTrace
 10
305.0627538649618
 20
-485.8155868651486
 30
0.0
 11
306.2294205316284
 21
-485.8155868651486
 31
0.0
 12
305.6460871982951
 22
-482.3155868651486
 32
0.0
 13
305.6460871982951
 23
-482.3155868651486
 33
0.0
  0
SOLID
  5
656C
330
64E6
100
AcDbEntity
  8
0
 62
     6
100
AcDbTrace
 10
305.0627538649618
 20
-548.8155868651488
 30
0.0
 11
306.2294205316284
 21
-548.8155868651488
 31
0.0
 12
305.6460871982951
 22
-552.3155868651488
 32
0.0
 13
305.6460871982951
 23
-552.3155868651488
 33
0.0
  0
MTEXT
  5
656D
330
64E6
100
AcDbEntity
  8
0
 62
     3
100
AcDbMText
 10
305.6460871982952
 20
-517.3155868651486
 30
0.0
 40
5.0
 41
0.0
 71
     5
 72
     1
  1
\A1;70
  7
DD
 11
0.0000000000000001
 21
1.0
 31
0.0
 73
     1
 44
1.0
  0
POINT
  5
656E
330
64E6
100
AcDbEntity
  8
Defpoints
 62
     0
100
AcDbPoint
 10
325.742861598954
 20
-482.3155868651486
 30
0.0
  0
POINT
  5
656F
330
64E6
100
AcDbEntity
  8
Defpoints
 62
     0
100
AcDbPoint
 10
332.742861598954
 20
-552.3155868651488
 30
0.0
  0
POINT
  5
6570
330
64E6
100
AcDbEntity
  8
Defpoints
 62
     0
100
AcDbPoint
 10
305.6460871982951
 20
-552.3155868651488
 30
0.0
  0
ENDBLK
  5
64F2
330
64E6
100
AcDbEntity
  8
0
100
AcDbBlockEnd
  0
BLOCK
  5
64FF
330
64F4
100
AcDbEntity
  8
0
100
AcDbBlockBegin
  2
*D5
 70
     1
 10
0.0
 20
0.0
 30
0.0
  3
*D5
  1

  0
LINE
  5
655D
330
64F4
100
AcDbEntity
  8
0
 62
     6
370
    -2
100
AcDbLine
 10
322.742861598954
 20
-484.3155868651486
 30
0.0
 11
322.742861598954
 21
-474.170695566135
 31
0.0
  0
LINE
  5
655E
330
64F4
100
AcDbEntity
  8
0
 62
     6
370
    -2
100
AcDbLine
 10
692.7428738179062
 20
-484.3155868651486
 30
0.0
 11
692.7428738179062
 21
-474.170695566135
 31
0.0
  0
LINE
  5
655F
330
64F4
100
AcDbEntity
  8
0
 62
     6
370
    -2
100
AcDbLine
 10
326.242861598954
 20
-475.170695566135
 30
0.0
 11
501.2834802250746
 21
-475.170695566135
 31
0.0
  0
LINE
  5
6560
330
64F4
100
AcDbEntity
  8
0
 62
     6
370
    -2
100
AcDbLine
 10
689.2428738179062
 20
-475.170695566135
 30
0.0
 11
514.2022551917856
 21
-475.170695566135
 31
0.0
  0
SOLID
  5
6561
330
64F4
100
AcDbEntity
  8
0
 62
     6
100
AcDbTrace
 10
326.242861598954
 20
-474.5873622328018
 30
0.0
 11
326.242861598954
 21
-475.7540288994683
 31
0.0
 12
322.742861598954
 22
-475.170695566135
 32
0.0
 13
322.742861598954
 23
-475.170695566135
 33
0.0
  0
SOLID
  5
6562
330
64F4
100
AcDbEntity
  8
0
 62
     6
100
AcDbTrace
 10
689.2428738179062
 20
-474.5873622328018
 30
0.0
 11
689.2428738179062
 21
-475.7540288994683
 31
0.0
 12
692.7428738179062
 22
-475.170695566135
 32
0.0
 13
692.7428738179062
 23
-475.170695566135
 33
0.0
  0
MTEXT
  5
6563
330
64F4
100
AcDbEntity
  8
0
 62
     3
100
AcDbMText
 10
507.7428677084301
 20
-475.170695566135
 30
0.0
 40
5.0
 41
0.0
 71
     5
 72
     1
  1
\A1;370
  7
DD
 73
     1
 44
1.0
  0
POINT
  5
6564
330
64F4
100
AcDbEntity
  8
Defpoints
 62
     0
100
AcDbPoint
 10
322.742861598954
 20
-485.3155868651486
 30
0.0
  0
POINT
  5
6565
330
64F4
100
AcDbEntity
  8
Defpoints
 62
     0
100
AcDbPoint
 10
692.7428738179062
 20
-485.3155868651486
 30
0.0
  0
POINT
  5
6566
330
64F4
100
AcDbEntity
  8
Defpoints
 62
     0
100
AcDbPoint
 10
692.7428738179062
 20
-475.170695566135
 30
0.0
  0
ENDBLK
  5
6500
330
64F4
100
AcDbEntity
  8
0
100
AcDbBlockEnd
  0
BLOCK
  5
6539
330
652E
100
AcDbEntity
  8
0
100
AcDbBlockBegin
  2
*D6
 70
     1
 10
0.0
 20
0.0
 30
0.0
  3
*D6
  1

  0
LINE
  5
6549
330
652E
100
AcDbEntity
  8
0
 62
     6
370
    -2
100
AcDbLine
 10
324.742861598954
 20
-581.5738511378208
 30
0.0
 11
304.6460871982951
 21
-581.5738511378208
 31
0.0
  0
LINE
  5
654A
330
652E
100
AcDbEntity
  8
0
 62
     6
370
    -2
100
AcDbLine
 10
324.742861598954
 20
-611.5738511378211
 30
0.0
 11
304.6460871982951
 21
-611.5738511378211
 31
0.0
  0
LINE
  5
654B
330
652E
100
AcDbEntity
  8
0
 62
     6
370
    -2
100
AcDbLine
 10
305.6460871982951
 20
-585.0738511378208
 30
0.0
 11
305.6460871982951
 21
-592.0718538009367
 31
0.0
  0
LINE
  5
654C
330
652E
100
AcDbEntity
  8
0
 62
     6
370
    -2
100
AcDbLine
 10
305.6460871982951
 20
-608.0738511378211
 30
0.0
 11
305.6460871982951
 21
-601.0758484747051
 31
0.0
  0
SOLID
  5
654D
330
652E
100
AcDbEntity
  8
0
 62
     6
100
AcDbTrace
 10
305.0627538649618
 20
-585.0738511378208
 30
0.0
 11
306.2294205316284
 21
-585.0738511378208
 31
0.0
 12
305.6460871982951
 22
-581.5738511378208
 32
0.0
 13
305.6460871982951
 23
-581.5738511378208
 33
0.0
  0
SOLID
  5
654E
330
652E
100
AcDbEntity
  8
0
 62
     6
100
AcDbTrace
 10
305.0627538649618
 20
-608.0738511378211
 30
0.0
 11
306.2294205316284
 21
-608.0738511378211
 31
0.0
 12
305.6460871982951
 22
-611.5738511378211
 32
0.0
 13
305.6460871982951
 23
-611.5738511378211
 33
0.0
  0
MTEXT
  5
654F
330
652E
100
AcDbEntity
  8
0
 62
     3
100
AcDbMText
 10
305.6460871982952
 20
-596.5738511378208
 30
0.0
 40
5.0
 41
0.0
 71
     5
 72
     1
  1
\A1;30
  7
DD
 11
0.0000000000000001
 21
1.0
 31
0.0
 73
     1
 44
1.0
  0
POINT
  5
6550
330
652E
100
AcDbEntity
  8
Defpoints
 62
     0
100
AcDbPoint
 10
325.742861598954
 20
-581.5738511378208
 30
0.0
  0
POINT
  5
6551
330
652E
100
AcDbEntity
  8
Defpoints
 62
     0
100
AcDbPoint
 10
325.742861598954
 20
-611.5738511378211
 30
0.0
  0
POINT
  5
6552
330
652E
100
AcDbEntity
  8
Defpoints
 62
     0
100
AcDbPoint
 10
305.6460871982951
 20
-611.5738511378211
 30
0.0
  0
ENDBLK
  5
653A
330
652E
100
AcDbEntity
  8
0
100
AcDbBlockEnd
  0
BLOCK
  5
6547
330
653C
100
AcDbEntity
  8
0
100
AcDbBlockBegin
  2
*D7
 70
     1
 10
0.0
 20
0.0
 30
0.0
  3
*D7
  1

  0
LINE
  5
6553
330
653C
100
AcDbEntity
  8
0
 62
     6
370
    -2
100
AcDbLine
 10
322.742861598954
 20
-583.5738511378208
 30
0.0
 11
322.742861598954
 21
-572.7838647005876
 31
0.0
  0
LINE
  5
6554
330
653C
100
AcDbEntity
  8
0
 62
     6
370
    -2
100
AcDbLine
 10
692.7428738179062
 20
-583.5738511378208
 30
0.0
 11
692.7428738179062
 21
-572.7838647005876
 31
0.0
  0
LINE
  5
6555
330
653C
100
AcDbEntity
  8
0
 62
     6
370
    -2
100
AcDbLine
 10
326.242861598954
 20
-573.7838647005876
 30
0.0
 11
501.2834802250746
 21
-573.7838647005876
 31
0.0
  0
LINE
  5
6556
330
653C
100
AcDbEntity
  8
0
 62
     6
370
    -2
100
AcDbLine
 10
689.2428738179062
 20
-573.7838647005876
 30
0.0
 11
514.2022551917856
 21
-573.7838647005876
 31
0.0
  0
SOLID
  5
6557
330
653C
100
AcDbEntity
  8
0
 62
     6
100
AcDbTrace
 10
326.242861598954
 20
-573.2005313672543
 30
0.0
 11
326.242861598954
 21
-574.3671980339209
 31
0.0
 12
322.742861598954
 22
-573.7838647005876
 32
0.0
 13
322.742861598954
 23
-573.7838647005876
 33
0.0
  0
SOLID
  5
6558
330
653C
100
AcDbEntity
  8
0
 62
     6
100
AcDbTrace
 10
689.2428738179062
 20
-573.2005313672543
 30
0.0
 11
689.2428738179062
 21
-574.3671980339209
 31
0.0
 12
692.7428738179062
 22
-573.7838647005876
 32
0.0
 13
692.7428738179062
 23
-573.7838647005876
 33
0.0
  0
MTEXT
  5
6559
330
653C
100
AcDbEntity
  8
0
 62
     3
100
AcDbMText
 10
507.7428677084301
 20
-573.7838647005876
 30
0.0
 40
5.0
 41
0.0
 71
     5
 72
     1
  1
\A1;370
  7
DD
 73
     1
 44
1.0
  0
POINT
  5
655A
330
653C
100
AcDbEntity
  8
Defpoints
 62
     0
100
AcDbPoint
 10
322.742861598954
 20
-584.5738511378208
 30
0.0
  0
POINT
  5
655B
330
653C
100
AcDbEntity
  8
Defpoints
 62
     0
100
AcDbPoint
 10
692.7428738179062
 20
-584.5738511378208
 30
0.0
  0
POINT
  5
655C
330
653C
100
AcDbEntity
  8
Defpoints
 62
     0
100
AcDbPoint
 10
692.7428738179062
 20
-573.7838647005876
 30
0.0
  0
ENDBLK
  5
6548
330
653C
100
AcDbEntity
  8
0
100
AcDbBlockEnd
  0
ENDSEC
  0
SECTION
  2
ENTITIES
  0
LINE
  5
61FB
330
1F
100
AcDbEntity
  8
BR
100
AcDbLine
 10
682.7428738179064
 20
-457.3387388645747
 30
0.0
 11
332.742861598954
 21
-457.3387388645747
 31
0.0
  0
LINE
  5
61FC
330
1F
100
AcDbEntity
  8
BR
100
AcDbLine
 10
490.2461216750001
 20
-407.3387346922495
 30
0.0
 11
471.2396086158608
 21
-407.3387346922495
 31
0.0
  0
ARC
  5
61FD
330
1F
100
AcDbEntity
  8
BR
100
AcDbCircle
 10
332.742861598954
 20
-447.3387388645746
 30
0.0
 40
10.0
100
AcDbArc
 50
180.0
 51
270.0
  0
LINE
  5
61FE
330
1F
100
AcDbEntity
  8
BR
100
AcDbLine
 10
466.740582972989
 20
-406.8261347471811
 30
0.0
 11
384.5516861381387
 21
-387.851338809643
 31
0.0
  0
LINE
  5
61FF
330
1F
100
AcDbEntity
  8
BR
100
AcDbLine
 10
380.0526660832023
 20
-387.3387388645746
 30
0.0
 11
325.742861598954
 21
-387.3387388645746
 31
0.0
  0
LINE
  5
6200
330
1F
100
AcDbEntity
  8
BR
100
AcDbLine
 10
322.742861598954
 20
-447.3387388645746
 30
0.0
 11
322.742861598954
 21
-390.3387388645746
 31
0.0
  0
ARC
  5
6201
330
1F
100
AcDbEntity
  8
BR
100
AcDbCircle
 10
325.742861598954
 20
-390.3387388645746
 30
0.0
 40
3.0
100
AcDbArc
 50
90.0
 51
180.0
  0
ARC
  5
6202
330
1F
100
AcDbEntity
  8
BR
100
AcDbCircle
 10
380.052665051261
 20
-407.3387401053476
 30
0.0
 40
20.00000000000007
100
AcDbArc
 50
76.99999999999583
 51
90.0
  0
ARC
  5
6203
330
1F
100
AcDbEntity
  8
BR
100
AcDbCircle
 10
471.2396071114325
 20
-387.3387368237117
 30
0.0
 40
20.00000000000007
100
AcDbArc
 50
256.9999999999958
 51
270.0
  0
LINE
  5
6204
330
1F
100
AcDbEntity
  8
BR
100
AcDbLine
 10
689.7428738179062
 20
-387.3387388645746
 30
0.0
 11
581.4330623450135
 21
-387.3387388645746
 31
0.0
  0
LINE
  5
6205
330
1F
100
AcDbEntity
  8
BR
100
AcDbLine
 10
576.9340441527223
 20
-387.851338809643
 30
0.0
 11
494.7451398672914
 21
-406.8261347471811
 31
0.0
  0
ARC
  5
6206
330
1F
100
AcDbEntity
  8
BR
100
AcDbCircle
 10
490.2461175408318
 20
-387.3387368237117
 30
0.0
 40
20.00000000000007
100
AcDbArc
 50
270.0
 51
282.9999999999971
  0
ARC
  5
6207
330
1F
100
AcDbEntity
  8
BR
100
AcDbCircle
 10
581.433059358585
 20
-407.3387368237117
 30
0.0
 40
20.00000000000007
100
AcDbArc
 50
90.0
 51
102.999999999997
  0
ARC
  5
6208
330
1F
100
AcDbEntity
  8
BR
100
AcDbCircle
 10
682.7428738179064
 20
-447.3387388645746
 30
0.0
 40
10.0
100
AcDbArc
 50
270.0
 51
0.0000000000003435
  0
LINE
  5
6209
330
1F
100
AcDbEntity
  8
BR
100
AcDbLine
 10
692.7428738179062
 20
-390.3387388645746
 30
0.0
 11
692.7428738179064
 21
-447.3387388645746
 31
0.0
  0
ARC
  5
620A
330
1F
100
AcDbEntity
  8
BR
100
AcDbCircle
 10
689.7428738179062
 20
-390.3387388645746
 30
0.0
 40
3.0
100
AcDbArc
 50
0.0
 51
90.0
  0
DIMENSION
  5
64BE
330
1F
100
AcDbEntity
  8
0
100
AcDbDimension
  2
*D2
 10
305.6460871982951
 20
-457.3387388645747
 30
0.0
 11
305.6460871982952
 21
-422.3387388645746
 31
0.0
 70
    32
 71
     5
 42
70.00000000000011
  3
STANDARD
100
AcDbAlignedDimension
 13
325.742861598954
 23
-387.3387388645746
 33
0.0
 14
332.742861598954
 24
-457.3387388645747
 34
0.0
 50
90.0
100
AcDbRotatedDimension
  0
DIMENSION
  5
64D7
330
1F
100
AcDbEntity
  8
0
100
AcDbDimension
  2
*D3
 10
692.7428738179062
 20
-380.6214557288975
 30
0.0
 11
507.7428677084301
 21
-380.6214557288975
 31
0.0
 70
    32
 71
     5
 42
370.0000122189521
  3
STANDARD
100
AcDbAlignedDimension
 13
322.742861598954
 23
-390.3387388645746
 33
0.0
 14
692.7428738179062
 24
-390.3387388645746
 34
0.0
100
AcDbRotatedDimension
  0
ENDSEC
  0
SECTION
  2
OBJECTS
  0
DICTIONARY
  5
C
330
0
100
AcDbDictionary
281
     1
  3
ACAD_GROUP
350
D
  3
ACAD_LAYOUT
350
1A
  3
ACAD_MLINESTYLE
350
17
  3
ACAD_PLOTSETTINGS
350
19
  3
ACAD_PLOTSTYLENAME
350
E
  3
ACAD_SCALELIST
350
47
  3
AcDbVariableDictionary
350
1E37
  0
DICTIONARY
  5
1CD3
330
2
100
AcDbDictionary
280
     1
281
     1
  3
ACAD_LAYERFILTERS
360
61EA
  3
ACAD_LAYERSTATES
360
1CD4
  0
DICTIONARY
  5
1CC9
330
1CC8
100
AcDbDictionary
280
     1
281
     1
  3
ADSK_XREC_LAYER_RECONCILED
360
1CCA
  0
DICTIONARY
  5
D
102
{ACAD_REACTORS
330
C
102
}
330
C
100
AcDbDictionary
281
     1
  0
DICTIONARY
  5
1A
102
{ACAD_REACTORS
330
C
102
}
330
C
100
AcDbDictionary
281
     1
  3
Layout1
350
1E
  3
Layout2
350
26
  3
Model
350
22
  0
DICTIONARY
  5
17
102
{ACAD_REACTORS
330
C
102
}
330
C
100
AcDbDictionary
281
     1
  3
Standard
350
18
  0
DICTIONARY
  5
19
102
{ACAD_REACTORS
330
C
102
}
330
C
100
AcDbDictionary
281
     1
  0
ACDBDICTIONARYWDFLT
  5
E
102
{ACAD_REACTORS
330
C
102
}
330
C
100
AcDbDictionary
281
     1
  3
Normal
350
F
100
AcDbDictionaryWithDefault
340
F
  0
DICTIONARY
  5
47
102
{ACAD_REACTORS
330
C
102
}
330
C
100
AcDbDictionary
281
     1
  3
A0
350
48
  3
A1
350
49
  3
A2
350
4A
  3
A3
350
4B
  3
A4
350
4C
  3
A5
350
4D
  3
A6
350
4E
  3
A7
350
4F
  3
A8
350
50
  3
A9
350
51
  3
B0
350
52
  3
B1
350
53
  3
B2
350
54
  3
B3
350
55
  3
B4
350
56
  3
B5
350
57
  3
B6
350
58
  3
B7
350
59
  3
B8
350
5A
  3
B9
350
5B
  3
C0
350
5C
  3
C1
350
5D
  3
C2
350
5E
  3
C3
350
5F
  3
C4
350
60
  3
C5
350
61
  3
C6
350
62
  3
C7
350
63
  3
C8
350
64
  3
C9
350
65
  3
D0
350
66
  3
D1
350
67
  3
D2
350
68
  0
DICTIONARY
  5
1E37
102
{ACAD_REACTORS
330
C
102
}
330
C
100
AcDbDictionary
281
     1
  3
DIMASSOC
350
1E38
  0
DICTIONARY
  5
61EA
102
{ACAD_REACTORS
330
1CD3
102
}
330
1CD3
100
AcDbDictionary
280
     1
281
     1
  0
DICTIONARY
  5
1CD4
102
{ACAD_REACTORS
330
1CD3
102
}
330
1CD3
100
AcDbDictionary
281
     1
  0
XRECORD
  5
1CCA
102
{ACAD_REACTORS
330
1CC9
102
}
330
1CC9
100
AcDbXrecord
280
     1
290
     1
  0
LAYOUT
  5
1E
102
{ACAD_REACTORS
330
1A
102
}
330
1A
100
AcDbPlotSettings
  1

  2
none_device
  4

  6

 40
0.0
 41
0.0
 42
0.0
 43
0.0
 44
0.0
 45
0.0
 46
0.0
 47
0.0
 48
0.0
 49
0.0
140
0.0
141
0.0
142
1.0
143
1.0
 70
   688
 72
     1
 73
     0
 74
     5
  7

 75
    16
147
1.0
148
0.0
149
0.0
100
AcDbLayout
  1
Layout1
 70
     1
 71
     1
 10
0.0
 20
0.0
 11
420.0
 21
297.0
 12
0.0
 22
0.0
 32
0.0
 14
1.000000000000000E+20
 24
1.000000000000000E+20
 34
1.000000000000000E+20
 15
-1.000000000000000E+20
 25
-1.000000000000000E+20
 35
-1.000000000000000E+20
146
0.0
 13
0.0
 23
0.0
 33
0.0
 16
1.0
 26
0.0
 36
0.0
 17
0.0
 27
1.0
 37
0.0
 76
     0
330
1B
  0
LAYOUT
  5
26
102
{ACAD_REACTORS
330
1A
102
}
330
1A
100
AcDbPlotSettings
  1

  2
none_device
  4

  6

 40
0.0
 41
0.0
 42
0.0
 43
0.0
 44
0.0
 45
0.0
 46
0.0
 47
0.0
 48
0.0
 49
0.0
140
0.0
141
0.0
142
1.0
143
1.0
 70
   688
 72
     1
 73
     0
 74
     5
  7

 75
    16
147
1.0
148
0.0
149
0.0
100
AcDbLayout
  1
Layout2
 70
     1
 71
     2
 10
0.0
 20
0.0
 11
0.0
 21
0.0
 12
0.0
 22
0.0
 32
0.0
 14
0.0
 24
0.0
 34
0.0
 15
0.0
 25
0.0
 35
0.0
146
0.0
 13
0.0
 23
0.0
 33
0.0
 16
1.0
 26
0.0
 36
0.0
 17
0.0
 27
1.0
 37
0.0
 76
     0
330
23
  0
LAYOUT
  5
22
102
{ACAD_REACTORS
330
1A
102
}
330
1A
100
AcDbPlotSettings
  1

  2
none_device
  4
Letter_(8.50_x_11.00_Inches)
  6

 40
6.349999999999999
 41
6.349999999999999
 42
6.350005079999999
 43
6.350005079999999
 44
215.8999999999999
 45
279.4
 46
0.0
 47
0.0
 48
0.0
 49
0.0
140
0.0
141
0.0
142
1.0
143
1.0
 70
  1712
 72
     1
 73
     0
 74
     0
  7

 75
     0
147
1.0
148
0.0
149
0.0
100
AcDbLayout
  1
Model
 70
     1
 71
     0
 10
0.0
 20
0.0
 11
279.4
 21
215.9
 12
0.0
 22
0.0
 32
0.0
 14
0.0
 24
0.0
 34
0.0
 15
279.4
 25
215.9
 35
0.0
146
0.0
 13
0.0
 23
0.0
 33
0.0
 16
1.0
 26
0.0
 36
0.0
 17
0.0
 27
1.0
 37
0.0
 76
     0
330
1F
  0
MLINESTYLE
  5
18
102
{ACAD_REACTORS
330
17
102
}
330
17
100
AcDbMlineStyle
  2
STANDARD
 70
     0
  3

 62
   256
 51
90.0
 52
90.0
 71
     2
 49
0.5
 62
   256
  6
BYLAYER
 49
-0.5
 62
   256
  6
BYLAYER
  0
ACDBPLACEHOLDER
  5
F
102
{ACAD_REACTORS
330
E
102
}
330
E
  0
ACAD_PROXY_OBJECT
  5
48
102
{ACAD_REACTORS
330
47
102
}
330
47
100
AcDbProxyObject
 90
      499
 91
      503
 95
   851991
 70
     0
 93
       41
310
903313A31583
 94
        0
  0
ACAD_PROXY_OBJECT
  5
49
102
{ACAD_REACTORS
330
47
102
}
330
47
100
AcDbProxyObject
 90
      499
 91
      503
 95
   851991
 70
     0
 93
      105
310
903313A324000000000000004000
 94
        0
  0
ACAD_PROXY_OBJECT
  5
4A
102
{ACAD_REACTORS
330
47
102
}
330
47
100
AcDbProxyObject
 90
      499
 91
      503
 95
   851991
 70
     0
 93
      105
310
903313A344000000000000104000
 94
        0
  0
ACAD_PROXY_OBJECT
  5
4B
102
{ACAD_REACTORS
330
47
102
}
330
47
100
AcDbProxyObject
 90
      499
 91
      503
 95
   851991
 70
     0
 93
      105
310
903313A354000000000000144000
 94
        0
  0
ACAD_PROXY_OBJECT
  5
4C
102
{ACAD_REACTORS
330
47
102
}
330
47
100
AcDbProxyObject
 90
      499
 91
      503
 95
   851991
 70
     0
 93
      105
310
903313A384000000000000204000
 94
        0
  0
ACAD_PROXY_OBJECT
  5
4D
102
{ACAD_REACTORS
330
47
102
}
330
47
100
AcDbProxyObject
 90
      499
 91
      503
 95
   851991
 70
     0
 93
      113
310
904313A31304000000000000244000
 94
        0
  0
ACAD_PROXY_OBJECT
  5
4E
102
{ACAD_REACTORS
330
47
102
}
330
47
100
AcDbProxyObject
 90
      499
 91
      503
 95
   851991
 70
     0
 93
      113
310
904313A31364000000000000304000
 94
        0
  0
ACAD_PROXY_OBJECT
  5
4F
102
{ACAD_REACTORS
330
47
102
}
330
47
100
AcDbProxyObject
 90
      499
 91
      503
 95
   851991
 70
     0
 93
      113
310
904313A32304000000000000344000
 94
        0
  0
ACAD_PROXY_OBJECT
  5
50
102
{ACAD_REACTORS
330
47
102
}
330
47
100
AcDbProxyObject
 90
      499
 91
      503
 95
   851991
 70
     0
 93
      113
310
904313A333040000000000003E4000
 94
        0
  0
ACAD_PROXY_OBJECT
  5
51
102
{ACAD_REACTORS
330
47
102
}
330
47
100
AcDbProxyObject
 90
      499
 91
      503
 95
   851991
 70
     0
 93
      113
310
904313A34304000000000000444000
 94
        0
  0
ACAD_PROXY_OBJECT
  5
52
102
{ACAD_REACTORS
330
47
102
}
330
47
100
AcDbProxyObject
 90
      499
 91
      503
 95
   851991
 70
     0
 93
      113
310
904313A35304000000000000494000
 94
        0
  0
ACAD_PROXY_OBJECT
  5
53
102
{ACAD_REACTORS
330
47
102
}
330
47
100
AcDbProxyObject
 90
      499
 91
      503
 95
   851991
 70
     0
 93
      121
310
905313A3130304000000000000594060
 94
        0
  0
ACAD_PROXY_OBJECT
  5
54
102
{ACAD_REACTORS
330
47
102
}
330
47
100
AcDbProxyObject
 90
      499
 91
      503
 95
   851991
 70
     0
 93
      105
310
903323A310000000000000010159
 94
        0
  0
ACAD_PROXY_OBJECT
  5
55
102
{ACAD_REACTORS
330
47
102
}
330
47
100
AcDbProxyObject
 90
      499
 91
      503
 95
   851991
 70
     0
 93
      105
310
903343A310000000000000410159
 94
        0
  0
ACAD_PROXY_OBJECT
  5
56
102
{ACAD_REACTORS
330
47
102
}
330
47
100
AcDbProxyObject
 90
      499
 91
      503
 95
   851991
 70
     0
 93
      105
310
903383A310000000000000810159
 94
        0
  0
ACAD_PROXY_OBJECT
  5
57
102
{ACAD_REACTORS
330
47
102
}
330
47
100
AcDbProxyObject
 90
      499
 91
      503
 95
   851991
 70
     0
 93
      113
310
90431303A310000000000000910140
 94
        0
  0
ACAD_PROXY_OBJECT
  5
58
102
{ACAD_REACTORS
330
47
102
}
330
47
100
AcDbProxyObject
 90
      499
 91
      503
 95
   851991
 70
     0
 93
      121
310
9053130303A310000000000001650160
 94
        0
  0
ACAD_PROXY_OBJECT
  5
59
102
{ACAD_REACTORS
330
47
102
}
330
47
100
AcDbProxyObject
 90
      499
 91
      503
 95
   851991
 70
     0
 93
      257
310
90E312F31323822203D2031272D3022000000000000200FC00000000000028401C
 94
        0
  0
ACAD_PROXY_OBJECT
  5
5A
102
{ACAD_REACTORS
330
47
102
}
330
47
100
AcDbProxyObject
 90
      499
 91
      503
 95
   851991
 70
     0
 93
      249
310
90D312F363422203D2031272D3022000000000000240FC000000000000284040
 94
        0
  0
ACAD_PROXY_OBJECT
  5
5B
102
{ACAD_REACTORS
330
47
102
}
330
47
100
AcDbProxyObject
 90
      499
 91
      503
 95
   851991
 70
     0
 93
      249
310
90D312F333222203D2031272D3022000000000000280FC000000000000284040
 94
        0
  0
ACAD_PROXY_OBJECT
  5
5C
102
{ACAD_REACTORS
330
47
102
}
330
47
100
AcDbProxyObject
 90
      499
 91
      503
 95
   851991
 70
     0
 93
      249
310
90D312F313622203D2031272D30220000000000002C0FC000000000000284040
 94
        0
  0
ACAD_PROXY_OBJECT
  5
5D
102
{ACAD_REACTORS
330
47
102
}
330
47
100
AcDbProxyObject
 90
      499
 91
      503
 95
   851991
 70
     0
 93
      249
310
90D332F333222203D2031272D30220000000000002E0FC000000000000284040
 94
        0
  0
ACAD_PROXY_OBJECT
  5
5E
102
{ACAD_REACTORS
330
47
102
}
330
47
100
AcDbProxyObject
 90
      499
 91
      503
 95
   851991
 70
     0
 93
      241
310
90C312F3822203D2031272D3022000000000000300FC000000000000284040
 94
        0
  0
ACAD_PROXY_OBJECT
  5
5F
102
{ACAD_REACTORS
330
47
102
}
330
47
100
AcDbProxyObject
 90
      499
 91
      503
 95
   851991
 70
     0
 93
      249
310
90D332F313622203D2031272D3022000000000000320FC000000000000284040
 94
        0
  0
ACAD_PROXY_OBJECT
  5
60
102
{ACAD_REACTORS
330
47
102
}
330
47
100
AcDbProxyObject
 90
      499
 91
      503
 95
   851991
 70
     0
 93
      241
310
90C312F3422203D2031272D3022000000000000340FC000000000000284040
 94
        0
  0
ACAD_PROXY_OBJECT
  5
61
102
{ACAD_REACTORS
330
47
102
}
330
47
100
AcDbProxyObject
 90
      499
 91
      503
 95
   851991
 70
     0
 93
      241
310
90C332F3822203D2031272D3022000000000000360FC000000000000284040
 94
        0
  0
ACAD_PROXY_OBJECT
  5
62
102
{ACAD_REACTORS
330
47
102
}
330
47
100
AcDbProxyObject
 90
      499
 91
      503
 95
   851991
 70
     0
 93
      241
310
90C312F3222203D2031272D3022000000000000380FC000000000000284040
 94
        0
  0
ACAD_PROXY_OBJECT
  5
63
102
{ACAD_REACTORS
330
47
102
}
330
47
100
AcDbProxyObject
 90
      499
 91
      503
 95
   851991
 70
     0
 93
      241
310
90C332F3422203D2031272D30220000000000003A0FC000000000000284040
 94
        0
  0
ACAD_PROXY_OBJECT
  5
64
102
{ACAD_REACTORS
330
47
102
}
330
47
100
AcDbProxyObject
 90
      499
 91
      503
 95
   851991
 70
     0
 93
      161
310
90A3122203D2031272D30224000000000000284020
 94
        0
  0
ACAD_PROXY_OBJECT
  5
65
102
{ACAD_REACTORS
330
47
102
}
330
47
100
AcDbProxyObject
 90
      499
 91
      503
 95
   851991
 70
     0
 93
      257
310
90E312D312F3222203D2031272D30220000000000003E0FC00000000000028401C
 94
        0
  0
ACAD_PROXY_OBJECT
  5
66
102
{ACAD_REACTORS
330
47
102
}
330
47
100
AcDbProxyObject
 90
      499
 91
      503
 95
   851991
 70
     0
 93
      225
310
90A3322203D2031272D302200000000000002100000000000000284000
 94
        0
  0
ACAD_PROXY_OBJECT
  5
67
102
{ACAD_REACTORS
330
47
102
}
330
47
100
AcDbProxyObject
 90
      499
 91
      503
 95
   851991
 70
     0
 93
      225
310
90A3622203D2031272D302200000000000006100000000000000284000
 94
        0
  0
ACAD_PROXY_OBJECT
  5
68
102
{ACAD_REACTORS
330
47
102
}
330
47
100
AcDbProxyObject
 90
      499
 91
      503
 95
   851991
 70
     0
 93
      249
310
90D31272D3022203D2031272D30220000000000000A100000000000000284040
 94
        0
  0
DICTIONARYVAR
  5
1E38
102
{ACAD_REACTORS
330
1E37
102
}
330
1E37
100
DictionaryVariables
280
     0
  1
1
  0
ENDSEC
  0
EOF
