  0
SECTION
  2
HEADER
  9
$ACADVER
  1
AC1015
  9
$ACADMAINTVER
 70
    13
  9
$DWGCODEPAGE
  3
ANSI_949
  9
$INSBASE
 10
0.0
 20
0.0
 30
0.0
  9
$EXTMIN
 10
-3243.54757355918
 20
-921.2729698187503
 30
-0.0015258207003583
  9
$EXTMAX
 10
-2885.428714363067
 20
-797.5456082402516
 30
0.0000000349246037
  9
$LIMMIN
 10
0.0
 20
0.0
  9
$LIMMAX
 10
420.0
 20
297.0
  9
$ORTHOMODE
 70
     1
  9
$REGENMODE
 70
     1
  9
$FILLMODE
 70
     1
  9
$QTEXTMODE
 70
     0
  9
$MIRRTEXT
 70
     1
  9
$LTSCALE
 40
1.0
  9
$ATTMODE
 70
     1
  9
$TEXTSIZE
 40
2.5
  9
$TRACEWID
 40
1.0
  9
$TEXTSTYLE
  7
Standard
  9
$CLAYER
  8
0
  9
$CELTYPE
  6
ByLayer
  9
$CECOLOR
 62
   256
  9
$CELTSCALE
 40
1.0
  9
$DISPSILH
 70
     0
  9
$DIMSCALE
 40
1.0
  9
$DIMASZ
 40
2.5
  9
$DIMEXO
 40
0.625
  9
$DIMDLI
 40
3.75
  9
$DIMRND
 40
0.0
  9
$DIMDLE
 40
0.0
  9
$DIMEXE
 40
1.25
  9
$DIMTP
 40
0.0
  9
$DIMTM
 40
0.0
  9
$DIMTXT
 40
2.5
  9
$DIMCEN
 40
2.5
  9
$DIMTSZ
 40
0.0
  9
$DIMTOL
 70
     0
  9
$DIMLIM
 70
     0
  9
$DIMTIH
 70
     0
  9
$DIMTOH
 70
     0
  9
$DIMSE1
 70
     0
  9
$DIMSE2
 70
     0
  9
$DIMTAD
 70
     1
  9
$DIMZIN
 70
     8
  9
$DIMBLK
  1

  9
$DIMASO
 70
     1
  9
$DIMSHO
 70
     1
  9
$DIMPOST
  1

  9
$DIMAPOST
  1

  9
$DIMALT
 70
     0
  9
$DIMALTD
 70
     3
  9
$DIMALTF
 40
0.03937007874016
  9
$DIMLFAC
 40
1.0
  9
$DIMTOFL
 70
     1
  9
$DIMTVP
 40
0.0
  9
$DIMTIX
 70
     0
  9
$DIMSOXD
 70
     0
  9
$DIMSAH
 70
     0
  9
$DIMBLK1
  1

  9
$DIMBLK2
  1

  9
$DIMSTYLE
  2
ISO-25
  9
$DIMCLRD
 70
     0
  9
$DIMCLRE
 70
     0
  9
$DIMCLRT
 70
     0
  9
$DIMTFAC
 40
1.0
  9
$DIMGAP
 40
0.625
  9
$DIMJUST
 70
     0
  9
$DIMSD1
 70
     0
  9
$DIMSD2
 70
     0
  9
$DIMTOLJ
 70
     0
  9
$DIMTZIN
 70
     8
  9
$DIMALTZ
 70
     0
  9
$DIMALTTZ
 70
     0
  9
$DIMUPT
 70
     0
  9
$DIMDEC
 70
     2
  9
$DIMTDEC
 70
     2
  9
$DIMALTU
 70
     2
  9
$DIMALTTD
 70
     3
  9
$DIMTXSTY
  7
Standard
  9
$DIMAUNIT
 70
     0
  9
$DIMADEC
 70
     0
  9
$DIMALTRND
 40
0.0
  9
$DIMAZIN
 70
     0
  9
$DIMDSEP
 70
    46
  9
$DIMATFIT
 70
     3
  9
$DIMFRAC
 70
     0
  9
$DIMLDRBLK
  1

  9
$DIMLUNIT
 70
     2
  9
$DIMLWD
 70
    -2
  9
$DIMLWE
 70
    -2
  9
$DIMTMOVE
 70
     0
  9
$LUNITS
 70
     2
  9
$LUPREC
 70
     4
  9
$SKETCHINC
 40
1.0
  9
$FILLETRAD
 40
10.0
  9
$AUNITS
 70
     0
  9
$AUPREC
 70
     0
  9
$MENU
  1
.
  9
$ELEVATION
 40
0.0
  9
$PELEVATION
 40
0.0
  9
$THICKNESS
 40
0.0
  9
$LIMCHECK
 70
     0
  9
$CHAMFERA
 40
10.0
  9
$CHAMFERB
 40
10.0
  9
$CHAMFERC
 40
20.0
  9
$CHAMFERD
 40
0.0
  9
$SKPOLY
 70
     0
  9
$TDCREATE
 40
2458834.367245532
  9
$TDUCREATE
 40
2458833.992245532
  9
$TDUPDATE
 40
2458834.368880787
  9
$TDUUPDATE
 40
2458833.993880787
  9
$TDINDWG
 40
0.0016353935
  9
$TDUSRTIMER
 40
0.0016353935
  9
$USRTIMER
 70
     1
  9
$ANGBASE
 50
0.0
  9
$ANGDIR
 70
     0
  9
$PDMODE
 70
     0
  9
$PDSIZE
 40
0.0
  9
$PLINEWID
 40
0.0
  9
$SPLFRAME
 70
     0
  9
$SPLINETYPE
 70
     6
  9
$SPLINESEGS
 70
     8
  9
$HANDSEED
  5
648
  9
$SURFTAB1
 70
     6
  9
$SURFTAB2
 70
     6
  9
$SURFTYPE
 70
     6
  9
$SURFU
 70
     6
  9
$SURFV
 70
     6
  9
$UCSBASE
  2

  9
$UCSNAME
  2

  9
$UCSORG
 10
0.0
 20
0.0
 30
0.0
  9
$UCSXDIR
 10
1.0
 20
0.0
 30
0.0
  9
$UCSYDIR
 10
0.0
 20
1.0
 30
0.0
  9
$UCSORTHOREF
  2

  9
$UCSORTHOVIEW
 70
     0
  9
$UCSORGTOP
 10
0.0
 20
0.0
 30
0.0
  9
$UCSORGBOTTOM
 10
0.0
 20
0.0
 30
0.0
  9
$UCSORGLEFT
 10
0.0
 20
0.0
 30
0.0
  9
$UCSORGRIGHT
 10
0.0
 20
0.0
 30
0.0
  9
$UCSORGFRONT
 10
0.0
 20
0.0
 30
0.0
  9
$UCSORGBACK
 10
0.0
 20
0.0
 30
0.0
  9
$PUCSBASE
  2

  9
$PUCSNAME
  2

  9
$PUCSORG
 10
0.0
 20
0.0
 30
0.0
  9
$PUCSXDIR
 10
1.0
 20
0.0
 30
0.0
  9
$PUCSYDIR
 10
0.0
 20
1.0
 30
0.0
  9
$PUCSORTHOREF
  2

  9
$PUCSORTHOVIEW
 70
     0
  9
$PUCSORGTOP
 10
0.0
 20
0.0
 30
0.0
  9
$PUCSORGBOTTOM
 10
0.0
 20
0.0
 30
0.0
  9
$PUCSORGLEFT
 10
0.0
 20
0.0
 30
0.0
  9
$PUCSORGRIGHT
 10
0.0
 20
0.0
 30
0.0
  9
$PUCSORGFRONT
 10
0.0
 20
0.0
 30
0.0
  9
$PUCSORGBACK
 10
0.0
 20
0.0
 30
0.0
  9
$USERI1
 70
     0
  9
$USERI2
 70
     0
  9
$USERI3
 70
     0
  9
$USERI4
 70
     0
  9
$USERI5
 70
     0
  9
$USERR1
 40
0.0
  9
$USERR2
 40
0.0
  9
$USERR3
 40
0.0
  9
$USERR4
 40
0.0
  9
$USERR5
 40
0.0
  9
$WORLDVIEW
 70
     1
  9
$SHADEDGE
 70
     3
  9
$SHADEDIF
 70
    70
  9
$TILEMODE
 70
     1
  9
$MAXACTVP
 70
    64
  9
$PINSBASE
 10
0.0
 20
0.0
 30
0.0
  9
$PLIMCHECK
 70
     0
  9
$PEXTMIN
 10
1.000000000000000E+20
 20
1.000000000000000E+20
 30
1.000000000000000E+20
  9
$PEXTMAX
 10
-1.000000000000000E+20
 20
-1.000000000000000E+20
 30
-1.000000000000000E+20
  9
$PLIMMIN
 10
0.0
 20
0.0
  9
$PLIMMAX
 10
420.0
 20
297.0
  9
$UNITMODE
 70
     0
  9
$VISRETAIN
 70
     1
  9
$PLINEGEN
 70
     0
  9
$PSLTSCALE
 70
     1
  9
$TREEDEPTH
 70
  3020
  9
$CMLSTYLE
  2
Standard
  9
$CMLJUST
 70
     0
  9
$CMLSCALE
 40
20.0
  9
$PROXYGRAPHICS
 70
     1
  9
$MEASUREMENT
 70
     1
  9
$CELWEIGHT
370
    -1
  9
$ENDCAPS
280
     0
  9
$JOINSTYLE
280
     0
  9
$LWDISPLAY
290
     0
  9
$INSUNITS
 70
     4
  9
$HYPERLINKBASE
  1

  9
$STYLESHEET
  1

  9
$XEDIT
290
     1
  9
$CEPSNTYPE
380
     0
  9
$PSTYLEMODE
290
     1
  9
$FINGERPRINTGUID
  2
{01B46A75-10C6-4990-86B0-1E3B03779EF1}
  9
$VERSIONGUID
  2
{98F299FF-EC07-4D8E-AC5F-44EB010BEC3F}
  9
$EXTNAMES
290
     1
  9
$PSVPSCALE
 40
0.0
  9
$OLESTARTUP
290
     0
  0
ENDSEC
  0
SECTION
  2
CLASSES
  0
CLASS
  1
ACDBDICTIONARYWDFLT
  2
AcDbDictionaryWithDefault
  3
AutoCAD 2000
 90
        0
280
     0
281
     0
  0
CLASS
  1
ACDBPLACEHOLDER
  2
AcDbPlaceHolder
  3
AutoCAD 2000
 90
        0
280
     0
281
     0
  0
CLASS
  1
LAYOUT
  2
AcDbLayout
  3
AutoCAD 2000
 90
        0
280
     0
281
     0
  0
CLASS
  1
DICTIONARYVAR
  2
AcDbDictionaryVar
  3
AutoCAD 2000
 90
        0
280
     0
281
     0
  0
ENDSEC
  0
SECTION
  2
TABLES
  0
TABLE
  2
VPORT
  5
8
330
0
100
AcDbSymbolTable
 70
     4
  0
VPORT
  5
647
330
8
100
AcDbSymbolTableRecord
100
AcDbViewportTableRecord
  2
*Active
 70
     0
 10
0.0
 20
0.0
 11
1.0
 21
1.0
 12
-3064.488143961124
 22
-859.409289029501
 13
0.0
 23
0.0
 14
10.0
 24
10.0
 15
10.0
 25
10.0
 16
0.0
 26
0.0
 36
1.0
 17
0.0
 27
0.0
 37
0.0
 40
165.041255715501
 41
2.177478580171358
 42
50.0
 43
0.0
 44
0.0
 50
0.0
 51
0.0
 71
     0
 72
   100
 73
     1
 74
     3
 75
     0
 76
     0
 77
     0
 78
     0
281
     0
 65
     1
110
0.0
120
0.0
130
0.0
111
1.0
121
0.0
131
0.0
112
0.0
122
1.0
132
0.0
 79
     0
146
0.0
  0
ENDTAB
  0
TABLE
  2
LTYPE
  5
5
330
0
100
AcDbSymbolTable
 70
     1
  0
LTYPE
  5
14
330
5
100
AcDbSymbolTableRecord
100
AcDbLinetypeTableRecord
  2
ByBlock
 70
     0
  3

 72
    65
 73
     0
 40
0.0
  0
LTYPE
  5
15
330
5
100
AcDbSymbolTableRecord
100
AcDbLinetypeTableRecord
  2
ByLayer
 70
     0
  3

 72
    65
 73
     0
 40
0.0
  0
LTYPE
  5
16
330
5
100
AcDbSymbolTableRecord
100
AcDbLinetypeTableRecord
  2
Continuous
 70
     0
  3
Solid line
 72
    65
 73
     0
 40
0.0
  0
ENDTAB
  0
TABLE
  2
LAYER
  5
2
102
{ACAD_XDICTIONARY
360
2B
102
}
330
0
100
AcDbSymbolTable
 70
     1
  0
LAYER
  5
10
330
2
100
AcDbSymbolTableRecord
100
AcDbLayerTableRecord
  2
0
 70
     0
 62
     7
  6
Continuous
370
    -3
390
F
  0
ENDTAB
  0
TABLE
  2
STYLE
  5
3
330
0
100
AcDbSymbolTable
 70
     1
  0
STYLE
  5
11
330
3
100
AcDbSymbolTableRecord
100
AcDbTextStyleTableRecord
  2
Standard
 70
     0
 40
0.0
 41
1.0
 50
0.0
 71
     0
 42
2.5
  3
txt
  4

  0
ENDTAB
  0
TABLE
  2
VIEW
  5
6
330
0
100
AcDbSymbolTable
 70
     0
  0
ENDTAB
  0
TABLE
  2
UCS
  5
7
330
0
100
AcDbSymbolTable
 70
     0
  0
ENDTAB
  0
TABLE
  2
APPID
  5
9
330
0
100
AcDbSymbolTable
 70
     1
  0
APPID
  5
12
330
9
100
AcDbSymbolTableRecord
100
AcDbRegAppTableRecord
  2
ACAD
 70
     0
  0
ENDTAB
  0
TABLE
  2
DIMSTYLE
  5
A
330
0
100
AcDbSymbolTable
 70
     1
100
AcDbDimStyleTable
 71
     0
  0
DIMSTYLE
105
27
330
A
100
AcDbSymbolTableRecord
100
AcDbDimStyleTableRecord
  2
ISO-25
 70
     0
 41
2.5
 42
0.625
 43
3.75
 44
1.25
 73
     0
 74
     0
 77
     1
 78
     8
140
2.5
141
2.5
143
0.03937007874016
147
0.625
171
     3
172
     1
271
     2
272
     2
274
     3
283
     0
284
     8
340
11
  0
ENDTAB
  0
TABLE
  2
BLOCK_RECORD
  5
1
330
0
100
AcDbSymbolTable
 70
     2
  0
BLOCK_RECORD
  5
1F
330
1
100
AcDbSymbolTableRecord
100
AcDbBlockTableRecord
  2
*Model_Space
340
22
  0
BLOCK_RECORD
  5
1B
330
1
100
AcDbSymbolTableRecord
100
AcDbBlockTableRecord
  2
*Paper_Space
340
1E
  0
BLOCK_RECORD
  5
23
330
1
100
AcDbSymbolTableRecord
100
AcDbBlockTableRecord
  2
*Paper_Space0
340
26
  0
ENDTAB
  0
ENDSEC
  0
SECTION
  2
BLOCKS
  0
BLOCK
  5
20
330
1F
100
AcDbEntity
  8
0
100
AcDbBlockBegin
  2
*Model_Space
 70
     0
 10
0.0
 20
0.0
 30
0.0
  3
*Model_Space
  1

  0
ENDBLK
  5
21
330
1F
100
AcDbEntity
  8
0
100
AcDbBlockEnd
  0
BLOCK
  5
1C
330
1B
100
AcDbEntity
 67
     1
  8
0
100
AcDbBlockBegin
  2
*Paper_Space
 70
     0
 10
0.0
 20
0.0
 30
0.0
  3
*Paper_Space
  1

  0
ENDBLK
  5
1D
330
1B
100
AcDbEntity
 67
     1
  8
0
100
AcDbBlockEnd
  0
BLOCK
  5
24
330
23
100
AcDbEntity
  8
0
100
AcDbBlockBegin
  2
*Paper_Space0
 70
     0
 10
0.0
 20
0.0
 30
0.0
  3
*Paper_Space0
  1

  0
ENDBLK
  5
25
330
23
100
AcDbEntity
  8
0
100
AcDbBlockEnd
  0
ENDSEC
  0
SECTION
  2
ENTITIES
  0
ARC
  5
33A
330
1F
100
AcDbEntity
  8
0
100
AcDbCircle
 10
-2954.4351245461
 20
-908.0971259089595
 30
0.0
 40
2.0
100
AcDbArc
 50
270.0
 51
325.0000903111233
  0
LINE
  5
33B
330
1F
100
AcDbEntity
  8
0
100
AcDbLine
 10
-3003.000396106422
 20
-842.3271253617889
 30
0.0
 11
-2990.520390484512
 21
-842.3271253617889
 31
0.0
  0
LINE
  5
33C
330
1F
100
AcDbEntity
  8
0
100
AcDbLine
 10
-3003.000396106422
 20
-828.247125251819
 30
0.0
 11
-2990.520390484512
 21
-828.247125251819
 31
0.0
  0
LINE
  5
33D
330
1F
100
AcDbEntity
  8
0
100
AcDbLine
 10
-3003.800394747437
 20
-829.0471257554791
 30
0.0
 11
-3003.800394747437
 21
-841.5271248581298
 31
0.0
  0
ARC
  5
33E
330
1F
100
AcDbEntity
  8
0
100
AcDbCircle
 10
-3003.000391047178
 20
-841.5271255370271
 30
0.0
 40
0.8000000000002954
100
AcDbArc
 50
180.0
 51
270.0
  0
ARC
  5
33F
330
1F
100
AcDbEntity
  8
0
100
AcDbCircle
 10
-3003.000391047178
 20
-829.047125537027
 30
0.0
 40
0.8000000000000396
100
AcDbArc
 50
90.0
 51
180.0
  0
LINE
  5
340
330
1F
100
AcDbEntity
  8
0
100
AcDbLine
 10
-2989.720391843498
 20
-829.0471257554791
 30
0.0
 11
-2989.720391843498
 21
-841.5271248581298
 31
0.0
  0
ARC
  5
341
330
1F
100
AcDbEntity
  8
0
100
AcDbCircle
 10
-2990.52039104718
 20
-841.527125537026
 30
0.0
 40
0.8000000000009066
100
AcDbArc
 50
270.0
 51
0.0
  0
ARC
  5
342
330
1F
100
AcDbEntity
  8
0
100
AcDbCircle
 10
-2990.520391047179
 20
-829.047125537026
 30
0.0
 40
0.8000000000000396
100
AcDbArc
 50
0.0
 51
90.0
  0
LINE
  5
343
330
1F
100
AcDbEntity
  8
0
100
AcDbLine
 10
-3065.319595946019
 20
-806.5371255370143
 30
0.0
 11
-3111.575860701099
 21
-806.5371255370143
 31
0.0
  0
LINE
  5
344
330
1F
100
AcDbEntity
  8
0
100
AcDbLine
 10
-3056.45690016526
 20
-797.5971251639031
 30
0.0
 11
-3054.896016047173
 21
-797.5971251639031
 31
0.0
  0
LINE
  5
345
330
1F
100
AcDbEntity
  8
0
100
AcDbLine
 10
-3058.095208332718
 20
-798.4499726357361
 30
0.0
 11
-3062.862134502113
 21
-805.257854974497
 31
0.0
  0
ARC
  5
346
330
1F
100
AcDbEntity
  8
0
100
AcDbCircle
 10
-3065.319595946019
 20
-803.5371255370142
 30
0.0
 40
3.000000000000017
100
AcDbArc
 50
270.0
 51
324.9999999999792
  0
ARC
  5
347
330
1F
100
AcDbEntity
  8
0
100
AcDbCircle
 10
-3056.456905529769
 20
-799.5971258627811
 30
0.0
 40
2.000000000000034
100
AcDbArc
 50
90.0
 51
144.9999999999791
  0
LINE
  5
348
330
1F
100
AcDbEntity
  8
0
100
AcDbLine
 10
-3044.800243303956
 20
-798.4499726357361
 30
0.0
 11
-3040.033302233398
 21
-805.257854974497
 31
0.0
  0
ARC
  5
349
330
1F
100
AcDbEntity
  8
0
100
AcDbCircle
 10
-3051.446016047175
 20
-800.6971255370141
 30
0.0
 40
2.45
100
AcDbArc
 50
180.0
 51
0.0
  0
ARC
  5
34A
330
1F
100
AcDbEntity
  8
0
100
AcDbCircle
 10
-3037.5758607011
 20
-803.5371255370142
 30
0.0
 40
2.999999999999996
100
AcDbArc
 50
215.0000000000208
 51
270.0
  0
ARC
  5
34B
330
1F
100
AcDbEntity
  8
0
100
AcDbCircle
 10
-3046.438551117348
 20
-799.5971258627811
 30
0.0
 40
1.999999999999948
100
AcDbArc
 50
35.00000000002084
 51
90.0
  0
LINE
  5
34C
330
1F
100
AcDbEntity
  8
0
100
AcDbLine
 10
-3053.896016047173
 20
-800.697125733585
 30
0.0
 11
-3053.896016047173
 21
-798.5971251639031
 31
0.0
  0
LINE
  5
34D
330
1F
100
AcDbEntity
  8
0
100
AcDbLine
 10
-3048.996016047174
 20
-800.6971255370141
 30
0.0
 11
-3048.996016047174
 21
-798.5971251639031
 31
0.0
  0
LINE
  5
34E
330
1F
100
AcDbEntity
  8
0
100
AcDbLine
 10
-3047.996016047173
 20
-797.5971251639031
 30
0.0
 11
-3046.438536570251
 21
-797.5971251639031
 31
0.0
  0
ARC
  5
34F
330
1F
100
AcDbEntity
  8
0
100
AcDbCircle
 10
-3047.996016047173
 20
-798.5971251639031
 30
0.0
 40
1.0
100
AcDbArc
 50
90.0
 51
180.0
  0
ARC
  5
350
330
1F
100
AcDbEntity
  8
0
100
AcDbCircle
 10
-3054.896016047173
 20
-798.5971251639031
 30
0.0
 40
1.0
100
AcDbArc
 50
0.0
 51
90.0
  0
LINE
  5
351
330
1F
100
AcDbEntity
  8
0
100
AcDbLine
 10
-3121.996016047173
 20
-797.5971251639031
 30
0.0
 11
-3120.438551590621
 21
-797.5971251639031
 31
0.0
  0
ARC
  5
352
330
1F
100
AcDbEntity
  8
0
100
AcDbCircle
 10
-3125.446016047173
 20
-800.6971255370141
 30
0.0
 40
2.45
100
AcDbArc
 50
180.0
 51
0.0
  0
LINE
  5
353
330
1F
100
AcDbEntity
  8
0
100
AcDbLine
 10
-3132.095209383249
 20
-798.4499726357361
 30
0.0
 11
-3136.862139743596
 21
-805.257854974497
 31
0.0
  0
ARC
  5
354
330
1F
100
AcDbEntity
  8
0
100
AcDbCircle
 10
-3139.31959594602
 20
-803.537125537028
 30
0.0
 40
3.0
100
AcDbArc
 50
270.0
 51
325.0000000000258
  0
ARC
  5
355
330
1F
100
AcDbEntity
  8
0
100
AcDbCircle
 10
-3130.456905529765
 20
-799.5971258627823
 30
0.0
 40
2.000000000000026
100
AcDbArc
 50
90.00000000007814
 51
144.9999999999791
  0
LINE
  5
356
330
1F
100
AcDbEntity
  8
0
100
AcDbLine
 10
-3127.896016047172
 20
-800.6971255370141
 30
0.0
 11
-3127.896016047172
 21
-798.5971251639031
 31
0.0
  0
LINE
  5
357
330
1F
100
AcDbEntity
  8
0
100
AcDbLine
 10
-3130.456905872403
 20
-797.5971251639031
 30
0.0
 11
-3128.896016047173
 21
-797.5971251639031
 31
0.0
  0
LINE
  5
358
330
1F
100
AcDbEntity
  8
0
100
AcDbLine
 10
-3122.996016047172
 20
-800.6971255370141
 30
0.0
 11
-3122.996016047173
 21
-798.5971251639031
 31
0.0
  0
LINE
  5
359
330
1F
100
AcDbEntity
  8
0
100
AcDbLine
 10
-3118.800247148453
 20
-798.4499726357361
 30
0.0
 11
-3114.033317253768
 21
-805.257854974497
 31
0.0
  0
ARC
  5
35A
330
1F
100
AcDbEntity
  8
0
100
AcDbCircle
 10
-3111.575860701099
 20
-803.5371255370142
 30
0.0
 40
3.000000000000011
100
AcDbArc
 50
215.0000000000208
 51
270.0
  0
ARC
  5
35B
330
1F
100
AcDbEntity
  8
0
100
AcDbCircle
 10
-3120.438551117349
 20
-799.5971258627811
 30
0.0
 40
1.999999999999918
100
AcDbArc
 50
35.00000000002084
 51
90.0
  0
ARC
  5
35C
330
1F
100
AcDbEntity
  8
0
100
AcDbCircle
 10
-3121.996016047173
 20
-798.5971251639031
 30
0.0
 40
1.0
100
AcDbArc
 50
90.0
 51
180.0
  0
ARC
  5
35D
330
1F
100
AcDbEntity
  8
0
100
AcDbCircle
 10
-3128.896016047173
 20
-798.5971251639031
 30
0.0
 40
1.0
100
AcDbArc
 50
0.0
 51
90.0
  0
ARC
  5
35E
330
1F
100
AcDbEntity
  8
0
100
AcDbCircle
 10
-3220.996016047172
 20
-908.5971248956807
 30
0.0
 40
1.0
100
AcDbArc
 50
180.0
 51
270.0
  0
ARC
  5
35F
330
1F
100
AcDbEntity
  8
0
100
AcDbCircle
 10
-3227.896019742658
 20
-908.5971248956807
 30
0.0
 40
1.0
100
AcDbArc
 50
270.0
 51
0.0
  0
ARC
  5
360
330
1F
100
AcDbEntity
  8
0
100
AcDbCircle
 10
-3149.369970271113
 20
-918.326038424607
 30
0.0
 40
1.0
100
AcDbArc
 50
257.0000676919166
 51
346.9999949885705
  0
ARC
  5
361
330
1F
100
AcDbEntity
  8
0
100
AcDbCircle
 10
-3142.646817002696
 20
-919.8782014731884
 30
0.0
 40
1.0
100
AcDbArc
 50
166.9999949885705
 51
257.0000131900016
  0
ARC
  5
362
330
1F
100
AcDbEntity
  8
0
100
AcDbCircle
 10
-3028.259583556202
 20
-917.1110979461245
 30
0.0
 40
1.0
100
AcDbArc
 50
283.0000505122772
 51
13.00017138977973
  0
ARC
  5
363
330
1F
100
AcDbEntity
  8
0
100
AcDbCircle
 10
-3021.53644444734
 20
-915.558938109727
 30
0.0
 40
1.0
100
AcDbArc
 50
192.9998386328507
 51
282.999805194083
  0
ARC
  5
364
330
1F
100
AcDbEntity
  8
0
100
AcDbCircle
 10
-2955.996020107737
 20
-909.0971259089597
 30
0.0
 40
1.0
100
AcDbArc
 50
180.0
 51
270.0
  0
ARC
  5
365
330
1F
100
AcDbEntity
  8
0
100
AcDbCircle
 10
-2962.896019146612
 20
-909.0971259089595
 30
0.0
 40
1.0
100
AcDbArc
 50
270.0
 51
0.0
  0
ARC
  5
366
330
1F
100
AcDbEntity
  8
0
100
AcDbCircle
 10
-2902.996017008296
 20
-909.0971259089595
 30
0.0
 40
1.0
100
AcDbArc
 50
180.0
 51
270.0
  0
ARC
  5
367
330
1F
100
AcDbEntity
  8
0
100
AcDbCircle
 10
-2909.896016047172
 20
-909.0971259089597
 30
0.0
 40
1.0
100
AcDbArc
 50
270.0
 51
0.0
  0
ARC
  5
368
330
1F
100
AcDbEntity
  8
0
100
AcDbCircle
 10
-2974.896016047174
 20
-798.5971251639031
 30
0.0
 40
1.0
100
AcDbArc
 50
0.0
 51
90.0
  0
ARC
  5
369
330
1F
100
AcDbEntity
  8
0
100
AcDbCircle
 10
-2967.996016047173
 20
-798.5971251639031
 30
0.0
 40
1.0
100
AcDbArc
 50
90.0
 51
180.0
  0
ARC
  5
36A
330
1F
100
AcDbEntity
  8
0
100
AcDbCircle
 10
-2923.896016047173
 20
-798.5971251639031
 30
0.0
 40
1.0
100
AcDbArc
 50
0.0
 51
90.0
  0
ARC
  5
36B
330
1F
100
AcDbEntity
  8
0
100
AcDbCircle
 10
-2916.996016047173
 20
-798.5971251639031
 30
0.0
 40
1.0
100
AcDbArc
 50
90.0
 51
180.0
  0
ARC
  5
36C
330
1F
100
AcDbEntity
  8
0
100
AcDbCircle
 10
-3202.896016047172
 20
-798.5971251639031
 30
0.0
 40
1.0
100
AcDbArc
 50
0.0
 51
90.0
  0
ARC
  5
36D
330
1F
100
AcDbEntity
  8
0
100
AcDbCircle
 10
-3195.996016047172
 20
-798.5971251639031
 30
0.0
 40
1.0
100
AcDbArc
 50
90.0
 51
180.0
  0
ARC
  5
36E
330
1F
100
AcDbEntity
  8
0
100
AcDbCircle
 10
-2887.450391047176
 20
-820.155875537015
 30
0.0
 40
2.0
100
AcDbArc
 50
0.0
 51
90.0
  0
ARC
  5
36F
330
1F
100
AcDbEntity
  8
0
100
AcDbCircle
 10
-2899.435391047177
 20
-807.615875537027
 30
0.0
 40
0.8000000000000111
100
AcDbArc
 50
0.0
 51
90.0
  0
ARC
  5
370
330
1F
100
AcDbEntity
  8
0
100
AcDbCircle
 10
-2895.450391047177
 20
-806.155875537015
 30
0.0
 40
2.0
100
AcDbArc
 50
0.0
 51
90.0
  0
ARC
  5
371
330
1F
100
AcDbEntity
  8
0
100
AcDbCircle
 10
-2891.450391047179
 20
-816.155875537014
 30
0.0
 40
2.0
100
AcDbArc
 50
180.0
 51
270.0
  0
LINE
  5
372
330
1F
100
AcDbEntity
  8
0
100
AcDbLine
 10
-2893.450384066284
 20
-806.1558753164909
 30
0.0
 11
-2893.450384066284
 21
-816.1558755368071
 31
0.0
  0
LINE
  5
373
330
1F
100
AcDbEntity
  8
0
100
AcDbLine
 10
-2908.243243620574
 20
-804.155875919988
 30
0.0
 11
-2895.4503881194
 21
-804.155875919988
 31
0.0
  0
ARC
  5
374
330
1F
100
AcDbEntity
  8
0
100
AcDbCircle
 10
-2915.438551117349
 20
-799.5971258627811
 30
0.0
 40
1.999999999999993
100
AcDbArc
 50
35.00000000002084
 51
90.0
  0
LINE
  5
375
330
1F
100
AcDbEntity
  8
0
100
AcDbLine
 10
-2917.996016047173
 20
-800.6971255370149
 30
0.0
 11
-2917.996016047172
 21
-798.5971251639031
 31
0.0
  0
LINE
  5
376
330
1F
100
AcDbEntity
  8
0
100
AcDbLine
 10
-2916.996016047173
 20
-797.5971251639031
 30
0.0
 11
-2915.438537523925
 21
-797.5971251639031
 31
0.0
  0
LINE
  5
377
330
1F
100
AcDbEntity
  8
0
100
AcDbLine
 10
-2925.456916020095
 20
-797.5971251639031
 30
0.0
 11
-2923.896016047173
 21
-797.5971251639031
 31
0.0
  0
LINE
  5
378
330
1F
100
AcDbEntity
  8
0
100
AcDbLine
 10
-2922.896016047173
 20
-800.6971255370149
 30
0.0
 11
-2922.896016047173
 21
-798.5971251639031
 31
0.0
  0
ARC
  5
379
330
1F
100
AcDbEntity
  8
0
100
AcDbCircle
 10
-2925.45690552977
 20
-799.5971258627811
 30
0.0
 40
2.0
100
AcDbArc
 50
90.0
 51
144.9999999999791
  0
ARC
  5
37A
330
1F
100
AcDbEntity
  8
0
100
AcDbCircle
 10
-2911.915391047177
 20
-807.615875537027
 30
0.0
 40
0.8000000000000396
100
AcDbArc
 50
90.0
 51
180.0
  0
ARC
  5
37B
330
1F
100
AcDbEntity
  8
0
100
AcDbCircle
 10
-2928.010391047164
 20
-810.017125537036
 30
0.0
 40
0.8000000000000111
100
AcDbArc
 50
359.9999999999869
 51
90.0
  0
LINE
  5
37C
330
1F
100
AcDbEntity
  8
0
100
AcDbLine
 10
-2927.095209286392
 20
-798.4499726357361
 30
0.0
 11
-2931.862150356948
 21
-805.257854974497
 31
0.0
  0
ARC
  5
37D
330
1F
100
AcDbEntity
  8
0
100
AcDbCircle
 10
-2920.446016047173
 20
-800.6971255370149
 30
0.0
 40
2.45
100
AcDbArc
 50
180.0
 51
0.0
  0
ARC
  5
37E
330
1F
100
AcDbEntity
  8
0
100
AcDbCircle
 10
-2908.243229901462
 20
-801.1558755370142
 30
0.0
 40
3.000000000000017
100
AcDbArc
 50
215.0000000000208
 51
270.0
  0
LINE
  5
37F
330
1F
100
AcDbEntity
  8
0
100
AcDbLine
 10
-2911.915396378219
 20
-806.8158756854421
 30
0.0
 11
-2899.43540565747
 21
-806.8158756854421
 31
0.0
  0
LINE
  5
380
330
1F
100
AcDbEntity
  8
0
100
AcDbLine
 10
-2913.800244257629
 20
-798.4499726357361
 30
0.0
 11
-2910.700683520019
 21
-802.876604712237
 31
0.0
  0
ARC
  5
381
330
1F
100
AcDbEntity
  8
0
100
AcDbCircle
 10
-2899.435391047178
 20
-820.0958755370262
 30
0.0
 40
0.8000000000010061
100
AcDbArc
 50
270.0
 51
0.0
  0
ARC
  5
382
330
1F
100
AcDbEntity
  8
0
100
AcDbCircle
 10
-2894.672891047175
 20
-826.6658755370272
 30
0.0
 40
0.8000000000000111
100
AcDbArc
 50
0.0
 51
90.0
  0
ARC
  5
383
330
1F
100
AcDbEntity
  8
0
100
AcDbCircle
 10
-2907.152891047177
 20
-826.6658755370272
 30
0.0
 40
0.7999999999999547
100
AcDbArc
 50
90.0
 51
180.0
  0
LINE
  5
384
330
1F
100
AcDbEntity
  8
0
100
AcDbLine
 10
-2907.152895853698
 20
-825.865875920881
 30
0.0
 11
-2894.672905132949
 21
-825.865875920881
 31
0.0
  0
ARC
  5
385
330
1F
100
AcDbEntity
  8
0
100
AcDbCircle
 10
-2894.672891047176
 20
-839.145875537026
 30
0.0
 40
0.8000000000010203
100
AcDbArc
 50
270.0
 51
0.0
  0
ARC
  5
386
330
1F
100
AcDbEntity
  8
0
100
AcDbCircle
 10
-2907.152891047177
 20
-839.1458755370265
 30
0.0
 40
0.8000000000002954
100
AcDbArc
 50
180.0
 51
270.0
  0
ARC
  5
387
330
1F
100
AcDbEntity
  8
0
100
AcDbCircle
 10
-2902.390391047176
 20
-845.7158755370267
 30
0.0
 40
0.8000000000000254
100
AcDbArc
 50
90.0
 51
180.0
  0
LINE
  5
388
330
1F
100
AcDbEntity
  8
0
100
AcDbLine
 10
-2902.390395329177
 20
-844.9158761563191
 30
0.0
 11
-2889.910404608428
 21
-844.9158761563191
 31
0.0
  0
LINE
  5
389
330
1F
100
AcDbEntity
  8
0
100
AcDbLine
 10
-2907.152895853698
 20
-839.9458750995284
 30
0.0
 11
-2894.672905132949
 21
-839.9458750995284
 31
0.0
  0
LINE
  5
38A
330
1F
100
AcDbEntity
  8
0
100
AcDbLine
 10
-2907.952879593551
 20
-826.6658754932171
 30
0.0
 11
-2907.952879593551
 21
-839.1458764585143
 31
0.0
  0
LINE
  5
38B
330
1F
100
AcDbEntity
  8
0
100
AcDbLine
 10
-2893.872891590774
 20
-826.6658754932171
 30
0.0
 11
-2893.872891590774
 21
-839.1458764585143
 31
0.0
  0
ARC
  5
38C
330
1F
100
AcDbEntity
  8
0
100
AcDbCircle
 10
-2911.915391047177
 20
-820.095875537028
 30
0.0
 40
0.8000000000002954
100
AcDbArc
 50
180.0
 51
270.0
  0
LINE
  5
38D
330
1F
100
AcDbEntity
  8
0
100
AcDbLine
 10
-2914.344352032848
 20
-826.7855646994151
 30
0.0
 11
-2918.676433866671
 21
-821.6227816269411
 31
0.0
  0
LINE
  5
38E
330
1F
100
AcDbEntity
  8
0
100
AcDbLine
 10
-2921.276446111262
 20
-822.5691046938031
 30
0.0
 11
-2916.94433840543
 21
-827.7318865445613
 31
0.0
  0
ARC
  5
38F
330
1F
100
AcDbEntity
  8
0
100
AcDbCircle
 10
-2928.010391047164
 20
-823.4571255370411
 30
0.0
 40
0.800000000000409
100
AcDbArc
 50
270.0
 51
0.0
  0
ARC
  5
390
330
1F
100
AcDbEntity
  8
0
100
AcDbCircle
 10
-2928.600391047179
 20
-829.047125537027
 30
0.0
 40
0.8000000000000111
100
AcDbArc
 50
0.0
 51
90.0
  0
LINE
  5
391
330
1F
100
AcDbEntity
  8
0
100
AcDbLine
 10
-2916.476426350717
 20
-842.2895220200222
 30
0.0
 11
-2912.144344671483
 21
-847.4523036474559
 31
0.0
  0
ARC
  5
392
330
1F
100
AcDbEntity
  8
0
100
AcDbCircle
 10
-2928.600391047179
 20
-841.5271255370264
 30
0.0
 40
0.8000000000009206
100
AcDbArc
 50
270.0
 51
0.0
  0
ARC
  5
393
330
1F
100
AcDbEntity
  8
0
100
AcDbCircle
 10
-2922.882441047178
 20
-848.117125537021
 30
0.0
 40
0.7999999999999547
100
AcDbArc
 50
0.0
 51
89.99999999960918
  0
ARC
  5
394
330
1F
100
AcDbEntity
  8
0
100
AcDbCircle
 10
-2928.68244104718
 20
-848.1171255370263
 30
0.0
 40
0.800000000002683
100
AcDbArc
 50
89.99999999960918
 51
179.9999999999869
  0
ARC
  5
395
330
1F
100
AcDbEntity
  8
0
100
AcDbCircle
 10
-2931.48039104718
 20
-848.0971255370263
 30
0.0
 40
0.8000000000004661
100
AcDbArc
 50
0.0
 51
90.0
  0
LINE
  5
396
330
1F
100
AcDbEntity
  8
0
100
AcDbLine
 10
-2922.882442400634
 20
-847.3171256395467
 30
0.0
 11
-2928.682451174438
 21
-847.3171256395467
 31
0.0
  0
LINE
  5
397
330
1F
100
AcDbEntity
  8
0
100
AcDbLine
 10
-2916.710381434143
 20
-828.3746758398702
 30
0.0
 11
-2916.710381434143
 21
-841.6467349745792
 31
0.0
  0
LINE
  5
398
330
1F
100
AcDbEntity
  8
0
100
AcDbLine
 10
-2914.110397026718
 20
-840.7004125185755
 30
0.0
 11
-2914.11039702672
 21
-827.4283516527411
 31
0.0
  0
LINE
  5
399
330
1F
100
AcDbEntity
  8
0
100
AcDbLine
 10
-2927.800391838729
 20
-829.0471257554791
 30
0.0
 11
-2927.800391838729
 21
-841.5271248581298
 31
0.0
  0
LINE
  5
39A
330
1F
100
AcDbEntity
  8
0
100
AcDbLine
 10
-2909.544360264058
 20
-846.5059811914542
 30
0.0
 11
-2913.876441943292
 21
-841.3431995640188
 31
0.0
  0
LINE
  5
39B
330
1F
100
AcDbEntity
  8
0
100
AcDbLine
 10
-2911.915396378219
 20
-820.8958753297531
 30
0.0
 11
-2899.43540565747
 21
-820.8958753297531
 31
0.0
  0
LINE
  5
39C
330
1F
100
AcDbEntity
  8
0
100
AcDbLine
 10
-2921.51040308255
 20
-809.4171257602463
 30
0.0
 11
-2921.51040308255
 21
-821.926315398495
 31
0.0
  0
LINE
  5
39D
330
1F
100
AcDbEntity
  8
0
100
AcDbLine
 10
-2918.910388872802
 20
-820.9799946736159
 30
0.0
 11
-2918.910388872802
 21
-809.4171257602463
 31
0.0
  0
LINE
  5
39E
330
1F
100
AcDbEntity
  8
0
100
AcDbLine
 10
-2912.715380118072
 20
-807.6158752577793
 30
0.0
 11
-2912.715380118072
 21
-820.095875524584
 31
0.0
  0
LINE
  5
39F
330
1F
100
AcDbEntity
  8
0
100
AcDbLine
 10
-2898.635392115295
 20
-807.6158752577793
 30
0.0
 11
-2898.635392115295
 21
-820.095875524584
 31
0.0
  0
LINE
  5
3A0
330
1F
100
AcDbEntity
  8
0
100
AcDbLine
 10
-2927.21039526242
 20
-810.0171256723294
 30
0.0
 11
-2927.21039526242
 21
-823.4571255656371
 31
0.0
  0
LINE
  5
3A1
330
1F
100
AcDbEntity
  8
0
100
AcDbLine
 10
-2967.996016047173
 20
-797.5971251639031
 30
0.0
 11
-2966.438536570251
 21
-797.5971251639031
 31
0.0
  0
LINE
  5
3A2
330
1F
100
AcDbEntity
  8
0
100
AcDbLine
 10
-2968.996016047174
 20
-800.6971255370141
 30
0.0
 11
-2968.996016047174
 21
-798.5971251639031
 31
0.0
  0
LINE
  5
3A3
330
1F
100
AcDbEntity
  8
0
100
AcDbLine
 10
-2973.896016047174
 20
-800.697125733585
 30
0.0
 11
-2973.896016047174
 21
-798.5971251639031
 31
0.0
  0
ARC
  5
3A4
330
1F
100
AcDbEntity
  8
0
100
AcDbCircle
 10
-2966.43855111735
 20
-799.5971258627811
 30
0.0
 40
1.999999999999948
100
AcDbArc
 50
35.00000000002084
 51
90.0
  0
ARC
  5
3A5
330
1F
100
AcDbEntity
  8
0
100
AcDbCircle
 10
-2957.575860701099
 20
-803.5371255370142
 30
0.0
 40
2.999999999999996
100
AcDbArc
 50
215.0000000000208
 51
270.0
  0
ARC
  5
3A6
330
1F
100
AcDbEntity
  8
0
100
AcDbCircle
 10
-2959.540391047166
 20
-810.017125537049
 30
0.0
 40
0.8000000000142506
100
AcDbArc
 50
90.00000000007814
 51
180.0
  0
ARC
  5
3A7
330
1F
100
AcDbEntity
  8
0
100
AcDbCircle
 10
-2966.110391047178
 20
-809.997125537027
 30
0.0
 40
0.7999999999999829
100
AcDbArc
 50
0.0
 51
90.0
  0
ARC
  5
3A8
330
1F
100
AcDbEntity
  8
0
100
AcDbCircle
 10
-2971.446016047173
 20
-800.6971255370141
 30
0.0
 40
2.45
100
AcDbArc
 50
180.0
 51
0.0
  0
LINE
  5
3A9
330
1F
100
AcDbEntity
  8
0
100
AcDbLine
 10
-2964.800243303955
 20
-798.4499726357361
 30
0.0
 11
-2960.033302233398
 21
-805.257854974497
 31
0.0
  0
LINE
  5
3AA
330
1F
100
AcDbEntity
  8
0
100
AcDbLine
 10
-2957.575862333953
 20
-806.5371252509251
 30
0.0
 11
-2934.319590256393
 21
-806.5371252509251
 31
0.0
  0
LINE
  5
3AB
330
1F
100
AcDbEntity
  8
0
100
AcDbLine
 10
-2935.537432358444
 20
-823.4571255656371
 30
0.0
 11
-2935.537432358444
 21
-823.2771255920122
 31
0.0
  0
ARC
  5
3AC
330
1F
100
AcDbEntity
  8
0
100
AcDbCircle
 10
-2934.737441047166
 20
-823.4571255370411
 30
0.0
 40
0.8000000000000111
100
AcDbArc
 50
180.0
 51
270.0
  0
ARC
  5
3AD
330
1F
100
AcDbEntity
  8
0
100
AcDbCircle
 10
-2941.080391047178
 20
-829.0471255370292
 30
0.0
 40
0.8000000000000682
100
AcDbArc
 50
90.0
 51
180.0
  0
ARC
  5
3AE
330
1F
100
AcDbEntity
  8
0
100
AcDbCircle
 10
-2952.81344104718
 20
-823.4571255370271
 30
0.0
 40
0.8000000000000111
100
AcDbArc
 50
270.0
 51
0.0
  0
LINE
  5
3AF
330
1F
100
AcDbEntity
  8
0
100
AcDbLine
 10
-2952.013437674224
 20
-823.4571255656371
 30
0.0
 11
-2952.013437674224
 21
-823.2771255920122
 31
0.0
  0
ARC
  5
3B0
330
1F
100
AcDbEntity
  8
0
100
AcDbCircle
 10
-2952.420391047178
 20
-829.047125537027
 30
0.0
 40
0.8000000000000111
100
AcDbArc
 50
0.0
 51
90.0
  0
LINE
  5
3B1
330
1F
100
AcDbEntity
  8
0
100
AcDbLine
 10
-2952.013437674224
 20
-823.2771255920122
 30
0.0
 11
-2935.537432358444
 21
-823.2771255920122
 31
0.0
  0
ARC
  5
3B2
330
1F
100
AcDbEntity
  8
0
100
AcDbCircle
 10
-2941.080391047178
 20
-841.5271255370271
 30
0.0
 40
0.8000000000003524
100
AcDbArc
 50
180.0
 51
270.0
  0
ARC
  5
3B3
330
1F
100
AcDbEntity
  8
0
100
AcDbCircle
 10
-2952.42039104718
 20
-841.5271255370264
 30
0.0
 40
0.8000000000009206
100
AcDbArc
 50
270.0
 51
0.0
  0
ARC
  5
3B4
330
1F
100
AcDbEntity
  8
0
100
AcDbCircle
 10
-2943.960391047179
 20
-848.0971255370272
 30
0.0
 40
0.8000000000009066
100
AcDbArc
 50
90.0
 51
180.0
  0
ARC
  5
3B5
330
1F
100
AcDbEntity
  8
0
100
AcDbCircle
 10
-2946.758441047178
 20
-848.1171255370231
 30
0.0
 40
0.7999999999999261
100
AcDbArc
 50
0.0000000002149546
 51
89.99999999963522
  0
ARC
  5
3B6
330
1F
100
AcDbEntity
  8
0
100
AcDbCircle
 10
-2952.558441047178
 20
-848.1171255370263
 30
0.0
 40
0.8000000000031235
100
AcDbArc
 50
89.99999999955706
 51
179.9999999999869
  0
LINE
  5
3B7
330
1F
100
AcDbEntity
  8
0
100
AcDbLine
 10
-2946.758453772247
 20
-847.3171256395467
 30
0.0
 11
-2952.558432743728
 21
-847.3171256395467
 31
0.0
  0
LINE
  5
3B8
330
1F
100
AcDbEntity
  8
0
100
AcDbLine
 10
-2951.620404646575
 20
-829.0471257554791
 30
0.0
 11
-2951.620404646575
 21
-841.5271248581298
 31
0.0
  0
LINE
  5
3B9
330
1F
100
AcDbEntity
  8
0
100
AcDbLine
 10
-2941.880379841506
 20
-829.0471257554791
 30
0.0
 11
-2941.880379841506
 21
-841.5271248581298
 31
0.0
  0
ARC
  5
3BA
330
1F
100
AcDbEntity
  8
0
100
AcDbCircle
 10
-2959.540391047179
 20
-823.457125537026
 30
0.0
 40
0.8000000000000396
100
AcDbArc
 50
180.0000000000065
 51
270.0
  0
ARC
  5
3BB
330
1F
100
AcDbEntity
  8
0
100
AcDbCircle
 10
-2971.470391047179
 20
-829.047125537026
 30
0.0
 40
0.8000000000000396
100
AcDbArc
 50
0.0
 51
90.0
  0
ARC
  5
3BC
330
1F
100
AcDbEntity
  8
0
100
AcDbCircle
 10
-2964.90039104718
 20
-829.0471255370292
 30
0.0
 40
0.8000000000000396
100
AcDbArc
 50
90.0
 51
180.0
  0
ARC
  5
3BD
330
1F
100
AcDbEntity
  8
0
100
AcDbCircle
 10
-2966.110391047178
 20
-822.4771255370281
 30
0.0
 40
0.8000000000009206
100
AcDbArc
 50
270.0
 51
0.0
  0
ARC
  5
3BE
330
1F
100
AcDbEntity
  8
0
100
AcDbCircle
 10
-2962.430391047179
 20
-848.0971255370263
 30
0.0
 40
0.7999999999999829
100
AcDbArc
 50
0.0
 51
90.0
  0
ARC
  5
3BF
330
1F
100
AcDbEntity
  8
0
100
AcDbCircle
 10
-2971.47039104718
 20
-841.527125537026
 30
0.0
 40
0.8000000000009066
100
AcDbArc
 50
270.0
 51
0.0
  0
ARC
  5
3C0
330
1F
100
AcDbEntity
  8
0
100
AcDbCircle
 10
-2974.91039104718
 20
-848.0971255370272
 30
0.0
 40
0.8000000000000396
100
AcDbArc
 50
90.0
 51
180.0
  0
LINE
  5
3C1
330
1F
100
AcDbEntity
  8
0
100
AcDbLine
 10
-2974.910398051918
 20
-847.2971264185794
 30
0.0
 11
-2962.430392430007
 21
-847.2971264185794
 31
0.0
  0
ARC
  5
3C2
330
1F
100
AcDbEntity
  8
0
100
AcDbCircle
 10
-2964.90039104718
 20
-841.5271255370271
 30
0.0
 40
0.8000000000002954
100
AcDbArc
 50
180.0
 51
270.0
  0
LINE
  5
3C3
330
1F
100
AcDbEntity
  8
0
100
AcDbLine
 10
-2970.670391843498
 20
-829.0471257554791
 30
0.0
 11
-2970.670391843498
 21
-841.5271248581298
 31
0.0
  0
LINE
  5
3C4
330
1F
100
AcDbEntity
  8
0
100
AcDbLine
 10
-2965.700392649353
 20
-829.0471257554791
 30
0.0
 11
-2965.700392649353
 21
-841.5271248581298
 31
0.0
  0
LINE
  5
3C5
330
1F
100
AcDbEntity
  8
0
100
AcDbLine
 10
-2964.900379107177
 20
-828.247125251819
 30
0.0
 11
-2952.420388386428
 21
-828.247125251819
 31
0.0
  0
LINE
  5
3C6
330
1F
100
AcDbEntity
  8
0
100
AcDbLine
 10
-2964.900379107177
 20
-842.3271253617889
 30
0.0
 11
-2952.420388386428
 21
-842.3271253617889
 31
0.0
  0
LINE
  5
3C7
330
1F
100
AcDbEntity
  8
0
100
AcDbLine
 10
-2959.540401623428
 20
-824.257125137974
 30
0.0
 11
-2952.8134512164
 21
-824.257125137974
 31
0.0
  0
LINE
  5
3C8
330
1F
100
AcDbEntity
  8
0
100
AcDbLine
 10
-2965.310399458587
 20
-809.9971255200392
 30
0.0
 11
-2965.310399458587
 21
-822.4771255540142
 31
0.0
  0
LINE
  5
3C9
330
1F
100
AcDbEntity
  8
0
100
AcDbLine
 10
-2960.340385363281
 20
-810.0171256723294
 30
0.0
 11
-2960.340385363281
 21
-823.4571255656371
 31
0.0
  0
ARC
  5
3CA
330
1F
100
AcDbEntity
  8
0
100
AcDbCircle
 10
-2934.319595946021
 20
-803.5371255370142
 30
0.0
 40
2.999999999999971
100
AcDbArc
 50
270.0
 51
324.9999999999792
  0
LINE
  5
3CB
330
1F
100
AcDbEntity
  8
0
100
AcDbLine
 10
-2941.080396101654
 20
-828.247125251819
 30
0.0
 11
-2928.600405380905
 21
-828.247125251819
 31
0.0
  0
LINE
  5
3CC
330
1F
100
AcDbEntity
  8
0
100
AcDbLine
 10
-2934.737448618591
 20
-824.257125137974
 30
0.0
 11
-2928.010379002273
 21
-824.257125137974
 31
0.0
  0
LINE
  5
3CD
330
1F
100
AcDbEntity
  8
0
100
AcDbLine
 10
-2931.480382607162
 20
-847.2971264185794
 30
0.0
 11
-2943.960403130233
 21
-847.2971264185794
 31
0.0
  0
LINE
  5
3CE
330
1F
100
AcDbEntity
  8
0
100
AcDbLine
 10
-2941.080396101654
 20
-842.3271253617889
 30
0.0
 11
-2928.600405380905
 21
-842.3271253617889
 31
0.0
  0
LINE
  5
3CF
330
1F
100
AcDbEntity
  8
0
100
AcDbLine
 10
-2928.010379002273
 20
-809.2171256343311
 30
0.0
 11
-2959.540401623428
 21
-809.2171256343311
 31
0.0
  0
ARC
  5
3D0
330
1F
100
AcDbEntity
  8
0
100
AcDbCircle
 10
-2976.456905529769
 20
-799.5971258627811
 30
0.0
 40
2.000000000000034
100
AcDbArc
 50
90.0
 51
144.9999999999791
  0
ARC
  5
3D1
330
1F
100
AcDbEntity
  8
0
100
AcDbCircle
 10
-2978.59039104718
 20
-809.997125537029
 30
0.0
 40
0.8000000000000396
100
AcDbArc
 50
90.0
 51
180.0
  0
ARC
  5
3D2
330
1F
100
AcDbEntity
  8
0
100
AcDbCircle
 10
-2985.16039104718
 20
-809.997125537027
 30
0.0
 40
0.7999999999999829
100
AcDbArc
 50
0.0
 51
90.0
  0
ARC
  5
3D3
330
1F
100
AcDbEntity
  8
0
100
AcDbCircle
 10
-2985.31959594602
 20
-803.5371255370142
 30
0.0
 40
3.000000000000017
100
AcDbArc
 50
270.0
 51
324.9999999999792
  0
LINE
  5
3D4
330
1F
100
AcDbEntity
  8
0
100
AcDbLine
 10
-2997.640390918434
 20
-809.1971254820419
 30
0.0
 11
-2985.160385296524
 21
-809.1971254820419
 31
0.0
  0
LINE
  5
3D5
330
1F
100
AcDbEntity
  8
0
100
AcDbLine
 10
-2978.095208332717
 20
-798.4499726357361
 30
0.0
 11
-2982.862134502113
 21
-805.257854974497
 31
0.0
  0
ARC
  5
3D6
330
1F
100
AcDbEntity
  8
0
100
AcDbCircle
 10
-3007.507691620275
 20
-809.9908250288512
 30
0.0
 40
0.8000000000000023
100
AcDbArc
 50
13.00000000002571
 51
102.9999999999972
  0
LINE
  5
3D7
330
1F
100
AcDbEntity
  8
0
100
AcDbLine
 10
-3019.847793071875
 20
-812.0187182774561
 30
0.0
 11
-3007.687655776152
 21
-809.2113287983263
 31
0.0
  0
ARC
  5
3D8
330
1F
100
AcDbEntity
  8
0
100
AcDbCircle
 10
-2997.64039104718
 20
-809.997125537029
 30
0.0
 40
0.8000000000000396
100
AcDbArc
 50
90.0
 51
180.0
  0
LINE
  5
3D9
330
1F
100
AcDbEntity
  8
0
100
AcDbLine
 10
-3037.577170868557
 20
-806.5371252509251
 30
0.0
 11
-2985.319589302719
 21
-806.5371252509251
 31
0.0
  0
ARC
  5
3DA
330
1F
100
AcDbEntity
  8
0
100
AcDbCircle
 10
-2978.59039104718
 20
-822.4771255370281
 30
0.0
 40
0.8000000000002954
100
AcDbArc
 50
180.0
 51
270.0
  0
ARC
  5
3DB
330
1F
100
AcDbEntity
  8
0
100
AcDbCircle
 10
-2985.16039104718
 20
-822.4771255370281
 30
0.0
 40
0.8000000000009206
100
AcDbArc
 50
270.0
 51
0.0
  0
ARC
  5
3DC
330
1F
100
AcDbEntity
  8
0
100
AcDbCircle
 10
-2983.950391047178
 20
-829.047125537027
 30
0.0
 40
0.8000000000000396
100
AcDbArc
 50
90.0
 51
180.0
  0
LINE
  5
3DD
330
1F
100
AcDbEntity
  8
0
100
AcDbLine
 10
-2997.640390918434
 20
-823.2771255920122
 30
0.0
 11
-2985.160385296524
 21
-823.2771255920122
 31
0.0
  0
ARC
  5
3DE
330
1F
100
AcDbEntity
  8
0
100
AcDbCircle
 10
-2983.950391047178
 20
-841.5271255370271
 30
0.0
 40
0.8000000000002954
100
AcDbArc
 50
180.0
 51
270.0
  0
ARC
  5
3DF
330
1F
100
AcDbEntity
  8
0
100
AcDbCircle
 10
-2981.480391047178
 20
-848.0971255370263
 30
0.0
 40
0.7999999999999547
100
AcDbArc
 50
0.0
 51
90.0
  0
ARC
  5
3E0
330
1F
100
AcDbEntity
  8
0
100
AcDbCircle
 10
-2993.960391047179
 20
-848.0971255370272
 30
0.0
 40
0.8000000000000396
100
AcDbArc
 50
90.0
 51
180.0
  0
LINE
  5
3E1
330
1F
100
AcDbEntity
  8
0
100
AcDbLine
 10
-2993.96038524884
 20
-847.2971264185794
 30
0.0
 11
-2981.480394528091
 21
-847.2971264185794
 31
0.0
  0
LINE
  5
3E2
330
1F
100
AcDbEntity
  8
0
100
AcDbLine
 10
-2984.750394747436
 20
-829.0471257554791
 30
0.0
 11
-2984.750394747436
 21
-841.5271248581298
 31
0.0
  0
ARC
  5
3E3
330
1F
100
AcDbEntity
  8
0
100
AcDbCircle
 10
-3004.700302462063
 20
-822.1509634373722
 30
0.0
 40
0.8000000000000408
100
AcDbArc
 50
282.9999999999973
 51
13.000000000019
  0
ARC
  5
3E4
330
1F
100
AcDbEntity
  8
0
100
AcDbCircle
 10
-3016.860440870583
 20
-824.9583525955831
 30
0.0
 40
0.8000000000000856
100
AcDbArc
 50
193.000000000019
 51
282.9999999999973
  0
ARC
  5
3E5
330
1F
100
AcDbEntity
  8
0
100
AcDbCircle
 10
-3012.662640324574
 20
-830.7320319650211
 30
0.0
 40
0.8000000000000301
100
AcDbArc
 50
13.00000000002571
 51
102.9999999999972
  0
LINE
  5
3E6
330
1F
100
AcDbEntity
  8
0
100
AcDbLine
 10
-3016.680476754317
 20
-825.737849050553
 30
0.0
 11
-3004.520339458594
 21
-822.930459571423
 31
0.0
  0
ARC
  5
3E7
330
1F
100
AcDbEntity
  8
0
100
AcDbCircle
 10
-3004.531202897252
 20
-848.4058349683891
 30
0.0
 40
0.7999999999999993
100
AcDbArc
 50
13.00000000002571
 51
102.9999999999972
  0
ARC
  5
3E8
330
1F
100
AcDbEntity
  8
0
100
AcDbCircle
 10
-3016.691341305772
 20
-851.2132241266018
 30
0.0
 40
0.7999999999999928
100
AcDbArc
 50
102.9999999999972
 51
193.000000000019
  0
LINE
  5
3E9
330
1F
100
AcDbEntity
  8
0
100
AcDbLine
 10
-3016.871301024565
 20
-850.4337288303091
 30
0.0
 11
-3004.711163728841
 21
-847.6263388855175
 31
0.0
  0
ARC
  5
3EA
330
1F
100
AcDbEntity
  8
0
100
AcDbCircle
 10
-3009.855251166364
 20
-842.8921703735412
 30
0.0
 40
0.8000000000000769
100
AcDbArc
 50
282.9999999999706
 51
13.000000000019
  0
LINE
  5
3EB
330
1F
100
AcDbEntity
  8
0
100
AcDbLine
 10
-3011.883137314926
 20
-830.5520715055781
 30
0.0
 11
-3009.075758546004
 21
-842.7122097326233
 31
0.0
  0
ARC
  5
3EC
330
1F
100
AcDbEntity
  8
0
100
AcDbCircle
 10
-2997.64039104718
 20
-822.4771255370281
 30
0.0
 40
0.8000000000002954
100
AcDbArc
 50
180.0
 51
270.0
  0
LINE
  5
3ED
330
1F
100
AcDbEntity
  8
0
100
AcDbLine
 10
-3006.728199809204
 20
-809.8108639804451
 30
0.0
 11
-3003.920806139122
 21
-821.9710026731512
 31
0.0
  0
LINE
  5
3EE
330
1F
100
AcDbEntity
  8
0
100
AcDbLine
 10
-2979.390387461364
 20
-809.9971255200392
 30
0.0
 11
-2979.390387461364
 21
-822.4771255540142
 31
0.0
  0
LINE
  5
3EF
330
1F
100
AcDbEntity
  8
0
100
AcDbLine
 10
-2984.360386655509
 20
-809.9971255200392
 30
0.0
 11
-2984.360386655509
 21
-822.4771255540142
 31
0.0
  0
LINE
  5
3F0
330
1F
100
AcDbEntity
  8
0
100
AcDbLine
 10
-2998.440389559448
 20
-809.9971255200392
 30
0.0
 11
-2998.440389559448
 21
-822.4771255540142
 31
0.0
  0
ARC
  5
3F1
330
1F
100
AcDbEntity
  8
0
100
AcDbCircle
 10
-3026.069441354434
 20
-814.2761426141023
 30
0.0
 40
0.799999999999975
100
AcDbArc
 50
13.00000000002571
 51
102.9999999999972
  0
ARC
  5
3F2
330
1F
100
AcDbEntity
  8
0
100
AcDbCircle
 10
-3038.229579762955
 20
-817.0835317723142
 30
0.0
 40
0.8000000000000449
100
AcDbArc
 50
102.9999999999972
 51
193.000000000019
  0
LINE
  5
3F3
330
1F
100
AcDbEntity
  8
0
100
AcDbLine
 10
-3038.409543722281
 20
-816.3040357192832
 30
0.0
 11
-3026.249406426558
 21
-813.4966466439681
 31
0.0
  0
ARC
  5
3F4
330
1F
100
AcDbEntity
  8
0
100
AcDbCircle
 10
-3044.631191088592
 20
-818.561460199352
 30
0.0
 40
0.8000000000000088
100
AcDbArc
 50
13.00000000002571
 51
102.9999999999972
  0
ARC
  5
3F5
330
1F
100
AcDbEntity
  8
0
100
AcDbCircle
 10
-3023.262052196222
 20
-826.436281022622
 30
0.0
 40
0.8000000000000323
100
AcDbArc
 50
282.9999999999973
 51
13.00000000001229
  0
ARC
  5
3F6
330
1F
100
AcDbEntity
  8
0
100
AcDbCircle
 10
-3024.822778733093
 20
-833.539421123234
 30
0.0
 40
0.8000000000000323
100
AcDbArc
 50
102.9999999999972
 51
193.000000000019
  0
ARC
  5
3F7
330
1F
100
AcDbEntity
  8
0
100
AcDbCircle
 10
-3035.422190604742
 20
-829.2436701808341
 30
0.0
 40
0.8000000000000301
100
AcDbArc
 50
193.000000000019
 51
282.9999999999973
  0
ARC
  5
3F8
330
1F
100
AcDbEntity
  8
0
100
AcDbCircle
 10
-3041.823801930382
 20
-830.7215986078722
 30
0.0
 40
0.8000000000000833
100
AcDbArc
 50
282.9999999999973
 51
13.000000000019
  0
ARC
  5
3F9
330
1F
100
AcDbEntity
  8
0
100
AcDbCircle
 10
-3031.224390058733
 20
-835.0173495502732
 30
0.0
 40
0.8000000000000222
100
AcDbArc
 50
13.00000000002571
 51
102.9999999999972
  0
LINE
  5
3FA
330
1F
100
AcDbEntity
  8
0
100
AcDbLine
 10
-3035.242227404724
 20
-830.023165964873
 30
0.0
 11
-3023.082090109
 21
-827.2157769514041
 31
0.0
  0
ARC
  5
3FB
330
1F
100
AcDbEntity
  8
0
100
AcDbCircle
 10
-3022.015389574882
 20
-845.6995595317533
 30
0.0
 40
0.8000000000000577
100
AcDbArc
 50
193.000000000019
 51
282.9999999999973
  0
ARC
  5
3FC
330
1F
100
AcDbEntity
  8
0
100
AcDbCircle
 10
-3023.092952631411
 20
-852.6911525536396
 30
0.0
 40
0.8000000000000301
100
AcDbArc
 50
13.00000000002571
 51
102.9999999999972
  0
ARC
  5
3FD
330
1F
100
AcDbEntity
  8
0
100
AcDbCircle
 10
-3028.417000900522
 20
-847.1774879587917
 30
0.0
 40
0.8000000000000076
100
AcDbArc
 50
282.9999999999973
 51
13.000000000019
  0
ARC
  5
3FE
330
1F
100
AcDbEntity
  8
0
100
AcDbCircle
 10
-3040.577139309041
 20
-849.9848771170038
 30
0.0
 40
0.7999999999999928
100
AcDbArc
 50
193.000000000019
 51
282.9999999999973
  0
LINE
  5
3FF
330
1F
100
AcDbEntity
  8
0
100
AcDbLine
 10
-3040.397179811606
 20
-850.7643744213298
 30
0.0
 11
-3028.237042515883
 21
-847.9569844765379
 31
0.0
  0
LINE
  5
400
330
1F
100
AcDbEntity
  8
0
100
AcDbLine
 10
-3025.602278798233
 20
-833.7193813038782
 30
0.0
 11
-3022.79488512815
 21
-845.8795204622465
 31
0.0
  0
LINE
  5
401
330
1F
100
AcDbEntity
  8
0
100
AcDbLine
 10
-3030.444887965332
 20
-834.8373893512212
 30
0.0
 11
-3027.637509196411
 21
-846.9975266469432
 31
0.0
  0
ARC
  5
402
330
1F
100
AcDbEntity
  8
0
100
AcDbCircle
 10
-3056.791329497112
 20
-821.3688493575652
 30
0.0
 40
0.8000000000000323
100
AcDbArc
 50
102.9999999999972
 51
193.000000000019
  0
ARC
  5
403
330
1F
100
AcDbEntity
  8
0
100
AcDbCircle
 10
-3063.192940822752
 20
-822.8467777846041
 30
0.0
 40
0.8000000000000023
100
AcDbArc
 50
13.00000000002571
 51
102.9999999999972
  0
ARC
  5
404
330
1F
100
AcDbEntity
  8
0
100
AcDbCircle
 10
-3053.983940338901
 20
-833.5289877660841
 30
0.0
 40
0.8000000000000715
100
AcDbArc
 50
193.000000000019
 51
282.9999999999973
  0
LINE
  5
405
330
1F
100
AcDbEntity
  8
0
100
AcDbLine
 10
-3062.41345176042
 20
-822.66681705171
 30
0.0
 11
-3059.606058090337
 21
-834.826954813095
 31
0.0
  0
LINE
  5
406
330
1F
100
AcDbEntity
  8
0
100
AcDbLine
 10
-3057.570827692159
 20
-821.5488104013532
 30
0.0
 11
-3054.763434022078
 21
-833.7089486283971
 31
0.0
  0
ARC
  5
407
330
1F
100
AcDbEntity
  8
0
100
AcDbCircle
 10
-3043.384528467251
 20
-837.8247387084847
 30
0.0
 40
0.7999999999999897
100
AcDbArc
 50
102.9999999999972
 51
193.000000000019
  0
ARC
  5
408
330
1F
100
AcDbEntity
  8
0
100
AcDbCircle
 10
-3049.786139792892
 20
-839.3026671355224
 30
0.0
 40
0.8000000000000577
100
AcDbArc
 50
13.00000000002571
 51
102.9999999999972
  0
ARC
  5
409
330
1F
100
AcDbEntity
  8
0
100
AcDbCircle
 10
-3046.978750634678
 20
-851.4628055440423
 30
0.0
 40
0.8000000000000076
100
AcDbArc
 50
282.9999999999973
 51
13.000000000019
  0
LINE
  5
40A
330
1F
100
AcDbEntity
  8
0
100
AcDbLine
 10
-3049.006638615737
 20
-839.1227062655403
 30
0.0
 11
-3046.199259846817
 21
-851.2828454239086
 31
0.0
  0
ARC
  5
40B
330
1F
100
AcDbEntity
  8
0
100
AcDbCircle
 10
-3061.946278201411
 20
-842.1100562937347
 30
0.0
 40
0.8000000000000236
100
AcDbArc
 50
102.9999999999972
 51
193.000000000019
  0
LINE
  5
40C
330
1F
100
AcDbEntity
  8
0
100
AcDbLine
 10
-3062.126231878409
 20
-841.3305610282137
 30
0.0
 11
-3049.966094582686
 21
-838.5231710834219
 31
0.0
  0
ARC
  5
40D
330
1F
100
AcDbEntity
  8
0
100
AcDbCircle
 10
-3060.385551664541
 20
-835.0069161931232
 30
0.0
 40
0.8000000000000353
100
AcDbArc
 50
282.9999999999706
 51
13.000000000019
  0
LINE
  5
40E
330
1F
100
AcDbEntity
  8
0
100
AcDbLine
 10
-3043.564496129164
 20
-837.045242251249
 30
0.0
 11
-3031.40434393228
 21
-834.2378541691022
 31
0.0
  0
LINE
  5
40F
330
1F
100
AcDbEntity
  8
0
100
AcDbLine
 10
-3044.164029448638
 20
-838.0047000808431
 30
0.0
 11
-3041.356635778555
 21
-850.1648373765663
 31
0.0
  0
LINE
  5
410
330
1F
100
AcDbEntity
  8
0
100
AcDbLine
 10
-3053.80397805513
 20
-834.3084838105172
 30
0.0
 11
-3041.643840759407
 21
-831.5010947970479
 31
0.0
  0
LINE
  5
411
330
1F
100
AcDbEntity
  8
0
100
AcDbLine
 10
-3056.971294372687
 20
-820.589353503081
 30
0.0
 11
-3044.811157076964
 21
-817.781964140366
 31
0.0
  0
LINE
  5
412
330
1F
100
AcDbEntity
  8
0
100
AcDbLine
 10
-3043.851701110015
 20
-818.3814994388981
 30
0.0
 11
-3041.044307439932
 21
-830.5416378987752
 31
0.0
  0
LINE
  5
413
330
1F
100
AcDbEntity
  8
0
100
AcDbLine
 10
-3039.009077041753
 20
-817.2634926139171
 30
0.0
 11
-3036.201683371672
 21
-829.423630782756
 31
0.0
  0
LINE
  5
414
330
1F
100
AcDbEntity
  8
0
100
AcDbLine
 10
-3025.28995045961
 20
-814.0961818260871
 30
0.0
 11
-3022.482556789527
 21
-826.2563200531321
 31
0.0
  0
LINE
  5
415
330
1F
100
AcDbEntity
  8
0
100
AcDbLine
 10
-3025.002745478758
 20
-832.7599253369292
 30
0.0
 11
-3012.842608183035
 21
-829.95253632346
 31
0.0
  0
LINE
  5
416
330
1F
100
AcDbEntity
  8
0
100
AcDbLine
 10
-3021.8354291612
 20
-846.4790556443649
 30
0.0
 11
-3009.675291865477
 21
-843.6716656995727
 31
0.0
  0
ARC
  5
417
330
1F
100
AcDbEntity
  8
0
100
AcDbCircle
 10
-3019.667830028795
 20
-812.798214187063
 30
0.0
 40
0.7999999999999961
100
AcDbArc
 50
102.9999999999972
 51
193.000000000019
  0
LINE
  5
418
330
1F
100
AcDbEntity
  8
0
100
AcDbLine
 10
-3020.447326391348
 20
-812.9781749428969
 30
0.0
 11
-3017.639932721266
 21
-825.1383138684362
 31
0.0
  0
LINE
  5
419
330
1F
100
AcDbEntity
  8
0
100
AcDbLine
 10
-2983.950396106422
 20
-828.247125251819
 30
0.0
 11
-2971.470390484512
 21
-828.247125251819
 31
0.0
  0
LINE
  5
41A
330
1F
100
AcDbEntity
  8
0
100
AcDbLine
 10
-2978.59038882035
 20
-809.1971254820419
 30
0.0
 11
-2966.11038319844
 21
-809.1971254820419
 31
0.0
  0
LINE
  5
41B
330
1F
100
AcDbEntity
  8
0
100
AcDbLine
 10
-2983.950396106422
 20
-842.3271253617889
 30
0.0
 11
-2971.470390484512
 21
-842.3271253617889
 31
0.0
  0
LINE
  5
41C
330
1F
100
AcDbEntity
  8
0
100
AcDbLine
 10
-2978.59038882035
 20
-823.2771255920122
 30
0.0
 11
-2966.11038319844
 21
-823.2771255920122
 31
0.0
  0
LINE
  5
41D
330
1F
100
AcDbEntity
  8
0
100
AcDbLine
 10
-2976.45690016526
 20
-797.5971251639031
 30
0.0
 11
-2974.896016047174
 21
-797.5971251639031
 31
0.0
  0
LINE
  5
41E
330
1F
100
AcDbEntity
  8
0
100
AcDbLine
 10
-2891.450380013168
 20
-818.1558755372131
 30
0.0
 11
-2887.450401709259
 21
-818.1558755372131
 31
0.0
  0
ARC
  5
41F
330
1F
100
AcDbEntity
  8
0
100
AcDbCircle
 10
-2889.910391047175
 20
-845.7158755370258
 30
0.0
 40
0.8000000000000111
100
AcDbArc
 50
0.0
 51
90.0
  0
ARC
  5
420
330
1F
100
AcDbEntity
  8
0
100
AcDbCircle
 10
-2902.390391047176
 20
-858.1958755370267
 30
0.0
 40
0.8000000000002387
100
AcDbArc
 50
180.0
 51
270.0
  0
LINE
  5
421
330
1F
100
AcDbEntity
  8
0
100
AcDbLine
 10
-2902.390395329177
 20
-858.9958771976119
 30
0.0
 11
-2889.910404608428
 21
-858.9958771976119
 31
0.0
  0
ARC
  5
422
330
1F
100
AcDbEntity
  8
0
100
AcDbCircle
 10
-2896.351641047178
 20
-886.1971255370264
 30
0.0
 40
0.8000000000000111
100
AcDbArc
 50
0.0
 51
90.0
  0
ARC
  5
423
330
1F
100
AcDbEntity
  8
0
100
AcDbCircle
 10
-2908.831641047179
 20
-886.1971255370272
 30
0.0
 40
0.8000000000000254
100
AcDbArc
 50
90.0
 51
180.0
  0
LINE
  5
424
330
1F
100
AcDbEntity
  8
0
100
AcDbLine
 10
-2908.831630871475
 20
-885.3971250268108
 30
0.0
 11
-2896.351640150726
 21
-885.3971250268108
 31
0.0
  0
ARC
  5
425
330
1F
100
AcDbEntity
  8
0
100
AcDbCircle
 10
-2915.401641047179
 20
-867.1471255370263
 30
0.0
 40
0.8000000000000682
100
AcDbArc
 50
0.0
 51
90.0
  0
ARC
  5
426
330
1F
100
AcDbEntity
  8
0
100
AcDbCircle
 10
-2922.882441047181
 20
-861.5571255370261
 30
0.0
 40
0.8000000000011482
100
AcDbArc
 50
270.0
 51
359.9999999999869
  0
ARC
  5
427
330
1F
100
AcDbEntity
  8
0
100
AcDbCircle
 10
-2928.682441047181
 20
-861.5571255370264
 30
0.0
 40
0.8000000000000254
100
AcDbArc
 50
180.0
 51
270.0
  0
ARC
  5
428
330
1F
100
AcDbEntity
  8
0
100
AcDbCircle
 10
-2927.881641047179
 20
-867.1471255370272
 30
0.0
 40
0.8000000000000254
100
AcDbArc
 50
90.0
 51
180.0
  0
LINE
  5
429
330
1F
100
AcDbEntity
  8
0
100
AcDbLine
 10
-2928.682451174438
 20
-862.3571246775275
 30
0.0
 11
-2922.882442400634
 21
-862.3571246775275
 31
0.0
  0
ARC
  5
42A
330
1F
100
AcDbEntity
  8
0
100
AcDbCircle
 10
-2931.48039104718
 20
-860.5771255370264
 30
0.0
 40
0.8000000000000682
100
AcDbArc
 50
270.0
 51
0.0
  0
LINE
  5
42B
330
1F
100
AcDbEntity
  8
0
100
AcDbLine
 10
-2927.881632969558
 20
-866.3471266540176
 30
0.0
 11
-2915.401642248809
 21
-866.3471266540176
 31
0.0
  0
ARC
  5
42C
330
1F
100
AcDbEntity
  8
0
100
AcDbCircle
 10
-2915.401641047179
 20
-879.6271255370264
 30
0.0
 40
0.8000000000009066
100
AcDbArc
 50
270.0
 51
0.0
  0
ARC
  5
42D
330
1F
100
AcDbEntity
  8
0
100
AcDbCircle
 10
-2915.401641047179
 20
-886.1971255370264
 30
0.0
 40
0.8000000000000682
100
AcDbArc
 50
0.0
 51
90.0
  0
ARC
  5
42E
330
1F
100
AcDbEntity
  8
0
100
AcDbCircle
 10
-2927.881641047179
 20
-879.6271255370271
 30
0.0
 40
0.8000000000002954
100
AcDbArc
 50
180.0
 51
270.0
  0
ARC
  5
42F
330
1F
100
AcDbEntity
  8
0
100
AcDbCircle
 10
-2927.881641047179
 20
-886.1971255370272
 30
0.0
 40
0.8000000000000254
100
AcDbArc
 50
90.0
 51
180.0
  0
LINE
  5
430
330
1F
100
AcDbEntity
  8
0
100
AcDbLine
 10
-2927.881632969558
 20
-885.3971250268108
 30
0.0
 11
-2915.401642248809
 21
-885.3971250268108
 31
0.0
  0
LINE
  5
431
330
1F
100
AcDbEntity
  8
0
100
AcDbLine
 10
-2927.881632969558
 20
-880.4271258326654
 30
0.0
 11
-2915.401642248809
 21
-880.4271258326654
 31
0.0
  0
LINE
  5
432
330
1F
100
AcDbEntity
  8
0
100
AcDbLine
 10
-2928.681646511734
 20
-867.1471252950317
 30
0.0
 11
-2928.681646511734
 21
-879.6271271916515
 31
0.0
  0
LINE
  5
433
330
1F
100
AcDbEntity
  8
0
100
AcDbLine
 10
-2914.601628706634
 20
-867.1471252950317
 30
0.0
 11
-2914.601628706634
 21
-879.6271271916515
 31
0.0
  0
LINE
  5
434
330
1F
100
AcDbEntity
  8
0
100
AcDbLine
 10
-2893.258635924041
 20
-902.1371267648824
 30
0.0
 11
-2889.450405762374
 21
-902.1371267648824
 31
0.0
  0
ARC
  5
435
330
1F
100
AcDbEntity
  8
0
100
AcDbCircle
 10
-2896.351641047178
 20
-898.6771255370261
 30
0.0
 40
0.8000000000010203
100
AcDbArc
 50
270.0
 51
0.0
  0
ARC
  5
436
330
1F
100
AcDbEntity
  8
0
100
AcDbCircle
 10
-2908.831641047179
 20
-898.6771255370271
 30
0.0
 40
0.8000000000002954
100
AcDbArc
 50
180.0
 51
270.0
  0
LINE
  5
437
330
1F
100
AcDbEntity
  8
0
100
AcDbLine
 10
-2908.831630871475
 20
-899.477127930749
 30
0.0
 11
-2896.351640150726
 21
-899.477127930749
 31
0.0
  0
LINE
  5
438
330
1F
100
AcDbEntity
  8
0
100
AcDbLine
 10
-2899.796818421066
 20
-909.2442802997714
 30
0.0
 11
-2895.716105625808
 21
-903.4163989039548
 31
0.0
  0
LINE
  5
439
330
1F
100
AcDbEntity
  8
0
100
AcDbLine
 10
-2901.435111687362
 20
-910.0971259089595
 30
0.0
 11
-2902.996017008296
 21
-910.0971259089595
 31
0.0
  0
LINE
  5
43A
330
1F
100
AcDbEntity
  8
0
100
AcDbLine
 10
-2903.996017008296
 20
-906.9971255370267
 30
0.0
 11
-2903.996017008296
 21
-909.0971259089595
 31
0.0
  0
LINE
  5
43B
330
1F
100
AcDbEntity
  8
0
100
AcDbLine
 10
-2908.896016047171
 20
-906.9971262519974
 30
0.0
 11
-2908.896016047172
 21
-909.0971259089597
 31
0.0
  0
ARC
  5
43C
330
1F
100
AcDbEntity
  8
0
100
AcDbCircle
 10
-2906.446016047171
 20
-906.9971255370267
 30
0.0
 40
2.45
100
AcDbArc
 50
0.0
 51
180.0
  0
ARC
  5
43D
330
1F
100
AcDbEntity
  8
0
100
AcDbCircle
 10
-2901.435126564575
 20
-908.0971252112608
 30
0.0
 40
2.000000000000006
100
AcDbArc
 50
270.0
 51
324.9999999999792
  0
ARC
  5
43E
330
1F
100
AcDbEntity
  8
0
100
AcDbCircle
 10
-2893.25863953577
 20
-905.1371255370266
 30
0.0
 40
3.000000000000026
100
AcDbArc
 50
90.0
 51
144.9999999999791
  0
ARC
  5
43F
330
1F
100
AcDbEntity
  8
0
100
AcDbCircle
 10
-2915.401641047179
 20
-898.6771255370261
 30
0.0
 40
0.8000000000010203
100
AcDbArc
 50
270.0
 51
0.0
  0
ARC
  5
440
330
1F
100
AcDbEntity
  8
0
100
AcDbCircle
 10
-2927.881641047179
 20
-898.6771255370271
 30
0.0
 40
0.8000000000002954
100
AcDbArc
 50
180.0
 51
270.0
  0
LINE
  5
441
330
1F
100
AcDbEntity
  8
0
100
AcDbLine
 10
-2927.881632969558
 20
-899.477127930749
 30
0.0
 11
-2915.401642248809
 21
-899.477127930749
 31
0.0
  0
ARC
  5
442
330
1F
100
AcDbEntity
  8
0
100
AcDbCircle
 10
-2911.453480976996
 20
-908.0971252112615
 30
0.0
 40
1.999999999999911
100
AcDbArc
 50
215.0000000000208
 51
270.0
  0
LINE
  5
443
330
1F
100
AcDbEntity
  8
0
100
AcDbLine
 10
-2913.091783449829
 20
-909.2442802997714
 30
0.0
 11
-2917.172526047409
 21
-903.4163989039548
 31
0.0
  0
ARC
  5
444
330
1F
100
AcDbEntity
  8
0
100
AcDbCircle
 10
-2919.629968005801
 20
-905.1371255370268
 30
0.0
 40
3.000000000000013
100
AcDbArc
 50
35.00000000002084
 51
90.0
  0
LINE
  5
445
330
1F
100
AcDbEntity
  8
0
100
AcDbLine
 10
-2909.896016047172
 20
-910.0971259089599
 30
0.0
 11
-2911.453490183532
 21
-910.0971259089595
 31
0.0
  0
LINE
  5
446
330
1F
100
AcDbEntity
  8
0
100
AcDbLine
 10
-2909.63164441365
 20
-886.1971236678249
 30
0.0
 11
-2909.63164441365
 21
-898.6771218391544
 31
0.0
  0
LINE
  5
447
330
1F
100
AcDbEntity
  8
0
100
AcDbLine
 10
-2895.551626608551
 20
-886.1971236678249
 30
0.0
 11
-2895.551626608551
 21
-898.6771218391544
 31
0.0
  0
LINE
  5
448
330
1F
100
AcDbEntity
  8
0
100
AcDbLine
 10
-2928.681646511734
 20
-886.1971236678249
 30
0.0
 11
-2928.681646511734
 21
-898.6771218391544
 31
0.0
  0
LINE
  5
449
330
1F
100
AcDbEntity
  8
0
100
AcDbLine
 10
-2914.601628706634
 20
-886.1971236678249
 30
0.0
 11
-2914.601628706634
 21
-898.6771218391544
 31
0.0
  0
ARC
  5
44A
330
1F
100
AcDbEntity
  8
0
100
AcDbCircle
 10
-2941.595391047179
 20
-867.1471255370263
 30
0.0
 40
0.8000000000000111
100
AcDbArc
 50
0.0
 51
90.0
  0
ARC
  5
44B
330
1F
100
AcDbEntity
  8
0
100
AcDbCircle
 10
-2946.75844104718
 20
-861.5571255370261
 30
0.0
 40
0.8000000000010912
100
AcDbArc
 50
270.0
 51
359.9999999999869
  0
ARC
  5
44C
330
1F
100
AcDbEntity
  8
0
100
AcDbCircle
 10
-2952.55844104718
 20
-861.5571255370264
 30
0.0
 40
0.8000000000000254
100
AcDbArc
 50
180.0
 51
270.0
  0
LINE
  5
44D
330
1F
100
AcDbEntity
  8
0
100
AcDbLine
 10
-2952.558432743728
 20
-862.3571246775275
 30
0.0
 11
-2946.758453772247
 21
-862.3571246775275
 31
0.0
  0
ARC
  5
44E
330
1F
100
AcDbEntity
  8
0
100
AcDbCircle
 10
-2943.960391047181
 20
-860.5771255370274
 30
0.0
 40
0.8000000000000111
100
AcDbArc
 50
180.0
 51
270.0
  0
LINE
  5
44F
330
1F
100
AcDbEntity
  8
0
100
AcDbLine
 10
-2954.075400755584
 20
-866.3471266540176
 30
0.0
 11
-2941.595380232513
 21
-866.3471266540176
 31
0.0
  0
ARC
  5
450
330
1F
100
AcDbEntity
  8
0
100
AcDbCircle
 10
-2934.451641047179
 20
-886.1971255370264
 30
0.0
 40
0.8000000000000682
100
AcDbArc
 50
0.0
 51
90.0
  0
ARC
  5
451
330
1F
100
AcDbEntity
  8
0
100
AcDbCircle
 10
-2941.595391047179
 20
-879.627125537026
 30
0.0
 40
0.8000000000010203
100
AcDbArc
 50
270.0
 51
0.0
  0
ARC
  5
452
330
1F
100
AcDbEntity
  8
0
100
AcDbCircle
 10
-2946.93164104718
 20
-886.1971255370272
 30
0.0
 40
0.8000000000000254
100
AcDbArc
 50
90.0
 51
180.0
  0
LINE
  5
453
330
1F
100
AcDbEntity
  8
0
100
AcDbLine
 10
-2946.931635067642
 20
-885.3971250268108
 30
0.0
 11
-2934.451644346893
 21
-885.3971250268108
 31
0.0
  0
LINE
  5
454
330
1F
100
AcDbEntity
  8
0
100
AcDbLine
 10
-2954.075400755584
 20
-880.4271258326654
 30
0.0
 11
-2941.595380232513
 21
-880.4271258326654
 31
0.0
  0
LINE
  5
455
330
1F
100
AcDbEntity
  8
0
100
AcDbLine
 10
-2940.79539649266
 20
-867.1471252950317
 30
0.0
 11
-2940.79539649266
 21
-879.6271271916515
 31
0.0
  0
ARC
  5
456
330
1F
100
AcDbEntity
  8
0
100
AcDbCircle
 10
-2962.430391047179
 20
-860.5771255370264
 30
0.0
 40
0.8000000000010203
100
AcDbArc
 50
270.0
 51
0.0
  0
ARC
  5
457
330
1F
100
AcDbEntity
  8
0
100
AcDbCircle
 10
-2967.790391047179
 20
-867.1471255370263
 30
0.0
 40
0.8000000000000682
100
AcDbArc
 50
0.0
 51
90.0
  0
ARC
  5
458
330
1F
100
AcDbEntity
  8
0
100
AcDbCircle
 10
-2974.91039104718
 20
-860.5771255370271
 30
0.0
 40
0.8000000000003241
100
AcDbArc
 50
180.0
 51
270.0
  0
LINE
  5
459
330
1F
100
AcDbEntity
  8
0
100
AcDbLine
 10
-2974.910398051918
 20
-861.3771237345821
 30
0.0
 11
-2962.430392430007
 21
-861.3771237345821
 31
0.0
  0
ARC
  5
45A
330
1F
100
AcDbEntity
  8
0
100
AcDbCircle
 10
-2958.264141047183
 20
-886.1971255370264
 30
0.0
 40
0.8000000000000111
100
AcDbArc
 50
0.0
 51
90.0
  0
ARC
  5
45B
330
1F
100
AcDbEntity
  8
0
100
AcDbCircle
 10
-2967.790391047179
 20
-879.6271255370266
 30
0.0
 40
0.8000000000009206
100
AcDbArc
 50
270.0
 51
0.0
  0
ARC
  5
45C
330
1F
100
AcDbEntity
  8
0
100
AcDbCircle
 10
-2970.744141047183
 20
-886.1971255370272
 30
0.0
 40
0.8000000000000254
100
AcDbArc
 50
90.0
 51
180.0
  0
LINE
  5
45D
330
1F
100
AcDbEntity
  8
0
100
AcDbLine
 10
-2970.744137690246
 20
-885.3971250268108
 30
0.0
 11
-2958.264146969497
 21
-885.3971250268108
 31
0.0
  0
LINE
  5
45E
330
1F
100
AcDbEntity
  8
0
100
AcDbLine
 10
-2954.875384495437
 20
-867.1471252950317
 30
0.0
 11
-2954.875384495437
 21
-879.6271271916515
 31
0.0
  0
LINE
  5
45F
330
1F
100
AcDbEntity
  8
0
100
AcDbLine
 10
-2966.990386173904
 20
-867.1471252950317
 30
0.0
 11
-2966.990386173904
 21
-879.6271271916515
 31
0.0
  0
ARC
  5
460
330
1F
100
AcDbEntity
  8
0
100
AcDbCircle
 10
-2954.07539104718
 20
-867.1471255370271
 30
0.0
 40
0.8000000000000254
100
AcDbArc
 50
90.0
 51
180.0
  0
ARC
  5
461
330
1F
100
AcDbEntity
  8
0
100
AcDbCircle
 10
-2954.07539104718
 20
-879.6271255370271
 30
0.0
 40
0.8000000000002954
100
AcDbArc
 50
180.0
 51
270.0
  0
ARC
  5
462
330
1F
100
AcDbEntity
  8
0
100
AcDbCircle
 10
-2934.451641047179
 20
-898.6771255370261
 30
0.0
 40
0.8000000000010203
100
AcDbArc
 50
270.0
 51
0.0
  0
ARC
  5
463
330
1F
100
AcDbEntity
  8
0
100
AcDbCircle
 10
-2946.93164104718
 20
-898.6771255370271
 30
0.0
 40
0.8000000000002954
100
AcDbArc
 50
180.0
 51
270.0
  0
LINE
  5
464
330
1F
100
AcDbEntity
  8
0
100
AcDbLine
 10
-2946.931635067642
 20
-899.477127930749
 30
0.0
 11
-2934.451644346893
 21
-899.477127930749
 31
0.0
  0
LINE
  5
465
330
1F
100
AcDbEntity
  8
0
100
AcDbLine
 10
-2952.796818649351
 20
-909.2442761993218
 30
0.0
 11
-2948.71610872525
 21
-903.4163989039548
 31
0.0
  0
ARC
  5
466
330
1F
100
AcDbEntity
  8
0
100
AcDbCircle
 10
-2946.258639535768
 20
-905.1371255370268
 30
0.0
 40
3.000000000000031
100
AcDbArc
 50
90.0
 51
144.9999999999791
  0
ARC
  5
467
330
1F
100
AcDbEntity
  8
0
100
AcDbCircle
 10
-2958.264141047183
 20
-898.6771255370261
 30
0.0
 40
0.8000000000010203
100
AcDbArc
 50
270.0
 51
0.0
  0
ARC
  5
468
330
1F
100
AcDbEntity
  8
0
100
AcDbCircle
 10
-2970.744141047183
 20
-898.6771255370271
 30
0.0
 40
0.8000000000002954
100
AcDbArc
 50
180.0
 51
270.0
  0
LINE
  5
469
330
1F
100
AcDbEntity
  8
0
100
AcDbLine
 10
-2970.744137690246
 20
-899.477127930749
 30
0.0
 11
-2958.264146969497
 21
-899.477127930749
 31
0.0
  0
LINE
  5
46A
330
1F
100
AcDbEntity
  8
0
100
AcDbLine
 10
-2956.99602010774
 20
-906.9971255370267
 30
0.0
 11
-2956.996020107737
 21
-909.0971259089597
 31
0.0
  0
LINE
  5
46B
330
1F
100
AcDbEntity
  8
0
100
AcDbLine
 10
-2962.896019146612
 20
-910.0971259089595
 30
0.0
 11
-2964.453493282974
 21
-910.0971259089595
 31
0.0
  0
LINE
  5
46C
330
1F
100
AcDbEntity
  8
0
100
AcDbLine
 10
-2961.896019146612
 20
-906.9971262519974
 30
0.0
 11
-2961.896019146612
 21
-909.0971259089595
 31
0.0
  0
ARC
  5
46D
330
1F
100
AcDbEntity
  8
0
100
AcDbCircle
 10
-2959.44601604717
 20
-906.9971255370267
 30
0.0
 40
2.45
100
AcDbArc
 50
0.0
 51
180.0
  0
LINE
  5
46E
330
1F
100
AcDbEntity
  8
0
100
AcDbLine
 10
-2966.09178654927
 20
-909.2442802997714
 30
0.0
 11
-2970.172514245689
 21
-903.4163989039548
 31
0.0
  0
ARC
  5
46F
330
1F
100
AcDbEntity
  8
0
100
AcDbCircle
 10
-2964.453480976994
 20
-908.0971252112611
 30
0.0
 40
2.000000000000111
100
AcDbArc
 50
215.0000000000208
 51
270.0
  0
ARC
  5
470
330
1F
100
AcDbEntity
  8
0
100
AcDbCircle
 10
-2972.629968005798
 20
-905.1371255370268
 30
0.0
 40
3.000000000000015
100
AcDbArc
 50
35.00000000002084
 51
90.0
  0
LINE
  5
471
330
1F
100
AcDbEntity
  8
0
100
AcDbLine
 10
-2954.4351245461
 20
-910.0971259089599
 30
0.0
 11
-2955.996020107737
 21
-910.0971259089599
 31
0.0
  0
LINE
  5
472
330
1F
100
AcDbEntity
  8
0
100
AcDbLine
 10
-2947.731648609817
 20
-886.1971236678249
 30
0.0
 11
-2947.731648609817
 21
-898.6771218391544
 31
0.0
  0
LINE
  5
473
330
1F
100
AcDbEntity
  8
0
100
AcDbLine
 10
-2933.651630804718
 20
-886.1971236678249
 30
0.0
 11
-2933.651630804718
 21
-898.6771218391544
 31
0.0
  0
LINE
  5
474
330
1F
100
AcDbEntity
  8
0
100
AcDbLine
 10
-2971.54413633126
 20
-886.1971236678249
 30
0.0
 11
-2971.54413633126
 21
-898.6771218391544
 31
0.0
  0
LINE
  5
475
330
1F
100
AcDbEntity
  8
0
100
AcDbLine
 10
-2957.464133427322
 20
-886.1971236678249
 30
0.0
 11
-2957.464133427322
 21
-898.6771218391544
 31
0.0
  0
LINE
  5
476
330
1F
100
AcDbEntity
  8
0
100
AcDbLine
 10
-2931.480382607162
 20
-861.3771237345821
 30
0.0
 11
-2943.960403130233
 21
-861.3771237345821
 31
0.0
  0
LINE
  5
477
330
1F
100
AcDbEntity
  8
0
100
AcDbLine
 10
-2946.258639023483
 20
-902.1371267648824
 30
0.0
 11
-2919.629965946853
 21
-902.1371267648824
 31
0.0
  0
ARC
  5
478
330
1F
100
AcDbEntity
  8
0
100
AcDbCircle
 10
-2980.270391047179
 20
-867.1471255370274
 30
0.0
 40
0.8000000000000111
100
AcDbArc
 50
90.0
 51
180.0
  0
ARC
  5
479
330
1F
100
AcDbEntity
  8
0
100
AcDbCircle
 10
-2986.840391047179
 20
-867.1471255370263
 30
0.0
 40
0.8000000000000111
100
AcDbArc
 50
0.0
 51
90.0
  0
ARC
  5
47A
330
1F
100
AcDbEntity
  8
0
100
AcDbCircle
 10
-2981.48039104718
 20
-860.5771255370264
 30
0.0
 40
0.8000000000010203
100
AcDbArc
 50
270.0
 51
0.0
  0
ARC
  5
47B
330
1F
100
AcDbEntity
  8
0
100
AcDbCircle
 10
-2993.960391047179
 20
-860.5771255370271
 30
0.0
 40
0.8000000000003241
100
AcDbArc
 50
180.0
 51
270.0
  0
LINE
  5
47C
330
1F
100
AcDbEntity
  8
0
100
AcDbLine
 10
-2993.96038524884
 20
-861.3771237345821
 30
0.0
 11
-2981.480394528091
 21
-861.3771237345821
 31
0.0
  0
ARC
  5
47D
330
1F
100
AcDbEntity
  8
0
100
AcDbCircle
 10
-2980.270391047179
 20
-879.6271255370275
 30
0.0
 40
0.8000000000002387
100
AcDbArc
 50
180.0
 51
270.0
  0
ARC
  5
47E
330
1F
100
AcDbEntity
  8
0
100
AcDbCircle
 10
-2986.840391047179
 20
-879.6271255370264
 30
0.0
 40
0.8000000000009066
100
AcDbArc
 50
270.0
 51
0.0
  0
LINE
  5
47F
330
1F
100
AcDbEntity
  8
0
100
AcDbLine
 10
-2981.070389077842
 20
-867.1471252950317
 30
0.0
 11
-2981.070389077842
 21
-879.6271271916515
 31
0.0
  0
LINE
  5
480
330
1F
100
AcDbEntity
  8
0
100
AcDbLine
 10
-2986.040388271987
 20
-867.1471252950317
 30
0.0
 11
-2986.040388271987
 21
-879.6271271916515
 31
0.0
  0
ARC
  5
481
330
1F
100
AcDbEntity
  8
0
100
AcDbCircle
 10
-2999.32039104718
 20
-867.1471255370272
 30
0.0
 40
0.8000000000000254
100
AcDbArc
 50
90.0
 51
180.0
  0
ARC
  5
482
330
1F
100
AcDbEntity
  8
0
100
AcDbCircle
 10
-3001.72381373904
 20
-860.5659733769087
 30
0.0
 40
0.7999999999999523
100
AcDbArc
 50
282.9999999999973
 51
13.000000000019
  0
ARC
  5
483
330
1F
100
AcDbEntity
  8
0
100
AcDbCircle
 10
-3013.883952147561
 20
-863.3733625351212
 30
0.0
 40
0.8000000000000301
100
AcDbArc
 50
193.000000000019
 51
282.9999999999973
  0
ARC
  5
484
330
1F
100
AcDbEntity
  8
0
100
AcDbCircle
 10
-3020.285563473199
 20
-864.8512909621594
 30
0.0
 40
0.8000000000000705
100
AcDbArc
 50
282.9999999999706
 51
13.000000000019
  0
ARC
  5
485
330
1F
100
AcDbEntity
  8
0
100
AcDbCircle
 10
-3009.247471574505
 20
-869.0457672857808
 30
0.0
 40
0.8000000000000023
100
AcDbArc
 50
13.00000000002571
 51
102.9999999999972
  0
LINE
  5
486
330
1F
100
AcDbEntity
  8
0
100
AcDbLine
 10
-3013.703984707007
 20
-864.1528591377451
 30
0.0
 11
-3001.543847411284
 21
-861.3454691929534
 31
0.0
  0
ARC
  5
487
330
1F
100
AcDbEntity
  8
0
100
AcDbCircle
 10
-2999.32039104718
 20
-879.6271255370271
 30
0.0
 40
0.8000000000002954
100
AcDbArc
 50
180.0
 51
270.0
  0
ARC
  5
488
330
1F
100
AcDbEntity
  8
0
100
AcDbCircle
 10
-3006.440082416296
 20
-881.2059056943009
 30
0.0
 40
0.8000000000000705
100
AcDbArc
 50
282.9999999999706
 51
13.000000000019
  0
ARC
  5
489
330
1F
100
AcDbEntity
  8
0
100
AcDbCircle
 10
-3018.600220824815
 20
-884.013294852513
 30
0.0
 40
0.8000000000000577
100
AcDbArc
 50
193.000000000019
 51
282.9999999999973
  0
LINE
  5
48A
330
1F
100
AcDbEntity
  8
0
100
AcDbLine
 10
-3018.42025391835
 20
-884.7927935334331
 30
0.0
 11
-3006.260116622627
 21
-881.9853998633512
 31
0.0
  0
LINE
  5
48B
330
1F
100
AcDbEntity
  8
0
100
AcDbLine
 10
-3008.467976973236
 20
-868.8658066006787
 30
0.0
 11
-3005.660583303154
 21
-881.0259438964015
 31
0.0
  0
LINE
  5
48C
330
1F
100
AcDbEntity
  8
0
100
AcDbLine
 10
-3000.120391175926
 20
-867.1471252950317
 30
0.0
 11
-3000.120391175926
 21
-879.6271271916515
 31
0.0
  0
LINE
  5
48D
330
1F
100
AcDbEntity
  8
0
100
AcDbLine
 10
-2999.320392534912
 20
-866.3471266540176
 30
0.0
 11
-2986.840386913002
 21
-866.3471266540176
 31
0.0
  0
LINE
  5
48E
330
1F
100
AcDbEntity
  8
0
100
AcDbLine
 10
-2999.320392534912
 20
-880.4271258326654
 30
0.0
 11
-2986.840386913002
 21
-880.4271258326654
 31
0.0
  0
ARC
  5
48F
330
1F
100
AcDbEntity
  8
0
100
AcDbCircle
 10
-2995.509866331053
 20
-905.1371255370268
 30
0.0
 40
3.0
100
AcDbArc
 50
90.0
 51
102.9999999999972
  0
ARC
  5
490
330
1F
100
AcDbEntity
  8
0
100
AcDbCircle
 10
-3007.282372706024
 20
-888.1431817180938
 30
0.0
 40
0.8000000000000577
100
AcDbArc
 50
13.00000000002571
 51
103.0000000000239
  0
ARC
  5
491
330
1F
100
AcDbEntity
  8
0
100
AcDbCircle
 10
-3004.474983547812
 20
-900.3033201266132
 30
0.0
 40
0.7999999999999871
100
AcDbArc
 50
282.9999999999973
 51
13.000000000019
  0
LINE
  5
492
330
1F
100
AcDbEntity
  8
0
100
AcDbLine
 10
-3006.502871439636
 20
-887.963224193681
 30
0.0
 11
-3003.695492670715
 21
-900.1233614894038
 31
0.0
  0
ARC
  5
493
330
1F
100
AcDbEntity
  8
0
100
AcDbCircle
 10
-3018.955340673101
 20
-903.6463739829839
 30
0.0
 40
0.8000000000000206
100
AcDbArc
 50
193.000000000019
 51
283.0000000000239
  0
ARC
  5
494
330
1F
100
AcDbEntity
  8
0
100
AcDbCircle
 10
-3012.783949209354
 20
-909.1251618044914
 30
0.0
 40
3.000000000000018
100
AcDbArc
 50
102.9999999999972
 51
158.0000000000136
  0
ARC
  5
495
330
1F
100
AcDbEntity
  8
0
100
AcDbCircle
 10
-3020.240503829156
 20
-914.2334463029751
 30
0.0
 40
2.000000000000102
100
AcDbArc
 50
282.9999999999973
 51
338.0000000000136
  0
LINE
  5
496
330
1F
100
AcDbEntity
  8
0
100
AcDbLine
 10
-3018.386130259216
 20
-914.9826578708776
 30
0.0
 11
-3015.565504357994
 21
-908.0013446422704
 31
0.0
  0
LINE
  5
497
330
1F
100
AcDbEntity
  8
0
100
AcDbLine
 10
-3018.775378391922
 20
-904.4258706184514
 30
0.0
 11
-3004.295025990188
 21
-901.0828174563535
 31
0.0
  0
LINE
  5
498
330
1F
100
AcDbEntity
  8
0
100
AcDbLine
 10
-2996.184726283729
 20
-902.2140167566425
 30
0.0
 11
-3013.45880799073
 21
-906.2020517798551
 31
0.0
  0
ARC
  5
499
330
1F
100
AcDbEntity
  8
0
100
AcDbCircle
 10
-3035.253091039931
 20
-855.4985417118524
 30
0.0
 40
0.8000000000000595
100
AcDbArc
 50
102.9999999999972
 51
193.000000000019
  0
ARC
  5
49A
330
1F
100
AcDbEntity
  8
0
100
AcDbCircle
 10
-3041.654702365568
 20
-856.97647013889
 30
0.0
 40
0.8000000000000301
100
AcDbArc
 50
13.00000000002571
 51
102.9999999999972
  0
ARC
  5
49B
330
1F
100
AcDbEntity
  8
0
100
AcDbCircle
 10
-3032.445701881718
 20
-867.6586801203717
 30
0.0
 40
0.8000000000000715
100
AcDbArc
 50
193.000000000019
 51
282.9999999999973
  0
LINE
  5
49C
330
1F
100
AcDbEntity
  8
0
100
AcDbLine
 10
-3040.875209062706
 20
-856.7965097589208
 30
0.0
 11
-3038.067815392623
 21
-868.9566470546438
 31
0.0
  0
LINE
  5
49D
330
1F
100
AcDbEntity
  8
0
100
AcDbLine
 10
-3036.032584994444
 20
-855.6785017115787
 30
0.0
 11
-3033.225191324361
 21
-867.8386427325918
 31
0.0
  0
ARC
  5
49E
330
1F
100
AcDbEntity
  8
0
100
AcDbCircle
 10
-3021.407609983025
 20
-871.8531564439935
 30
0.0
 40
0.8000000000000515
100
AcDbArc
 50
102.9999999999972
 51
193.000000000019
  0
ARC
  5
49F
330
1F
100
AcDbEntity
  8
0
100
AcDbCircle
 10
-3027.809221308665
 20
-873.3310848710319
 30
0.0
 40
0.8000000000000435
100
AcDbArc
 50
13.00000000002571
 51
102.9999999999972
  0
LINE
  5
4A0
330
1F
100
AcDbEntity
  8
0
100
AcDbLine
 10
-3027.029727623642
 20
-873.1511235149989
 30
0.0
 11
-3024.222333953559
 21
-885.3112645360118
 31
0.0
  0
ARC
  5
4A1
330
1F
100
AcDbEntity
  8
0
100
AcDbCircle
 10
-3039.969359717185
 20
-876.138474029244
 30
0.0
 40
0.8000000000000236
100
AcDbArc
 50
102.9999999999972
 51
193.000000000019
  0
LINE
  5
4A2
330
1F
100
AcDbEntity
  8
0
100
AcDbLine
 10
-3040.149320886314
 20
-875.3589764150271
 30
0.0
 11
-3027.989183590591
 21
-872.5515901955256
 31
0.0
  0
ARC
  5
4A3
330
1F
100
AcDbEntity
  8
0
100
AcDbCircle
 10
-3038.847313207359
 20
-869.1366085474099
 30
0.0
 40
0.7999999999999833
100
AcDbArc
 50
282.9999999999973
 51
13.000000000019
  0
ARC
  5
4A4
330
1F
100
AcDbEntity
  8
0
100
AcDbCircle
 10
-3053.814840774089
 20
-859.7838592971028
 30
0.0
 40
0.8000000000000515
100
AcDbArc
 50
102.9999999999972
 51
193.000000000019
  0
ARC
  5
4A5
330
1F
100
AcDbEntity
  8
0
100
AcDbCircle
 10
-3059.138889043198
 20
-854.2701947022543
 30
0.0
 40
0.8000000000000577
100
AcDbArc
 50
193.000000000019
 51
282.9999999999973
  0
ARC
  5
4A6
330
1F
100
AcDbEntity
  8
0
100
AcDbCircle
 10
-3060.216452099728
 20
-861.2617877241408
 30
0.0
 40
0.8000000000000333
100
AcDbArc
 50
13.00000000002571
 51
102.9999999999972
  0
ARC
  5
4A7
330
1F
100
AcDbEntity
  8
0
100
AcDbCircle
 10
-3046.370971042823
 20
-877.6164024562818
 30
0.0
 40
0.8000000000000301
100
AcDbArc
 50
13.00000000002571
 51
102.9999999999972
  0
ARC
  5
4A8
330
1F
100
AcDbEntity
  8
0
100
AcDbCircle
 10
-3051.007451615876
 20
-871.9439977056222
 30
0.0
 40
0.8000000000000715
100
AcDbArc
 50
193.000000000019
 51
282.9999999999973
  0
ARC
  5
4A9
330
1F
100
AcDbEntity
  8
0
100
AcDbCircle
 10
-3057.409062941518
 20
-873.4219261326604
 30
0.0
 40
0.8000000000000909
100
AcDbArc
 50
282.9999999999706
 51
13.000000000019
  0
ARC
  5
4AA
330
1F
100
AcDbEntity
  8
0
100
AcDbCircle
 10
-3058.531109451343
 20
-880.4237916144948
 30
0.0
 40
0.7999999999999961
100
AcDbArc
 50
102.9999999999972
 51
193.000000000019
  0
LINE
  5
4AB
330
1F
100
AcDbEntity
  8
0
100
AcDbLine
 10
-3058.71107153672
 20
-879.6442933293471
 30
0.0
 11
-3046.550934240997
 21
-876.8369071098454
 31
0.0
  0
LINE
  5
4AC
330
1F
100
AcDbEntity
  8
0
100
AcDbLine
 10
-3059.436959713111
 20
-861.0818266732408
 30
0.0
 11
-3056.629566043028
 21
-873.241963968964
 31
0.0
  0
LINE
  5
4AD
330
1F
100
AcDbEntity
  8
0
100
AcDbLine
 10
-3054.59433564485
 20
-859.9638186258987
 30
0.0
 11
-3051.786941974767
 21
-872.123959646912
 31
0.0
  0
LINE
  5
4AE
330
1F
100
AcDbEntity
  8
0
100
AcDbLine
 10
-3053.994802325377
 20
-859.0043626589491
 30
0.0
 11
-3041.834665029654
 21
-856.1969727141574
 31
0.0
  0
LINE
  5
4AF
330
1F
100
AcDbEntity
  8
0
100
AcDbLine
 10
-3050.82748600782
 20
-872.723492966385
 30
0.0
 11
-3038.667348712096
 21
-869.9161030215933
 31
0.0
  0
ARC
  5
4B0
330
1F
100
AcDbEntity
  8
0
100
AcDbCircle
 10
-3021.762729831313
 20
-891.4862355744647
 30
0.0
 40
0.8000000000000458
100
AcDbArc
 50
102.9999999999972
 51
193.000000000019
  0
ARC
  5
4B1
330
1F
100
AcDbEntity
  8
0
100
AcDbCircle
 10
-3025.844122440183
 20
-892.4284993033458
 30
0.0
 40
0.8000000000000577
100
AcDbArc
 50
13.00000000002571
 51
102.9999999999972
  0
ARC
  5
4B2
330
1F
100
AcDbEntity
  8
0
100
AcDbCircle
 10
-3037.161970558972
 20
-888.2986124377636
 30
0.0
 40
0.7999999999999897
100
AcDbArc
 50
193.000000000019
 51
282.9999999999973
  0
LINE
  5
4B3
330
1F
100
AcDbEntity
  8
0
100
AcDbLine
 10
-3037.748877928436
 20
-894.3558819504863
 30
0.0
 11
-3037.789364383399
 21
-894.1804952832347
 31
0.0
  0
ARC
  5
4B4
330
1F
100
AcDbEntity
  8
0
100
AcDbCircle
 10
-3038.568860388842
 20
-894.3604585104644
 30
0.0
 40
0.8000000000000307
100
AcDbArc
 50
12.99999999989871
 51
102.9999999999972
  0
LINE
  5
4B5
330
1F
100
AcDbEntity
  8
0
100
AcDbLine
 10
-3037.748877928436
 20
-894.3558819504863
 30
0.0
 11
-3026.024078056991
 21
-891.6490040632375
 31
0.0
  0
ARC
  5
4B6
330
1F
100
AcDbEntity
  8
0
100
AcDbCircle
 10
-3023.041232303066
 20
-904.5691503105391
 30
0.0
 40
0.800000000000011
100
AcDbArc
 50
283.0000000000508
 51
13.000000000019
  0
LINE
  5
4B7
330
1F
100
AcDbEntity
  8
0
100
AcDbLine
 10
-3022.983723757544
 20
-913.7354678560043
 30
0.0
 11
-3022.510815145671
 21
-915.7838864198653
 31
0.0
  0
LINE
  5
4B8
330
1F
100
AcDbEntity
  8
0
100
AcDbLine
 10
-3028.034631642849
 20
-918.0854678125911
 30
0.0
 11
-3029.552181289375
 21
-918.4358231636174
 31
0.0
  0
LINE
  5
4B9
330
1F
100
AcDbEntity
  8
0
100
AcDbLine
 10
-3027.758167072381
 20
-914.8375878237095
 30
0.0
 11
-3027.28521416432
 21
-916.8861439771331
 31
0.0
  0
ARC
  5
4BA
330
1F
100
AcDbEntity
  8
0
100
AcDbCircle
 10
-3025.370410659532
 20
-914.2888444293074
 30
0.0
 40
2.45
100
AcDbArc
 50
13.00000000001229
 51
193.000000000019
  0
ARC
  5
4BB
330
1F
100
AcDbEntity
  8
0
100
AcDbCircle
 10
-3038.943319898938
 20
-915.1645283965764
 30
0.0
 40
2.999999999999996
100
AcDbArc
 50
47.99999999999203
 51
102.9999999999972
  0
LINE
  5
4BC
330
1F
100
AcDbEntity
  8
0
100
AcDbLine
 10
-3031.340350434959
 20
-917.9733730765471
 30
0.0
 11
-3036.935930178344
 21
-912.9350967618115
 31
0.0
  0
ARC
  5
4BD
330
1F
100
AcDbEntity
  8
0
100
AcDbCircle
 10
-3030.002088467027
 20
-916.4870856908404
 30
0.0
 40
1.999999999999953
100
AcDbArc
 50
227.999999999992
 51
282.9999999999973
  0
LINE
  5
4BE
330
1F
100
AcDbEntity
  8
0
100
AcDbLine
 10
-3025.064622090042
 20
-892.2485373827107
 30
0.0
 11
-3022.261743471801
 21
-904.3891914101727
 31
0.0
  0
ARC
  5
4BF
330
1F
100
AcDbEntity
  8
0
100
AcDbCircle
 10
-3043.563581884611
 20
-889.7765408648018
 30
0.0
 40
0.7999999999999833
100
AcDbArc
 50
282.9999999999973
 51
13.000000000019
  0
ARC
  5
4C0
330
1F
100
AcDbEntity
  8
0
100
AcDbCircle
 10
-3051.180862914905
 20
-897.2721687201273
 30
0.0
 40
0.8000000000003623
100
AcDbArc
 50
102.9999999999972
 51
193.000000000019
  0
LINE
  5
4C1
330
1F
100
AcDbEntity
  8
0
100
AcDbLine
 10
-3051.919867322624
 20
-897.6275138469825
 30
0.0
 11
-3051.960353777587
 21
-897.4521271797307
 31
0.0
  0
ARC
  5
4C2
330
1F
100
AcDbEntity
  8
0
100
AcDbCircle
 10
-3055.723720293131
 20
-892.5839300230141
 30
0.0
 40
0.8000000000000577
100
AcDbArc
 50
193.000000000019
 51
282.9999999999973
  0
LINE
  5
4C3
330
1F
100
AcDbEntity
  8
0
100
AcDbLine
 10
-3061.012928412139
 20
-899.7268192382939
 30
0.0
 11
-3061.053429768264
 21
-899.5514325710423
 31
0.0
  0
ARC
  5
4C4
330
1F
100
AcDbEntity
  8
0
100
AcDbCircle
 10
-3061.832920055655
 20
-899.7313898839784
 30
0.0
 40
0.8000000000000381
100
AcDbArc
 50
13.000000000019
 51
102.9999999999972
  0
ARC
  5
4C5
330
1F
100
AcDbEntity
  8
0
100
AcDbCircle
 10
-3062.125331618771
 20
-894.0618584500523
 30
0.0
 40
0.8000000000000216
100
AcDbArc
 50
282.9999999999973
 51
13.000000000019
  0
LINE
  5
4C6
330
1F
100
AcDbEntity
  8
0
100
AcDbLine
 10
-3055.543755219162
 20
-893.3634273620731
 30
0.0
 11
-3043.383617923439
 21
-890.5560336919911
 31
0.0
  0
LINE
  5
4C7
330
1F
100
AcDbEntity
  8
0
100
AcDbLine
 10
-3061.012928412139
 20
-899.7268192382939
 30
0.0
 11
-3051.919867322624
 21
-897.6275138469825
 31
0.0
  0
LINE
  5
4C8
330
1F
100
AcDbEntity
  8
0
100
AcDbLine
 10
-3038.748820350349
 20
-893.5809619637614
 30
0.0
 11
-3051.360820458114
 21
-896.4926712127811
 31
0.0
  0
LINE
  5
4C9
330
1F
100
AcDbEntity
  8
0
100
AcDbLine
 10
-3059.310604856193
 20
-880.6037492962964
 30
0.0
 11
-3056.503211186111
 21
-892.7638940425998
 31
0.0
  0
LINE
  5
4CA
330
1F
100
AcDbEntity
  8
0
100
AcDbLine
 10
-3045.591478274047
 20
-877.4364404293187
 30
0.0
 11
-3042.784084603965
 21
-889.5965777250415
 31
0.0
  0
LINE
  5
4CB
330
1F
100
AcDbEntity
  8
0
100
AcDbLine
 10
-3040.748854205787
 20
-876.3184361072667
 30
0.0
 11
-3037.941460535705
 21
-888.4785734029895
 31
0.0
  0
LINE
  5
4CC
330
1F
100
AcDbEntity
  8
0
100
AcDbLine
 10
-3036.982004568756
 20
-889.0781067224631
 30
0.0
 11
-3024.821867273033
 21
-886.2707205029614
 31
0.0
  0
ARC
  5
4CD
330
1F
100
AcDbEntity
  8
0
100
AcDbCircle
 10
-3025.001832150454
 20
-885.4912232795516
 30
0.0
 40
0.7999999999999662
100
AcDbArc
 50
282.9999999999973
 51
13.000000000019
  0
LINE
  5
4CE
330
1F
100
AcDbEntity
  8
0
100
AcDbLine
 10
-3021.587570235908
 20
-871.0736595007071
 30
0.0
 11
-3009.427432940185
 21
-868.266269555915
 31
0.0
  0
LINE
  5
4CF
330
1F
100
AcDbEntity
  8
0
100
AcDbLine
 10
-3021.94269470948
 20
-890.7067365857251
 30
0.0
 11
-3007.462327406585
 21
-887.3636834236272
 31
0.0
  0
LINE
  5
4D0
330
1F
100
AcDbEntity
  8
0
100
AcDbLine
 10
-3022.187103555381
 20
-872.0331154676564
 30
0.0
 11
-3019.379709885299
 21
-884.1932527633794
 31
0.0
  0
LINE
  5
4D1
330
1F
100
AcDbEntity
  8
0
100
AcDbLine
 10
-3032.265735357413
 20
-868.4381760520651
 30
0.0
 11
-3020.10559806169
 21
-865.6307861072734
 31
0.0
  0
LINE
  5
4D2
330
1F
100
AcDbEntity
  8
0
100
AcDbLine
 10
-3022.542228028953
 20
-891.6662000032552
 30
0.0
 11
-3019.734834358871
 21
-903.8263372989778
 31
0.0
  0
LINE
  5
4D3
330
1F
100
AcDbEntity
  8
0
100
AcDbLine
 10
-3019.790594504058
 20
-916.1821864458211
 30
0.0
 11
-3021.311496705861
 21
-916.5333089393412
 31
0.0
  0
LINE
  5
4D4
330
1F
100
AcDbEntity
  8
0
100
AcDbLine
 10
-2980.270390436828
 20
-866.3471266540176
 30
0.0
 11
-2967.790384814918
 21
-866.3471266540176
 31
0.0
  0
LINE
  5
4D5
330
1F
100
AcDbEntity
  8
0
100
AcDbLine
 10
-2980.270390436828
 20
-880.4271258326654
 30
0.0
 11
-2967.790384814918
 21
-880.4271258326654
 31
0.0
  0
LINE
  5
4D6
330
1F
100
AcDbEntity
  8
0
100
AcDbLine
 10
-2995.509867594421
 20
-902.1371267648824
 30
0.0
 11
-2972.629969046295
 21
-902.1371267648824
 31
0.0
  0
ARC
  5
4D7
330
1F
100
AcDbEntity
  8
0
100
AcDbCircle
 10
-2889.910391047177
 20
-858.1958755370258
 30
0.0
 40
0.8000000000010203
100
AcDbArc
 50
270.0
 51
0.0
  0
ARC
  5
4D8
330
1F
100
AcDbEntity
  8
0
100
AcDbCircle
 10
-2889.450391047176
 20
-898.1371255370266
 30
0.0
 40
4.000000000000111
100
AcDbArc
 50
270.0
 51
359.9999999999934
  0
LINE
  5
4D9
330
1F
100
AcDbEntity
  8
0
100
AcDbLine
 10
-2911.910389588058
 20
-848.0950906928988
 30
0.0
 11
-2911.910389588058
 21
-859.2579588206897
 31
0.0
  0
LINE
  5
4DA
330
1F
100
AcDbEntity
  8
0
100
AcDbLine
 10
-2909.310405180633
 20
-859.2579588206897
 30
0.0
 11
-2909.310405180633
 21
-847.1487682368971
 31
0.0
  0
LINE
  5
4DB
330
1F
100
AcDbEntity
  8
0
100
AcDbLine
 10
-2953.358446285903
 20
-848.1171242805608
 30
0.0
 11
-2953.358446285903
 21
-861.5571260365134
 31
0.0
  0
LINE
  5
4DC
330
1F
100
AcDbEntity
  8
0
100
AcDbLine
 10
-2929.482434914291
 20
-848.1171242805608
 30
0.0
 11
-2929.482434914291
 21
-861.5571260365134
 31
0.0
  0
LINE
  5
4DD
330
1F
100
AcDbEntity
  8
0
100
AcDbLine
 10
-2930.680398867309
 20
-860.5771250935678
 30
0.0
 11
-2930.680398867309
 21
-848.0971269222385
 31
0.0
  0
LINE
  5
4DE
330
1F
100
AcDbEntity
  8
0
100
AcDbLine
 10
-3035.433051674971
 20
-854.7190457446291
 30
0.0
 11
-3023.272914379247
 21
-851.9116557998374
 31
0.0
  0
LINE
  5
4DF
330
1F
100
AcDbEntity
  8
0
100
AcDbLine
 10
-2945.958440230072
 20
-848.1171242805608
 30
0.0
 11
-2945.958440230072
 21
-861.5571260365134
 31
0.0
  0
LINE
  5
4E0
330
1F
100
AcDbEntity
  8
0
100
AcDbLine
 10
-2922.082428858459
 20
-848.1171242805608
 30
0.0
 11
-2922.082428858459
 21
-861.5571260365134
 31
0.0
  0
LINE
  5
4E1
330
1F
100
AcDbEntity
  8
0
100
AcDbLine
 10
-2944.760386870086
 20
-860.5771250935678
 30
0.0
 11
-2944.760386870086
 21
-848.0971269222385
 31
0.0
  0
LINE
  5
4E2
330
1F
100
AcDbEntity
  8
0
100
AcDbLine
 10
-3022.3134584123
 20
-852.5111928446008
 30
0.0
 11
-3019.506064742218
 21
-864.6713301403238
 31
0.0
  0
LINE
  5
4E3
330
1F
100
AcDbEntity
  8
0
100
AcDbLine
 10
-3017.470834344039
 20
-851.3931847972587
 30
0.0
 11
-3014.663455575119
 21
-863.5533220929815
 31
0.0
  0
LINE
  5
4E4
330
1F
100
AcDbEntity
  8
0
100
AcDbLine
 10
-3003.751707761893
 20
-848.2258759302808
 30
0.0
 11
-3000.944314091812
 21
-860.3860132260038
 31
0.0
  0
LINE
  5
4E5
330
1F
100
AcDbEntity
  8
0
100
AcDbLine
 10
-3062.725780099043
 20
-842.2900169951631
 30
0.0
 11
-3059.91838642896
 21
-854.4501542908864
 31
0.0
  0
LINE
  5
4E6
330
1F
100
AcDbEntity
  8
0
100
AcDbLine
 10
-3058.958930462012
 20
-855.0496913356496
 30
0.0
 11
-3046.798793166289
 21
-852.2423013908579
 31
0.0
  0
LINE
  5
4E7
330
1F
100
AcDbEntity
  8
0
100
AcDbLine
 10
-2975.710396692932
 20
-848.0971269222385
 30
0.0
 11
-2975.710396692932
 21
-860.5771250935678
 31
0.0
  0
LINE
  5
4E8
330
1F
100
AcDbEntity
  8
0
100
AcDbLine
 10
-2961.630378887832
 20
-848.0971269222385
 30
0.0
 11
-2961.630378887832
 21
-860.5771250935678
 31
0.0
  0
LINE
  5
4E9
330
1F
100
AcDbEntity
  8
0
100
AcDbLine
 10
-2994.760383889854
 20
-848.0971269222385
 30
0.0
 11
-2994.760383889854
 21
-860.5771250935678
 31
0.0
  0
LINE
  5
4EA
330
1F
100
AcDbEntity
  8
0
100
AcDbLine
 10
-2980.680395887077
 20
-848.0971269222385
 30
0.0
 11
-2980.680395887077
 21
-860.5771250935678
 31
0.0
  0
LINE
  5
4EB
330
1F
100
AcDbEntity
  8
0
100
AcDbLine
 10
-2903.19037906903
 20
-845.7158747973331
 30
0.0
 11
-2903.19037906903
 21
-858.1958748313075
 31
0.0
  0
LINE
  5
4EC
330
1F
100
AcDbEntity
  8
0
100
AcDbLine
 10
-2889.110391066253
 20
-845.7158747973331
 30
0.0
 11
-2889.110391066253
 21
-858.1958748313075
 31
0.0
  0
LINE
  5
4ED
330
1F
100
AcDbEntity
  8
0
100
AcDbLine
 10
-2885.450397656143
 20
-898.1371261092311
 30
0.0
 11
-2885.450397656143
 21
-820.155875748623
 31
0.0
  0
ARC
  5
4EE
330
1F
100
AcDbEntity
  8
0
100
AcDbCircle
 10
-3075.353079231271
 20
-825.654166942815
 30
0.0
 40
0.8000000000000577
100
AcDbArc
 50
102.9999999999972
 51
193.000000000019
  0
ARC
  5
4EF
330
1F
100
AcDbEntity
  8
0
100
AcDbCircle
 10
-3068.34788952705
 20
-843.5879847207731
 30
0.0
 40
0.8000000000000301
100
AcDbArc
 50
13.00000000002571
 51
102.9999999999972
  0
ARC
  5
4F0
330
1F
100
AcDbEntity
  8
0
100
AcDbCircle
 10
-3072.545690073058
 20
-837.8143053513348
 30
0.0
 40
0.8000000000000449
100
AcDbArc
 50
193.000000000019
 51
282.9999999999973
  0
ARC
  5
4F1
330
1F
100
AcDbEntity
  8
0
100
AcDbCircle
 10
-3080.50802793557
 20
-846.3953738789854
 30
0.0
 40
0.8000000000000595
100
AcDbArc
 50
102.9999999999972
 51
193.000000000019
  0
LINE
  5
4F2
330
1F
100
AcDbEntity
  8
0
100
AcDbLine
 10
-3080.687982528815
 20
-845.6158779425337
 30
0.0
 11
-3068.527845233092
 21
-842.8084879977419
 31
0.0
  0
LINE
  5
4F3
330
1F
100
AcDbEntity
  8
0
100
AcDbLine
 10
-3076.132578342566
 20
-825.8341282469942
 30
0.0
 11
-3073.325184672484
 21
-837.9942655427171
 31
0.0
  0
ARC
  5
4F4
330
1F
100
AcDbEntity
  8
0
100
AcDbCircle
 10
-3095.784195068697
 20
-828.4891745389369
 30
0.0
 40
0.8000000000000595
100
AcDbArc
 50
346.9999999999743
 51
77.00000000000272
  0
ARC
  5
4F5
330
1F
100
AcDbEntity
  8
0
100
AcDbCircle
 10
-3098.591584226908
 20
-840.6493129474563
 30
0.0
 40
0.8000000000000307
100
AcDbArc
 50
257.0000000000027
 51
346.999999999981
  0
LINE
  5
4F6
330
1F
100
AcDbEntity
  8
0
100
AcDbLine
 10
-3095.004700390337
 20
-828.6691351506441
 30
0.0
 11
-3097.812086609837
 21
-840.8292743090115
 31
0.0
  0
ARC
  5
4F7
330
1F
100
AcDbEntity
  8
0
100
AcDbCircle
 10
-3145.067832945535
 20
-817.1111502102251
 30
0.0
 40
0.7999999999999965
100
AcDbArc
 50
77.00000000000272
 51
166.9999999999809
  0
ARC
  5
4F8
330
1F
100
AcDbEntity
  8
0
100
AcDbCircle
 10
-3107.944333477218
 20
-825.6817853807271
 30
0.0
 40
0.7999999999999906
100
AcDbArc
 50
77.00000000000272
 51
166.9999999999809
  0
ARC
  5
4F9
330
1F
100
AcDbEntity
  8
0
100
AcDbCircle
 10
-3114.345944802857
 20
-824.2038569536861
 30
0.0
 40
0.7999999999999888
100
AcDbArc
 50
346.9999999999743
 51
77.00000000000272
  0
ARC
  5
4FA
330
1F
100
AcDbEntity
  8
0
100
AcDbCircle
 10
-3126.506083211378
 20
-821.3964677954772
 30
0.0
 40
0.8000000000000595
100
AcDbArc
 50
77.00000000000272
 51
166.9999999999809
  0
LINE
  5
4FB
330
1F
100
AcDbEntity
  8
0
100
AcDbLine
 10
-3126.326121655937
 20
-820.616971858921
 30
0.0
 11
-3114.165984360215
 21
-823.4243608723911
 31
0.0
  0
ARC
  5
4FC
330
1F
100
AcDbEntity
  8
0
100
AcDbCircle
 10
-3110.751722635428
 20
-837.841923789246
 30
0.0
 40
0.8000000000000163
100
AcDbArc
 50
166.9999999999743
 51
257.0000000000027
  0
ARC
  5
4FD
330
1F
100
AcDbEntity
  8
0
100
AcDbCircle
 10
-3117.153333961068
 20
-836.3639953622062
 30
0.0
 40
0.7999999999999761
100
AcDbArc
 50
257.0000000000027
 51
346.999999999981
  0
ARC
  5
4FE
330
1F
100
AcDbEntity
  8
0
100
AcDbCircle
 10
-3109.064195068697
 20
-845.139174538937
 30
0.0
 40
0.8000000000000163
100
AcDbArc
 50
346.9999999999743
 51
77.00000000000272
  0
ARC
  5
4FF
330
1F
100
AcDbEntity
  8
0
100
AcDbCircle
 10
-3121.224333477218
 20
-842.3317853807263
 30
0.0
 40
0.7999999999999697
100
AcDbArc
 50
77.00000000000272
 51
166.9999999999809
  0
ARC
  5
500
330
1F
100
AcDbEntity
  8
0
100
AcDbCircle
 10
-3127.625944802858
 20
-840.853856953686
 30
0.0
 40
0.7999999999999609
100
AcDbArc
 50
346.9999999999743
 51
77.00000000000272
  0
LINE
  5
501
330
1F
100
AcDbEntity
  8
0
100
AcDbLine
 10
-3121.044375268456
 20
-841.5522898260078
 30
0.0
 11
-3108.884230522154
 21
-844.3596779081543
 31
0.0
  0
LINE
  5
502
330
1F
100
AcDbEntity
  8
0
100
AcDbLine
 10
-3113.566451040743
 20
-824.383818236325
 30
0.0
 11
-3116.373837260243
 21
-836.543955532047
 31
0.0
  0
LINE
  5
503
330
1F
100
AcDbEntity
  8
0
100
AcDbLine
 10
-3108.723826972481
 20
-825.5018244210212
 30
0.0
 11
-3111.531220642564
 21
-837.6619635793884
 31
0.0
  0
ARC
  5
504
330
1F
100
AcDbEntity
  8
0
100
AcDbCircle
 10
-3132.907694537015
 20
-819.9185393684361
 30
0.0
 40
0.8000000000000142
100
AcDbArc
 50
346.9999999999743
 51
77.00000000000272
  0
ARC
  5
505
330
1F
100
AcDbEntity
  8
0
100
AcDbCircle
 10
-3129.313472369589
 20
-833.556606203996
 30
0.0
 40
0.8000000000000076
100
AcDbArc
 50
166.9999999999809
 51
257.0000000000027
  0
ARC
  5
506
330
1F
100
AcDbEntity
  8
0
100
AcDbCircle
 10
-3135.715083695227
 20
-832.0786777769551
 30
0.0
 40
0.8000000000000307
100
AcDbArc
 50
257.0000000000293
 51
346.999999999981
  0
LINE
  5
507
330
1F
100
AcDbEntity
  8
0
100
AcDbLine
 10
-3132.128201691148
 20
-820.09850015785
 30
0.0
 11
-3134.935587910649
 21
-832.258638617727
 31
0.0
  0
ARC
  5
508
330
1F
100
AcDbEntity
  8
0
100
AcDbCircle
 10
-3147.875222103746
 20
-829.2712886187441
 30
0.0
 40
0.8000000000001168
100
AcDbArc
 50
166.9999999999876
 51
257.0000000000027
  0
LINE
  5
509
330
1F
100
AcDbEntity
  8
0
100
AcDbLine
 10
-3148.055181173321
 20
-830.0507847863761
 30
0.0
 11
-3135.895043877599
 21
-832.8581737998451
 31
0.0
  0
ARC
  5
50A
330
1F
100
AcDbEntity
  8
0
100
AcDbCircle
 10
-3139.786083211378
 20
-838.0464677954755
 30
0.0
 40
0.7999999999999936
100
AcDbArc
 50
77.00000000000272
 51
166.9999999999809
  0
ARC
  5
50B
330
1F
100
AcDbEntity
  8
0
100
AcDbCircle
 10
-3142.593472369589
 20
-850.2066062039951
 30
0.0
 40
0.8000000000000737
100
AcDbArc
 50
166.9999999999809
 51
257.0000000000027
  0
ARC
  5
50C
330
1F
100
AcDbEntity
  8
0
100
AcDbCircle
 10
-3148.995083695226
 20
-848.7286777769551
 30
0.0
 40
0.7999999999999965
100
AcDbArc
 50
257.0000000000027
 51
346.999999999981
  0
LINE
  5
50D
330
1F
100
AcDbEntity
  8
0
100
AcDbLine
 10
-3145.408198503491
 20
-836.748500046464
 30
0.0
 11
-3148.215584722994
 21
-848.9086373421868
 31
0.0
  0
LINE
  5
50E
330
1F
100
AcDbEntity
  8
0
100
AcDbLine
 10
-3140.565581885812
 20
-837.8665062311611
 30
0.0
 11
-3143.372968105313
 21
-850.0266453895291
 31
0.0
  0
ARC
  5
50F
330
1F
100
AcDbEntity
  8
0
100
AcDbCircle
 10
-3146.187694537015
 20
-836.5685393684371
 30
0.0
 40
0.8000000000000476
100
AcDbArc
 50
346.9999999999743
 51
77.00000000000272
  0
LINE
  5
510
330
1F
100
AcDbEntity
  8
0
100
AcDbLine
 10
-3139.606125918862
 20
-837.2669710490427
 30
0.0
 11
-3127.445981172559
 21
-840.0743609938343
 31
0.0
  0
LINE
  5
511
330
1F
100
AcDbEntity
  8
0
100
AcDbLine
 10
-3127.285577622887
 20
-821.2165070410391
 30
0.0
 11
-3130.092971292969
 21
-833.3766448024242
 31
0.0
  0
LINE
  5
512
330
1F
100
AcDbEntity
  8
0
100
AcDbLine
 10
-3129.493430522916
 20
-834.3361026320181
 30
0.0
 11
-3117.333293227194
 21
-837.1434907141647
 31
0.0
  0
LINE
  5
513
330
1F
100
AcDbEntity
  8
0
100
AcDbLine
 10
-3144.887872306345
 20
-816.3316541587981
 30
0.0
 11
-3132.727735010622
 21
-819.1390432595781
 31
0.0
  0
LINE
  5
514
330
1F
100
AcDbEntity
  8
0
100
AcDbLine
 10
-3145.847328273293
 20
-816.9311893700202
 30
0.0
 11
-3148.654714492796
 21
-829.0913278881042
 31
0.0
  0
LINE
  5
515
330
1F
100
AcDbEntity
  8
0
100
AcDbLine
 10
-3107.764371005532
 20
-824.9022892389021
 30
0.0
 11
-3095.604233709809
 21
-827.709678252372
 31
0.0
  0
LINE
  5
516
330
1F
100
AcDbEntity
  8
0
100
AcDbLine
 10
-3110.931679872511
 20
-838.6214195463379
 30
0.0
 11
-3098.771542576788
 21
-841.4288094911299
 31
0.0
  0
ARC
  5
517
330
1F
100
AcDbEntity
  8
0
100
AcDbCircle
 10
-3151.469444271175
 20
-815.6332217831851
 30
0.0
 40
0.8000000000000564
100
AcDbArc
 50
346.9999999999743
 51
77.00000000000272
  0
ARC
  5
518
330
1F
100
AcDbEntity
  8
0
100
AcDbCircle
 10
-3163.629582679694
 20
-812.8258326249742
 30
0.0
 40
0.8000000000000614
100
AcDbArc
 50
77.00000000000272
 51
166.9999999999809
  0
LINE
  5
519
330
1F
100
AcDbEntity
  8
0
100
AcDbLine
 10
-3163.449622956751
 20
-812.046336633297
 30
0.0
 11
-3151.289485661028
 21
-814.853725763182
 31
0.0
  0
ARC
  5
51A
330
1F
100
AcDbEntity
  8
0
100
AcDbCircle
 10
-3194.438551117348
 20
-799.5971258627811
 30
0.0
 40
1.999999999999918
100
AcDbArc
 50
35.00000000002084
 51
90.0
  0
ARC
  5
51B
330
1F
100
AcDbEntity
  8
0
100
AcDbCircle
 10
-3185.770391047181
 20
-809.997125537027
 30
0.0
 40
0.8000000000000111
100
AcDbArc
 50
90.0
 51
180.0
  0
ARC
  5
51C
330
1F
100
AcDbEntity
  8
0
100
AcDbCircle
 10
-3185.575860701098
 20
-803.5371255370142
 30
0.0
 40
3.000000000000011
100
AcDbArc
 50
215.0000000000208
 51
270.0
  0
ARC
  5
51D
330
1F
100
AcDbEntity
  8
0
100
AcDbCircle
 10
-3192.340391047179
 20
-809.997125537027
 30
0.0
 40
0.7999999999995229
100
AcDbArc
 50
0.0000000000065138
 51
90.00000000005213
  0
LINE
  5
51E
330
1F
100
AcDbEntity
  8
0
100
AcDbLine
 10
-3185.770389661966
 20
-809.1971254820419
 30
0.0
 11
-3173.290391490638
 21
-809.1971254820419
 31
0.0
  0
LINE
  5
51F
330
1F
100
AcDbEntity
  8
0
100
AcDbLine
 10
-3139.318285750219
 20
-806.5371252509251
 30
0.0
 11
-3185.575862453161
 21
-806.5371252509251
 31
0.0
  0
LINE
  5
520
330
1F
100
AcDbEntity
  8
0
100
AcDbLine
 10
-3192.800247148454
 20
-798.4499726357361
 30
0.0
 11
-3188.033317253768
 21
-805.257854974497
 31
0.0
  0
ARC
  5
521
330
1F
100
AcDbEntity
  8
0
100
AcDbCircle
 10
-3173.290391047178
 20
-809.997125537027
 30
0.0
 40
0.7999999999995106
100
AcDbArc
 50
0.0000000000065138
 51
90.00000000005213
  0
ARC
  5
522
330
1F
100
AcDbEntity
  8
0
100
AcDbCircle
 10
-3154.276833429385
 20
-827.7933601917041
 30
0.0
 40
0.7999999999999689
100
AcDbArc
 50
257.0000000000027
 51
346.999999999981
  0
ARC
  5
523
330
1F
100
AcDbEntity
  8
0
100
AcDbCircle
 10
-3158.347832945537
 20
-833.761150210225
 30
0.0
 40
0.799999999999984
100
AcDbArc
 50
77.00000000000272
 51
166.9999999999809
  0
ARC
  5
524
330
1F
100
AcDbEntity
  8
0
100
AcDbCircle
 10
-3166.436971837905
 20
-824.9859710334952
 30
0.0
 40
0.8000000000000229
100
AcDbArc
 50
166.9999999999743
 51
257.0000000000027
  0
ARC
  5
525
330
1F
100
AcDbEntity
  8
0
100
AcDbCircle
 10
-3164.749444271174
 20
-832.2832217831852
 30
0.0
 40
0.8000000000000014
100
AcDbArc
 50
346.9999999999743
 51
77.00000000000272
  0
LINE
  5
526
330
1F
100
AcDbEntity
  8
0
100
AcDbLine
 10
-3166.616931823727
 20
-825.765466940733
 30
0.0
 11
-3154.456794528004
 21
-828.5728559542022
 31
0.0
  0
ARC
  5
527
330
1F
100
AcDbEntity
  8
0
100
AcDbCircle
 10
-3161.155222103747
 20
-845.9212886187447
 30
0.0
 40
0.7999999999999955
100
AcDbArc
 50
166.9999999999743
 51
257.0000000000027
  0
ARC
  5
528
330
1F
100
AcDbEntity
  8
0
100
AcDbCircle
 10
-3164.049444271174
 20
-851.9132217831847
 30
0.0
 40
0.8000000000000595
100
AcDbArc
 50
346.9999999999743
 51
77.00000000000272
  0
ARC
  5
529
330
1F
100
AcDbEntity
  8
0
100
AcDbCircle
 10
-3167.556833429387
 20
-844.443360191704
 30
0.0
 40
0.7999999999999897
100
AcDbArc
 50
257.0000000000027
 51
346.999999999981
  0
LINE
  5
52A
330
1F
100
AcDbEntity
  8
0
100
AcDbLine
 10
-3163.969949153897
 20
-832.4631831321442
 30
0.0
 11
-3166.77733909869
 21
-844.6233204278666
 31
0.0
  0
LINE
  5
52B
330
1F
100
AcDbEntity
  8
0
100
AcDbLine
 10
-3159.127328810927
 20
-833.5811893168411
 30
0.0
 11
-3161.934718755719
 21
-845.7413284752091
 31
0.0
  0
ARC
  5
52C
330
1F
100
AcDbEntity
  8
0
100
AcDbCircle
 10
-3176.909582679694
 20
-829.4758326249739
 30
0.0
 40
0.8000000000000595
100
AcDbArc
 50
77.00000000000272
 51
166.9999999999809
  0
ARC
  5
52D
330
1F
100
AcDbEntity
  8
0
100
AcDbCircle
 10
-3185.770391047181
 20
-822.4771255370281
 30
0.0
 40
0.8000000000002707
100
AcDbArc
 50
180.0
 51
270.0
  0
ARC
  5
52E
330
1F
100
AcDbEntity
  8
0
100
AcDbCircle
 10
-3192.34039104718
 20
-822.4771255370281
 30
0.0
 40
0.800000000000745
100
AcDbArc
 50
270.0
 51
0.0
  0
ARC
  5
52F
330
1F
100
AcDbEntity
  8
0
100
AcDbCircle
 10
-3186.980391047178
 20
-829.047125537027
 30
0.0
 40
0.7999999999995639
100
AcDbArc
 50
359.9999999999478
 51
90.00000000005213
  0
LINE
  5
530
330
1F
100
AcDbEntity
  8
0
100
AcDbLine
 10
-3185.770389661966
 20
-823.2771255920122
 30
0.0
 11
-3173.290391490638
 21
-823.2771255920122
 31
0.0
  0
ARC
  5
531
330
1F
100
AcDbEntity
  8
0
100
AcDbCircle
 10
-3179.716971837906
 20
-841.6359710334935
 30
0.0
 40
0.800000000000001
100
AcDbArc
 50
166.9999999999809
 51
257.0000000000027
  0
ARC
  5
532
330
1F
100
AcDbEntity
  8
0
100
AcDbCircle
 10
-3176.209582679695
 20
-849.1058326249738
 30
0.0
 40
0.8000000000000074
100
AcDbArc
 50
77.00000000000272
 51
166.9999999999809
  0
ARC
  5
533
330
1F
100
AcDbEntity
  8
0
100
AcDbCircle
 10
-3186.980391047181
 20
-841.527125537026
 30
0.0
 40
0.8000000000009066
100
AcDbArc
 50
270.0
 51
359.9999999999153
  0
ARC
  5
534
330
1F
100
AcDbEntity
  8
0
100
AcDbCircle
 10
-3186.280391047178
 20
-848.0971255370267
 30
0.0
 40
0.7999999999995282
100
AcDbArc
 50
359.9999999999739
 51
90.00000000005213
  0
LINE
  5
535
330
1F
100
AcDbEntity
  8
0
100
AcDbLine
 10
-3177.689079461333
 20
-829.2958714711989
 30
0.0
 11
-3180.496469406125
 21
-841.4560096982437
 31
0.0
  0
LINE
  5
536
330
1F
100
AcDbEntity
  8
0
100
AcDbLine
 10
-3186.180391386926
 20
-829.0471257554791
 30
0.0
 11
-3186.180391386926
 21
-841.5271248581298
 31
0.0
  0
LINE
  5
537
330
1F
100
AcDbEntity
  8
0
100
AcDbLine
 10
-3176.729623494384
 20
-828.69633628908
 30
0.0
 11
-3164.56948247337
 21
-831.5037253025511
 31
0.0
  0
LINE
  5
538
330
1F
100
AcDbEntity
  8
0
100
AcDbLine
 10
-3176.029622820851
 20
-848.3263372156343
 30
0.0
 11
-3163.869481799839
 21
-851.1337271604258
 31
0.0
  0
ARC
  5
539
330
1F
100
AcDbEntity
  8
0
100
AcDbCircle
 10
-3173.290391047181
 20
-822.4771255370281
 30
0.0
 40
0.800000000000729
100
AcDbArc
 50
270.0
 51
0.0
  0
LINE
  5
53A
330
1F
100
AcDbEntity
  8
0
100
AcDbLine
 10
-3179.896932361361
 20
-842.4154675278387
 30
0.0
 11
-3167.736795065638
 21
-845.2228556099854
 31
0.0
  0
LINE
  5
53B
330
1F
100
AcDbEntity
  8
0
100
AcDbLine
 10
-3172.490392849624
 20
-809.9971255200392
 30
0.0
 11
-3172.490392849624
 21
-822.4771255540142
 31
0.0
  0
LINE
  5
53C
330
1F
100
AcDbEntity
  8
0
100
AcDbLine
 10
-3186.570390165627
 20
-809.9971255200392
 30
0.0
 11
-3186.570390165627
 21
-822.4771255540142
 31
0.0
  0
LINE
  5
53D
330
1F
100
AcDbEntity
  8
0
100
AcDbLine
 10
-3164.409078923699
 20
-812.6458718154173
 30
0.0
 11
-3167.21646886849
 21
-824.8060100424611
 31
0.0
  0
LINE
  5
53E
330
1F
100
AcDbEntity
  8
0
100
AcDbLine
 10
-3150.689944890973
 20
-815.8131826032462
 30
0.0
 11
-3153.497338561054
 21
-827.9733207720841
 31
0.0
  0
LINE
  5
53F
330
1F
100
AcDbEntity
  8
0
100
AcDbLine
 10
-3191.540391222417
 20
-809.9971255200392
 30
0.0
 11
-3191.540391222417
 21
-822.4771255540142
 31
0.0
  0
LINE
  5
540
330
1F
100
AcDbEntity
  8
0
100
AcDbLine
 10
-3196.996016047171
 20
-800.6971255370141
 30
0.0
 11
-3196.996016047172
 21
-798.5971251639031
 31
0.0
  0
LINE
  5
541
330
1F
100
AcDbEntity
  8
0
100
AcDbLine
 10
-3204.456905872403
 20
-797.5971251639031
 30
0.0
 11
-3202.896016047172
 21
-797.5971251639031
 31
0.0
  0
LINE
  5
542
330
1F
100
AcDbEntity
  8
0
100
AcDbLine
 10
-3201.896016047172
 20
-800.6971255370141
 30
0.0
 11
-3201.896016047172
 21
-798.5971251639031
 31
0.0
  0
ARC
  5
543
330
1F
100
AcDbEntity
  8
0
100
AcDbCircle
 10
-3204.456905529765
 20
-799.5971258627823
 30
0.0
 40
2.000000000000026
100
AcDbArc
 50
90.00000000007814
 51
144.9999999999791
  0
ARC
  5
544
330
1F
100
AcDbEntity
  8
0
100
AcDbCircle
 10
-3213.31959594602
 20
-803.537125537028
 30
0.0
 40
3.0
100
AcDbArc
 50
270.0
 51
325.0000000000258
  0
ARC
  5
545
330
1F
100
AcDbEntity
  8
0
100
AcDbCircle
 10
-3211.390391047179
 20
-809.997125537027
 30
0.0
 40
0.7999999999999954
100
AcDbArc
 50
0.0
 51
90.0
  0
ARC
  5
546
330
1F
100
AcDbEntity
  8
0
100
AcDbCircle
 10
-3204.82039104718
 20
-809.997125537027
 30
0.0
 40
0.8000000000000111
100
AcDbArc
 50
90.0
 51
180.0
  0
LINE
  5
547
330
1F
100
AcDbEntity
  8
0
100
AcDbLine
 10
-3206.095209383249
 20
-798.4499726357361
 30
0.0
 11
-3210.862139743596
 21
-805.257854974497
 31
0.0
  0
ARC
  5
548
330
1F
100
AcDbEntity
  8
0
100
AcDbCircle
 10
-3199.446016047172
 20
-800.6971255370141
 30
0.0
 40
2.45
100
AcDbArc
 50
180.0
 51
0.0
  0
ARC
  5
549
330
1F
100
AcDbEntity
  8
0
100
AcDbCircle
 10
-3223.870391047178
 20
-809.997125537027
 30
0.0
 40
0.8000000000000111
100
AcDbArc
 50
90.0
 51
180.0
  0
LINE
  5
54A
330
1F
100
AcDbEntity
  8
0
100
AcDbLine
 10
-3223.870391064167
 20
-809.1971254820419
 30
0.0
 11
-3211.390391030192
 21
-809.1971254820419
 31
0.0
  0
ARC
  5
54B
330
1F
100
AcDbEntity
  8
0
100
AcDbCircle
 10
-3199.460391047181
 20
-829.047125537027
 30
0.0
 40
0.8000000000000229
100
AcDbArc
 50
90.0
 51
180.0
  0
ARC
  5
54C
330
1F
100
AcDbEntity
  8
0
100
AcDbCircle
 10
-3211.390391047179
 20
-822.477125537026
 30
0.0
 40
0.8000000000010061
100
AcDbArc
 50
270.0
 51
0.0
  0
ARC
  5
54D
330
1F
100
AcDbEntity
  8
0
100
AcDbCircle
 10
-3210.790391047178
 20
-829.047125537027
 30
0.0
 40
0.7999999999994431
100
AcDbArc
 50
0.0000000000390827
 51
90.00000000005213
  0
ARC
  5
54E
330
1F
100
AcDbEntity
  8
0
100
AcDbCircle
 10
-3204.82039104718
 20
-822.4771255370281
 30
0.0
 40
0.8000000000002723
100
AcDbArc
 50
180.0
 51
270.0
  0
ARC
  5
54F
330
1F
100
AcDbEntity
  8
0
100
AcDbCircle
 10
-3199.460391047181
 20
-841.5271255370271
 30
0.0
 40
0.8000000000002728
100
AcDbArc
 50
180.0
 51
270.0
  0
ARC
  5
550
330
1F
100
AcDbEntity
  8
0
100
AcDbCircle
 10
-3198.760391047179
 20
-848.0971255370272
 30
0.0
 40
0.8000000000000254
100
AcDbArc
 50
90.0
 51
180.0
  0
ARC
  5
551
330
1F
100
AcDbEntity
  8
0
100
AcDbCircle
 10
-3210.790391047179
 20
-841.527125537026
 30
0.0
 40
0.8000000000009066
100
AcDbArc
 50
270.0
 51
0.0
  0
ARC
  5
552
330
1F
100
AcDbEntity
  8
0
100
AcDbCircle
 10
-3212.478071047177
 20
-848.0971255370267
 30
0.0
 40
0.7999999999995424
100
AcDbArc
 50
359.9999999999934
 51
90.00000000007814
  0
LINE
  5
553
330
1F
100
AcDbEntity
  8
0
100
AcDbLine
 10
-3209.990391080111
 20
-829.0471257554791
 30
0.0
 11
-3209.990391080111
 21
-841.5271248581298
 31
0.0
  0
LINE
  5
554
330
1F
100
AcDbEntity
  8
0
100
AcDbLine
 10
-3200.260390565574
 20
-829.0471257554791
 30
0.0
 11
-3200.260390565574
 21
-841.5271248581298
 31
0.0
  0
ARC
  5
555
330
1F
100
AcDbEntity
  8
0
100
AcDbCircle
 10
-3223.870391047178
 20
-822.4771255370281
 30
0.0
 40
0.800000000000274
100
AcDbArc
 50
180.0
 51
270.0
  0
ARC
  5
556
330
1F
100
AcDbEntity
  8
0
100
AcDbCircle
 10
-3223.270391047179
 20
-829.047125537027
 30
0.0
 40
0.8000000000000111
100
AcDbArc
 50
90.0
 51
180.0
  0
ARC
  5
557
330
1F
100
AcDbEntity
  8
0
100
AcDbCircle
 10
-3223.270391047179
 20
-841.5271255370271
 30
0.0
 40
0.800000000000274
100
AcDbArc
 50
180.0
 51
270.0
  0
ARC
  5
558
330
1F
100
AcDbEntity
  8
0
100
AcDbCircle
 10
-3229.720391047179
 20
-848.0971255370272
 30
0.0
 40
0.8000000000000254
100
AcDbArc
 50
90.0
 51
180.0
  0
LINE
  5
559
330
1F
100
AcDbEntity
  8
0
100
AcDbLine
 10
-3224.07039119008
 20
-829.0471257554791
 30
0.0
 11
-3224.07039119008
 21
-841.5271248581298
 31
0.0
  0
LINE
  5
55A
330
1F
100
AcDbEntity
  8
0
100
AcDbLine
 10
-3223.270391152083
 20
-828.247125251819
 30
0.0
 11
-3210.790391118109
 21
-828.247125251819
 31
0.0
  0
LINE
  5
55B
330
1F
100
AcDbEntity
  8
0
100
AcDbLine
 10
-3223.270391152083
 20
-842.3271253617889
 30
0.0
 11
-3210.790391118109
 21
-842.3271253617889
 31
0.0
  0
LINE
  5
55C
330
1F
100
AcDbEntity
  8
0
100
AcDbLine
 10
-3223.870391064167
 20
-823.2771255920122
 30
0.0
 11
-3211.390391030192
 21
-823.2771255920122
 31
0.0
  0
LINE
  5
55D
330
1F
100
AcDbEntity
  8
0
100
AcDbLine
 10
-3229.72039137113
 20
-847.2971264185794
 30
0.0
 11
-3212.478071023553
 21
-847.2971264185794
 31
0.0
  0
LINE
  5
55E
330
1F
100
AcDbEntity
  8
0
100
AcDbLine
 10
-3205.620391332387
 20
-809.9971255200392
 30
0.0
 11
-3205.620391332387
 21
-822.4771255540142
 31
0.0
  0
LINE
  5
55F
330
1F
100
AcDbEntity
  8
0
100
AcDbLine
 10
-3224.670391102165
 20
-809.9971255200392
 30
0.0
 11
-3224.670391102165
 21
-822.4771255540142
 31
0.0
  0
LINE
  5
560
330
1F
100
AcDbEntity
  8
0
100
AcDbLine
 10
-3210.590390992193
 20
-809.9971255200392
 30
0.0
 11
-3210.590390992193
 21
-822.4771255540142
 31
0.0
  0
LINE
  5
561
330
1F
100
AcDbEntity
  8
0
100
AcDbLine
 10
-3198.760391251026
 20
-847.2971264185794
 30
0.0
 11
-3186.280389354406
 21
-847.2971264185794
 31
0.0
  0
LINE
  5
562
330
1F
100
AcDbEntity
  8
0
100
AcDbLine
 10
-3199.46039192456
 20
-828.247125251819
 30
0.0
 11
-3186.980391890585
 21
-828.247125251819
 31
0.0
  0
LINE
  5
563
330
1F
100
AcDbEntity
  8
0
100
AcDbLine
 10
-3204.820390828727
 20
-809.1971254820419
 30
0.0
 11
-3192.340391726075
 21
-809.1971254820419
 31
0.0
  0
LINE
  5
564
330
1F
100
AcDbEntity
  8
0
100
AcDbLine
 10
-3199.46039192456
 20
-842.3271253617889
 30
0.0
 11
-3186.980391890585
 21
-842.3271253617889
 31
0.0
  0
LINE
  5
565
330
1F
100
AcDbEntity
  8
0
100
AcDbLine
 10
-3204.820390828727
 20
-823.2771255920122
 30
0.0
 11
-3192.340391726075
 21
-823.2771255920122
 31
0.0
  0
LINE
  5
566
330
1F
100
AcDbEntity
  8
0
100
AcDbLine
 10
-3195.996016047172
 20
-797.5971251639031
 30
0.0
 11
-3194.438551590621
 21
-797.5971251639031
 31
0.0
  0
LINE
  5
567
330
1F
100
AcDbEntity
  8
0
100
AcDbLine
 10
-3158.167872843978
 20
-832.9816541347231
 30
0.0
 11
-3146.007731822964
 21
-835.789044079515
 31
0.0
  0
LINE
  5
568
330
1F
100
AcDbEntity
  8
0
100
AcDbLine
 10
-3161.335181710955
 20
-846.7007844421587
 30
0.0
 11
-3149.175048140524
 21
-849.5081743869503
 31
0.0
  0
ARC
  5
569
330
1F
100
AcDbEntity
  8
0
100
AcDbCircle
 10
-3239.446016047171
 20
-810.5371255370261
 30
0.0
 40
4.000000000002721
100
AcDbArc
 50
90.0
 51
180.0
  0
LINE
  5
56A
330
1F
100
AcDbEntity
  8
0
100
AcDbLine
 10
-3213.319595941185
 20
-806.5371252509251
 30
0.0
 11
-3239.446015135227
 21
-806.5371252509251
 31
0.0
  0
ARC
  5
56B
330
1F
100
AcDbEntity
  8
0
100
AcDbCircle
 10
-3065.540500368838
 20
-855.7481231292928
 30
0.0
 40
0.8000000000000662
100
AcDbArc
 50
282.9999999999973
 51
13.000000000019
  0
ARC
  5
56C
330
1F
100
AcDbEntity
  8
0
100
AcDbCircle
 10
-3072.376590508248
 20
-864.0691768823534
 30
0.0
 40
0.8000000000000515
100
AcDbArc
 50
102.9999999999972
 51
193.000000000019
  0
ARC
  5
56D
330
1F
100
AcDbEntity
  8
0
100
AcDbCircle
 10
-3077.700638777358
 20
-858.5555122875049
 30
0.0
 40
0.8000000000000515
100
AcDbArc
 50
193.000000000019
 51
282.9999999999973
  0
LINE
  5
56E
330
1F
100
AcDbEntity
  8
0
100
AcDbLine
 10
-3077.520681112419
 20
-859.3350082499698
 30
0.0
 11
-3065.360543816695
 21
-856.5276183051778
 31
0.0
  0
ARC
  5
56F
330
1F
100
AcDbEntity
  8
0
100
AcDbCircle
 10
-3069.569201350036
 20
-876.2293152908728
 30
0.0
 40
0.8000000000000577
100
AcDbArc
 50
193.000000000019
 51
282.9999999999973
  0
ARC
  5
570
330
1F
100
AcDbEntity
  8
0
100
AcDbCircle
 10
-3064.932720776982
 20
-881.9017200415329
 30
0.0
 40
0.8000000000000301
100
AcDbArc
 50
13.00000000002571
 51
102.9999999999972
  0
ARC
  5
571
330
1F
100
AcDbEntity
  8
0
100
AcDbCircle
 10
-3077.092859185501
 20
-884.7091091997453
 30
0.0
 40
0.8000000000000458
100
AcDbArc
 50
102.9999999999972
 51
193.000000000019
  0
LINE
  5
572
330
1F
100
AcDbEntity
  8
0
100
AcDbLine
 10
-3077.272822187126
 20
-883.9296139689571
 30
0.0
 11
-3065.112684891403
 21
-881.1222202988751
 31
0.0
  0
LINE
  5
573
330
1F
100
AcDbEntity
  8
0
100
AcDbLine
 10
-3073.156086295256
 20
-864.2491392655088
 30
0.0
 11
-3070.348692625174
 21
-876.4092765612318
 31
0.0
  0
ARC
  5
574
330
1F
100
AcDbEntity
  8
0
100
AcDbCircle
 10
-3105.821596778108
 20
-884.731038969468
 30
0.0
 40
0.7999999999999875
100
AcDbArc
 50
346.9999999999743
 51
77.00000000000272
  0
ARC
  5
575
330
1F
100
AcDbEntity
  8
0
100
AcDbCircle
 10
-3074.444922581719
 20
-902.6431000936417
 30
0.0
 40
0.8000000000003623
100
AcDbArc
 50
102.9999999999972
 51
193.000000000019
  0
ARC
  5
576
330
1F
100
AcDbEntity
  8
0
100
AcDbCircle
 10
-3074.28547002729
 20
-896.8692476082647
 30
0.0
 40
0.8000000000000508
100
AcDbArc
 50
193.000000000019
 51
282.9999999999973
  0
ARC
  5
577
330
1F
100
AcDbEntity
  8
0
100
AcDbCircle
 10
-3071.421580411335
 20
-915.7386337643668
 30
0.0
 40
0.8000000000000333
100
AcDbArc
 50
193.000000000019
 51
283.0000000000508
  0
LINE
  5
578
330
1F
100
AcDbEntity
  8
0
100
AcDbLine
 10
-3072.201077864349
 20
-915.9185923548823
 30
0.0
 11
-3075.224419162452
 21
-902.8230644675382
 31
0.0
  0
ARC
  5
579
330
1F
100
AcDbEntity
  8
0
100
AcDbCircle
 10
-3105.466476929817
 20
-904.364118099939
 30
0.0
 40
0.799999999999975
100
AcDbArc
 50
346.9999999999743
 51
77.00000000000272
  0
LINE
  5
57A
330
1F
100
AcDbEntity
  8
0
100
AcDbLine
 10
-3077.872355506599
 20
-884.8890699359067
 30
0.0
 11
-3075.064961836517
 21
-897.0492072316295
 31
0.0
  0
ARC
  5
57B
330
1F
100
AcDbEntity
  8
0
100
AcDbCircle
 10
-3111.87158422691
 20
-857.2993129474566
 30
0.0
 40
0.8000000000000035
100
AcDbArc
 50
257.0000000000293
 51
346.999999999981
  0
ARC
  5
57C
330
1F
100
AcDbEntity
  8
0
100
AcDbCircle
 10
-3108.364195068697
 20
-864.7691745389371
 30
0.0
 40
0.8000000000000458
100
AcDbArc
 50
346.9999999999743
 51
77.00000000000272
  0
ARC
  5
57D
330
1F
100
AcDbEntity
  8
0
100
AcDbCircle
 10
-3124.03172263543
 20
-854.4919237892463
 30
0.0
 40
0.8000000000000182
100
AcDbArc
 50
166.9999999999876
 51
257.0000000000027
  0
ARC
  5
57E
330
1F
100
AcDbEntity
  8
0
100
AcDbCircle
 10
-3126.925944802857
 20
-860.4838569536864
 30
0.0
 40
0.8000000000000014
100
AcDbArc
 50
346.9999999999743
 51
77.00000000000272
  0
ARC
  5
57F
330
1F
100
AcDbEntity
  8
0
100
AcDbCircle
 10
-3120.524333477217
 20
-861.9617853807264
 30
0.0
 40
0.800000000000011
100
AcDbArc
 50
77.00000000000272
 51
166.9999999999809
  0
LINE
  5
580
330
1F
100
AcDbEntity
  8
0
100
AcDbLine
 10
-3120.344370869633
 20
-861.1822879585943
 30
0.0
 11
-3108.18423357391
 21
-863.9896779033859
 31
0.0
  0
LINE
  5
581
330
1F
100
AcDbEntity
  8
0
100
AcDbLine
 10
-3124.211684135434
 20
-855.2714182707987
 30
0.0
 11
-3112.05154683971
 21
-858.0788082155903
 31
0.0
  0
ARC
  5
582
330
1F
100
AcDbEntity
  8
0
100
AcDbCircle
 10
-3111.171584226909
 20
-876.9293129474567
 30
0.0
 40
0.8000000000000035
100
AcDbArc
 50
257.0000000000027
 51
346.999999999981
  0
ARC
  5
583
330
1F
100
AcDbEntity
  8
0
100
AcDbCircle
 10
-3123.331722635429
 20
-874.1219237892464
 30
0.0
 40
0.8000000000000301
100
AcDbArc
 50
166.9999999999743
 51
257.0000000000027
  0
ARC
  5
584
330
1F
100
AcDbEntity
  8
0
100
AcDbCircle
 10
-3124.383346512267
 20
-880.4457213842169
 30
0.0
 40
0.8000000000000163
100
AcDbArc
 50
346.9999999999743
 51
77.00000000000272
  0
LINE
  5
585
330
1F
100
AcDbEntity
  8
0
100
AcDbLine
 10
-3123.511687187193
 20
-874.9014182660303
 30
0.0
 11
-3111.351542440888
 21
-877.7088082108219
 31
0.0
  0
ARC
  5
586
330
1F
100
AcDbEntity
  8
0
100
AcDbCircle
 10
-3117.981735186627
 20
-881.9236498112571
 30
0.0
 40
0.8000000000000595
100
AcDbArc
 50
77.00000000000272
 51
166.9999999999809
  0
LINE
  5
587
330
1F
100
AcDbEntity
  8
0
100
AcDbLine
 10
-3121.303826836584
 20
-861.7818250033579
 30
0.0
 11
-3124.111220506665
 21
-873.9419622990807
 31
0.0
  0
LINE
  5
588
330
1F
100
AcDbEntity
  8
0
100
AcDbLine
 10
-3107.584700254437
 20
-864.9491338703356
 30
0.0
 11
-3110.39208647394
 21
-877.1092748913487
 31
0.0
  0
ARC
  5
589
330
1F
100
AcDbEntity
  8
0
100
AcDbCircle
 10
-3130.433333961069
 20
-853.0139953622054
 30
0.0
 40
0.800000000000063
100
AcDbArc
 50
257.0000000000293
 51
346.999999999981
  0
ARC
  5
58A
330
1F
100
AcDbEntity
  8
0
100
AcDbCircle
 10
-3145.487694537016
 20
-856.1985393684354
 30
0.0
 40
0.8000000000000163
100
AcDbArc
 50
346.9999999999743
 51
77.00000000000272
  0
ARC
  5
58B
330
1F
100
AcDbEntity
  8
0
100
AcDbCircle
 10
-3148.295083695225
 20
-868.3586777769551
 30
0.0
 40
0.8000000000000229
100
AcDbArc
 50
257.0000000000293
 51
346.999999999981
  0
LINE
  5
58C
330
1F
100
AcDbEntity
  8
0
100
AcDbLine
 10
-3144.708201555249
 20
-856.3785000416954
 30
0.0
 11
-3147.51558777475
 21
-868.5386373374186
 31
0.0
  0
ARC
  5
58D
330
1F
100
AcDbEntity
  8
0
100
AcDbCircle
 10
-3139.086083211378
 20
-857.6764677954759
 30
0.0
 40
0.8000000000000524
100
AcDbArc
 50
77.00000000000272
 51
166.9999999999809
  0
ARC
  5
58E
330
1F
100
AcDbEntity
  8
0
100
AcDbCircle
 10
-3129.733333961068
 20
-872.6439953622058
 30
0.0
 40
0.799999999999979
100
AcDbArc
 50
257.0000000000027
 51
346.999999999981
  0
ARC
  5
58F
330
1F
100
AcDbEntity
  8
0
100
AcDbCircle
 10
-3136.543484920788
 20
-877.6383322260063
 30
0.0
 40
0.8000000000000003
100
AcDbArc
 50
77.00000000000272
 51
166.9999999999809
  0
ARC
  5
590
330
1F
100
AcDbEntity
  8
0
100
AcDbCircle
 10
-3141.893472369588
 20
-869.8366062039955
 30
0.0
 40
0.8000000000000008
100
AcDbArc
 50
166.9999999999809
 51
257.0000000000027
  0
ARC
  5
591
330
1F
100
AcDbEntity
  8
0
100
AcDbCircle
 10
-3142.945096246425
 20
-876.1604037989664
 30
0.0
 40
0.8000000000000614
100
AcDbArc
 50
346.9999999999743
 51
77.00000000000272
  0
LINE
  5
592
330
1F
100
AcDbEntity
  8
0
100
AcDbLine
 10
-3142.073430387017
 20
-870.6161013517103
 30
0.0
 11
-3129.913293091294
 21
-873.4234912965019
 31
0.0
  0
LINE
  5
593
330
1F
100
AcDbEntity
  8
0
100
AcDbLine
 10
-3139.86557748699
 20
-857.4965080890377
 30
0.0
 11
-3142.672971157071
 21
-869.6566453847607
 31
0.0
  0
LINE
  5
594
330
1F
100
AcDbEntity
  8
0
100
AcDbLine
 10
-3138.906121520039
 20
-856.8969710442743
 30
0.0
 11
-3126.745984224316
 21
-859.7043609890659
 31
0.0
  0
LINE
  5
595
330
1F
100
AcDbEntity
  8
0
100
AcDbLine
 10
-3136.363525912941
 20
-876.8588378938323
 30
0.0
 11
-3124.203388617218
 21
-879.6662278386245
 31
0.0
  0
LINE
  5
596
330
1F
100
AcDbEntity
  8
0
100
AcDbLine
 10
-3126.146450904843
 20
-860.6638169560154
 30
0.0
 11
-3128.953837124345
 21
-872.8239579770287
 31
0.0
  0
ARC
  5
597
330
1F
100
AcDbEntity
  8
0
100
AcDbCircle
 10
-3108.62898593632
 20
-896.8911773779874
 30
0.0
 40
0.8000000000000035
100
AcDbArc
 50
257.0000000000027
 51
346.999999999981
  0
ARC
  5
598
330
1F
100
AcDbEntity
  8
0
100
AcDbCircle
 10
-3127.190735670478
 20
-892.6058597927363
 30
0.0
 40
0.800000000000011
100
AcDbArc
 50
257.0000000000027
 51
346.999999999981
  0
ARC
  5
599
330
1F
100
AcDbEntity
  8
0
100
AcDbCircle
 10
-3119.94683405511
 20
-901.0210642435735
 30
0.0
 40
0.7999999999999697
100
AcDbArc
 50
77.00000000000272
 51
166.9999999999809
  0
ARC
  5
59A
330
1F
100
AcDbEntity
  8
0
100
AcDbCircle
 10
-3127.031185679044
 20
-898.3797347732188
 30
0.0
 40
0.8000000000000044
100
AcDbArc
 50
346.9999999999877
 51
77.00000000000272
  0
ARC
  5
59B
330
1F
100
AcDbEntity
  8
0
100
AcDbCircle
 10
-3120.78912434484
 20
-894.083788219777
 30
0.0
 40
0.8000000000000044
100
AcDbArc
 50
166.9999999999809
 51
257.0000000000027
  0
LINE
  5
59C
330
1F
100
AcDbEntity
  8
0
100
AcDbLine
 10
-3120.969084129512
 20
-894.8632813902982
 30
0.0
 11
-3108.808946833788
 21
-897.6706750603804
 31
0.0
  0
ARC
  5
59D
330
1F
100
AcDbEntity
  8
0
100
AcDbCircle
 10
-3108.27386608803
 20
-916.5242565084597
 30
0.0
 40
0.7999999999999971
100
AcDbArc
 50
257.0000000000027
 51
346.999999999981
  0
ARC
  5
59E
330
1F
100
AcDbEntity
  8
0
100
AcDbCircle
 10
-3122.75422321332
 20
-913.1812026520931
 30
0.0
 40
0.8000000000000635
100
AcDbArc
 50
166.9999999999743
 51
257.0000000000027
  0
LINE
  5
59F
330
1F
100
AcDbEntity
  8
0
100
AcDbLine
 10
-3122.93418221253
 20
-913.9606989833003
 30
0.0
 11
-3108.453829810798
 21
-917.3037521453984
 31
0.0
  0
LINE
  5
5A0
330
1F
100
AcDbEntity
  8
0
100
AcDbLine
 10
-3120.726329312502
 20
-900.8411057206279
 30
0.0
 11
-3123.533722982585
 21
-913.0012430163509
 31
0.0
  0
ARC
  5
5A1
330
1F
100
AcDbEntity
  8
0
100
AcDbCircle
 10
-3135.002750771568
 20
-896.5393539598675
 30
0.0
 40
0.7999999999999897
100
AcDbArc
 50
77.00000000000272
 51
166.9999999999743
  0
LINE
  5
5A2
330
1F
100
AcDbEntity
  8
0
100
AcDbLine
 10
-3135.822740421474
 20
-896.5347818943151
 30
0.0
 11
-3135.782246515928
 21
-896.3593952270635
 31
0.0
  0
LINE
  5
5A3
330
1F
100
AcDbEntity
  8
0
100
AcDbLine
 10
-3149.556239173591
 20
-893.3641500683911
 30
0.0
 11
-3149.515752718627
 21
-893.1887634011395
 31
0.0
  0
ARC
  5
5A4
330
1F
100
AcDbEntity
  8
0
100
AcDbCircle
 10
-3150.295245345856
 20
-893.0088033997048
 30
0.0
 40
0.8000000000000124
100
AcDbArc
 50
347.0000000000252
 51
77.00000000000272
  0
ARC
  5
5A5
330
1F
100
AcDbEntity
  8
0
100
AcDbCircle
 10
-3145.752485404636
 20
-888.3205422074857
 30
0.0
 40
0.8000000000000785
100
AcDbArc
 50
257.0000000000293
 51
346.999999999981
  0
ARC
  5
5A6
330
1F
100
AcDbEntity
  8
0
100
AcDbCircle
 10
-3139.350874078998
 20
-889.798470634526
 30
0.0
 40
0.8000000000000737
100
AcDbArc
 50
166.9999999999809
 51
257.0000000000027
  0
LINE
  5
5A7
330
1F
100
AcDbEntity
  8
0
100
AcDbLine
 10
-3149.556239173591
 20
-893.3641500683911
 30
0.0
 11
-3135.822740421474
 21
-896.5347818943151
 31
0.0
  0
ARC
  5
5A8
330
1F
100
AcDbEntity
  8
0
100
AcDbCircle
 10
-3130.054527849423
 20
-911.4752684439084
 30
0.0
 40
0.8000000000000165
100
AcDbArc
 50
257.0000000000562
 51
346.9999999982362
  0
ARC
  5
5A9
330
1F
100
AcDbEntity
  8
0
100
AcDbCircle
 10
-3131.745160392696
 20
-917.7354057853099
 30
0.0
 40
3.000000000000003
100
AcDbArc
 50
77.00000000000272
 51
132.0000000000079
  0
LINE
  5
5AA
330
1F
100
AcDbEntity
  8
0
100
AcDbLine
 10
-3143.14878989248
 20
-917.6070742687679
 30
0.0
 11
-3143.621187047806
 21
-919.6532503336204
 31
0.0
  0
LINE
  5
5AB
330
1F
100
AcDbEntity
  8
0
100
AcDbLine
 10
-3147.923203113518
 20
-916.5048136848851
 30
0.0
 11
-3148.395600226004
 21
-918.5509895641754
 31
0.0
  0
ARC
  5
5AC
330
1F
100
AcDbEntity
  8
0
100
AcDbCircle
 10
-3145.535996502997
 20
-917.0559439768272
 30
0.0
 40
2.45
100
AcDbArc
 50
346.9999999999877
 51
166.9999999999683
  0
LINE
  5
5AD
330
1F
100
AcDbEntity
  8
0
100
AcDbLine
 10
-3139.530834779918
 20
-890.5779682012683
 30
0.0
 11
-3127.370697484195
 21
-893.3853544207698
 31
0.0
  0
LINE
  5
5AE
330
1F
100
AcDbEntity
  8
0
100
AcDbLine
 10
-3129.275028631866
 20
-911.6552285762914
 30
0.0
 11
-3126.251687333761
 21
-898.5596932383664
 31
0.0
  0
LINE
  5
5AF
330
1F
100
AcDbEntity
  8
0
100
AcDbLine
 10
-3126.851228103816
 20
-897.6002372714171
 30
0.0
 11
-3134.82279054898
 21
-895.7598544570094
 31
0.0
  0
LINE
  5
5B0
330
1F
100
AcDbEntity
  8
0
100
AcDbLine
 10
-3142.16559849757
 20
-876.3403631659635
 30
0.0
 11
-3144.97299216765
 21
-888.5005004616864
 31
0.0
  0
LINE
  5
5B1
330
1F
100
AcDbEntity
  8
0
100
AcDbLine
 10
-3137.32298187989
 20
-877.4583712133059
 30
0.0
 11
-3140.130368099391
 21
-889.6185122343188
 31
0.0
  0
LINE
  5
5B2
330
1F
100
AcDbEntity
  8
0
100
AcDbLine
 10
-3123.603847847162
 20
-880.6256838055739
 30
0.0
 11
-3126.411241517244
 21
-892.7858211012967
 31
0.0
  0
LINE
  5
5B3
330
1F
100
AcDbEntity
  8
0
100
AcDbLine
 10
-3118.761231229484
 20
-881.7436881276259
 30
0.0
 11
-3121.568617448986
 21
-893.9038254233487
 31
0.0
  0
LINE
  5
5B4
330
1F
100
AcDbEntity
  8
0
100
AcDbLine
 10
-3117.801775262533
 20
-881.1441548081523
 30
0.0
 11
-3105.641637966812
 21
-883.9515410276538
 31
0.0
  0
LINE
  5
5B5
330
1F
100
AcDbEntity
  8
0
100
AcDbLine
 10
-3105.042097196756
 20
-884.9109969946034
 30
0.0
 11
-3107.849490866839
 21
-897.0711417409068
 31
0.0
  0
LINE
  5
5B6
330
1F
100
AcDbEntity
  8
0
100
AcDbLine
 10
-3104.686980173767
 20
-904.5440815302022
 30
0.0
 11
-3107.494366393268
 21
-916.7042188259252
 31
0.0
  0
LINE
  5
5B7
330
1F
100
AcDbEntity
  8
0
100
AcDbLine
 10
-3119.766873345553
 20
-900.241564950574
 30
0.0
 11
-3105.286513493239
 21
-903.5846255632527
 31
0.0
  0
ARC
  5
5B8
330
1F
100
AcDbEntity
  8
0
100
AcDbCircle
 10
-3076.093728103252
 20
-917.583551291519
 30
0.0
 40
3.0
100
AcDbArc
 50
270.0
 51
282.9999999999973
  0
ARC
  5
5B9
330
1F
100
AcDbEntity
  8
0
100
AcDbCircle
 10
-3105.730445573437
 20
-917.583551291519
 30
0.0
 40
3.000000000000003
100
AcDbArc
 50
257.0000000000027
 51
270.0
  0
LINE
  5
5BA
330
1F
100
AcDbEntity
  8
0
100
AcDbLine
 10
-3105.730448887527
 20
-920.5835498782283
 30
0.0
 11
-3076.093723104179
 21
-920.5835498782283
 31
0.0
  0
LINE
  5
5BB
330
1F
100
AcDbEntity
  8
0
100
AcDbLine
 10
-3141.354222819984
 20
-921.2029240938315
 30
0.0
 11
-3142.871767832732
 21
-920.8525715897595
 31
0.0
  0
ARC
  5
5BC
330
1F
100
AcDbEntity
  8
0
100
AcDbCircle
 10
-3140.904318627323
 20
-919.2541852540987
 30
0.0
 40
2.000000000000007
100
AcDbArc
 50
257.0000000000293
 51
312.0000000000079
  0
LINE
  5
5BD
330
1F
100
AcDbEntity
  8
0
100
AcDbLine
 10
-3106.405300126253
 20
-920.506659886468
 30
0.0
 11
-3131.070305631338
 21
-914.8122928949485
 31
0.0
  0
LINE
  5
5BE
330
1F
100
AcDbEntity
  8
0
100
AcDbLine
 10
-3139.56606112498
 20
-920.7404740067607
 30
0.0
 11
-3133.752551899135
 21
-915.5059717508445
 31
0.0
  0
LINE
  5
5BF
330
1F
100
AcDbEntity
  8
0
100
AcDbLine
 10
-3158.427328137396
 20
-853.2111911747179
 30
0.0
 11
-3161.234718082186
 21
-865.3713284704407
 31
0.0
  0
ARC
  5
5C0
330
1F
100
AcDbEntity
  8
0
100
AcDbCircle
 10
-3166.856833429386
 20
-864.0733601917045
 30
0.0
 40
0.8000000000000035
100
AcDbArc
 50
257.0000000000027
 51
346.999999999981
  0
ARC
  5
5C1
330
1F
100
AcDbEntity
  8
0
100
AcDbCircle
 10
-3160.455222103745
 20
-865.5512886187445
 30
0.0
 40
0.8000000000001014
100
AcDbArc
 50
166.9999999999809
 51
257.0000000000027
  0
ARC
  5
5C2
330
1F
100
AcDbEntity
  8
0
100
AcDbCircle
 10
-3155.105234654945
 20
-873.3530146407556
 30
0.0
 40
0.7999999999999764
100
AcDbArc
 50
77.00000000000272
 51
166.9999999999809
  0
ARC
  5
5C3
330
1F
100
AcDbEntity
  8
0
100
AcDbCircle
 10
-3161.506845980583
 20
-871.8750862137154
 30
0.0
 40
0.8000000000000014
100
AcDbArc
 50
346.9999999999743
 51
77.00000000000272
  0
LINE
  5
5C4
330
1F
100
AcDbEntity
  8
0
100
AcDbLine
 10
-3155.884732530295
 20
-873.1730542989858
 30
0.0
 11
-3158.692118749797
 21
-885.3331915947087
 31
0.0
  0
ARC
  5
5C5
330
1F
100
AcDbEntity
  8
0
100
AcDbCircle
 10
-3164.314235138796
 20
-884.035224622235
 30
0.0
 40
0.8000000000000035
100
AcDbArc
 50
257.0000000000027
 51
346.999999999981
  0
LINE
  5
5C6
330
1F
100
AcDbEntity
  8
0
100
AcDbLine
 10
-3160.727349147975
 20
-872.0550462516436
 30
0.0
 11
-3163.534739092767
 21
-884.2151872726567
 31
0.0
  0
ARC
  5
5C7
330
1F
100
AcDbEntity
  8
0
100
AcDbCircle
 10
-3173.666984389104
 20
-869.0676970555047
 30
0.0
 40
0.8000000000000458
100
AcDbArc
 50
77.00000000000272
 51
166.9999999999809
  0
ARC
  5
5C8
330
1F
100
AcDbEntity
  8
0
100
AcDbCircle
 10
-3179.016971837905
 20
-861.2659710334938
 30
0.0
 40
0.8000000000000266
100
AcDbArc
 50
166.9999999999743
 51
257.0000000000027
  0
ARC
  5
5C9
330
1F
100
AcDbEntity
  8
0
100
AcDbCircle
 10
-3186.280391047178
 20
-860.5771255370264
 30
0.0
 40
0.8000000000010203
100
AcDbArc
 50
270.0
 51
359.9999999999413
  0
ARC
  5
5CA
330
1F
100
AcDbEntity
  8
0
100
AcDbCircle
 10
-3183.930391047178
 20
-867.1471255370267
 30
0.0
 40
0.7999999999994714
100
AcDbArc
 50
359.9999999999869
 51
90.00000000005213
  0
ARC
  5
5CB
330
1F
100
AcDbEntity
  8
0
100
AcDbCircle
 10
-3176.474373547315
 20
-881.2278354640243
 30
0.0
 40
0.800000000000004
100
AcDbArc
 50
166.9999999999809
 51
257.0000000000027
  0
ARC
  5
5CC
330
1F
100
AcDbEntity
  8
0
100
AcDbCircle
 10
-3183.930391047179
 20
-879.6271255370264
 30
0.0
 40
0.8000000000009066
100
AcDbArc
 50
270.0
 51
359.9999999999478
  0
LINE
  5
5CD
330
1F
100
AcDbEntity
  8
0
100
AcDbLine
 10
-3174.446479455411
 20
-868.8877373846656
 30
0.0
 11
-3177.253869400203
 21
-881.0478709550984
 31
0.0
  0
LINE
  5
5CE
330
1F
100
AcDbEntity
  8
0
100
AcDbLine
 10
-3183.130391911447
 20
-867.1471252950317
 30
0.0
 11
-3183.130391911447
 21
-879.6271271916515
 31
0.0
  0
LINE
  5
5CF
330
1F
100
AcDbEntity
  8
0
100
AcDbLine
 10
-3173.487023488462
 20
-868.288200339902
 30
0.0
 11
-3161.326886192739
 21
-871.0955902846938
 31
0.0
  0
LINE
  5
5D0
330
1F
100
AcDbEntity
  8
0
100
AcDbLine
 10
-3179.19693168783
 20
-862.0454675230703
 30
0.0
 11
-3167.036794392107
 21
-864.8528574678618
 31
0.0
  0
LINE
  5
5D1
330
1F
100
AcDbEntity
  8
0
100
AcDbLine
 10
-3176.65433608073
 20
-882.0073343726283
 30
0.0
 11
-3164.494195059715
 21
-884.8147205921298
 31
0.0
  0
ARC
  5
5D2
330
1F
100
AcDbEntity
  8
0
100
AcDbCircle
 10
-3158.266810438382
 20
-891.1684225863535
 30
0.0
 40
0.7999999999999961
100
AcDbArc
 50
77.00000000000272
 51
166.9999999999743
  0
ARC
  5
5D3
330
1F
100
AcDbEntity
  8
0
100
AcDbCircle
 10
-3168.112382282608
 20
-889.9011712497165
 30
0.0
 40
0.8000000000000092
100
AcDbArc
 50
346.9999999999743
 51
77.00000000000272
  0
ARC
  5
5D4
330
1F
100
AcDbEntity
  8
0
100
AcDbCircle
 10
-3170.919771440819
 20
-902.0613096582362
 30
0.0
 40
0.8000000000000886
100
AcDbArc
 50
257.0000000000293
 51
346.999999999981
  0
LINE
  5
5D5
330
1F
100
AcDbEntity
  8
0
100
AcDbLine
 10
-3167.332884893596
 20
-890.081133684743
 30
0.0
 11
-3170.140274838388
 21
-902.2412709804662
 31
0.0
  0
ARC
  5
5D6
330
1F
100
AcDbEntity
  8
0
100
AcDbCircle
 10
-3158.232311058136
 20
-911.6203652231098
 30
0.0
 40
3.000000000000003
100
AcDbArc
 50
21.99999999998637
 51
77.00000000000272
  0
ARC
  5
5D7
330
1F
100
AcDbEntity
  8
0
100
AcDbCircle
 10
-3150.665903265196
 20
-917.0005458662343
 30
0.0
 40
2.000000000000026
100
AcDbArc
 50
201.9999999999863
 51
257.0000000000027
  0
LINE
  5
5D8
330
1F
100
AcDbEntity
  8
0
100
AcDbLine
 10
-3152.520273850143
 20
-917.7497588010915
 30
0.0
 11
-3155.450758562265
 21
-910.4965440841802
 31
0.0
  0
ARC
  5
5D9
330
1F
100
AcDbEntity
  8
0
100
AcDbCircle
 10
-3161.290152608766
 20
-904.2639562570718
 30
0.0
 40
0.800000000000039
100
AcDbArc
 50
167.0000000000311
 51
257.0000000000562
  0
LINE
  5
5DA
330
1F
100
AcDbEntity
  8
0
100
AcDbLine
 10
-3162.069649473606
 20
-904.0839932771811
 30
0.0
 11
-3159.046308175504
 21
-890.9884653898364
 31
0.0
  0
ARC
  5
5DB
330
1F
100
AcDbEntity
  8
0
100
AcDbCircle
 10
-3186.314307345607
 20
-905.1371255370263
 30
0.0
 40
3.0
100
AcDbArc
 50
77.00000000000272
 51
90.0
  0
LINE
  5
5DC
330
1F
100
AcDbEntity
  8
0
100
AcDbLine
 10
-3181.052015201032
 20
-886.9138248177655
 30
0.0
 11
-3183.859405145824
 21
-899.0739621134883
 31
0.0
  0
ARC
  5
5DD
330
1F
100
AcDbEntity
  8
0
100
AcDbCircle
 10
-3183.07990984934
 20
-899.2539205000259
 30
0.0
 40
0.8000000000000266
100
AcDbArc
 50
166.9999999999743
 51
257.0000000000027
  0
LINE
  5
5DE
330
1F
100
AcDbEntity
  8
0
100
AcDbLine
 10
-3183.259871826349
 20
-900.0334180804379
 30
0.0
 11
-3171.099730805337
 21
-902.8408042999394
 31
0.0
  0
LINE
  5
5DF
330
1F
100
AcDbEntity
  8
0
100
AcDbLine
 10
-3157.55745865482
 20
-908.6972586723454
 30
0.0
 11
-3185.639453158556
 21
-902.2140167566425
 31
0.0
  0
LINE
  5
5E0
330
1F
100
AcDbEntity
  8
0
100
AcDbLine
 10
-3180.092559234081
 20
-886.3142840477115
 30
0.0
 11
-3167.932421938358
 21
-889.1216777177939
 31
0.0
  0
ARC
  5
5E1
330
1F
100
AcDbEntity
  8
0
100
AcDbCircle
 10
-3180.272520691128
 20
-887.0937820915058
 30
0.0
 40
0.8000000000000074
100
AcDbArc
 50
77.00000000000272
 51
166.9999999999809
  0
ARC
  5
5E2
330
1F
100
AcDbEntity
  8
0
100
AcDbCircle
 10
-3157.912623813155
 20
-885.5131530492755
 30
0.0
 40
0.7999999999999955
100
AcDbArc
 50
166.9999999999743
 51
257.0000000000027
  0
ARC
  5
5E3
330
1F
100
AcDbEntity
  8
0
100
AcDbCircle
 10
-3196.410391047178
 20
-867.1471255370272
 30
0.0
 40
0.8000000000000254
100
AcDbArc
 50
90.0
 51
180.0
  0
ARC
  5
5E4
330
1F
100
AcDbEntity
  8
0
100
AcDbCircle
 10
-3198.760391047179
 20
-860.5771255370271
 30
0.0
 40
0.8000000000002723
100
AcDbArc
 50
180.0
 51
270.0
  0
ARC
  5
5E5
330
1F
100
AcDbEntity
  8
0
100
AcDbCircle
 10
-3212.082441047177
 20
-867.1671255370265
 30
0.0
 40
0.8000000000026883
100
AcDbArc
 50
90.0
 51
180.0
  0
ARC
  5
5E6
330
1F
100
AcDbEntity
  8
0
100
AcDbCircle
 10
-3214.880391047181
 20
-867.1471255370267
 30
0.0
 40
0.8000000000004233
100
AcDbArc
 50
359.9999999999674
 51
89.99999999997395
  0
LINE
  5
5E7
330
1F
100
AcDbEntity
  8
0
100
AcDbLine
 10
-3206.282440611003
 20
-866.3671240123397
 30
0.0
 11
-3212.082441002905
 21
-866.3671240123397
 31
0.0
  0
ARC
  5
5E8
330
1F
100
AcDbEntity
  8
0
100
AcDbCircle
 10
-3212.478071047179
 20
-860.5771255370266
 30
0.0
 40
0.8000000000009102
100
AcDbArc
 50
270.0
 51
0.0
  0
ARC
  5
5E9
330
1F
100
AcDbEntity
  8
0
100
AcDbCircle
 10
-3206.282441047178
 20
-867.1671255370235
 30
0.0
 40
0.8000000000000111
100
AcDbArc
 50
0.0000000002931199
 51
89.99999999986973
  0
ARC
  5
5EA
330
1F
100
AcDbEntity
  8
0
100
AcDbCircle
 10
-3196.410391047178
 20
-879.6271255370271
 30
0.0
 40
0.8000000000002723
100
AcDbArc
 50
180.0
 51
270.0
  0
ARC
  5
5EB
330
1F
100
AcDbEntity
  8
0
100
AcDbCircle
 10
-3212.082441047182
 20
-880.6071255370264
 30
0.0
 40
0.7999999999994146
100
AcDbArc
 50
179.9999999999869
 51
270.0000000000781
  0
ARC
  5
5EC
330
1F
100
AcDbEntity
  8
0
100
AcDbCircle
 10
-3214.880391047181
 20
-879.6271255370267
 30
0.0
 40
0.8000000000000111
100
AcDbArc
 50
269.9999999999739
 51
359.9999999999674
  0
LINE
  5
5ED
330
1F
100
AcDbEntity
  8
0
100
AcDbLine
 10
-3212.082441002905
 20
-881.4071230503207
 30
0.0
 11
-3206.282440611003
 21
-881.4071230503207
 31
0.0
  0
ARC
  5
5EE
330
1F
100
AcDbEntity
  8
0
100
AcDbCircle
 10
-3206.282441047178
 20
-880.6071255370248
 30
0.0
 40
0.8000000000008069
100
AcDbArc
 50
270.0
 51
0.0000000000130276
  0
LINE
  5
5EF
330
1F
100
AcDbEntity
  8
0
100
AcDbLine
 10
-3212.882441040903
 20
-867.1671263786445
 30
0.0
 11
-3212.882441040903
 21
-880.6071244093068
 31
0.0
  0
LINE
  5
5F0
330
1F
100
AcDbEntity
  8
0
100
AcDbLine
 10
-3214.080391024082
 20
-879.6271271916515
 30
0.0
 11
-3214.080391024082
 21
-867.1471252950317
 31
0.0
  0
LINE
  5
5F1
330
1F
100
AcDbEntity
  8
0
100
AcDbLine
 10
-3197.210391090095
 20
-867.1471252950317
 30
0.0
 11
-3197.210391090095
 21
-879.6271271916515
 31
0.0
  0
LINE
  5
5F2
330
1F
100
AcDbEntity
  8
0
100
AcDbLine
 10
-3205.482441038668
 20
-867.1671263786445
 30
0.0
 11
-3205.482441038668
 21
-880.6071244093068
 31
0.0
  0
ARC
  5
5F3
330
1F
100
AcDbEntity
  8
0
100
AcDbCircle
 10
-3227.36039104718
 20
-867.1471255370271
 30
0.0
 40
0.8000000000009066
100
AcDbArc
 50
90.0
 51
180.0
  0
ARC
  5
5F4
330
1F
100
AcDbEntity
  8
0
100
AcDbCircle
 10
-3230.158441047179
 20
-867.1671255370231
 30
0.0
 40
0.8000000000000254
100
AcDbArc
 50
0.0000000003126612
 51
89.99999999979156
  0
ARC
  5
5F5
330
1F
100
AcDbEntity
  8
0
100
AcDbCircle
 10
-3235.958441047176
 20
-867.1671255370265
 30
0.0
 40
0.8000000000031306
100
AcDbArc
 50
90.0
 51
180.0
  0
LINE
  5
5F6
330
1F
100
AcDbEntity
  8
0
100
AcDbLine
 10
-3230.158440806745
 20
-866.3671240123397
 30
0.0
 11
-3235.958441198647
 21
-866.3671240123397
 31
0.0
  0
ARC
  5
5F7
330
1F
100
AcDbEntity
  8
0
100
AcDbCircle
 10
-3229.720391047179
 20
-860.5771255370271
 30
0.0
 40
0.8000000000002707
100
AcDbArc
 50
180.0
 51
270.0
  0
ARC
  5
5F8
330
1F
100
AcDbEntity
  8
0
100
AcDbCircle
 10
-3219.642891047179
 20
-886.1971255370264
 30
0.0
 40
0.7999999999999936
100
AcDbArc
 50
0.0
 51
90.0
  0
ARC
  5
5F9
330
1F
100
AcDbEntity
  8
0
100
AcDbCircle
 10
-3227.360391047181
 20
-879.6271255370271
 30
0.0
 40
0.7999999999999936
100
AcDbArc
 50
180.0
 51
269.9999999999478
  0
ARC
  5
5FA
330
1F
100
AcDbEntity
  8
0
100
AcDbCircle
 10
-3230.158441047179
 20
-880.6071255370252
 30
0.0
 40
0.8000000000005512
100
AcDbArc
 50
270.0
 51
0.0
  0
ARC
  5
5FB
330
1F
100
AcDbEntity
  8
0
100
AcDbCircle
 10
-3235.958441047181
 20
-880.6071255370264
 30
0.0
 40
0.7999999999991943
100
AcDbArc
 50
179.9999999999869
 51
270.0
  0
ARC
  5
5FC
330
1F
100
AcDbEntity
  8
0
100
AcDbCircle
 10
-3232.12289104718
 20
-886.1971255370272
 30
0.0
 40
0.8000000000000254
100
AcDbArc
 50
90.0
 51
180.0
  0
LINE
  5
5FD
330
1F
100
AcDbEntity
  8
0
100
AcDbLine
 10
-3235.958441198647
 20
-881.4071230503207
 30
0.0
 11
-3230.158440806745
 21
-881.4071230503207
 31
0.0
  0
LINE
  5
5FE
330
1F
100
AcDbEntity
  8
0
100
AcDbLine
 10
-3232.122890689252
 20
-885.3971250268108
 30
0.0
 11
-3219.64289112094
 21
-885.3971250268108
 31
0.0
  0
LINE
  5
5FF
330
1F
100
AcDbEntity
  8
0
100
AcDbLine
 10
-3236.758441702306
 20
-867.1671263786445
 30
0.0
 11
-3236.758441702306
 21
-880.6071244093068
 31
0.0
  0
LINE
  5
600
330
1F
100
AcDbEntity
  8
0
100
AcDbLine
 10
-3229.358441234408
 20
-867.1671263786445
 30
0.0
 11
-3229.358441234408
 21
-880.6071244093068
 31
0.0
  0
LINE
  5
601
330
1F
100
AcDbEntity
  8
0
100
AcDbLine
 10
-3228.160390668392
 20
-879.6271271916515
 30
0.0
 11
-3228.160390668392
 21
-867.1471252950317
 31
0.0
  0
LINE
  5
602
330
1F
100
AcDbEntity
  8
0
100
AcDbLine
 10
-3229.72039137113
 20
-861.3771237345821
 30
0.0
 11
-3212.478071023553
 21
-861.3771237345821
 31
0.0
  0
LINE
  5
603
330
1F
100
AcDbEntity
  8
0
100
AcDbLine
 10
-3214.88039106208
 20
-866.3471266540176
 30
0.0
 11
-3227.360391096056
 21
-866.3471266540176
 31
0.0
  0
LINE
  5
604
330
1F
100
AcDbEntity
  8
0
100
AcDbLine
 10
-3214.88039106208
 20
-880.4271258326654
 30
0.0
 11
-3227.360391096056
 21
-880.4271258326654
 31
0.0
  0
ARC
  5
605
330
1F
100
AcDbEntity
  8
0
100
AcDbCircle
 10
-3211.262064088542
 20
-905.1371255370263
 30
0.0
 40
3.000000000000011
100
AcDbArc
 50
90.0
 51
144.9999999999791
  0
ARC
  5
606
330
1F
100
AcDbEntity
  8
0
100
AcDbCircle
 10
-3219.642891047179
 20
-898.6771255370261
 30
0.0
 40
0.8000000000010203
100
AcDbArc
 50
270.0
 51
0.0
  0
ARC
  5
607
330
1F
100
AcDbEntity
  8
0
100
AcDbCircle
 10
-3232.12289104718
 20
-898.6771255370271
 30
0.0
 40
0.8000000000002991
100
AcDbArc
 50
180.0
 51
270.0
  0
LINE
  5
608
330
1F
100
AcDbEntity
  8
0
100
AcDbLine
 10
-3232.122890689252
 20
-899.477127930749
 30
0.0
 11
-3219.64289112094
 21
-899.477127930749
 31
0.0
  0
ARC
  5
609
330
1F
100
AcDbEntity
  8
0
100
AcDbCircle
 10
-3219.088447348241
 20
-907.5971252112609
 30
0.0
 40
2.000000000000053
100
AcDbArc
 50
270.0
 51
324.9999999999792
  0
LINE
  5
60A
330
1F
100
AcDbEntity
  8
0
100
AcDbLine
 10
-3220.996016047172
 20
-909.5971248956807
 30
0.0
 11
-3219.088447318255
 21
-909.5971248956807
 31
0.0
  0
ARC
  5
60B
330
1F
100
AcDbEntity
  8
0
100
AcDbCircle
 10
-3224.446016047171
 20
-906.9971255370267
 30
0.0
 40
2.45
100
AcDbArc
 50
0.0
 51
180.0
  0
LINE
  5
60C
330
1F
100
AcDbEntity
  8
0
100
AcDbLine
 10
-3221.996016047172
 20
-906.9971255370267
 30
0.0
 11
-3221.996016047172
 21
-908.5971248956807
 31
0.0
  0
LINE
  5
60D
330
1F
100
AcDbEntity
  8
0
100
AcDbLine
 10
-3226.896019742659
 20
-906.9971262519974
 30
0.0
 11
-3226.896019742659
 21
-908.5971248956807
 31
0.0
  0
LINE
  5
60E
330
1F
100
AcDbEntity
  8
0
100
AcDbLine
 10
-3229.807009027184
 20
-909.5971248956807
 30
0.0
 11
-3227.896019742658
 21
-909.5971248956807
 31
0.0
  0
ARC
  5
60F
330
1F
100
AcDbEntity
  8
0
100
AcDbCircle
 10
-3229.807009298873
 20
-907.5971252112607
 30
0.0
 40
2.0
100
AcDbArc
 50
215.0000000000208
 51
270.0
  0
LINE
  5
610
330
1F
100
AcDbEntity
  8
0
100
AcDbLine
 10
-3231.44531346935
 20
-908.7442792864925
 30
0.0
 11
-3235.175936520875
 21
-903.4163989039548
 31
0.0
  0
ARC
  5
611
330
1F
100
AcDbEntity
  8
0
100
AcDbCircle
 10
-3237.633392558572
 20
-905.1371255370263
 30
0.0
 40
3.000000000000006
100
AcDbArc
 50
35.00000000002084
 51
90.0
  0
LINE
  5
612
330
1F
100
AcDbEntity
  8
0
100
AcDbLine
 10
-3217.450143254438
 20
-908.7442792864925
 30
0.0
 11
-3213.719520290224
 21
-903.4163989039548
 31
0.0
  0
LINE
  5
613
330
1F
100
AcDbEntity
  8
0
100
AcDbLine
 10
-3232.922891192914
 20
-886.1971236678249
 30
0.0
 11
-3232.922891192914
 21
-898.6771218391544
 31
0.0
  0
LINE
  5
614
330
1F
100
AcDbEntity
  8
0
100
AcDbLine
 10
-3218.842891082942
 20
-886.1971236678249
 30
0.0
 11
-3218.842891082942
 21
-898.6771218391544
 31
0.0
  0
LINE
  5
615
330
1F
100
AcDbEntity
  8
0
100
AcDbLine
 10
-3196.410390586434
 20
-866.3471266540176
 30
0.0
 11
-3183.930390552461
 21
-866.3471266540176
 31
0.0
  0
LINE
  5
616
330
1F
100
AcDbEntity
  8
0
100
AcDbLine
 10
-3198.760391251026
 20
-861.3771237345821
 30
0.0
 11
-3186.280389354406
 21
-861.3771237345821
 31
0.0
  0
LINE
  5
617
330
1F
100
AcDbEntity
  8
0
100
AcDbLine
 10
-3196.410390586434
 20
-880.4271258326654
 30
0.0
 11
-3183.930390552461
 21
-880.4271258326654
 31
0.0
  0
LINE
  5
618
330
1F
100
AcDbEntity
  8
0
100
AcDbLine
 10
-3186.314308122574
 20
-902.1371267648824
 30
0.0
 11
-3211.262064092636
 21
-902.1371267648824
 31
0.0
  0
LINE
  5
619
330
1F
100
AcDbEntity
  8
0
100
AcDbLine
 10
-3154.925276563346
 20
-872.573517254222
 30
0.0
 11
-3142.765131817041
 21
-875.3809071990138
 31
0.0
  0
LINE
  5
61A
330
1F
100
AcDbEntity
  8
0
100
AcDbLine
 10
-3161.470112428844
 20
-905.0434492441304
 30
0.0
 11
-3130.234492049396
 21
-912.2547618957645
 31
0.0
  0
LINE
  5
61B
330
1F
100
AcDbEntity
  8
0
100
AcDbLine
 10
-3160.635184762714
 20
-866.3307844373903
 30
0.0
 11
-3148.4750437417
 21
-869.1381743821819
 31
0.0
  0
LINE
  5
61C
330
1F
100
AcDbEntity
  8
0
100
AcDbLine
 10
-3158.092585430324
 20
-886.2926475616582
 30
0.0
 11
-3145.932448134601
 21
-889.1000412317405
 31
0.0
  0
LINE
  5
61D
330
1F
100
AcDbEntity
  8
0
100
AcDbLine
 10
-3150.115286038101
 20
-892.2293074341899
 30
0.0
 11
-3158.086848483263
 21
-890.3889246197827
 31
0.0
  0
LINE
  5
61E
330
1F
100
AcDbEntity
  8
0
100
AcDbLine
 10
-3149.594920174291
 20
-919.3004087551594
 30
0.0
 11
-3151.115802154718
 21
-918.9492873760348
 31
0.0
  0
ARC
  5
61F
330
1F
100
AcDbEntity
  8
0
100
AcDbCircle
 10
-3239.446016047175
 20
-898.1371255370262
 30
0.0
 40
4.000000000000028
100
AcDbArc
 50
179.9999999999934
 51
270.0
  0
LINE
  5
620
330
1F
100
AcDbEntity
  8
0
100
AcDbLine
 10
-3237.633393184125
 20
-902.1371267648824
 30
0.0
 11
-3239.446015135227
 21
-902.1371267648824
 31
0.0
  0
LINE
  5
621
330
1F
100
AcDbEntity
  8
0
100
AcDbLine
 10
-3157.467872170445
 20
-852.6116541299543
 30
0.0
 11
-3145.307734874722
 21
-855.4190440747458
 31
0.0
  0
LINE
  5
622
330
1F
100
AcDbEntity
  8
0
100
AcDbLine
 10
-3142.77343478584
 20
-850.9861013564787
 30
0.0
 11
-3130.613297490118
 21
-853.7934913012703
 31
0.0
  0
LINE
  5
623
330
1F
100
AcDbEntity
  8
0
100
AcDbLine
 10
-3126.846447853085
 20
-841.0338169607838
 30
0.0
 11
-3129.653841523167
 21
-853.193957981797
 31
0.0
  0
LINE
  5
624
330
1F
100
AcDbEntity
  8
0
100
AcDbLine
 10
-3122.003831235407
 20
-842.1518250081263
 30
0.0
 11
-3124.811217454907
 21
-854.311962303849
 31
0.0
  0
LINE
  5
625
330
1F
100
AcDbEntity
  8
0
100
AcDbLine
 10
-3108.284697202679
 20
-845.3191357377491
 30
0.0
 11
-3111.092090872761
 21
-857.479274896117
 31
0.0
  0
LINE
  5
626
330
1F
100
AcDbEntity
  8
0
100
AcDbLine
 10
-3176.989078787801
 20
-848.9258705351074
 30
0.0
 11
-3179.796468732592
 21
-861.0860115561207
 31
0.0
  0
LINE
  5
627
330
1F
100
AcDbEntity
  8
0
100
AcDbLine
 10
-3163.269948480365
 20
-852.0931831273754
 30
0.0
 11
-3166.077338425156
 21
-864.2533204230984
 31
0.0
  0
ARC
  5
628
330
1F
100
AcDbEntity
  8
0
100
AcDbCircle
 10
-3157.647832945535
 20
-853.3911502102247
 30
0.0
 40
0.8000000000000039
100
AcDbArc
 50
77.00000000000272
 51
166.9999999999809
  0
LINE
  5
629
330
1F
100
AcDbEntity
  8
0
100
AcDbLine
 10
-3081.287530749449
 20
-846.5753339094831
 30
0.0
 11
-3078.480137079366
 21
-858.7354749304966
 31
0.0
  0
LINE
  5
62A
330
1F
100
AcDbEntity
  8
0
100
AcDbLine
 10
-3067.568389266142
 20
-843.4080231798603
 30
0.0
 11
-3064.761010497222
 21
-855.5681623382284
 31
0.0
  0
LINE
  5
62B
330
1F
100
AcDbEntity
  8
0
100
AcDbLine
 10
-3199.560391754685
 20
-848.0971269222385
 30
0.0
 11
-3199.560391754685
 21
-860.5771250935678
 31
0.0
  0
LINE
  5
62C
330
1F
100
AcDbEntity
  8
0
100
AcDbLine
 10
-3185.480390713394
 20
-848.0971269222385
 30
0.0
 11
-3185.480390713394
 21
-860.5771250935678
 31
0.0
  0
LINE
  5
62D
330
1F
100
AcDbEntity
  8
0
100
AcDbLine
 10
-3211.678070985554
 20
-848.0971269222385
 30
0.0
 11
-3211.678070985554
 21
-860.5771250935678
 31
0.0
  0
LINE
  5
62E
330
1F
100
AcDbEntity
  8
0
100
AcDbLine
 10
-3230.520390943466
 20
-848.0971269222385
 30
0.0
 11
-3230.520390943466
 21
-860.5771250935678
 31
0.0
  0
LINE
  5
62F
330
1F
100
AcDbEntity
  8
0
100
AcDbLine
 10
-3243.446015790878
 20
-898.1371261092311
 30
0.0
 11
-3243.446015790878
 21
-810.537125440914
 31
0.0
  0
LINE
  5
630
330
1F
100
AcDbEntity
  8
0
100
AcDbLine
 10
-3072.556552975783
 20
-863.289679573269
 30
0.0
 11
-3060.39641568006
 21
-860.4822933537676
 31
0.0
  0
LINE
  5
631
330
1F
100
AcDbEntity
  8
0
100
AcDbLine
 10
-3075.533045023093
 20
-824.8746713487221
 30
0.0
 11
-3063.37290772737
 21
-822.0672818695922
 31
0.0
  0
LINE
  5
632
330
1F
100
AcDbEntity
  8
0
100
AcDbLine
 10
-3074.105505869567
 20
-897.6487405511027
 30
0.0
 11
-3061.945368573844
 21
-894.8413543316014
 31
0.0
  0
LINE
  5
633
330
1F
100
AcDbEntity
  8
0
100
AcDbLine
 10
-3064.153228924453
 20
-881.7217610689288
 30
0.0
 11
-3061.345835254371
 21
-893.8818983646518
 31
0.0
  0
LINE
  5
634
330
1F
100
AcDbEntity
  8
0
100
AcDbLine
 10
-3069.389236658226
 20
-877.008809880705
 30
0.0
 11
-3057.229099362503
 21
-874.2014236612035
 31
0.0
  0
LINE
  5
635
330
1F
100
AcDbEntity
  8
0
100
AcDbLine
 10
-3072.365728705535
 20
-838.5938007248356
 30
0.0
 11
-3060.205591409812
 21
-835.7864126426893
 31
0.0
  0
LINE
  5
636
330
1F
100
AcDbEntity
  8
0
100
AcDbLine
 10
-3062.012885735214
 20
-898.9518918009883
 30
0.0
 11
-3074.624885842979
 21
-901.8636010500078
 31
0.0
  0
LINE
  5
637
330
1F
100
AcDbEntity
  8
0
100
AcDbLine
 10
-3071.241621897399
 20
-916.5181331249364
 30
0.0
 11
-3022.861276791275
 21
-905.348647377122
 31
0.0
  0
LINE
  5
638
330
1F
100
AcDbEntity
  8
0
100
AcDbLine
 10
-3039.618168995559
 20
-912.2414179059155
 30
0.0
 11
-3075.418879316032
 21
-920.506659886468
 31
0.0
  0
ARC
  5
639
330
1F
100
AcDbEntity
  8
0
100
AcDbCircle
 10
-2920.210397064856
 20
-809.4171255370351
 30
0.0
 40
1.300006017692793
100
AcDbArc
 50
0.0
 51
180.0
  0
ARC
  5
63A
330
1F
100
AcDbEntity
  8
0
100
AcDbCircle
 10
-2910.610397384346
 20
-859.2579588206897
 30
0.0
 40
1.300006017692793
100
AcDbArc
 50
179.7358657289966
 51
0.2641342687039451
  0
ARC
  5
63B
330
1F
100
AcDbEntity
  8
0
100
AcDbCircle
 10
-2910.310405180632
 20
-847.1487682368971
 30
0.0
 40
1.0
100
AcDbArc
 50
0.0
 51
39.99995779780528
  0
ARC
  5
63C
330
1F
100
AcDbEntity
  8
0
100
AcDbCircle
 10
-2913.110397026717
 20
-840.7004125185755
 30
0.0
 40
1.0
100
AcDbArc
 50
180.0
 51
219.9999577978053
  0
ARC
  5
63D
330
1F
100
AcDbEntity
  8
0
100
AcDbCircle
 10
-2915.710381434144
 20
-841.6467349745792
 30
0.0
 40
1.0
100
AcDbArc
 50
180.0
 51
219.9999577978053
  0
ARC
  5
63E
330
1F
100
AcDbEntity
  8
0
100
AcDbCircle
 10
-2912.910389588057
 20
-848.0950906928988
 30
0.0
 40
1.0
100
AcDbArc
 50
0.0
 51
39.99995779780528
  0
ARC
  5
63F
330
1F
100
AcDbEntity
  8
0
100
AcDbCircle
 10
-2917.710381434142
 20
-828.3746758398702
 30
0.0
 40
1.0
100
AcDbArc
 50
0.0
 51
40.00012607504285
  0
ARC
  5
640
330
1F
100
AcDbEntity
  8
0
100
AcDbCircle
 10
-2920.510403082551
 20
-821.926315398495
 30
0.0
 40
1.0
100
AcDbArc
 50
180.0
 51
220.0001260750428
  0
ARC
  5
641
330
1F
100
AcDbEntity
  8
0
100
AcDbCircle
 10
-2917.910388872802
 20
-820.9799946736159
 30
0.0
 40
1.0
100
AcDbArc
 50
180.0
 51
219.9999509079789
  0
ARC
  5
642
330
1F
100
AcDbEntity
  8
0
100
AcDbCircle
 10
-2915.110397026717
 20
-827.4283516527411
 30
0.0
 40
1.0
100
AcDbArc
 50
0.0
 51
39.99995090797897
  0
ENDSEC
  0
SECTION
  2
OBJECTS
  0
DICTIONARY
  5
C
330
0
100
AcDbDictionary
281
     1
  3
ACAD_GROUP
350
D
  3
ACAD_LAYOUT
350
1A
  3
ACAD_MLINESTYLE
350
17
  3
ACAD_PLOTSETTINGS
350
19
  3
ACAD_PLOTSTYLENAME
350
E
  3
AcDbVariableDictionary
350
644
  0
DICTIONARY
  5
2B
330
2
100
AcDbDictionary
280
     1
281
     1
  3
ACAD_LAYERSTATES
360
2C
  0
DICTIONARY
  5
D
102
{ACAD_REACTORS
330
C
102
}
330
C
100
AcDbDictionary
281
     1
  0
DICTIONARY
  5
1A
102
{ACAD_REACTORS
330
C
102
}
330
C
100
AcDbDictionary
281
     1
  3
Model
350
22
  3
1
350
1E
  3
2
350
26
  0
DICTIONARY
  5
17
102
{ACAD_REACTORS
330
C
102
}
330
C
100
AcDbDictionary
281
     1
  3
Standard
350
18
  0
DICTIONARY
  5
19
102
{ACAD_REACTORS
330
C
102
}
330
C
100
AcDbDictionary
281
     1
  0
ACDBDICTIONARYWDFLT
  5
E
102
{ACAD_REACTORS
330
C
102
}
330
C
100
AcDbDictionary
281
     1
  3
Normal
350
F
100
AcDbDictionaryWithDefault
340
F
  0
DICTIONARY
  5
644
102
{ACAD_REACTORS
330
C
102
}
330
C
100
AcDbDictionary
281
     1
  3
DIMASSOC
350
646
  3
HIDETEXT
350
645
  0
DICTIONARY
  5
2C
102
{ACAD_REACTORS
330
2B
102
}
330
2B
100
AcDbDictionary
281
     1
  0
LAYOUT
  5
22
102
{ACAD_REACTORS
330
1A
102
}
330
1A
100
AcDbPlotSettings
  1

  2
K3250NR (192.168.0.20)
  4

  6

 40
0.0
 41
0.0
 42
0.0
 43
0.0
 44
0.0
 45
0.0
 46
0.0
 47
0.0
 48
0.0
 49
0.0
140
0.0
141
0.0
142
1.0
143
1.0
 70
  1712
 72
     0
 73
     0
 74
     0
  7
NEX1.CTB
 75
     0
147
1.0
148
0.0
149
0.0
100
AcDbLayout
  1
Model
 70
     1
 71
     0
 10
0.0
 20
0.0
 11
12.0
 21
9.0
 12
0.0
 22
0.0
 32
0.0
 14
0.0
 24
0.0
 34
0.0
 15
0.0
 25
0.0
 35
0.0
146
0.0
 13
0.0
 23
0.0
 33
0.0
 16
1.0
 26
0.0
 36
0.0
 17
0.0
 27
1.0
 37
0.0
 76
     0
330
1F
  0
LAYOUT
  5
1E
102
{ACAD_REACTORS
330
1A
102
}
330
1A
100
AcDbPlotSettings
  1

  2
K3250NR (192.168.0.20)
  4

  6

 40
0.0
 41
0.0
 42
0.0
 43
0.0
 44
0.0
 45
0.0
 46
0.0
 47
0.0
 48
0.0
 49
0.0
140
0.0
141
0.0
142
1.0
143
1.0
 70
   688
 72
     0
 73
     0
 74
     5
  7
NEX1.CTB
 75
    16
147
1.0
148
0.0
149
0.0
100
AcDbLayout
  1
1
 70
     1
 71
     1
 10
0.0
 20
0.0
 11
420.0
 21
297.0
 12
0.0
 22
0.0
 32
0.0
 14
1.000000000000000E+20
 24
1.000000000000000E+20
 34
1.000000000000000E+20
 15
-1.000000000000000E+20
 25
-1.000000000000000E+20
 35
-1.000000000000000E+20
146
0.0
 13
0.0
 23
0.0
 33
0.0
 16
1.0
 26
0.0
 36
0.0
 17
0.0
 27
1.0
 37
0.0
 76
     0
330
1B
  0
LAYOUT
  5
26
102
{ACAD_REACTORS
330
1A
102
}
330
1A
100
AcDbPlotSettings
  1

  2
K3250NR (192.168.0.20)
  4

  6

 40
0.0
 41
0.0
 42
0.0
 43
0.0
 44
0.0
 45
0.0
 46
0.0
 47
0.0
 48
0.0
 49
0.0
140
0.0
141
0.0
142
1.0
143
1.0
 70
   688
 72
     0
 73
     0
 74
     5
  7
NEX1.CTB
 75
    16
147
1.0
148
0.0
149
0.0
100
AcDbLayout
  1
2
 70
     1
 71
     2
 10
0.0
 20
0.0
 11
12.0
 21
9.0
 12
0.0
 22
0.0
 32
0.0
 14
0.0
 24
0.0
 34
0.0
 15
0.0
 25
0.0
 35
0.0
146
0.0
 13
0.0
 23
0.0
 33
0.0
 16
1.0
 26
0.0
 36
0.0
 17
0.0
 27
1.0
 37
0.0
 76
     0
330
23
  0
MLINESTYLE
  5
18
102
{ACAD_REACTORS
330
17
102
}
330
17
100
AcDbMlineStyle
  2
STANDARD
 70
     0
  3

 62
   256
 51
90.0
 52
90.0
 71
     2
 49
0.5
 62
   256
  6
BYLAYER
 49
-0.5
 62
   256
  6
BYLAYER
  0
ACDBPLACEHOLDER
  5
F
102
{ACAD_REACTORS
330
E
102
}
330
E
  0
DICTIONARYVAR
  5
646
102
{ACAD_REACTORS
330
644
102
}
330
644
100
DictionaryVariables
280
     0
  1
2
  0
DICTIONARYVAR
  5
645
102
{ACAD_REACTORS
330
644
102
}
330
644
100
DictionaryVariables
280
     0
  1
1
  0
ENDSEC
  0
EOF
