  0
SECTION
  2
HEADER
  9
$ACADVER
  1
AC1015
  9
$ACADMAINTVER
 70
    13
  9
$DWGCODEPAGE
  3
ANSI_949
  9
$INSBASE
 10
0.0
 20
0.0
 30
0.0
  9
$EXTMIN
 10
266.7489636907692
 20
112.063843595404
 30
-0.0015258207003583
  9
$EXTMAX
 10
700.5853284529705
 20
242.9213110533558
 30
0.0000000349246037
  9
$LIMMIN
 10
0.0
 20
0.0
  9
$LIMMAX
 10
420.0
 20
297.0
  9
$ORTHOMODE
 70
     1
  9
$REGENMODE
 70
     1
  9
$FILLMODE
 70
     1
  9
$QTEXTMODE
 70
     0
  9
$MIRRTEXT
 70
     1
  9
$LTSCALE
 40
1.0
  9
$ATTMODE
 70
     1
  9
$TEXTSIZE
 40
2.5
  9
$TRACEWID
 40
1.0
  9
$TEXTSTYLE
  7
Standard
  9
$CLAYER
  8
0
  9
$CELTYPE
  6
ByLayer
  9
$CECOLOR
 62
   256
  9
$CELTSCALE
 40
1.0
  9
$DISPSILH
 70
     0
  9
$DIMSCALE
 40
1.0
  9
$DIMASZ
 40
2.5
  9
$DIMEXO
 40
0.625
  9
$DIMDLI
 40
3.75
  9
$DIMRND
 40
0.0
  9
$DIMDLE
 40
0.0
  9
$DIMEXE
 40
1.25
  9
$DIMTP
 40
0.0
  9
$DIMTM
 40
0.0
  9
$DIMTXT
 40
2.5
  9
$DIMCEN
 40
2.5
  9
$DIMTSZ
 40
0.0
  9
$DIMTOL
 70
     0
  9
$DIMLIM
 70
     0
  9
$DIMTIH
 70
     0
  9
$DIMTOH
 70
     0
  9
$DIMSE1
 70
     0
  9
$DIMSE2
 70
     0
  9
$DIMTAD
 70
     1
  9
$DIMZIN
 70
     8
  9
$DIMBLK
  1

  9
$DIMASO
 70
     1
  9
$DIMSHO
 70
     1
  9
$DIMPOST
  1

  9
$DIMAPOST
  1

  9
$DIMALT
 70
     0
  9
$DIMALTD
 70
     3
  9
$DIMALTF
 40
0.03937007874016
  9
$DIMLFAC
 40
1.0
  9
$DIMTOFL
 70
     1
  9
$DIMTVP
 40
0.0
  9
$DIMTIX
 70
     0
  9
$DIMSOXD
 70
     0
  9
$DIMSAH
 70
     0
  9
$DIMBLK1
  1

  9
$DIMBLK2
  1

  9
$DIMSTYLE
  2
ISO-25
  9
$DIMCLRD
 70
     0
  9
$DIMCLRE
 70
     0
  9
$DIMCLRT
 70
     0
  9
$DIMTFAC
 40
1.0
  9
$DIMGAP
 40
0.625
  9
$DIMJUST
 70
     0
  9
$DIMSD1
 70
     0
  9
$DIMSD2
 70
     0
  9
$DIMTOLJ
 70
     0
  9
$DIMTZIN
 70
     8
  9
$DIMALTZ
 70
     0
  9
$DIMALTTZ
 70
     0
  9
$DIMUPT
 70
     0
  9
$DIMDEC
 70
     2
  9
$DIMTDEC
 70
     2
  9
$DIMALTU
 70
     2
  9
$DIMALTTD
 70
     3
  9
$DIMTXSTY
  7
Standard
  9
$DIMAUNIT
 70
     0
  9
$DIMADEC
 70
     0
  9
$DIMALTRND
 40
0.0
  9
$DIMAZIN
 70
     0
  9
$DIMDSEP
 70
    46
  9
$DIMATFIT
 70
     3
  9
$DIMFRAC
 70
     0
  9
$DIMLDRBLK
  1

  9
$DIMLUNIT
 70
     2
  9
$DIMLWD
 70
    -2
  9
$DIMLWE
 70
    -2
  9
$DIMTMOVE
 70
     0
  9
$LUNITS
 70
     2
  9
$LUPREC
 70
     4
  9
$SKETCHINC
 40
1.0
  9
$FILLETRAD
 40
10.0
  9
$AUNITS
 70
     0
  9
$AUPREC
 70
     0
  9
$MENU
  1
.
  9
$ELEVATION
 40
0.0
  9
$PELEVATION
 40
0.0
  9
$THICKNESS
 40
0.0
  9
$LIMCHECK
 70
     0
  9
$CHAMFERA
 40
10.0
  9
$CHAMFERB
 40
10.0
  9
$CHAMFERC
 40
20.0
  9
$CHAMFERD
 40
0.0
  9
$SKPOLY
 70
     0
  9
$TDCREATE
 40
2458834.369463634
  9
$TDUCREATE
 40
2458833.994463634
  9
$TDUPDATE
 40
2458834.372750845
  9
$TDUUPDATE
 40
2458833.997750844
  9
$TDINDWG
 40
0.0032873264
  9
$TDUSRTIMER
 40
0.0032873148
  9
$USRTIMER
 70
     1
  9
$ANGBASE
 50
0.0
  9
$ANGDIR
 70
     0
  9
$PDMODE
 70
     0
  9
$PDSIZE
 40
0.0
  9
$PLINEWID
 40
0.0
  9
$SPLFRAME
 70
     0
  9
$SPLINETYPE
 70
     6
  9
$SPLINESEGS
 70
     8
  9
$HANDSEED
  5
398
  9
$SURFTAB1
 70
     6
  9
$SURFTAB2
 70
     6
  9
$SURFTYPE
 70
     6
  9
$SURFU
 70
     6
  9
$SURFV
 70
     6
  9
$UCSBASE
  2

  9
$UCSNAME
  2

  9
$UCSORG
 10
0.0
 20
0.0
 30
0.0
  9
$UCSXDIR
 10
1.0
 20
0.0
 30
0.0
  9
$UCSYDIR
 10
0.0
 20
1.0
 30
0.0
  9
$UCSORTHOREF
  2

  9
$UCSORTHOVIEW
 70
     0
  9
$UCSORGTOP
 10
0.0
 20
0.0
 30
0.0
  9
$UCSORGBOTTOM
 10
0.0
 20
0.0
 30
0.0
  9
$UCSORGLEFT
 10
0.0
 20
0.0
 30
0.0
  9
$UCSORGRIGHT
 10
0.0
 20
0.0
 30
0.0
  9
$UCSORGFRONT
 10
0.0
 20
0.0
 30
0.0
  9
$UCSORGBACK
 10
0.0
 20
0.0
 30
0.0
  9
$PUCSBASE
  2

  9
$PUCSNAME
  2

  9
$PUCSORG
 10
0.0
 20
0.0
 30
0.0
  9
$PUCSXDIR
 10
1.0
 20
0.0
 30
0.0
  9
$PUCSYDIR
 10
0.0
 20
1.0
 30
0.0
  9
$PUCSORTHOREF
  2

  9
$PUCSORTHOVIEW
 70
     0
  9
$PUCSORGTOP
 10
0.0
 20
0.0
 30
0.0
  9
$PUCSORGBOTTOM
 10
0.0
 20
0.0
 30
0.0
  9
$PUCSORGLEFT
 10
0.0
 20
0.0
 30
0.0
  9
$PUCSORGRIGHT
 10
0.0
 20
0.0
 30
0.0
  9
$PUCSORGFRONT
 10
0.0
 20
0.0
 30
0.0
  9
$PUCSORGBACK
 10
0.0
 20
0.0
 30
0.0
  9
$USERI1
 70
     0
  9
$USERI2
 70
     0
  9
$USERI3
 70
     0
  9
$USERI4
 70
     0
  9
$USERI5
 70
     0
  9
$USERR1
 40
0.0
  9
$USERR2
 40
0.0
  9
$USERR3
 40
0.0
  9
$USERR4
 40
0.0
  9
$USERR5
 40
0.0
  9
$WORLDVIEW
 70
     1
  9
$SHADEDGE
 70
     3
  9
$SHADEDIF
 70
    70
  9
$TILEMODE
 70
     1
  9
$MAXACTVP
 70
    64
  9
$PINSBASE
 10
0.0
 20
0.0
 30
0.0
  9
$PLIMCHECK
 70
     0
  9
$PEXTMIN
 10
1.000000000000000E+20
 20
1.000000000000000E+20
 30
1.000000000000000E+20
  9
$PEXTMAX
 10
-1.000000000000000E+20
 20
-1.000000000000000E+20
 30
-1.000000000000000E+20
  9
$PLIMMIN
 10
0.0
 20
0.0
  9
$PLIMMAX
 10
420.0
 20
297.0
  9
$UNITMODE
 70
     0
  9
$VISRETAIN
 70
     1
  9
$PLINEGEN
 70
     0
  9
$PSLTSCALE
 70
     1
  9
$TREEDEPTH
 70
  3020
  9
$CMLSTYLE
  2
Standard
  9
$CMLJUST
 70
     0
  9
$CMLSCALE
 40
20.0
  9
$PROXYGRAPHICS
 70
     1
  9
$MEASUREMENT
 70
     1
  9
$CELWEIGHT
370
    -1
  9
$ENDCAPS
280
     0
  9
$JOINSTYLE
280
     0
  9
$LWDISPLAY
290
     0
  9
$INSUNITS
 70
     4
  9
$HYPERLINKBASE
  1

  9
$STYLESHEET
  1

  9
$XEDIT
290
     1
  9
$CEPSNTYPE
380
     0
  9
$PSTYLEMODE
290
     1
  9
$FINGERPRINTGUID
  2
{2474CC97-DC07-470E-81A5-E41B53CFA304}
  9
$VERSIONGUID
  2
{0E944F01-6093-4E9D-A885-E1286F939AFC}
  9
$EXTNAMES
290
     1
  9
$PSVPSCALE
 40
0.0
  9
$OLESTARTUP
290
     0
  0
ENDSEC
  0
SECTION
  2
CLASSES
  0
CLASS
  1
ACDBDICTIONARYWDFLT
  2
AcDbDictionaryWithDefault
  3
AutoCAD 2000
 90
        0
280
     0
281
     0
  0
CLASS
  1
ACDBPLACEHOLDER
  2
AcDbPlaceHolder
  3
AutoCAD 2000
 90
        0
280
     0
281
     0
  0
CLASS
  1
LAYOUT
  2
AcDbLayout
  3
AutoCAD 2000
 90
        0
280
     0
281
     0
  0
CLASS
  1
DICTIONARYVAR
  2
AcDbDictionaryVar
  3
AutoCAD 2000
 90
        0
280
     0
281
     0
  0
ENDSEC
  0
SECTION
  2
TABLES
  0
TABLE
  2
VPORT
  5
8
330
0
100
AcDbSymbolTable
 70
     3
  0
VPORT
  5
397
330
8
100
AcDbSymbolTableRecord
100
AcDbViewportTableRecord
  2
*Active
 70
     0
 10
0.0
 20
0.0
 11
1.0
 21
1.0
 12
483.6671460718698
 22
177.4925773243799
 13
0.0
 23
0.0
 14
10.0
 24
10.0
 15
10.0
 25
10.0
 16
0.0
 26
0.0
 36
1.0
 17
0.0
 27
0.0
 37
0.0
 40
235.3499441681083
 41
1.850673194614443
 42
50.0
 43
0.0
 44
0.0
 50
0.0
 51
0.0
 71
     0
 72
   100
 73
     1
 74
     3
 75
     0
 76
     0
 77
     0
 78
     0
281
     0
 65
     1
110
0.0
120
0.0
130
0.0
111
1.0
121
0.0
131
0.0
112
0.0
122
1.0
132
0.0
 79
     0
146
0.0
  0
ENDTAB
  0
TABLE
  2
LTYPE
  5
5
330
0
100
AcDbSymbolTable
 70
     9
  0
LTYPE
  5
14
330
5
100
AcDbSymbolTableRecord
100
AcDbLinetypeTableRecord
  2
ByBlock
 70
     0
  3

 72
    65
 73
     0
 40
0.0
  0
LTYPE
  5
15
330
5
100
AcDbSymbolTableRecord
100
AcDbLinetypeTableRecord
  2
ByLayer
 70
     0
  3

 72
    65
 73
     0
 40
0.0
  0
LTYPE
  5
16
330
5
100
AcDbSymbolTableRecord
100
AcDbLinetypeTableRecord
  2
Continuous
 70
     0
  3
Solid line
 72
    65
 73
     0
 40
0.0
  0
LTYPE
  5
CE
330
5
100
AcDbSymbolTableRecord
100
AcDbLinetypeTableRecord
  2
1PX3
 70
     0
  3
_____ _ _____ _ _____ _ _____ _ _____ _ _____ _
 72
    65
 73
     4
 40
7.099999999999997
 49
5.0
 74
     0
 49
-0.7
 74
     0
 49
0.7
 74
     0
 49
-0.7
 74
     0
  0
LTYPE
  5
CF
330
5
100
AcDbSymbolTableRecord
100
AcDbLinetypeTableRecord
  2
1PX1
 70
     0
  3
____________________ _ ____________________ _ _
 72
    65
 73
     4
 40
33.0
 49
30.0
 74
     0
 49
-1.0
 74
     0
 49
1.0
 74
     0
 49
-1.0
 74
     0
  0
LTYPE
  5
2A8
330
5
100
AcDbSymbolTableRecord
100
AcDbLinetypeTableRecord
  2
HX1
 70
     0
  3
___ ___ ___ ___ ___ ___ ___ ___ ___ ___ ___ ___
 72
    65
 73
     2
 40
4.0
 49
3.0
 74
     0
 49
-1.0
 74
     0
  0
ENDTAB
  0
TABLE
  2
LAYER
  5
2
102
{ACAD_XDICTIONARY
360
2B
102
}
330
0
100
AcDbSymbolTable
 70
    25
  0
LAYER
  5
10
330
2
100
AcDbSymbolTableRecord
100
AcDbLayerTableRecord
  2
0
 70
     0
 62
     7
  6
Continuous
370
    -3
390
F
  0
LAYER
  5
D8
330
2
100
AcDbSymbolTableRecord
100
AcDbLayerTableRecord
  2
MC3
 70
     0
 62
     6
  6
1PX3
370
    -3
390
F
  0
LAYER
  5
D9
102
{ACAD_XDICTIONARY
360
DA
102
}
330
2
100
AcDbSymbolTableRecord
100
AcDbLayerTableRecord
  2
MC1
 70
     0
 62
     6
  6
1PX1
370
    -3
390
F
  0
LAYER
  5
DC
330
2
100
AcDbSymbolTableRecord
100
AcDbLayerTableRecord
  2
Defpoints
 70
     0
 62
     7
  6
Continuous
290
     0
370
    -3
390
F
  0
LAYER
  5
2BF
102
{ACAD_XDICTIONARY
360
2C0
102
}
330
2
100
AcDbSymbolTableRecord
100
AcDbLayerTableRecord
  2
GH1
 70
     0
 62
     3
  6
HX1
370
    -3
390
F
  0
ENDTAB
  0
TABLE
  2
STYLE
  5
3
330
0
100
AcDbSymbolTable
 70
     4
  0
STYLE
  5
11
330
3
100
AcDbSymbolTableRecord
100
AcDbTextStyleTableRecord
  2
Standard
 70
     0
 40
0.0
 41
1.0
 50
0.0
 71
     0
 42
2.5
  3
txt
  4

  0
ENDTAB
  0
TABLE
  2
VIEW
  5
6
330
0
100
AcDbSymbolTable
 70
     0
  0
ENDTAB
  0
TABLE
  2
UCS
  5
7
330
0
100
AcDbSymbolTable
 70
     0
  0
ENDTAB
  0
TABLE
  2
APPID
  5
9
330
0
100
AcDbSymbolTable
 70
     3
  0
APPID
  5
12
330
9
100
AcDbSymbolTableRecord
100
AcDbRegAppTableRecord
  2
ACAD
 70
     0
  0
APPID
  5
2E3
330
9
100
AcDbSymbolTableRecord
100
AcDbRegAppTableRecord
  2
ACAD_PSEXT
 70
     0
  0
APPID
  5
2E4
330
9
100
AcDbSymbolTableRecord
100
AcDbRegAppTableRecord
  2
ACAD_DSTYLE_DIMTEXT_FILL
 70
     0
  0
ENDTAB
  0
TABLE
  2
DIMSTYLE
  5
A
330
0
100
AcDbSymbolTable
 70
     2
100
AcDbDimStyleTable
 71
     1
340
27
  0
DIMSTYLE
105
27
102
{ACAD_REACTORS
330
385
102
}
330
A
100
AcDbSymbolTableRecord
100
AcDbDimStyleTableRecord
  2
ISO-25
 70
     0
 41
2.5
 42
0.625
 43
3.75
 44
1.25
 73
     0
 74
     0
 77
     1
 78
     8
140
2.5
141
2.5
143
0.03937007874016
147
0.625
171
     3
172
     1
271
     2
272
     2
274
     3
283
     0
284
     8
340
11
  0
ENDTAB
  0
TABLE
  2
BLOCK_RECORD
  5
1
330
0
100
AcDbSymbolTable
 70
    29
  0
BLOCK_RECORD
  5
1F
330
1
100
AcDbSymbolTableRecord
100
AcDbBlockTableRecord
  2
*Model_Space
340
22
  0
BLOCK_RECORD
  5
1B
330
1
100
AcDbSymbolTableRecord
100
AcDbBlockTableRecord
  2
*Paper_Space
340
1E
  0
BLOCK_RECORD
  5
23
330
1
100
AcDbSymbolTableRecord
100
AcDbBlockTableRecord
  2
*Paper_Space0
340
26
  0
BLOCK_RECORD
  5
386
330
1
100
AcDbSymbolTableRecord
100
AcDbBlockTableRecord
  2
*D28
340
0
  0
ENDTAB
  0
ENDSEC
  0
SECTION
  2
BLOCKS
  0
BLOCK
  5
20
330
1F
100
AcDbEntity
  8
0
100
AcDbBlockBegin
  2
*Model_Space
 70
     0
 10
0.0
 20
0.0
 30
0.0
  3
*Model_Space
  1

  0
ENDBLK
  5
21
330
1F
100
AcDbEntity
  8
0
100
AcDbBlockEnd
  0
BLOCK
  5
1C
330
1B
100
AcDbEntity
 67
     1
  8
0
100
AcDbBlockBegin
  2
*Paper_Space
 70
     0
 10
0.0
 20
0.0
 30
0.0
  3
*Paper_Space
  1

  0
ENDBLK
  5
1D
330
1B
100
AcDbEntity
 67
     1
  8
0
100
AcDbBlockEnd
  0
BLOCK
  5
24
330
23
100
AcDbEntity
  8
0
100
AcDbBlockBegin
  2
*Paper_Space0
 70
     0
 10
0.0
 20
0.0
 30
0.0
  3
*Paper_Space0
  1

  0
ENDBLK
  5
25
330
23
100
AcDbEntity
  8
0
100
AcDbBlockEnd
  0
BLOCK
  5
392
330
386
100
AcDbEntity
  8
0
100
AcDbBlockBegin
  2
*D28
 70
     1
 10
0.0
 20
0.0
 30
0.0
  3
*D28
  1

  0
LINE
  5
387
330
386
100
AcDbEntity
  8
0
 62
     0
370
    -2
100
AcDbLine
 10
690.6556715961089
 20
227.7218284016311
 30
0.0
 11
690.6556715961089
 21
237.7469631547548
 31
0.0
  0
LINE
  5
388
330
386
100
AcDbEntity
  8
0
 62
     0
370
    -2
100
AcDbLine
 10
692.655671596109
 20
227.7218284016311
 30
0.0
 11
692.655671596109
 21
237.7469631547548
 31
0.0
  0
LINE
  5
389
330
386
100
AcDbEntity
  8
0
 62
     0
370
    -2
100
AcDbLine
 10
688.1556715961089
 20
236.4969631547548
 30
0.0
 11
685.6556715961089
 21
236.4969631547548
 31
0.0
  0
LINE
  5
38A
330
386
100
AcDbEntity
  8
0
 62
     0
370
    -2
100
AcDbLine
 10
695.1556715961089
 20
236.4969631547548
 30
0.0
 11
700.5723382627755
 21
236.4969631547548
 31
0.0
  0
LINE
  5
38B
330
386
100
AcDbEntity
  8
0
 62
     0
370
    -2
100
AcDbLine
 10
690.6556715961089
 20
236.4969631547548
 30
0.0
 11
692.655671596109
 21
236.4969631547548
 31
0.0
  0
SOLID
  5
38C
330
386
100
AcDbEntity
  8
0
 62
     0
100
AcDbTrace
 10
688.1556715961089
 20
236.9136298214215
 30
0.0
 11
688.1556715961089
 21
236.0802964880882
 31
0.0
 12
690.6556715961089
 22
236.4969631547548
 32
0.0
 13
690.6556715961089
 23
236.4969631547548
 33
0.0
  0
SOLID
  5
38D
330
386
100
AcDbEntity
  8
0
 62
     0
100
AcDbTrace
 10
695.1556715961089
 20
236.9136298214215
 30
0.0
 11
695.1556715961089
 21
236.0802964880882
 31
0.0
 12
692.655671596109
 22
236.4969631547548
 32
0.0
 13
692.655671596109
 23
236.4969631547548
 33
0.0
  0
MTEXT
  5
38E
330
386
100
AcDbEntity
  8
0
 62
     0
100
AcDbMText
 10
699.1140049294423
 20
238.3719631547549
 30
0.0
 40
2.5
 41
0.0
 71
     5
 72
     1
  1
2
 73
     1
 44
1.0
  0
POINT
  5
38F
330
386
100
AcDbEntity
  8
Defpoints
 62
     0
100
AcDbPoint
 10
690.6556715961089
 20
227.0968284016311
 30
0.0
  0
POINT
  5
390
330
386
100
AcDbEntity
  8
Defpoints
 62
     0
100
AcDbPoint
 10
692.655671596109
 20
227.0968284016311
 30
0.0
  0
POINT
  5
391
330
386
100
AcDbEntity
  8
Defpoints
 62
     0
100
AcDbPoint
 10
692.655671596109
 20
236.4969631547548
 30
0.0
  0
ENDBLK
  5
393
330
386
100
AcDbEntity
  8
0
100
AcDbBlockEnd
  0
ENDSEC
  0
SECTION
  2
ENTITIES
  0
CIRCLE
  5
135
330
1F
100
AcDbEntity
  8
0
  6
Continuous
 62
     7
370
    25
100
AcDbCircle
 10
432.3979099821319
 20
209.0968284016311
 30
0.0
 40
3.399999999999991
  0
CIRCLE
  5
136
330
1F
100
AcDbEntity
  8
0
  6
Continuous
 62
     7
370
    25
100
AcDbCircle
 10
432.3979099821319
 20
150.0968284016311
 30
0.0
 40
3.399999999999991
  0
CIRCLE
  5
137
330
1F
100
AcDbEntity
  8
0
  6
Continuous
 62
     7
370
    25
100
AcDbCircle
 10
607.3979099821338
 20
150.0968284016311
 30
0.0
 40
3.400000000000003
  0
CIRCLE
  5
138
330
1F
100
AcDbEntity
  8
0
  6
Continuous
 62
     7
370
    25
100
AcDbCircle
 10
607.3979099821338
 20
209.0968284016311
 30
0.0
 40
3.400000000000003
  0
CIRCLE
  5
139
330
1F
100
AcDbEntity
  8
0
  6
Continuous
 62
     7
370
    25
100
AcDbCircle
 10
282.3979099821337
 20
150.0968284016311
 30
0.0
 40
3.400000000000003
  0
CIRCLE
  5
13A
330
1F
100
AcDbEntity
  8
0
  6
Continuous
 62
     7
370
    25
100
AcDbCircle
 10
282.3979099821337
 20
209.0968284016311
 30
0.0
 40
3.400000000000003
  0
LINE
  5
13B
330
1F
100
AcDbEntity
  8
0
  6
Continuous
 62
     7
370
    25
100
AcDbLine
 10
619.3979099821338
 20
227.0968284016311
 30
0.0
 11
270.3979099821328
 21
227.0968284016311
 31
0.0
  0
ARC
  5
13C
330
1F
100
AcDbEntity
  8
0
  6
Continuous
 62
     7
370
    25
100
AcDbCircle
 10
619.3979099821338
 20
224.096828401631
 30
0.0
 40
3.000000000000027
100
AcDbArc
 50
0.0
 51
90.0
  0
LINE
  5
13D
330
1F
100
AcDbEntity
  8
0
  6
Continuous
 62
     7
370
    25
100
AcDbLine
 10
622.3979099821337
 20
135.0968284016322
 30
0.0
 11
622.3979099821337
 21
224.096828401631
 31
0.0
  0
ARC
  5
13E
330
1F
100
AcDbEntity
  8
0
  6
Continuous
 62
     7
370
    25
100
AcDbCircle
 10
619.3979099821338
 20
135.0968284016322
 30
0.0
 40
3.0
100
AcDbArc
 50
270.0
 51
0.0
  0
LINE
  5
13F
330
1F
100
AcDbEntity
  8
0
  6
Continuous
 62
     7
370
    25
100
AcDbLine
 10
515.3979099821338
 20
132.0968284016311
 30
0.0
 11
619.3979099821338
 21
132.0968284016311
 31
0.0
  0
ARC
  5
140
330
1F
100
AcDbEntity
  8
0
  6
Continuous
 62
     7
370
    25
100
AcDbCircle
 10
515.3979099821338
 20
127.0968284016322
 30
0.0
 40
5.000000000000014
100
AcDbArc
 50
90.0
 51
103.0000000000257
  0
LINE
  5
141
330
1F
100
AcDbEntity
  8
0
  6
Continuous
 62
     7
370
    25
100
AcDbLine
 10
428.5317607930657
 20
112.1737182072762
 30
0.0
 11
514.2731547104151
 21
131.9686787255581
 31
0.0
  0
ARC
  5
142
330
1F
100
AcDbEntity
  8
0
  6
Continuous
 62
     7
370
    25
100
AcDbCircle
 10
427.8569076300339
 20
115.0968284016322
 30
0.0
 40
3.000000000000007
100
AcDbArc
 50
270.0
 51
283.0000000000257
  0
LINE
  5
143
330
1F
100
AcDbEntity
  8
0
  6
Continuous
 62
     7
370
    25
100
AcDbLine
 10
407.9389123342209
 20
112.0968284016311
 30
0.0
 11
427.8569076300339
 21
112.0968284016311
 31
0.0
  0
LINE
  5
145
330
1F
100
AcDbEntity
  8
0
  6
Continuous
 62
     7
370
    25
100
AcDbLine
 10
321.5226652538542
 20
131.9686787255581
 30
0.0
 11
407.2640591711899
 21
112.1737182072762
 31
0.0
  0
ARC
  5
146
330
1F
100
AcDbEntity
  8
0
  6
Continuous
 62
     7
370
    25
100
AcDbCircle
 10
320.3979099821328
 20
127.0968284016322
 30
0.0
 40
5.000000000000014
100
AcDbArc
 50
76.99999999997428
 51
90.0
  0
LINE
  5
147
330
1F
100
AcDbEntity
  8
0
  6
Continuous
 62
     7
370
    25
100
AcDbLine
 10
270.3979099821328
 20
132.0968284016311
 30
0.0
 11
320.3979099821328
 21
132.0968284016311
 31
0.0
  0
ARC
  5
148
330
1F
100
AcDbEntity
  8
0
  6
Continuous
 62
     7
370
    25
100
AcDbCircle
 10
270.3979099821328
 20
135.0968284016322
 30
0.0
 40
3.000000000000027
100
AcDbArc
 50
180.0
 51
270.0
  0
LINE
  5
149
330
1F
100
AcDbEntity
  8
0
  6
Continuous
 62
     7
370
    25
100
AcDbLine
 10
267.3979099821319
 20
224.096828401631
 30
0.0
 11
267.3979099821319
 21
135.0968284016322
 31
0.0
  0
ARC
  5
14A
330
1F
100
AcDbEntity
  8
0
  6
Continuous
 62
     7
370
    25
100
AcDbCircle
 10
270.3979099821328
 20
224.096828401631
 30
0.0
 40
3.000000000000027
100
AcDbArc
 50
90.0
 51
180.0
  0
CIRCLE
  5
14B
330
1F
100
AcDbEntity
  8
0
  6
Continuous
 62
     7
370
    25
100
AcDbCircle
 10
282.3979099821337
 20
150.0968284016311
 30
0.0
 40
1.6
  0
CIRCLE
  5
14C
330
1F
100
AcDbEntity
  8
0
  6
Continuous
 62
     7
370
    25
100
AcDbCircle
 10
607.3979099821338
 20
209.0968284016311
 30
0.0
 40
1.6
  0
CIRCLE
  5
14D
330
1F
100
AcDbEntity
  8
0
  6
Continuous
 62
     7
370
    25
100
AcDbCircle
 10
432.3979099821319
 20
209.0968284016311
 30
0.0
 40
1.6
  0
CIRCLE
  5
14E
330
1F
100
AcDbEntity
  8
0
  6
Continuous
 62
     7
370
    25
100
AcDbCircle
 10
607.3979099821338
 20
150.0968284016311
 30
0.0
 40
1.6
  0
CIRCLE
  5
14F
330
1F
100
AcDbEntity
  8
0
  6
Continuous
 62
     7
370
    25
100
AcDbCircle
 10
432.3979099821319
 20
150.0968284016311
 30
0.0
 40
1.6
  0
CIRCLE
  5
150
330
1F
100
AcDbEntity
  8
0
  6
Continuous
 62
     7
370
    25
100
AcDbCircle
 10
282.3979099821337
 20
209.0968284016311
 30
0.0
 40
1.6
  0
LINE
  5
151
330
1F
100
AcDbEntity
  8
0
  6
Continuous
 62
     7
370
    25
100
AcDbLine
 10
690.6556715961089
 20
224.096828401631
 30
0.0
 11
690.6556715961089
 21
227.0968284016311
 31
0.0
  0
LINE
  5
152
330
1F
100
AcDbEntity
  8
0
  6
Continuous
 62
     7
370
    25
100
AcDbLine
 10
690.6556715961089
 20
227.0968284016311
 30
0.0
 11
692.655671596109
 21
227.0968284016311
 31
0.0
  0
LINE
  5
153
330
1F
100
AcDbEntity
  8
0
  6
Continuous
 62
     7
370
    25
100
AcDbLine
 10
692.655671596109
 20
224.096828401631
 30
0.0
 11
692.655671596109
 21
227.0968284016311
 31
0.0
  0
LINE
  5
154
330
1F
100
AcDbEntity
  8
0
  6
Continuous
 62
     7
370
    25
100
AcDbLine
 10
692.655671596109
 20
135.0968284016322
 30
0.0
 11
692.655671596109
 21
224.096828401631
 31
0.0
  0
LINE
  5
155
330
1F
100
AcDbEntity
  8
0
  6
Continuous
 62
     7
370
    25
100
AcDbLine
 10
690.6556715961089
 20
135.0968284016322
 30
0.0
 11
690.6556715961089
 21
224.096828401631
 31
0.0
  0
LINE
  5
156
330
1F
100
AcDbEntity
  8
0
  6
Continuous
 62
     7
370
    25
100
AcDbLine
 10
690.6556715961089
 20
132.0968284016311
 30
0.0
 11
692.655671596109
 21
132.0968284016311
 31
0.0
  0
LINE
  5
157
330
1F
100
AcDbEntity
  8
0
  6
Continuous
 62
     7
370
    25
100
AcDbLine
 10
692.655671596109
 20
132.0968284016311
 30
0.0
 11
692.655671596109
 21
135.0968284016322
 31
0.0
  0
LINE
  5
158
330
1F
100
AcDbEntity
  8
0
  6
Continuous
 62
     7
370
    25
100
AcDbLine
 10
690.6556715961089
 20
132.0968284016311
 30
0.0
 11
690.6556715961089
 21
135.0968284016322
 31
0.0
  0
LINE
  5
159
330
1F
100
AcDbEntity
  8
0
  6
Continuous
 62
     7
370
    25
100
AcDbLine
 10
692.655671596109
 20
132.0968284016311
 30
0.0
 11
692.655671596109
 21
131.9686787255581
 31
0.0
  0
LINE
  5
15A
330
1F
100
AcDbEntity
  8
0
  6
Continuous
 62
     7
370
    25
100
AcDbLine
 10
690.6556715961089
 20
132.0968284016311
 30
0.0
 11
690.6556715961089
 21
131.9686787255581
 31
0.0
  0
LINE
  5
15B
330
1F
100
AcDbEntity
  8
0
  6
Continuous
 62
     7
370
    25
100
AcDbLine
 10
690.6556715961089
 20
112.1737182072762
 30
0.0
 11
692.655671596109
 21
112.1737182072762
 31
0.0
  0
LINE
  5
15C
330
1F
100
AcDbEntity
  8
0
  6
Continuous
 62
     7
370
    25
100
AcDbLine
 10
692.655671596109
 20
112.1737182072762
 30
0.0
 11
692.655671596109
 21
131.9686787255581
 31
0.0
  0
LINE
  5
15D
330
1F
100
AcDbEntity
  8
0
  6
Continuous
 62
     7
370
    25
100
AcDbLine
 10
690.6556715961089
 20
112.1737182072762
 30
0.0
 11
690.6556715961089
 21
131.9686787255581
 31
0.0
  0
LINE
  5
15E
330
1F
100
AcDbEntity
  8
0
  6
Continuous
 62
     7
370
    25
100
AcDbLine
 10
690.6556715961089
 20
112.0968284016311
 30
0.0
 11
692.655671596109
 21
112.0968284016311
 31
0.0
  0
LINE
  5
15F
330
1F
100
AcDbEntity
  8
0
  6
Continuous
 62
     7
370
    25
100
AcDbLine
 10
692.655671596109
 20
112.0968284016311
 30
0.0
 11
692.655671596109
 21
112.1737182072762
 31
0.0
  0
LINE
  5
160
330
1F
100
AcDbEntity
  8
0
  6
Continuous
 62
     7
370
    25
100
AcDbLine
 10
690.6556715961089
 20
112.0968284016311
 30
0.0
 11
690.6556715961089
 21
112.1737182072762
 31
0.0
  0
LINE
  5
161
330
1F
100
AcDbEntity
  8
MC1
100
AcDbLine
 10
603.3179099821339
 20
150.0968284016311
 30
0.0
 11
611.4779099821319
 21
150.0968284016311
 31
0.0
  0
LINE
  5
162
330
1F
100
AcDbEntity
  8
MC1
100
AcDbLine
 10
607.3979099821338
 20
154.1768284016312
 30
0.0
 11
607.3979099821338
 21
146.0168284016311
 31
0.0
  0
LINE
  5
163
330
1F
100
AcDbEntity
  8
MC1
100
AcDbLine
 10
428.317909982132
 20
150.0968284016311
 30
0.0
 11
436.4779099821328
 21
150.0968284016311
 31
0.0
  0
LINE
  5
164
330
1F
100
AcDbEntity
  8
MC1
100
AcDbLine
 10
432.3979099821319
 20
154.1768284016312
 30
0.0
 11
432.3979099821319
 21
146.0168284016311
 31
0.0
  0
LINE
  5
165
330
1F
100
AcDbEntity
  8
MC1
100
AcDbLine
 10
428.317909982132
 20
209.0968284016311
 30
0.0
 11
436.4779099821328
 21
209.0968284016311
 31
0.0
  0
LINE
  5
166
330
1F
100
AcDbEntity
  8
MC1
100
AcDbLine
 10
432.3979099821319
 20
213.1768284016312
 30
0.0
 11
432.3979099821319
 21
205.0168284016312
 31
0.0
  0
LINE
  5
167
330
1F
100
AcDbEntity
  8
MC1
100
AcDbLine
 10
603.3179099821339
 20
209.0968284016311
 30
0.0
 11
611.4779099821319
 21
209.0968284016311
 31
0.0
  0
LINE
  5
168
330
1F
100
AcDbEntity
  8
MC1
100
AcDbLine
 10
607.3979099821338
 20
213.1768284016312
 30
0.0
 11
607.3979099821338
 21
205.0168284016312
 31
0.0
  0
LINE
  5
169
330
1F
100
AcDbEntity
  8
MC1
100
AcDbLine
 10
278.3179099821338
 20
209.0968284016311
 30
0.0
 11
286.4779099821337
 21
209.0968284016311
 31
0.0
  0
LINE
  5
16A
330
1F
100
AcDbEntity
  8
MC1
100
AcDbLine
 10
282.3979099821337
 20
213.1768284016312
 30
0.0
 11
282.3979099821337
 21
205.0168284016312
 31
0.0
  0
LINE
  5
16B
330
1F
100
AcDbEntity
  8
MC1
100
AcDbLine
 10
278.3179099821338
 20
150.0968284016311
 30
0.0
 11
286.4779099821337
 21
150.0968284016311
 31
0.0
  0
LINE
  5
16C
330
1F
100
AcDbEntity
  8
MC1
100
AcDbLine
 10
282.3979099821337
 20
154.1768284016312
 30
0.0
 11
282.3979099821337
 21
146.0168284016311
 31
0.0
  0
LINE
  5
17D
330
1F
100
AcDbEntity
  8
GH1
 48
0.5
100
AcDbLine
 10
692.5556715961086
 20
207.4968284016311
 30
0.0
 11
692.5556715961086
 21
210.696828401631
 31
0.0
  0
LINE
  5
17E
330
1F
100
AcDbEntity
  8
MC3
100
AcDbLine
 10
687.6556715961089
 20
209.0968284016311
 30
0.0
 11
695.6556715961088
 21
209.0968284016311
 31
0.0
  0
LINE
  5
17F
330
1F
100
AcDbEntity
  8
GH1
 48
0.5
100
AcDbLine
 10
692.5556715961086
 20
207.4968284016311
 30
0.0
 11
692.655671596109
 21
207.4968284016311
 31
0.0
  0
LINE
  5
180
330
1F
100
AcDbEntity
  8
GH1
 48
0.5
100
AcDbLine
 10
692.5556715961086
 20
207.4968284016311
 30
0.0
 11
690.7556715961089
 21
205.6968284016311
 31
0.0
  0
LINE
  5
182
330
1F
100
AcDbEntity
  8
GH1
 48
0.5
100
AcDbLine
 10
692.5556715961086
 20
210.696828401631
 30
0.0
 11
692.655671596109
 21
210.696828401631
 31
0.0
  0
LINE
  5
184
330
1F
100
AcDbEntity
  8
GH1
 48
0.5
100
AcDbLine
 10
692.5556715961086
 20
210.696828401631
 30
0.0
 11
690.7556715961089
 21
212.4968284016311
 31
0.0
  0
LINE
  5
295
330
1F
100
AcDbEntity
  8
GH1
 48
0.5
100
AcDbLine
 10
690.6556715961089
 20
212.496828401631
 30
0.0
 11
690.7556715961089
 21
212.4968284016311
 31
0.0
  0
LINE
  5
296
330
1F
100
AcDbEntity
  8
GH1
 48
0.5
100
AcDbLine
 10
690.6556715961089
 20
205.6968284016311
 30
0.0
 11
690.7556715961089
 21
205.6968284016311
 31
0.0
  0
LINE
  5
297
330
1F
100
AcDbEntity
  8
GH1
 48
0.5
100
AcDbLine
 10
690.7556715961089
 20
212.4968284016311
 30
0.0
 11
690.7556715961089
 21
205.6968284016311
 31
0.0
  0
LINE
  5
37A
330
1F
100
AcDbEntity
  8
GH1
 48
0.5
100
AcDbLine
 10
690.7556715961089
 20
153.4968284016311
 30
0.0
 11
690.7556715961089
 21
146.6968284016311
 31
0.0
  0
LINE
  5
37B
330
1F
100
AcDbEntity
  8
GH1
 48
0.5
100
AcDbLine
 10
692.5556715961086
 20
148.4968284016312
 30
0.0
 11
690.7556715961089
 21
146.6968284016311
 31
0.0
  0
LINE
  5
37C
330
1F
100
AcDbEntity
  8
GH1
 48
0.5
100
AcDbLine
 10
690.6556715961089
 20
146.6968284016311
 30
0.0
 11
690.7556715961089
 21
146.6968284016311
 31
0.0
  0
LINE
  5
37D
330
1F
100
AcDbEntity
  8
MC3
100
AcDbLine
 10
687.6556715961089
 20
150.0968284016311
 30
0.0
 11
695.6556715961088
 21
150.0968284016311
 31
0.0
  0
LINE
  5
37E
330
1F
100
AcDbEntity
  8
GH1
 48
0.5
100
AcDbLine
 10
692.5556715961086
 20
151.696828401631
 30
0.0
 11
690.7556715961089
 21
153.4968284016311
 31
0.0
  0
LINE
  5
37F
330
1F
100
AcDbEntity
  8
GH1
 48
0.5
100
AcDbLine
 10
692.5556715961086
 20
151.696828401631
 30
0.0
 11
692.655671596109
 21
151.696828401631
 31
0.0
  0
LINE
  5
380
330
1F
100
AcDbEntity
  8
GH1
 48
0.5
100
AcDbLine
 10
692.5556715961086
 20
148.4968284016312
 30
0.0
 11
692.655671596109
 21
148.4968284016312
 31
0.0
  0
LINE
  5
381
330
1F
100
AcDbEntity
  8
GH1
 48
0.5
100
AcDbLine
 10
692.5556715961086
 20
148.4968284016312
 30
0.0
 11
692.5556715961086
 21
151.696828401631
 31
0.0
  0
LINE
  5
382
330
1F
100
AcDbEntity
  8
GH1
 48
0.5
100
AcDbLine
 10
690.6556715961089
 20
153.4968284016311
 30
0.0
 11
690.7556715961089
 21
153.4968284016311
 31
0.0
  0
LEADER
  5
383
330
1F
100
AcDbEntity
  8
0
100
AcDbLeader
  3
ISO-25
 73
     0
 74
     0
 75
     1
 40
2.5
 41
12.91666666666666
 76
     3
 10
609.6622128777169
 20
211.7742293454002
 30
0.0
 10
623.1532500390478
 20
241.6627037859643
 30
0.0
 10
625.6532500390478
 20
241.6627037859643
 30
0.0
340
384
213
0.0
223
-1.25
233
0.0
1001
ACAD
1000
DSTYLE
1002
{
1070
   147
1040
0.625
1070
    77
1070
     0
1002
}
  0
MTEXT
  5
384
102
{ACAD_REACTORS
330
383
102
}
330
1F
100
AcDbEntity
  8
0
100
AcDbMText
 10
626.2782500390478
 20
242.9127037859643
 30
0.0
 40
2.5
 41
0.0
 71
     1
 72
     1
  1
M3 C'S
 73
     1
 44
1.0
  0
DIMENSION
  5
385
330
1F
100
AcDbEntity
  8
0
100
AcDbDimension
  2
*D28
 10
692.655671596109
 20
236.4969631547548
 30
0.0
 11
699.1140049294423
 21
238.3719631547549
 31
0.0
 70
    32
 71
     5
 42
2.0
  3
ISO-25
100
AcDbAlignedDimension
 13
690.6556715961089
 23
227.0968284016311
 33
0.0
 14
692.655671596109
 24
227.0968284016311
 34
0.0
100
AcDbRotatedDimension
  0
ENDSEC
  0
SECTION
  2
OBJECTS
  0
DICTIONARY
  5
C
330
0
100
AcDbDictionary
281
     1
  3
ACAD_GROUP
350
D
  3
ACAD_LAYOUT
350
1A
  3
ACAD_MLINESTYLE
350
17
  3
ACAD_PLOTSETTINGS
350
19
  3
ACAD_PLOTSTYLENAME
350
E
  3
AcDbVariableDictionary
350
394
  0
DICTIONARY
  5
2B
330
2
100
AcDbDictionary
280
     1
281
     1
  3
ACAD_LAYERFILTERS
360
2C
  3
ACAD_LAYERSTATES
360
DF
  0
DICTIONARY
  5
DA
330
D9
100
AcDbDictionary
280
     1
281
     1
  3
ADSK_XREC_LAYER_RECONCILED
360
DB
  0
DICTIONARY
  5
2C0
330
2BF
100
AcDbDictionary
280
     1
281
     1
  3
ADSK_XREC_LAYER_RECONCILED
360
2C1
  0
DICTIONARY
  5
D
102
{ACAD_REACTORS
330
C
102
}
330
C
100
AcDbDictionary
281
     1
  0
DICTIONARY
  5
1A
102
{ACAD_REACTORS
330
C
102
}
330
C
100
AcDbDictionary
281
     1
  3
Model
350
22
  3
배치1
350
1E
  3
배치2
350
26
  0
DICTIONARY
  5
17
102
{ACAD_REACTORS
330
C
102
}
330
C
100
AcDbDictionary
281
     1
  3
Standard
350
18
  0
DICTIONARY
  5
19
102
{ACAD_REACTORS
330
C
102
}
330
C
100
AcDbDictionary
281
     1
  0
ACDBDICTIONARYWDFLT
  5
E
102
{ACAD_REACTORS
330
C
102
}
330
C
100
AcDbDictionary
281
     1
  3
Normal
350
F
100
AcDbDictionaryWithDefault
340
F
  0
DICTIONARY
  5
394
102
{ACAD_REACTORS
330
C
102
}
330
C
100
AcDbDictionary
281
     1
  3
DIMASSOC
350
396
  3
HIDETEXT
350
395
  0
DICTIONARY
  5
2C
102
{ACAD_REACTORS
330
2B
102
}
330
2B
100
AcDbDictionary
280
     1
281
     1
  3
ABJ
360
2D
  3
kd-1912
360
2E
  3
SSSS
360
2F
  3
공용부품_pf & fst
360
30
  3
사용
360
31
  3
플로터 작업층
360
32
  3
현재 작업층
360
33
  3
현재 잠금
360
34
  0
DICTIONARY
  5
DF
102
{ACAD_REACTORS
330
2B
102
}
330
2B
100
AcDbDictionary
281
     1
  0
XRECORD
  5
DB
102
{ACAD_REACTORS
330
DA
102
}
330
DA
100
AcDbXrecord
280
     1
290
     1
  0
XRECORD
  5
2C1
102
{ACAD_REACTORS
330
2C0
102
}
330
2C0
100
AcDbXrecord
280
     1
290
     1
  0
LAYOUT
  5
22
102
{ACAD_REACTORS
330
1A
102
}
330
1A
100
AcDbPlotSettings
  1

  2
K3250NR (192.168.0.20)
  4

  6

 40
0.0
 41
0.0
 42
0.0
 43
0.0
 44
0.0
 45
0.0
 46
0.0
 47
0.0
 48
0.0
 49
0.0
140
0.0
141
0.0
142
1.0
143
1.0
 70
  1712
 72
     0
 73
     0
 74
     0
  7
NEX1.CTB
 75
     0
147
1.0
148
0.0
149
0.0
100
AcDbLayout
  1
Model
 70
     1
 71
     0
 10
0.0
 20
0.0
 11
12.0
 21
9.0
 12
0.0
 22
0.0
 32
0.0
 14
0.0
 24
0.0
 34
0.0
 15
0.0
 25
0.0
 35
0.0
146
0.0
 13
0.0
 23
0.0
 33
0.0
 16
1.0
 26
0.0
 36
0.0
 17
0.0
 27
1.0
 37
0.0
 76
     0
330
1F
  0
LAYOUT
  5
1E
102
{ACAD_REACTORS
330
1A
102
}
330
1A
100
AcDbPlotSettings
  1

  2
K3250NR (192.168.0.20)
  4

  6

 40
0.0
 41
0.0
 42
0.0
 43
0.0
 44
0.0
 45
0.0
 46
0.0
 47
0.0
 48
0.0
 49
0.0
140
0.0
141
0.0
142
1.0
143
1.0
 70
   688
 72
     0
 73
     0
 74
     5
  7
NEX1.CTB
 75
    16
147
1.0
148
0.0
149
0.0
100
AcDbLayout
  1
배치1
 70
     1
 71
     1
 10
0.0
 20
0.0
 11
420.0
 21
297.0
 12
0.0
 22
0.0
 32
0.0
 14
1.000000000000000E+20
 24
1.000000000000000E+20
 34
1.000000000000000E+20
 15
-1.000000000000000E+20
 25
-1.000000000000000E+20
 35
-1.000000000000000E+20
146
0.0
 13
0.0
 23
0.0
 33
0.0
 16
1.0
 26
0.0
 36
0.0
 17
0.0
 27
1.0
 37
0.0
 76
     0
330
1B
  0
LAYOUT
  5
26
102
{ACAD_REACTORS
330
1A
102
}
330
1A
100
AcDbPlotSettings
  1

  2
K3250NR (192.168.0.20)
  4

  6

 40
0.0
 41
0.0
 42
0.0
 43
0.0
 44
0.0
 45
0.0
 46
0.0
 47
0.0
 48
0.0
 49
0.0
140
0.0
141
0.0
142
1.0
143
1.0
 70
   688
 72
     0
 73
     0
 74
     5
  7
NEX1.CTB
 75
    16
147
1.0
148
0.0
149
0.0
100
AcDbLayout
  1
배치2
 70
     1
 71
     2
 10
0.0
 20
0.0
 11
12.0
 21
9.0
 12
0.0
 22
0.0
 32
0.0
 14
0.0
 24
0.0
 34
0.0
 15
0.0
 25
0.0
 35
0.0
146
0.0
 13
0.0
 23
0.0
 33
0.0
 16
1.0
 26
0.0
 36
0.0
 17
0.0
 27
1.0
 37
0.0
 76
     0
330
23
  0
MLINESTYLE
  5
18
102
{ACAD_REACTORS
330
17
102
}
330
17
100
AcDbMlineStyle
  2
STANDARD
 70
     0
  3

 62
   256
 51
90.0
 52
90.0
 71
     2
 49
0.5
 62
   256
  6
BYLAYER
 49
-0.5
 62
   256
  6
BYLAYER
  0
ACDBPLACEHOLDER
  5
F
102
{ACAD_REACTORS
330
E
102
}
330
E
  0
DICTIONARYVAR
  5
396
102
{ACAD_REACTORS
330
394
102
}
330
394
100
DictionaryVariables
280
     0
  1
2
  0
DICTIONARYVAR
  5
395
102
{ACAD_REACTORS
330
394
102
}
330
394
100
DictionaryVariables
280
     0
  1
1
  0
XRECORD
  5
2D
102
{ACAD_REACTORS
330
2C
102
}
330
2C
100
AcDbXrecord
280
     1
  1
ABJ
  1
*
  1
*
  1
*
 70
     0
  1
*
  1
*
  0
XRECORD
  5
2E
102
{ACAD_REACTORS
330
2C
102
}
330
2C
100
AcDbXrecord
280
     1
  1
kd-1912
  1
new*
  1
*
  1
*
 70
     0
  1
*
  1
*
  0
XRECORD
  5
2F
102
{ACAD_REACTORS
330
2C
102
}
330
2C
100
AcDbXrecord
280
     1
  1
SSSS
  1
*
  1
*
  1
*
 70
     0
  1
*
  1
*
  0
XRECORD
  5
30
102
{ACAD_REACTORS
330
2C
102
}
330
2C
100
AcDbXrecord
280
     1
  1
공용부품_pf & fst
  1
*
  1
*
  1
*
 70
  3072
  1
*
  1
*
  0
XRECORD
  5
31
102
{ACAD_REACTORS
330
2C
102
}
330
2C
100
AcDbXrecord
280
     1
  1
사용
  1
*
  1
*
  1
*
 70
   256
  1
*
  1
*
  0
XRECORD
  5
32
102
{ACAD_REACTORS
330
2C
102
}
330
2C
100
AcDbXrecord
280
     1
  1
플로터 작업층
  1
*
  1
*
  1
*
 70
  1025
  1
*
  1
*
  0
XRECORD
  5
33
102
{ACAD_REACTORS
330
2C
102
}
330
2C
100
AcDbXrecord
280
     1
  1
현재 작업층
  1
*
  1
*
  1
*
 70
     1
  1
*
  1
*
  0
XRECORD
  5
34
102
{ACAD_REACTORS
330
2C
102
}
330
2C
100
AcDbXrecord
280
     1
  1
현재 잠금
  1
*
  1
*
  1
*
 70
   257
  1
*
  1
*
  0
ENDSEC
  0
EOF
