G04*
G04 #@! TF.GenerationSoftware,Altium Limited,Altium Designer,21.3.2 (30)*
G04*
G04 Layer_Color=32896*
%FSLAX43Y43*%
%MOMM*%
G71*
G04*
G04 #@! TF.SameCoordinates,18D36F19-11BE-4002-80CD-DBD72E8668B0*
G04*
G04*
G04 #@! TF.FilePolarity,Positive*
G04*
G01*
G75*
%ADD11C,0.100*%
%ADD34C,0.088*%
G36*
X112963Y110454D02*
X112950D01*
X112932Y110451D01*
X112897Y110444D01*
X112880Y110440D01*
X112866Y110433D01*
X112855Y110430D01*
X112852D01*
X112824Y110419D01*
X112800Y110409D01*
X112775Y110395D01*
X112758Y110384D01*
X112744Y110374D01*
X112733Y110364D01*
X112730Y110360D01*
X112726Y110357D01*
X112712Y110336D01*
X112698Y110311D01*
X112688Y110259D01*
X112684Y110234D01*
X112681Y110214D01*
Y110200D01*
Y110196D01*
Y107601D01*
X112684Y107563D01*
X112688Y107528D01*
X112695Y107500D01*
X112702Y107479D01*
X112712Y107462D01*
X112719Y107452D01*
X112723Y107445D01*
X112726Y107441D01*
X112765Y107410D01*
X112807Y107385D01*
X112824Y107375D01*
X112838Y107371D01*
X112848Y107364D01*
X112852D01*
X112880Y107357D01*
X112904Y107350D01*
X112922Y107347D01*
X112939Y107343D01*
X112963D01*
Y107298D01*
X110609D01*
Y108240D01*
X110613Y108205D01*
X110620Y108166D01*
X110630Y108121D01*
X110641Y108079D01*
X110655Y108037D01*
X110665Y108006D01*
X110669Y107992D01*
X110672Y107982D01*
X110676Y107978D01*
Y107975D01*
X110711Y107884D01*
X110749Y107811D01*
X110787Y107744D01*
X110822Y107692D01*
X110854Y107654D01*
X110878Y107622D01*
X110892Y107608D01*
X110899Y107601D01*
X110927Y107581D01*
X110958Y107563D01*
X110993Y107549D01*
X111035Y107535D01*
X111119Y107514D01*
X111202Y107500D01*
X111283Y107493D01*
X111317Y107490D01*
X111349D01*
X111377Y107486D01*
X112165D01*
X112207Y107490D01*
X112238Y107504D01*
X112259Y107514D01*
X112262Y107518D01*
X112266D01*
X112280Y107532D01*
X112287Y107549D01*
X112301Y107584D01*
Y107601D01*
X112304Y107612D01*
Y107622D01*
Y107626D01*
Y110196D01*
X112301Y110231D01*
X112297Y110262D01*
X112290Y110290D01*
X112280Y110315D01*
X112273Y110332D01*
X112266Y110346D01*
X112262Y110357D01*
X112259Y110360D01*
X112245Y110374D01*
X112231Y110388D01*
X112196Y110412D01*
X112179Y110423D01*
X112168Y110426D01*
X112158Y110433D01*
X112154D01*
X112126Y110444D01*
X112099Y110451D01*
X112078Y110454D01*
X112057D01*
X112043Y110458D01*
X112032Y110454D01*
X112022D01*
Y110503D01*
X112963D01*
Y110454D01*
D02*
G37*
G36*
X112059Y104463D02*
X111968D01*
Y105072D01*
X111762Y104463D01*
X111676D01*
X111467Y105062D01*
Y104463D01*
X111376D01*
Y105178D01*
X111504D01*
X111676Y104681D01*
X111680Y104667D01*
X111685Y104654D01*
X111689Y104642D01*
X111693Y104631D01*
X111696Y104620D01*
X111699Y104611D01*
X111702Y104602D01*
X111704Y104595D01*
X111707Y104588D01*
X111708Y104582D01*
X111710Y104578D01*
X111711Y104573D01*
X111712Y104570D01*
X111713Y104568D01*
X111713Y104567D01*
Y104566D01*
X111716Y104573D01*
X111718Y104581D01*
X111724Y104597D01*
X111729Y104615D01*
X111734Y104632D01*
X111740Y104647D01*
X111742Y104654D01*
X111744Y104660D01*
X111745Y104664D01*
X111747Y104668D01*
X111748Y104671D01*
Y104671D01*
X111917Y105178D01*
X112059D01*
Y104463D01*
D02*
G37*
G36*
X112893D02*
X112446D01*
Y104547D01*
X112798D01*
Y105178D01*
X112893D01*
Y104463D01*
D02*
G37*
G36*
X112317D02*
X112222D01*
Y105178D01*
X112317D01*
Y104463D01*
D02*
G37*
G36*
X111208D02*
X111113D01*
Y105178D01*
X111208D01*
Y104463D01*
D02*
G37*
G36*
X111000Y105094D02*
X110764D01*
Y104463D01*
X110670D01*
Y105094D01*
X110434D01*
Y105178D01*
X111000D01*
Y105094D01*
D02*
G37*
G36*
X110335Y104463D02*
X109801D01*
Y104547D01*
X110240D01*
Y104791D01*
X109844D01*
Y104875D01*
X110240D01*
Y105094D01*
X109817D01*
Y105178D01*
X110335D01*
Y104463D01*
D02*
G37*
G36*
X109671D02*
X109413D01*
X109389Y104464D01*
X109368Y104465D01*
X109348Y104467D01*
X109331Y104469D01*
X109324Y104470D01*
X109318Y104471D01*
X109312Y104472D01*
X109307Y104473D01*
X109303Y104474D01*
X109301D01*
X109300Y104475D01*
X109299D01*
X109281Y104480D01*
X109264Y104485D01*
X109249Y104492D01*
X109237Y104497D01*
X109227Y104502D01*
X109219Y104506D01*
X109214Y104509D01*
X109214Y104510D01*
X109213D01*
X109200Y104520D01*
X109187Y104530D01*
X109176Y104541D01*
X109167Y104552D01*
X109159Y104561D01*
X109153Y104568D01*
X109151Y104571D01*
X109149Y104574D01*
X109148Y104575D01*
Y104575D01*
X109137Y104592D01*
X109128Y104609D01*
X109119Y104626D01*
X109112Y104643D01*
X109107Y104657D01*
X109104Y104664D01*
X109102Y104669D01*
X109101Y104673D01*
X109100Y104676D01*
X109099Y104678D01*
Y104679D01*
X109093Y104704D01*
X109088Y104729D01*
X109084Y104753D01*
X109082Y104775D01*
X109081Y104785D01*
X109080Y104795D01*
Y104803D01*
X109079Y104810D01*
Y104816D01*
Y104820D01*
Y104823D01*
Y104824D01*
X109081Y104859D01*
X109082Y104875D01*
X109084Y104891D01*
X109086Y104905D01*
X109089Y104919D01*
X109091Y104932D01*
X109093Y104945D01*
X109097Y104956D01*
X109099Y104965D01*
X109101Y104974D01*
X109104Y104980D01*
X109106Y104986D01*
X109107Y104991D01*
X109108Y104993D01*
Y104994D01*
X109120Y105020D01*
X109133Y105044D01*
X109140Y105055D01*
X109147Y105065D01*
X109154Y105074D01*
X109161Y105083D01*
X109167Y105090D01*
X109173Y105097D01*
X109179Y105103D01*
X109183Y105108D01*
X109187Y105111D01*
X109190Y105114D01*
X109192Y105115D01*
X109193Y105116D01*
X109210Y105129D01*
X109227Y105140D01*
X109245Y105149D01*
X109261Y105156D01*
X109275Y105161D01*
X109282Y105163D01*
X109287Y105164D01*
X109291Y105166D01*
X109294Y105166D01*
X109296Y105167D01*
X109297D01*
X109306Y105169D01*
X109315Y105171D01*
X109336Y105173D01*
X109357Y105176D01*
X109378Y105176D01*
X109387Y105177D01*
X109396D01*
X109404Y105178D01*
X109671D01*
Y104463D01*
D02*
G37*
G36*
X111190Y107847D02*
X111176Y107895D01*
X111159Y107948D01*
X111138Y108003D01*
X111117Y108056D01*
X111100Y108098D01*
X111093Y108115D01*
X111086Y108129D01*
X111082Y108136D01*
Y108139D01*
X111058Y108192D01*
X111033Y108237D01*
X111009Y108282D01*
X110985Y108321D01*
X110964Y108356D01*
X110939Y108390D01*
X110901Y108443D01*
X110866Y108485D01*
X110838Y108516D01*
X110824Y108530D01*
X110817Y108537D01*
X110782Y108561D01*
X110737Y108586D01*
X110692Y108607D01*
X110643Y108624D01*
X110601Y108638D01*
X110566Y108649D01*
X110552Y108656D01*
X110542D01*
X110538Y108659D01*
X110535D01*
X110472Y108676D01*
X110416Y108687D01*
X110367Y108697D01*
X110329Y108701D01*
X110294Y108704D01*
X110273Y108708D01*
X109405D01*
X111337Y105597D01*
X109073D01*
X108981Y106755D01*
X108979Y106758D01*
Y106772D01*
X108981Y106755D01*
X108986Y106741D01*
X108990Y106716D01*
X109000Y106692D01*
X109018Y106633D01*
X109042Y106570D01*
X109066Y106507D01*
X109077Y106483D01*
X109084Y106458D01*
X109094Y106438D01*
X109098Y106424D01*
X109105Y106413D01*
Y106410D01*
X109133Y106347D01*
X109157Y106288D01*
X109185Y106235D01*
X109209Y106186D01*
X109230Y106145D01*
X109255Y106106D01*
X109276Y106075D01*
X109293Y106043D01*
X109311Y106019D01*
X109328Y105998D01*
X109342Y105981D01*
X109352Y105967D01*
X109366Y105949D01*
X109373Y105942D01*
X109408Y105914D01*
X109447Y105890D01*
X109530Y105852D01*
X109621Y105824D01*
X109712Y105806D01*
X109753Y105799D01*
X109792Y105792D01*
X109827Y105789D01*
X109858D01*
X109886Y105785D01*
X110817D01*
X108979Y108802D01*
X111100D01*
X111190Y107847D01*
D02*
G37*
G36*
X111190Y107846D02*
X111194Y107825D01*
Y107808D01*
X111190Y107847D01*
X111190Y107846D01*
D02*
G37*
G36*
X108467Y102571D02*
X108357Y102555D01*
X108346Y102570D01*
X108335Y102583D01*
X108322Y102595D01*
X108312Y102605D01*
X108302Y102612D01*
X108293Y102619D01*
X108288Y102622D01*
X108286Y102623D01*
X108268Y102632D01*
X108250Y102638D01*
X108233Y102644D01*
X108216Y102647D01*
X108203Y102649D01*
X108191Y102650D01*
X108182D01*
X108165Y102649D01*
X108149Y102648D01*
X108134Y102645D01*
X108120Y102640D01*
X108094Y102631D01*
X108084Y102626D01*
X108073Y102621D01*
X108064Y102614D01*
X108057Y102609D01*
X108049Y102604D01*
X108044Y102600D01*
X108040Y102596D01*
X108036Y102593D01*
X108035Y102592D01*
X108034Y102590D01*
X108023Y102579D01*
X108015Y102567D01*
X108007Y102554D01*
X108001Y102542D01*
X107990Y102514D01*
X107984Y102489D01*
X107982Y102477D01*
X107980Y102467D01*
X107979Y102456D01*
X107978Y102448D01*
X107977Y102441D01*
Y102435D01*
Y102432D01*
Y102431D01*
X107978Y102411D01*
X107979Y102394D01*
X107982Y102376D01*
X107986Y102359D01*
X107990Y102345D01*
X107995Y102330D01*
X108001Y102318D01*
X108006Y102306D01*
X108012Y102296D01*
X108017Y102286D01*
X108022Y102279D01*
X108027Y102272D01*
X108031Y102267D01*
X108034Y102263D01*
X108035Y102261D01*
X108036Y102260D01*
X108047Y102249D01*
X108059Y102240D01*
X108070Y102231D01*
X108083Y102224D01*
X108095Y102218D01*
X108107Y102212D01*
X108130Y102205D01*
X108149Y102200D01*
X108158Y102199D01*
X108165Y102198D01*
X108171Y102197D01*
X108180D01*
X108193Y102198D01*
X108206Y102199D01*
X108229Y102204D01*
X108249Y102211D01*
X108267Y102220D01*
X108282Y102227D01*
X108292Y102234D01*
X108296Y102237D01*
X108299Y102240D01*
X108300Y102242D01*
X108302D01*
X108310Y102251D01*
X108318Y102260D01*
X108332Y102281D01*
X108343Y102304D01*
X108352Y102326D01*
X108357Y102346D01*
X108360Y102355D01*
X108361Y102362D01*
X108362Y102369D01*
X108363Y102373D01*
X108364Y102376D01*
Y102377D01*
X108488Y102368D01*
X108485Y102346D01*
X108481Y102324D01*
X108475Y102304D01*
X108468Y102285D01*
X108461Y102269D01*
X108454Y102252D01*
X108445Y102237D01*
X108437Y102225D01*
X108429Y102212D01*
X108421Y102202D01*
X108414Y102194D01*
X108407Y102186D01*
X108401Y102180D01*
X108397Y102176D01*
X108395Y102174D01*
X108394Y102173D01*
X108378Y102160D01*
X108361Y102149D01*
X108343Y102140D01*
X108325Y102131D01*
X108308Y102124D01*
X108290Y102118D01*
X108272Y102112D01*
X108256Y102109D01*
X108240Y102106D01*
X108225Y102104D01*
X108213Y102102D01*
X108202Y102101D01*
X108192Y102100D01*
X108180D01*
X108151Y102101D01*
X108123Y102105D01*
X108097Y102110D01*
X108073Y102119D01*
X108051Y102127D01*
X108030Y102136D01*
X108011Y102148D01*
X107994Y102158D01*
X107979Y102169D01*
X107965Y102180D01*
X107954Y102190D01*
X107944Y102199D01*
X107937Y102206D01*
X107932Y102211D01*
X107929Y102216D01*
X107928Y102217D01*
X107914Y102234D01*
X107903Y102253D01*
X107892Y102273D01*
X107884Y102292D01*
X107877Y102310D01*
X107870Y102329D01*
X107865Y102348D01*
X107861Y102365D01*
X107858Y102381D01*
X107856Y102396D01*
X107854Y102408D01*
X107853Y102420D01*
X107852Y102429D01*
Y102435D01*
Y102441D01*
Y102442D01*
X107853Y102467D01*
X107856Y102491D01*
X107860Y102513D01*
X107865Y102534D01*
X107871Y102555D01*
X107880Y102573D01*
X107887Y102590D01*
X107895Y102606D01*
X107904Y102620D01*
X107911Y102631D01*
X107918Y102643D01*
X107926Y102651D01*
X107931Y102657D01*
X107935Y102662D01*
X107938Y102665D01*
X107939Y102667D01*
X107956Y102682D01*
X107973Y102696D01*
X107991Y102707D01*
X108009Y102718D01*
X108027Y102726D01*
X108044Y102733D01*
X108061Y102738D01*
X108078Y102744D01*
X108092Y102747D01*
X108107Y102750D01*
X108119Y102751D01*
X108130Y102753D01*
X108138D01*
X108145Y102754D01*
X108151D01*
X108168Y102753D01*
X108186Y102752D01*
X108203Y102749D01*
X108219Y102745D01*
X108249Y102735D01*
X108264Y102729D01*
X108277Y102724D01*
X108289Y102719D01*
X108299Y102712D01*
X108309Y102707D01*
X108317Y102703D01*
X108323Y102699D01*
X108328Y102697D01*
X108331Y102695D01*
X108332Y102694D01*
X108281Y102952D01*
X107896D01*
Y103064D01*
X108374D01*
X108467Y102571D01*
D02*
G37*
G36*
X109322Y102404D02*
X108959D01*
Y102523D01*
X109322D01*
Y102404D01*
D02*
G37*
G36*
X114670Y102116D02*
X114548D01*
Y102870D01*
X114044Y102116D01*
X113913D01*
Y103077D01*
X114034D01*
Y102322D01*
X114539Y103077D01*
X114670D01*
Y102116D01*
D02*
G37*
G36*
X111154Y102645D02*
X111415D01*
Y102534D01*
X111154D01*
Y102271D01*
X111042D01*
Y102534D01*
X110781D01*
Y102645D01*
X111042D01*
Y102906D01*
X111154D01*
Y102645D01*
D02*
G37*
G36*
X107419Y102116D02*
X107288D01*
X106913Y103077D01*
X107042D01*
X107302Y102378D01*
X107312Y102349D01*
X107323Y102321D01*
X107332Y102294D01*
X107339Y102270D01*
X107342Y102259D01*
X107346Y102250D01*
X107348Y102242D01*
X107350Y102234D01*
X107352Y102229D01*
X107353Y102224D01*
X107354Y102222D01*
Y102221D01*
X107362Y102249D01*
X107370Y102277D01*
X107379Y102303D01*
X107386Y102327D01*
X107390Y102338D01*
X107393Y102348D01*
X107397Y102356D01*
X107399Y102363D01*
X107401Y102370D01*
X107403Y102374D01*
X107404Y102377D01*
Y102378D01*
X107654Y103077D01*
X107792D01*
X107419Y102116D01*
D02*
G37*
G36*
X115290Y103092D02*
X115316Y103091D01*
X115341Y103088D01*
X115364Y103084D01*
X115387Y103080D01*
X115408Y103075D01*
X115428Y103070D01*
X115446Y103064D01*
X115461Y103058D01*
X115476Y103053D01*
X115488Y103048D01*
X115499Y103044D01*
X115507Y103039D01*
X115513Y103036D01*
X115517Y103035D01*
X115518Y103034D01*
X115538Y103023D01*
X115557Y103009D01*
X115575Y102996D01*
X115590Y102981D01*
X115606Y102965D01*
X115619Y102951D01*
X115632Y102936D01*
X115643Y102922D01*
X115653Y102907D01*
X115662Y102895D01*
X115669Y102883D01*
X115676Y102873D01*
X115680Y102864D01*
X115683Y102858D01*
X115685Y102854D01*
X115686Y102853D01*
X115696Y102830D01*
X115705Y102807D01*
X115713Y102784D01*
X115719Y102761D01*
X115730Y102718D01*
X115734Y102697D01*
X115737Y102677D01*
X115739Y102659D01*
X115741Y102643D01*
X115742Y102628D01*
X115743Y102615D01*
X115744Y102605D01*
Y102598D01*
Y102594D01*
Y102592D01*
X115743Y102565D01*
X115742Y102539D01*
X115739Y102516D01*
X115735Y102492D01*
X115731Y102470D01*
X115726Y102448D01*
X115720Y102428D01*
X115715Y102410D01*
X115710Y102394D01*
X115705Y102379D01*
X115700Y102367D01*
X115695Y102355D01*
X115691Y102347D01*
X115688Y102341D01*
X115687Y102336D01*
X115686Y102335D01*
X115675Y102315D01*
X115661Y102295D01*
X115648Y102277D01*
X115634Y102259D01*
X115619Y102244D01*
X115605Y102230D01*
X115590Y102217D01*
X115577Y102205D01*
X115563Y102195D01*
X115551Y102185D01*
X115539Y102178D01*
X115530Y102172D01*
X115523Y102167D01*
X115516Y102164D01*
X115512Y102161D01*
X115511Y102160D01*
X115489Y102150D01*
X115466Y102141D01*
X115444Y102132D01*
X115423Y102126D01*
X115400Y102120D01*
X115379Y102115D01*
X115358Y102110D01*
X115339Y102107D01*
X115322Y102105D01*
X115305Y102103D01*
X115290Y102102D01*
X115278Y102101D01*
X115267Y102100D01*
X115254D01*
X115215Y102102D01*
X115178Y102106D01*
X115144Y102111D01*
X115128Y102116D01*
X115112Y102119D01*
X115099Y102122D01*
X115087Y102126D01*
X115076Y102129D01*
X115067Y102131D01*
X115059Y102134D01*
X115054Y102135D01*
X115051Y102137D01*
X115050D01*
X115012Y102153D01*
X114977Y102171D01*
X114945Y102190D01*
X114929Y102199D01*
X114915Y102207D01*
X114903Y102216D01*
X114891Y102224D01*
X114881Y102230D01*
X114873Y102236D01*
X114865Y102242D01*
X114860Y102246D01*
X114857Y102248D01*
X114856Y102249D01*
Y102606D01*
X115263D01*
Y102493D01*
X114981D01*
Y102312D01*
X114998Y102299D01*
X115016Y102287D01*
X115036Y102276D01*
X115056Y102266D01*
X115074Y102257D01*
X115081Y102253D01*
X115087Y102250D01*
X115094Y102248D01*
X115098Y102246D01*
X115100Y102245D01*
X115101D01*
X115130Y102234D01*
X115159Y102227D01*
X115186Y102221D01*
X115210Y102218D01*
X115222Y102217D01*
X115231Y102216D01*
X115239Y102215D01*
X115247D01*
X115253Y102214D01*
X115261D01*
X115297Y102216D01*
X115330Y102220D01*
X115360Y102227D01*
X115375Y102230D01*
X115387Y102234D01*
X115399Y102239D01*
X115409Y102242D01*
X115418Y102246D01*
X115427Y102249D01*
X115433Y102251D01*
X115437Y102253D01*
X115440Y102255D01*
X115441D01*
X115457Y102263D01*
X115472Y102273D01*
X115497Y102293D01*
X115518Y102315D01*
X115537Y102335D01*
X115551Y102354D01*
X115557Y102362D01*
X115561Y102369D01*
X115565Y102375D01*
X115567Y102379D01*
X115568Y102382D01*
X115569Y102383D01*
X115584Y102418D01*
X115594Y102454D01*
X115603Y102489D01*
X115608Y102524D01*
X115609Y102539D01*
X115611Y102554D01*
X115612Y102567D01*
Y102578D01*
X115613Y102586D01*
Y102594D01*
Y102598D01*
Y102599D01*
X115611Y102637D01*
X115607Y102674D01*
X115602Y102706D01*
X115599Y102722D01*
X115594Y102735D01*
X115591Y102748D01*
X115588Y102759D01*
X115585Y102769D01*
X115582Y102777D01*
X115580Y102784D01*
X115578Y102788D01*
X115577Y102791D01*
Y102793D01*
X115568Y102811D01*
X115559Y102829D01*
X115549Y102846D01*
X115539Y102859D01*
X115531Y102871D01*
X115524Y102880D01*
X115519Y102885D01*
X115517Y102887D01*
X115502Y102903D01*
X115484Y102916D01*
X115467Y102929D01*
X115451Y102939D01*
X115436Y102948D01*
X115425Y102953D01*
X115421Y102955D01*
X115417Y102957D01*
X115415Y102958D01*
X115414D01*
X115389Y102967D01*
X115364Y102974D01*
X115338Y102979D01*
X115315Y102982D01*
X115304Y102983D01*
X115295Y102984D01*
X115285D01*
X115278Y102985D01*
X115263D01*
X115237Y102984D01*
X115212Y102981D01*
X115190Y102977D01*
X115171Y102973D01*
X115155Y102967D01*
X115148Y102965D01*
X115142Y102963D01*
X115138Y102961D01*
X115135Y102960D01*
X115133Y102959D01*
X115132D01*
X115111Y102949D01*
X115092Y102938D01*
X115077Y102927D01*
X115063Y102916D01*
X115054Y102906D01*
X115047Y102899D01*
X115041Y102894D01*
X115040Y102891D01*
X115029Y102875D01*
X115019Y102856D01*
X115009Y102837D01*
X115001Y102819D01*
X114995Y102802D01*
X114993Y102795D01*
X114990Y102789D01*
X114988Y102784D01*
X114987Y102780D01*
X114986Y102778D01*
Y102777D01*
X114871Y102808D01*
X114881Y102843D01*
X114893Y102874D01*
X114899Y102887D01*
X114905Y102901D01*
X114910Y102912D01*
X114916Y102923D01*
X114922Y102933D01*
X114927Y102941D01*
X114932Y102949D01*
X114935Y102955D01*
X114939Y102959D01*
X114941Y102962D01*
X114943Y102964D01*
X114944Y102965D01*
X114963Y102987D01*
X114984Y103006D01*
X115006Y103022D01*
X115028Y103035D01*
X115047Y103046D01*
X115055Y103050D01*
X115062Y103053D01*
X115067Y103056D01*
X115072Y103058D01*
X115075Y103059D01*
X115076D01*
X115108Y103071D01*
X115140Y103079D01*
X115173Y103085D01*
X115202Y103089D01*
X115215Y103090D01*
X115227Y103091D01*
X115237Y103092D01*
X115247Y103093D01*
X115264D01*
X115290Y103092D01*
D02*
G37*
G36*
X113699Y102116D02*
X113352D01*
X113321Y102117D01*
X113292Y102118D01*
X113266Y102121D01*
X113243Y102124D01*
X113234Y102125D01*
X113225Y102126D01*
X113217Y102128D01*
X113211Y102129D01*
X113205Y102130D01*
X113202D01*
X113200Y102131D01*
X113199D01*
X113175Y102139D01*
X113152Y102146D01*
X113133Y102154D01*
X113116Y102161D01*
X113102Y102169D01*
X113092Y102174D01*
X113086Y102178D01*
X113085Y102179D01*
X113084D01*
X113066Y102193D01*
X113049Y102206D01*
X113035Y102221D01*
X113022Y102235D01*
X113011Y102248D01*
X113003Y102257D01*
X113000Y102261D01*
X112998Y102265D01*
X112996Y102266D01*
Y102267D01*
X112982Y102288D01*
X112969Y102311D01*
X112958Y102335D01*
X112948Y102357D01*
X112941Y102377D01*
X112938Y102385D01*
X112935Y102393D01*
X112934Y102398D01*
X112932Y102402D01*
X112931Y102405D01*
Y102406D01*
X112922Y102439D01*
X112916Y102473D01*
X112911Y102505D01*
X112908Y102535D01*
X112907Y102549D01*
X112906Y102561D01*
Y102573D01*
X112905Y102582D01*
Y102590D01*
Y102596D01*
Y102600D01*
Y102601D01*
X112907Y102648D01*
X112908Y102670D01*
X112911Y102690D01*
X112914Y102710D01*
X112917Y102729D01*
X112920Y102747D01*
X112923Y102763D01*
X112927Y102778D01*
X112931Y102790D01*
X112934Y102802D01*
X112937Y102811D01*
X112940Y102819D01*
X112941Y102825D01*
X112943Y102828D01*
Y102829D01*
X112959Y102864D01*
X112976Y102897D01*
X112986Y102911D01*
X112995Y102925D01*
X113004Y102937D01*
X113014Y102949D01*
X113022Y102959D01*
X113031Y102967D01*
X113038Y102976D01*
X113044Y102982D01*
X113049Y102987D01*
X113053Y102990D01*
X113055Y102992D01*
X113057Y102994D01*
X113079Y103011D01*
X113103Y103026D01*
X113126Y103037D01*
X113148Y103047D01*
X113168Y103054D01*
X113176Y103056D01*
X113184Y103058D01*
X113189Y103060D01*
X113193Y103061D01*
X113196Y103062D01*
X113197D01*
X113209Y103064D01*
X113221Y103067D01*
X113249Y103071D01*
X113277Y103074D01*
X113305Y103075D01*
X113318Y103076D01*
X113330D01*
X113341Y103077D01*
X113699D01*
Y102116D01*
D02*
G37*
G36*
X112357D02*
X112010D01*
X111979Y102117D01*
X111950Y102118D01*
X111924Y102121D01*
X111901Y102124D01*
X111891Y102125D01*
X111883Y102126D01*
X111875Y102128D01*
X111868Y102129D01*
X111863Y102130D01*
X111860D01*
X111858Y102131D01*
X111857D01*
X111833Y102139D01*
X111810Y102146D01*
X111790Y102154D01*
X111774Y102161D01*
X111760Y102169D01*
X111750Y102174D01*
X111743Y102178D01*
X111742Y102179D01*
X111741D01*
X111724Y102193D01*
X111707Y102206D01*
X111692Y102221D01*
X111680Y102235D01*
X111668Y102248D01*
X111661Y102257D01*
X111658Y102261D01*
X111656Y102265D01*
X111654Y102266D01*
Y102267D01*
X111639Y102288D01*
X111627Y102311D01*
X111615Y102335D01*
X111606Y102357D01*
X111599Y102377D01*
X111595Y102385D01*
X111592Y102393D01*
X111591Y102398D01*
X111589Y102402D01*
X111588Y102405D01*
Y102406D01*
X111580Y102439D01*
X111574Y102473D01*
X111568Y102505D01*
X111565Y102535D01*
X111564Y102549D01*
X111563Y102561D01*
Y102573D01*
X111562Y102582D01*
Y102590D01*
Y102596D01*
Y102600D01*
Y102601D01*
X111564Y102648D01*
X111565Y102670D01*
X111568Y102690D01*
X111572Y102710D01*
X111575Y102729D01*
X111578Y102747D01*
X111581Y102763D01*
X111585Y102778D01*
X111588Y102790D01*
X111591Y102802D01*
X111594Y102811D01*
X111598Y102819D01*
X111599Y102825D01*
X111601Y102828D01*
Y102829D01*
X111616Y102864D01*
X111634Y102897D01*
X111643Y102911D01*
X111653Y102925D01*
X111662Y102937D01*
X111671Y102949D01*
X111680Y102959D01*
X111688Y102967D01*
X111695Y102976D01*
X111702Y102982D01*
X111707Y102987D01*
X111711Y102990D01*
X111713Y102992D01*
X111714Y102994D01*
X111737Y103011D01*
X111761Y103026D01*
X111784Y103037D01*
X111806Y103047D01*
X111826Y103054D01*
X111834Y103056D01*
X111841Y103058D01*
X111846Y103060D01*
X111851Y103061D01*
X111854Y103062D01*
X111855D01*
X111866Y103064D01*
X111879Y103067D01*
X111907Y103071D01*
X111935Y103074D01*
X111963Y103075D01*
X111976Y103076D01*
X111988D01*
X111998Y103077D01*
X112357D01*
Y102116D01*
D02*
G37*
G36*
X110230D02*
X109883D01*
X109852Y102117D01*
X109823Y102118D01*
X109797Y102121D01*
X109774Y102124D01*
X109765Y102125D01*
X109756Y102126D01*
X109748Y102128D01*
X109742Y102129D01*
X109737Y102130D01*
X109733D01*
X109731Y102131D01*
X109730D01*
X109706Y102139D01*
X109683Y102146D01*
X109664Y102154D01*
X109647Y102161D01*
X109633Y102169D01*
X109623Y102174D01*
X109617Y102178D01*
X109616Y102179D01*
X109615D01*
X109597Y102193D01*
X109580Y102206D01*
X109566Y102221D01*
X109553Y102235D01*
X109542Y102248D01*
X109535Y102257D01*
X109531Y102261D01*
X109529Y102265D01*
X109527Y102266D01*
Y102267D01*
X109513Y102288D01*
X109500Y102311D01*
X109489Y102335D01*
X109479Y102357D01*
X109472Y102377D01*
X109469Y102385D01*
X109466Y102393D01*
X109465Y102398D01*
X109463Y102402D01*
X109462Y102405D01*
Y102406D01*
X109453Y102439D01*
X109447Y102473D01*
X109442Y102505D01*
X109439Y102535D01*
X109438Y102549D01*
X109437Y102561D01*
Y102573D01*
X109436Y102582D01*
Y102590D01*
Y102596D01*
Y102600D01*
Y102601D01*
X109438Y102648D01*
X109439Y102670D01*
X109442Y102690D01*
X109445Y102710D01*
X109448Y102729D01*
X109451Y102747D01*
X109454Y102763D01*
X109459Y102778D01*
X109462Y102790D01*
X109465Y102802D01*
X109468Y102811D01*
X109471Y102819D01*
X109472Y102825D01*
X109474Y102828D01*
Y102829D01*
X109490Y102864D01*
X109507Y102897D01*
X109517Y102911D01*
X109526Y102925D01*
X109536Y102937D01*
X109545Y102949D01*
X109553Y102959D01*
X109562Y102967D01*
X109569Y102976D01*
X109575Y102982D01*
X109580Y102987D01*
X109585Y102990D01*
X109587Y102992D01*
X109588Y102994D01*
X109611Y103011D01*
X109635Y103026D01*
X109657Y103037D01*
X109679Y103047D01*
X109699Y103054D01*
X109707Y103056D01*
X109715Y103058D01*
X109720Y103060D01*
X109724Y103061D01*
X109727Y103062D01*
X109728D01*
X109740Y103064D01*
X109752Y103067D01*
X109780Y103071D01*
X109808Y103074D01*
X109837Y103075D01*
X109849Y103076D01*
X109862D01*
X109872Y103077D01*
X110230D01*
Y102116D01*
D02*
G37*
%LPC*%
G36*
X109576Y105094D02*
X109411D01*
X109397Y105093D01*
X109384Y105092D01*
X109372Y105091D01*
X109361Y105090D01*
X109351Y105089D01*
X109341Y105087D01*
X109334Y105087D01*
X109327Y105085D01*
X109320Y105084D01*
X109316Y105082D01*
X109311Y105081D01*
X109308Y105080D01*
X109306Y105080D01*
X109305Y105079D01*
X109304D01*
X109294Y105074D01*
X109285Y105070D01*
X109268Y105057D01*
X109252Y105044D01*
X109239Y105030D01*
X109229Y105018D01*
X109224Y105012D01*
X109221Y105008D01*
X109218Y105003D01*
X109216Y105000D01*
X109215Y104998D01*
X109214Y104998D01*
X109208Y104986D01*
X109202Y104973D01*
X109193Y104946D01*
X109186Y104917D01*
X109182Y104889D01*
X109180Y104876D01*
X109179Y104864D01*
X109178Y104853D01*
Y104844D01*
X109177Y104836D01*
Y104830D01*
Y104827D01*
Y104826D01*
X109178Y104796D01*
X109180Y104770D01*
X109182Y104757D01*
X109183Y104747D01*
X109185Y104736D01*
X109186Y104726D01*
X109189Y104718D01*
X109190Y104710D01*
X109192Y104703D01*
X109193Y104698D01*
X109195Y104693D01*
X109196Y104690D01*
X109196Y104688D01*
Y104688D01*
X109204Y104668D01*
X109213Y104650D01*
X109221Y104634D01*
X109229Y104621D01*
X109237Y104611D01*
X109243Y104603D01*
X109247Y104599D01*
X109248Y104598D01*
X109248Y104597D01*
X109258Y104588D01*
X109269Y104581D01*
X109279Y104575D01*
X109289Y104569D01*
X109299Y104565D01*
X109306Y104562D01*
X109309Y104561D01*
X109311Y104561D01*
X109312Y104560D01*
X109313D01*
X109329Y104556D01*
X109347Y104553D01*
X109365Y104551D01*
X109383Y104549D01*
X109399Y104548D01*
X109406D01*
X109412Y104547D01*
X109576D01*
Y105094D01*
D02*
G37*
G36*
X113572Y102963D02*
X113350D01*
X113331Y102962D01*
X113314Y102961D01*
X113297Y102960D01*
X113283Y102959D01*
X113269Y102957D01*
X113256Y102955D01*
X113246Y102954D01*
X113237Y102952D01*
X113228Y102950D01*
X113222Y102948D01*
X113216Y102947D01*
X113212Y102946D01*
X113209Y102945D01*
X113208Y102944D01*
X113207D01*
X113193Y102937D01*
X113180Y102931D01*
X113158Y102914D01*
X113137Y102897D01*
X113119Y102878D01*
X113105Y102861D01*
X113099Y102854D01*
X113095Y102848D01*
X113091Y102841D01*
X113088Y102837D01*
X113087Y102835D01*
X113086Y102834D01*
X113077Y102819D01*
X113069Y102801D01*
X113057Y102764D01*
X113048Y102726D01*
X113042Y102688D01*
X113040Y102671D01*
X113038Y102655D01*
X113037Y102640D01*
Y102628D01*
X113036Y102618D01*
Y102609D01*
Y102605D01*
Y102603D01*
X113037Y102563D01*
X113040Y102528D01*
X113042Y102511D01*
X113044Y102497D01*
X113046Y102482D01*
X113048Y102470D01*
X113051Y102458D01*
X113053Y102448D01*
X113055Y102438D01*
X113058Y102431D01*
X113060Y102425D01*
X113061Y102421D01*
X113062Y102419D01*
Y102418D01*
X113072Y102391D01*
X113084Y102367D01*
X113095Y102346D01*
X113105Y102328D01*
X113116Y102315D01*
X113124Y102304D01*
X113129Y102298D01*
X113130Y102297D01*
X113132Y102296D01*
X113144Y102284D01*
X113159Y102274D01*
X113173Y102266D01*
X113187Y102258D01*
X113199Y102253D01*
X113209Y102249D01*
X113213Y102248D01*
X113216Y102247D01*
X113217Y102246D01*
X113218D01*
X113240Y102241D01*
X113264Y102236D01*
X113289Y102233D01*
X113313Y102231D01*
X113334Y102230D01*
X113343D01*
X113351Y102229D01*
X113572D01*
Y102963D01*
D02*
G37*
G36*
X112230D02*
X112008D01*
X111989Y102962D01*
X111971Y102961D01*
X111955Y102960D01*
X111940Y102959D01*
X111927Y102957D01*
X111914Y102955D01*
X111904Y102954D01*
X111894Y102952D01*
X111886Y102950D01*
X111880Y102948D01*
X111874Y102947D01*
X111869Y102946D01*
X111866Y102945D01*
X111865Y102944D01*
X111864D01*
X111851Y102937D01*
X111838Y102931D01*
X111815Y102914D01*
X111794Y102897D01*
X111777Y102878D01*
X111763Y102861D01*
X111757Y102854D01*
X111753Y102848D01*
X111749Y102841D01*
X111745Y102837D01*
X111744Y102835D01*
X111743Y102834D01*
X111735Y102819D01*
X111727Y102801D01*
X111714Y102764D01*
X111706Y102726D01*
X111700Y102688D01*
X111698Y102671D01*
X111695Y102655D01*
X111694Y102640D01*
Y102628D01*
X111693Y102618D01*
Y102609D01*
Y102605D01*
Y102603D01*
X111694Y102563D01*
X111698Y102528D01*
X111700Y102511D01*
X111702Y102497D01*
X111704Y102482D01*
X111706Y102470D01*
X111709Y102458D01*
X111711Y102448D01*
X111713Y102438D01*
X111715Y102431D01*
X111717Y102425D01*
X111718Y102421D01*
X111719Y102419D01*
Y102418D01*
X111730Y102391D01*
X111741Y102367D01*
X111753Y102346D01*
X111763Y102328D01*
X111774Y102315D01*
X111782Y102304D01*
X111787Y102298D01*
X111788Y102297D01*
X111789Y102296D01*
X111802Y102284D01*
X111816Y102274D01*
X111831Y102266D01*
X111844Y102258D01*
X111857Y102253D01*
X111866Y102249D01*
X111870Y102248D01*
X111874Y102247D01*
X111875Y102246D01*
X111876D01*
X111897Y102241D01*
X111921Y102236D01*
X111946Y102233D01*
X111970Y102231D01*
X111991Y102230D01*
X112001D01*
X112009Y102229D01*
X112230D01*
Y102963D01*
D02*
G37*
G36*
X110103D02*
X109881D01*
X109863Y102962D01*
X109845Y102961D01*
X109828Y102960D01*
X109814Y102959D01*
X109800Y102957D01*
X109788Y102955D01*
X109777Y102954D01*
X109768Y102952D01*
X109759Y102950D01*
X109753Y102948D01*
X109747Y102947D01*
X109743Y102946D01*
X109740Y102945D01*
X109739Y102944D01*
X109738D01*
X109724Y102937D01*
X109712Y102931D01*
X109689Y102914D01*
X109668Y102897D01*
X109650Y102878D01*
X109637Y102861D01*
X109630Y102854D01*
X109626Y102848D01*
X109622Y102841D01*
X109619Y102837D01*
X109618Y102835D01*
X109617Y102834D01*
X109608Y102819D01*
X109600Y102801D01*
X109588Y102764D01*
X109579Y102726D01*
X109573Y102688D01*
X109571Y102671D01*
X109569Y102655D01*
X109568Y102640D01*
Y102628D01*
X109567Y102618D01*
Y102609D01*
Y102605D01*
Y102603D01*
X109568Y102563D01*
X109571Y102528D01*
X109573Y102511D01*
X109575Y102497D01*
X109577Y102482D01*
X109579Y102470D01*
X109582Y102458D01*
X109585Y102448D01*
X109587Y102438D01*
X109589Y102431D01*
X109591Y102425D01*
X109592Y102421D01*
X109593Y102419D01*
Y102418D01*
X109603Y102391D01*
X109615Y102367D01*
X109626Y102346D01*
X109637Y102328D01*
X109647Y102315D01*
X109655Y102304D01*
X109661Y102298D01*
X109662Y102297D01*
X109663Y102296D01*
X109675Y102284D01*
X109690Y102274D01*
X109704Y102266D01*
X109718Y102258D01*
X109730Y102253D01*
X109740Y102249D01*
X109744Y102248D01*
X109747Y102247D01*
X109748Y102246D01*
X109749D01*
X109771Y102241D01*
X109795Y102236D01*
X109820Y102233D01*
X109844Y102231D01*
X109865Y102230D01*
X109874D01*
X109882Y102229D01*
X110103D01*
Y102963D01*
D02*
G37*
%LPD*%
D11*
X102500Y110500D02*
G03*
X98200Y107327I0J-4500D01*
G01*
X119500Y101500D02*
G03*
X123800Y104673I0J4500D01*
G01*
Y107327D02*
G03*
X119500Y110500I-4300J-1327D01*
G01*
X98200Y104673D02*
G03*
X102500Y101500I4300J1327D01*
G01*
X116200Y112500D02*
G03*
X118200Y110500I2000J0D01*
G01*
X103800D02*
G03*
X105800Y112500I0J2000D01*
G01*
X118200Y110500D02*
X119500D01*
X123800Y104673D02*
Y107327D01*
X102500Y110500D02*
X103800D01*
X116200Y112500D02*
Y120000D01*
X102500Y101500D02*
X119500D01*
X98200Y104673D02*
Y107327D01*
X105800Y112500D02*
Y120000D01*
X116200D01*
D34*
X112917Y103973D02*
G03*
X113503Y104559I0J586D01*
G01*
X109095Y110925D02*
G03*
X108488Y110317I0J-607D01*
G01*
X113503Y110315D02*
G03*
X112893Y110925I-610J0D01*
G01*
X108461Y104590D02*
G03*
X109078Y103973I617J0D01*
G01*
X112917D01*
X113503Y104559D02*
Y110315D01*
X110928Y110925D02*
X112893D01*
X109095Y110925D02*
X110928Y110925D01*
X108461Y104590D02*
X108488Y110317D01*
M02*
