G04*
G04 #@! TF.GenerationSoftware,Altium Limited,Altium Designer,21.3.2 (30)*
G04*
G04 Layer_Physical_Order=2*
G04 Layer_Color=16711680*
%FSLAX43Y43*%
%MOMM*%
G71*
G04*
G04 #@! TF.SameCoordinates,18D36F19-11BE-4002-80CD-DBD72E8668B0*
G04*
G04*
G04 #@! TF.FilePolarity,Positive*
G04*
G01*
G75*
%ADD10C,0.254*%
%ADD11C,0.100*%
%ADD26C,0.400*%
%ADD28C,4.000*%
%ADD29O,1.200X2.000*%
%ADD30O,1.600X1.800*%
%ADD31C,0.800*%
%ADD32C,0.600*%
%ADD33C,0.400*%
G36*
X108951Y111974D02*
X108954Y111952D01*
X108958Y111930D01*
X108965Y111908D01*
X108974Y111887D01*
X108985Y111866D01*
X108998Y111845D01*
X109013Y111824D01*
X109030Y111804D01*
X109050Y111783D01*
X108767Y111500D01*
X108746Y111520D01*
X108726Y111537D01*
X108705Y111552D01*
X108684Y111565D01*
X108663Y111576D01*
X108642Y111585D01*
X108620Y111592D01*
X108598Y111596D01*
X108576Y111599D01*
X108571Y111599D01*
X108563Y111598D01*
X108540Y111593D01*
X108519Y111585D01*
X108498Y111575D01*
X108479Y111563D01*
X108460Y111549D01*
X108443Y111532D01*
X108427Y111514D01*
X108412Y111493D01*
X108398Y111470D01*
X108086Y111730D01*
X108101Y111755D01*
X108125Y111804D01*
X108134Y111827D01*
X108141Y111850D01*
X108147Y111872D01*
X108151Y111894D01*
X108153Y111915D01*
X108154Y111935D01*
X108153Y111955D01*
X108570Y111616D01*
X108950Y111996D01*
X108951Y111974D01*
D02*
G37*
G36*
X106880Y115958D02*
X106882Y115844D01*
X106898Y115651D01*
X106912Y115573D01*
X106930Y115507D01*
X106951Y115453D01*
X106977Y115411D01*
X107007Y115381D01*
X107040Y115363D01*
X107078Y115357D01*
X106282D01*
X106320Y115363D01*
X106353Y115381D01*
X106383Y115411D01*
X106409Y115453D01*
X106430Y115507D01*
X106448Y115573D01*
X106462Y115651D01*
X106472Y115742D01*
X106480Y115958D01*
X106880D01*
D02*
G37*
G36*
X106480Y117343D02*
X106478Y117450D01*
X106462Y117631D01*
X106448Y117704D01*
X106430Y117767D01*
X106409Y117817D01*
X106383Y117857D01*
X106353Y117885D01*
X106319Y117902D01*
X106281Y117908D01*
X107079D01*
X107041Y117902D01*
X107007Y117885D01*
X106977Y117857D01*
X106951Y117817D01*
X106930Y117767D01*
X106912Y117704D01*
X106898Y117631D01*
X106888Y117546D01*
X106882Y117450D01*
X106880Y117343D01*
X106480D01*
D02*
G37*
G36*
X110916Y111547D02*
X110897Y111546D01*
X110878Y111543D01*
X110860Y111539D01*
X110842Y111534D01*
X110824Y111526D01*
X110806Y111517D01*
X110789Y111506D01*
X110772Y111494D01*
X110755Y111480D01*
X110738Y111464D01*
X110740Y111884D01*
X110756Y111868D01*
X110773Y111854D01*
X110790Y111842D01*
X110807Y111831D01*
X110825Y111822D01*
X110843Y111814D01*
X110861Y111808D01*
X110879Y111804D01*
X110898Y111802D01*
X110917Y111801D01*
X110916Y111547D01*
D02*
G37*
G36*
X111415Y111801D02*
X111434Y111802D01*
X111453Y111804D01*
X111471Y111808D01*
X111489Y111814D01*
X111507Y111821D01*
X111525Y111830D01*
X111542Y111841D01*
X111559Y111854D01*
X111576Y111868D01*
X111592Y111883D01*
X111591Y111463D01*
X111574Y111479D01*
X111558Y111493D01*
X111541Y111506D01*
X111523Y111517D01*
X111506Y111526D01*
X111488Y111533D01*
X111470Y111539D01*
X111451Y111543D01*
X111433Y111546D01*
X111413Y111547D01*
X111415Y111801D01*
D02*
G37*
G36*
X112950Y111783D02*
X112970Y111804D01*
X112987Y111824D01*
X113002Y111845D01*
X113015Y111866D01*
X113026Y111887D01*
X113035Y111908D01*
X113042Y111930D01*
X113046Y111952D01*
X113049Y111974D01*
X113050Y111996D01*
X113446Y111600D01*
X113424Y111599D01*
X113402Y111596D01*
X113380Y111592D01*
X113358Y111585D01*
X113337Y111576D01*
X113316Y111565D01*
X113295Y111552D01*
X113274Y111537D01*
X113254Y111520D01*
X113233Y111500D01*
X112950Y111783D01*
D02*
G37*
G36*
X115520Y115958D02*
X115522Y115844D01*
X115538Y115651D01*
X115552Y115573D01*
X115570Y115507D01*
X115591Y115453D01*
X115617Y115411D01*
X115647Y115381D01*
X115680Y115363D01*
X115718Y115357D01*
X114922D01*
X114960Y115363D01*
X114993Y115381D01*
X115023Y115411D01*
X115049Y115453D01*
X115070Y115507D01*
X115088Y115573D01*
X115102Y115651D01*
X115112Y115742D01*
X115120Y115958D01*
X115520D01*
D02*
G37*
G36*
X115120Y117343D02*
X115118Y117450D01*
X115102Y117631D01*
X115088Y117704D01*
X115070Y117767D01*
X115049Y117817D01*
X115023Y117857D01*
X114993Y117885D01*
X114959Y117902D01*
X114921Y117908D01*
X115719D01*
X115681Y117902D01*
X115647Y117885D01*
X115617Y117857D01*
X115591Y117817D01*
X115570Y117767D01*
X115552Y117704D01*
X115538Y117631D01*
X115528Y117546D01*
X115522Y117450D01*
X115520Y117343D01*
X115120D01*
D02*
G37*
D10*
X110526Y111674D02*
X111805D01*
X111806Y111672D01*
X110525Y111675D02*
X110526Y111674D01*
D11*
X114870Y114515D02*
G03*
X115770Y114515I450J0D01*
G01*
X114465Y115045D02*
G03*
X114465Y115045I-575J0D01*
G01*
D02*
G03*
X114465Y115045I-575J0D01*
G01*
X113477Y111351D02*
G03*
X114100Y112000I-27J649D01*
G01*
X116200Y112500D02*
G03*
X118200Y110500I2000J0D01*
G01*
X114100Y112000D02*
G03*
X112801Y112027I-650J0D01*
G01*
X123596Y105994D02*
G03*
X123601Y106199I-4301J205D01*
G01*
D02*
G03*
X119500Y110500I-4306J0D01*
G01*
X123601Y105795D02*
G03*
X123596Y105994I-4300J0D01*
G01*
X119500Y101500D02*
G03*
X123601Y105795I-199J4295D01*
G01*
X111700Y110475D02*
G03*
X113170Y111084I0J2080D01*
G01*
X112356Y111672D02*
G03*
X111438Y112082I-550J0D01*
G01*
X110896Y112081D02*
G03*
X110061Y111380I-371J-406D01*
G01*
X109200Y112000D02*
G03*
X109199Y112027I-650J0D01*
G01*
X112346Y111567D02*
G03*
X112533Y111719I-646J987D01*
G01*
X112346Y111567D02*
G03*
X112356Y111672I-540J105D01*
G01*
X109569Y111617D02*
G03*
X110061Y111380I586J588D01*
G01*
X108933Y110981D02*
G03*
X110155Y110475I1223J1224D01*
G01*
X108685Y115045D02*
G03*
X108685Y115045I-575J0D01*
G01*
D02*
G03*
X108685Y115045I-575J0D01*
G01*
X109199Y112027D02*
G03*
X107901Y111961I-649J-27D01*
G01*
X108597Y111312D02*
G03*
X108425Y110613I1340J-699D01*
G01*
X107858Y111835D02*
G03*
X107525Y110613I2079J-1222D01*
G01*
X108625Y108915D02*
G03*
X108454Y109355I-650J0D01*
G01*
X107497D02*
G03*
X108625Y108915I479J-440D01*
G01*
X106230Y114515D02*
G03*
X107130Y114515I450J0D01*
G01*
X103800Y110500D02*
G03*
X105800Y112500I0J2000D01*
G01*
X102800Y110500D02*
G03*
X98400Y105893I103J-4504D01*
G01*
X104750Y106000D02*
G03*
X104750Y106000I-2250J0D01*
G01*
X98400Y105893D02*
G03*
X102500Y101500I4309J-88D01*
G01*
X115924Y115506D02*
X115937Y115479D01*
X115910Y115520D02*
X115924Y115506D01*
X115927Y115500D02*
X116200D01*
X115873Y115553D02*
X115898Y115537D01*
X115910Y115520D01*
X115966Y115416D02*
X115967Y115386D01*
X115958Y115434D02*
X115966Y115416D01*
X115967Y115386D02*
X115973Y115357D01*
X115937Y115479D02*
X115954Y115454D01*
X115958Y115434D01*
X115775Y115963D02*
X115777Y115857D01*
X115770Y116164D02*
X116200D01*
X115777Y115857D02*
X115791Y115684D01*
X115770Y115985D02*
Y116164D01*
Y115985D02*
X115775Y115963D01*
X115832Y115581D02*
X115852Y115574D01*
X115816Y115592D02*
X115832Y115581D01*
X115852Y115574D02*
X115873Y115553D01*
X115791Y115684D02*
X115801Y115629D01*
X115810Y115593D01*
X115969Y115337D02*
X115970Y115316D01*
X115969Y115337D02*
X115973Y115357D01*
X115959Y115288D02*
X115970Y115316D01*
X115954Y115259D02*
X115959Y115288D01*
X115942Y115242D02*
X115954Y115259D01*
X115935Y115223D02*
X115942Y115242D01*
X115915Y115201D02*
X115935Y115223D01*
X115898Y115176D02*
X115915Y115201D01*
X115881Y115165D02*
X115898Y115176D01*
X115868Y115150D02*
X115881Y115165D01*
X115840Y115138D02*
X115868Y115150D01*
X115816Y115121D02*
X115840Y115138D01*
X115796Y115117D02*
X115816Y115121D01*
X115777Y115109D02*
X115796Y115117D01*
X114410Y114800D02*
X114870D01*
X115770D02*
X116200D01*
X115494Y114100D02*
X116200D01*
X114870Y114515D02*
Y115108D01*
X115770Y114515D02*
Y115108D01*
X114870Y115987D02*
Y116164D01*
X114865Y115967D02*
X114870Y115987D01*
X114858Y115760D02*
X114865Y115967D01*
X114850Y115688D02*
X114858Y115760D01*
X114839Y115629D02*
X114850Y115688D01*
X114830Y115593D02*
X114839Y115629D01*
X114807Y115581D02*
X114824Y115592D01*
X114788Y115574D02*
X114807Y115581D01*
X114800Y115578D02*
Y116164D01*
X114767Y115553D02*
X114788Y115574D01*
X114742Y115537D02*
X114767Y115553D01*
X114730Y115520D02*
X114742Y115537D01*
X114715Y115506D02*
X114730Y115520D01*
X114100Y115580D02*
Y116164D01*
X114241Y115500D02*
X114713D01*
X114703Y115479D02*
X114715Y115506D01*
X114686Y115454D02*
X114703Y115479D01*
X113400Y115346D02*
Y116164D01*
X114725Y115201D02*
X114742Y115176D01*
X114705Y115223D02*
X114725Y115201D01*
X114742Y115176D02*
X114759Y115165D01*
X114686Y115259D02*
X114698Y115242D01*
X114705Y115223D01*
X114824Y115121D02*
X114844Y115117D01*
X114800Y115138D02*
X114824Y115121D01*
X114844Y115117D02*
X114863Y115109D01*
X114759Y115165D02*
X114772Y115150D01*
X114800Y115138D01*
X114682Y115434D02*
X114686Y115454D01*
X114674Y115416D02*
X114682Y115434D01*
X114673Y115386D02*
X114674Y115416D01*
X114667Y115357D02*
X114673Y115386D01*
X114667Y115357D02*
X114671Y115337D01*
X114670Y115316D02*
X114681Y115288D01*
X114686Y115259D01*
X114670Y115316D02*
X114671Y115337D01*
X108630Y114800D02*
X113370D01*
X116200Y112500D02*
Y116164D01*
X114100Y112000D02*
X116263D01*
X113455Y111345D02*
X113477Y111351D01*
X113423Y111329D02*
X113431Y111335D01*
X115500Y101500D02*
Y114103D01*
X116200Y101500D02*
Y112472D01*
X114800Y101500D02*
Y115137D01*
X114100Y101500D02*
Y114510D01*
X113400Y112648D02*
Y114744D01*
X112795Y112005D02*
X112801Y112027D01*
X112248Y112000D02*
X112795D01*
X112779Y111973D02*
X112785Y111981D01*
X113408Y111315D02*
X113423Y111329D01*
X113390Y111304D02*
X113408Y111315D01*
X113400Y101500D02*
Y111310D01*
X112765Y111958D02*
X112779Y111973D01*
X113171Y111084D02*
X113390Y111304D01*
X122500Y102922D02*
Y109075D01*
X123200Y103983D02*
Y108014D01*
X121800Y102296D02*
Y109701D01*
X121100Y101890D02*
Y110108D01*
X119700Y101514D02*
Y110486D01*
X120400Y101638D02*
Y110361D01*
X118200Y110500D02*
X119500Y110500D01*
X112411Y110600D02*
X117575D01*
X108560Y109200D02*
X122383D01*
X113387Y111300D02*
X116600D01*
X118300Y101500D02*
Y110500D01*
X119000Y101500D02*
Y110500D01*
X116900Y101500D02*
Y110980D01*
X117600Y101500D02*
Y110592D01*
X112000Y112187D02*
Y116164D01*
X111417Y112068D02*
X111438Y112082D01*
X111406Y112058D02*
X111417Y112068D01*
X110917Y112067D02*
X110928Y112057D01*
X110930Y112055D02*
X110948Y112051D01*
X112700Y111887D02*
Y116164D01*
X111385Y112051D02*
X111403Y112055D01*
X111300Y112051D02*
Y116164D01*
X110948Y112051D02*
X111385D01*
X110896Y112081D02*
X110917Y112067D01*
X110600Y112220D02*
Y116164D01*
X109205Y112000D02*
X110081D01*
X109200Y112024D02*
Y116164D01*
X109199Y112027D02*
X109205Y112005D01*
X109900Y111415D02*
Y116164D01*
X109221Y111973D02*
X109235Y111958D01*
X109215Y111981D02*
X109221Y111973D01*
X112754Y111940D02*
X112765Y111958D01*
X112534Y111720D02*
X112754Y111940D01*
X110155Y110475D02*
X111700D01*
X112700Y101500D02*
Y110731D01*
X112000Y101500D02*
Y110497D01*
X111300Y101500D02*
Y110475D01*
X109900Y101500D02*
Y110494D01*
X110600Y101500D02*
Y110475D01*
X109246Y111940D02*
X109568Y111618D01*
X109235Y111958D02*
X109246Y111940D01*
X108598Y111315D02*
X108610Y111304D01*
X108597Y111312D02*
X108610Y111304D01*
X109200Y101500D02*
Y110763D01*
X108610Y111304D02*
X108932Y110982D01*
X108591Y111300D02*
X108613D01*
X107800Y115529D02*
Y116164D01*
X107287Y115500D02*
X107759D01*
X108461D02*
X113539D01*
X107258Y115537D02*
X107270Y115520D01*
X107285Y115506D01*
X108500Y115467D02*
Y116164D01*
X107285Y115506D02*
X107297Y115479D01*
X107314Y115454D01*
X107137Y115857D02*
X107151Y115684D01*
X107130Y116164D02*
X114870D01*
X107151Y115684D02*
X107161Y115629D01*
X107130Y115985D02*
X107135Y115963D01*
X107137Y115857D01*
X107212Y115574D02*
X107233Y115553D01*
X107193Y115581D02*
X107212Y115574D01*
X107233Y115553D02*
X107258Y115537D01*
X107161Y115629D02*
X107170Y115593D01*
X107176Y115592D02*
X107193Y115581D01*
X107327Y115386D02*
X107333Y115357D01*
X107326Y115416D02*
X107327Y115386D01*
X107329Y115337D02*
X107333Y115357D01*
X107314Y115454D02*
X107318Y115434D01*
X107326Y115416D01*
X107329Y115337D02*
X107330Y115316D01*
X107319Y115288D02*
X107330Y115316D01*
X107314Y115259D02*
X107319Y115288D01*
X107302Y115242D02*
X107314Y115259D01*
X107295Y115223D02*
X107302Y115242D01*
X107275Y115201D02*
X107295Y115223D01*
X107258Y115176D02*
X107275Y115201D01*
X107241Y115165D02*
X107258Y115176D01*
X107228Y115150D02*
X107241Y115165D01*
X107200Y115138D02*
X107228Y115150D01*
X107176Y115121D02*
X107200Y115138D01*
X107130Y114800D02*
X107590D01*
X106854Y114100D02*
X115146D01*
X107156Y115117D02*
X107176Y115121D01*
X107137Y115109D02*
X107156Y115117D01*
X107130Y115985D02*
Y116164D01*
X106230Y115987D02*
Y116164D01*
X106225Y115967D02*
X106230Y115987D01*
X106218Y115760D02*
X106225Y115967D01*
X106210Y115688D02*
X106218Y115760D01*
X106199Y115629D02*
X106210Y115688D01*
X106190Y115593D02*
X106199Y115629D01*
X106167Y115581D02*
X106184Y115592D01*
X106148Y115574D02*
X106167Y115581D01*
X106127Y115553D02*
X106148Y115574D01*
X106102Y115537D02*
X106127Y115553D01*
X105800Y116164D02*
X106230D01*
X106090Y115520D02*
X106102Y115537D01*
X106076Y115506D02*
X106090Y115520D01*
X105800Y115500D02*
X106073D01*
X106063Y115479D02*
X106076Y115506D01*
X106046Y115454D02*
X106063Y115479D01*
X106042Y115434D02*
X106046Y115454D01*
X106034Y115416D02*
X106042Y115434D01*
X106033Y115386D02*
X106034Y115416D01*
X106119Y115165D02*
X106132Y115150D01*
X106102Y115176D02*
X106119Y115165D01*
X106132Y115150D02*
X106160Y115138D01*
X106065Y115223D02*
X106085Y115201D01*
X106102Y115176D01*
X106230Y114515D02*
Y115108D01*
X106204Y115117D02*
X106223Y115109D01*
X107130Y114515D02*
Y115108D01*
X106160Y115138D02*
X106184Y115121D01*
X106204Y115117D01*
X106030Y115316D02*
X106041Y115288D01*
X106027Y115357D02*
X106033Y115386D01*
X106041Y115288D02*
X106046Y115259D01*
X106027Y115357D02*
X106031Y115337D01*
X106030Y115316D02*
X106031Y115337D01*
X105800Y114800D02*
X106230D01*
X105800Y114100D02*
X106506D01*
X106046Y115259D02*
X106058Y115242D01*
X106065Y115223D01*
X108500Y112648D02*
Y114623D01*
X107898Y111938D02*
X107901Y111961D01*
X107876Y111875D02*
X107891Y111907D01*
X108500Y109299D02*
Y111082D01*
X108425Y110600D02*
X109509D01*
X108425Y109900D02*
X121496D01*
X108425Y109450D02*
Y110613D01*
Y109450D02*
X108430Y109429D01*
X105800Y112700D02*
X116200D01*
X105800Y113400D02*
X116200D01*
X105737Y112000D02*
X107900D01*
X107865Y111857D02*
X107876Y111875D01*
X107858Y111835D02*
X107865Y111857D01*
X107800Y111731D02*
Y114561D01*
X105400Y111300D02*
X107625D01*
X107525Y109450D02*
Y110613D01*
X107521Y109429D02*
X107525Y109450D01*
X108442Y109375D02*
X108454Y109355D01*
X108476Y108500D02*
X122935D01*
X108430Y109429D02*
X108431Y109409D01*
X108432Y109399D01*
X104714Y106400D02*
X123597D01*
X104730Y105700D02*
X123600D01*
X108500Y101500D02*
Y108532D01*
X107800Y101500D02*
Y108289D01*
X104516Y105000D02*
X123527D01*
X104463Y107100D02*
X123506D01*
X103974Y104300D02*
X123333D01*
X103850Y107800D02*
X123292D01*
X99005Y103600D02*
X122998D01*
X99524Y102900D02*
X122480D01*
X100346Y102200D02*
X121660D01*
X102497Y101500D02*
X119504D01*
X102500Y101500D02*
X119500Y101500D01*
X107520Y109409D02*
X107521Y109429D01*
X104425Y110600D02*
X107525D01*
X107519Y109399D02*
X107520Y109409D01*
X105800Y112500D02*
Y116164D01*
X107100Y101500D02*
Y114354D01*
X106400Y101500D02*
Y114163D01*
X105700Y101500D02*
Y111876D01*
X105000Y101500D02*
Y110900D01*
X104300Y107350D02*
Y110564D01*
X102800Y110500D02*
X103800D01*
X100655Y109900D02*
X107525D01*
X102900Y108214D02*
Y110500D01*
X102200Y108230D02*
Y110446D01*
X103600Y107963D02*
Y110500D01*
X101500Y108016D02*
Y110277D01*
X100800Y107474D02*
Y109980D01*
X100100Y102374D02*
Y109523D01*
X107497Y109355D02*
X107509Y109375D01*
X99736Y109200D02*
X107391D01*
X99400Y103043D02*
Y108829D01*
X100800Y101940D02*
Y104526D01*
X104300Y101500D02*
Y104650D01*
X103600Y101500D02*
Y104037D01*
X102900Y101500D02*
Y103786D01*
X101500Y101668D02*
Y103984D01*
X102200Y101525D02*
Y103770D01*
X99158Y108500D02*
X107475D01*
X98775Y107800D02*
X101150D01*
X98536Y107100D02*
X100537D01*
X98417Y106400D02*
X100286D01*
X98400Y105700D02*
X100270D01*
X98670Y104300D02*
X101026D01*
X98700Y104221D02*
Y107617D01*
X98474Y105000D02*
X100484D01*
X102500Y110500D02*
G03*
X98200Y107327I0J-4500D01*
G01*
X119500Y101500D02*
G03*
X123800Y104673I0J4500D01*
G01*
Y107327D02*
G03*
X119500Y110500I-4300J-1327D01*
G01*
X98200Y104673D02*
G03*
X102500Y101500I4300J1327D01*
G01*
X116200Y112500D02*
G03*
X118200Y110500I2000J0D01*
G01*
X103800D02*
G03*
X105800Y112500I0J2000D01*
G01*
X118200Y110500D02*
X119500D01*
X123800Y104673D02*
Y107327D01*
X102500Y110500D02*
X103800D01*
X116200Y112500D02*
Y120000D01*
X102500Y101500D02*
X119500D01*
X98200Y104673D02*
Y107327D01*
X105800Y112500D02*
Y120000D01*
X116200D01*
D26*
X108550Y112000D02*
G03*
X107975Y110613I1387J-1387D01*
G01*
X111700Y110925D02*
G03*
X112852Y111402I0J1630D01*
G01*
X109251Y111299D02*
G03*
X110155Y110925I905J906D01*
G01*
X109250Y111300D02*
G03*
X109251Y111299I905J905D01*
G01*
X108550Y112000D02*
X109250Y111300D01*
X107975Y108915D02*
Y110613D01*
X110155Y110925D02*
X111700D01*
X112852Y111402D02*
X113450Y112000D01*
X115320Y114515D02*
Y118695D01*
X106680Y114515D02*
Y118695D01*
D28*
X119500Y106000D02*
D03*
X102500D02*
D03*
D29*
X106680Y114515D02*
D03*
X115320D02*
D03*
D30*
Y118695D02*
D03*
X106680D02*
D03*
D31*
X107975Y108915D02*
D03*
X108550Y112000D02*
D03*
X113450D02*
D03*
X116400Y107825D02*
D03*
Y104275D02*
D03*
X105600D02*
D03*
Y107825D02*
D03*
D32*
X111806Y111672D02*
D03*
X110525Y111675D02*
D03*
D33*
X112852Y111402D02*
D03*
M02*
