G04*
G04 #@! TF.GenerationSoftware,Altium Limited,Altium Designer,21.3.2 (30)*
G04*
G04 Layer_Physical_Order=1*
G04 Layer_Color=255*
%FSLAX43Y43*%
%MOMM*%
G71*
G04*
G04 #@! TF.SameCoordinates,DDF0AE4A-8618-4426-8A3D-72610EC7A679*
G04*
G04*
G04 #@! TF.FilePolarity,Positive*
G04*
G01*
G75*
%ADD10C,0.254*%
%ADD11C,0.100*%
%ADD12R,0.300X1.450*%
%ADD13R,0.600X1.450*%
%ADD14R,1.200X1.800*%
%ADD15R,0.600X1.550*%
%ADD16R,0.800X0.850*%
%ADD26C,0.300*%
%ADD27C,0.400*%
%ADD28C,4.000*%
%ADD29O,1.200X2.000*%
%ADD30O,1.400X1.800*%
%ADD31C,0.600*%
%ADD32C,0.800*%
G36*
X107179Y114479D02*
X107190Y114447D01*
X107211Y114418D01*
X107243Y114394D01*
X107285Y114373D01*
X107338Y114355D01*
X107400Y114342D01*
X107473Y114333D01*
X107556Y114327D01*
X107650Y114325D01*
X107649Y113925D01*
X107547Y113923D01*
X107455Y113915D01*
X107456Y113725D01*
X107451Y113763D01*
X107436Y113797D01*
X107412Y113827D01*
X107378Y113853D01*
X107335Y113875D01*
X107287Y113891D01*
X107240Y113878D01*
X107189Y113857D01*
X107148Y113832D01*
X107118Y113804D01*
X107098Y113772D01*
X107089Y113736D01*
X107110Y113920D01*
X107065Y113923D01*
X106973Y113925D01*
Y114325D01*
X107156Y114324D01*
X107178Y114516D01*
X107179Y114479D01*
D02*
G37*
G36*
X111377Y114454D02*
X111384Y114324D01*
X111386Y114322D01*
X111114D01*
X111116Y114324D01*
X111117Y114328D01*
X111119Y114337D01*
X111120Y114348D01*
X111122Y114402D01*
X111123Y114485D01*
X111377D01*
X111377Y114454D01*
D02*
G37*
G36*
X110377Y114462D02*
X110385Y114338D01*
X110388Y114329D01*
X110391Y114324D01*
X110394Y114322D01*
X110106D01*
X110109Y114324D01*
X110112Y114329D01*
X110115Y114338D01*
X110117Y114350D01*
X110119Y114365D01*
X110121Y114407D01*
X110123Y114495D01*
X110377D01*
X110377Y114462D01*
D02*
G37*
G36*
X114844Y114324D02*
X115027Y114325D01*
Y113925D01*
X114935Y113923D01*
X114890Y113918D01*
X114911Y113736D01*
X114902Y113772D01*
X114882Y113804D01*
X114852Y113832D01*
X114811Y113857D01*
X114760Y113878D01*
X114713Y113891D01*
X114665Y113875D01*
X114622Y113853D01*
X114588Y113827D01*
X114564Y113797D01*
X114549Y113763D01*
X114544Y113725D01*
X114545Y113917D01*
X114453Y113923D01*
X114351Y113925D01*
X114350Y114325D01*
X114444Y114327D01*
X114600Y114342D01*
X114662Y114355D01*
X114715Y114373D01*
X114757Y114394D01*
X114789Y114418D01*
X114810Y114447D01*
X114821Y114479D01*
X114822Y114516D01*
X114844Y114324D01*
D02*
G37*
G36*
X110893Y112875D02*
X110890Y112866D01*
X110887Y112851D01*
X110884Y112829D01*
X110880Y112768D01*
X110877Y112573D01*
X110623D01*
X110623Y112631D01*
X110607Y112875D01*
X110603Y112878D01*
X110897D01*
X110893Y112875D01*
D02*
G37*
G36*
X113729Y112873D02*
X113712Y112859D01*
X113698Y112835D01*
X113685Y112801D01*
X113674Y112758D01*
X113666Y112705D01*
X113659Y112643D01*
X113651Y112489D01*
X113651Y112478D01*
X113653Y112452D01*
X113657Y112427D01*
X113663Y112403D01*
X113670Y112380D01*
X113679Y112359D01*
X113689Y112338D01*
X113701Y112320D01*
X113715Y112302D01*
X113730Y112286D01*
X113170D01*
X113185Y112302D01*
X113199Y112320D01*
X113211Y112338D01*
X113221Y112359D01*
X113230Y112380D01*
X113237Y112403D01*
X113243Y112427D01*
X113247Y112452D01*
X113249Y112478D01*
X113249Y112489D01*
X113234Y112705D01*
X113226Y112758D01*
X113215Y112801D01*
X113202Y112835D01*
X113188Y112859D01*
X113171Y112873D01*
X113153Y112878D01*
X113747D01*
X113729Y112873D01*
D02*
G37*
G36*
X108829D02*
X108812Y112859D01*
X108798Y112835D01*
X108785Y112801D01*
X108774Y112758D01*
X108766Y112705D01*
X108759Y112643D01*
X108751Y112489D01*
X108751Y112478D01*
X108753Y112452D01*
X108757Y112427D01*
X108763Y112403D01*
X108770Y112380D01*
X108779Y112359D01*
X108789Y112338D01*
X108801Y112320D01*
X108815Y112302D01*
X108830Y112286D01*
X108274D01*
X108255Y111730D01*
X108239Y111746D01*
X108222Y111760D01*
X108203Y111773D01*
X108183Y111784D01*
X108162Y111794D01*
X108140Y111802D01*
X108116Y111808D01*
X108091Y111813D01*
X108065Y111816D01*
X108037Y111818D01*
X108051Y112218D01*
X108079Y112218D01*
X108105Y112219D01*
X108131Y112222D01*
X108155Y112227D01*
X108178Y112233D01*
X108200Y112241D01*
X108220Y112251D01*
X108240Y112262D01*
X108258Y112275D01*
X108272Y112288D01*
X108285Y112302D01*
X108299Y112320D01*
X108311Y112338D01*
X108321Y112359D01*
X108330Y112380D01*
X108337Y112403D01*
X108343Y112427D01*
X108347Y112452D01*
X108349Y112478D01*
X108349Y112489D01*
X108334Y112705D01*
X108326Y112758D01*
X108315Y112801D01*
X108302Y112835D01*
X108288Y112859D01*
X108271Y112873D01*
X108253Y112878D01*
X108847D01*
X108829Y112873D01*
D02*
G37*
G36*
X110802Y111859D02*
X110794Y111841D01*
X110778Y111793D01*
X110774Y111779D01*
X110772Y111765D01*
X110770Y111752D01*
X110770Y111740D01*
X110770Y111729D01*
X110771Y111718D01*
X110487Y111922D01*
X110502Y111925D01*
X110515Y111930D01*
X110528Y111935D01*
X110540Y111943D01*
X110551Y111951D01*
X110561Y111961D01*
X110569Y111973D01*
X110577Y111986D01*
X110584Y112000D01*
X110590Y112016D01*
X110802Y111859D01*
D02*
G37*
G36*
X110691Y111488D02*
X110681Y111478D01*
X110672Y111468D01*
X110665Y111457D01*
X110658Y111444D01*
X110652Y111431D01*
X110648Y111417D01*
X110644Y111403D01*
X110642Y111387D01*
X110640Y111370D01*
X110640Y111353D01*
X110385Y111368D01*
X110385Y111385D01*
X110384Y111402D01*
X110382Y111418D01*
X110378Y111433D01*
X110374Y111447D01*
X110370Y111460D01*
X110364Y111473D01*
X110357Y111485D01*
X110350Y111495D01*
X110341Y111505D01*
X110691Y111488D01*
D02*
G37*
G36*
X109401Y111213D02*
X109413Y111097D01*
X109424Y111050D01*
X109438Y111010D01*
X109454Y110977D01*
X109474Y110952D01*
X109496Y110934D01*
X109521Y110923D01*
X109550Y110919D01*
X108953Y110922D01*
X108981Y110926D01*
X109006Y110936D01*
X109028Y110954D01*
X109047Y110980D01*
X109063Y111012D01*
X109076Y111052D01*
X109087Y111098D01*
X109094Y111152D01*
X109099Y111214D01*
X109100Y111282D01*
X109400D01*
X109401Y111213D01*
D02*
G37*
G36*
X111628Y107593D02*
X111638Y107495D01*
X111647Y107455D01*
X111659Y107421D01*
X111673Y107393D01*
X111689Y107372D01*
X111708Y107356D01*
X111730Y107347D01*
X111754Y107344D01*
X111246D01*
X111270Y107347D01*
X111292Y107356D01*
X111311Y107372D01*
X111327Y107393D01*
X111341Y107421D01*
X111353Y107455D01*
X111362Y107495D01*
X111368Y107541D01*
X111372Y107593D01*
X111373Y107652D01*
X111627D01*
X111628Y107593D01*
D02*
G37*
G36*
X110641D02*
X110651Y107495D01*
X110660Y107455D01*
X110671Y107421D01*
X110685Y107393D01*
X110702Y107372D01*
X110721Y107356D01*
X110742Y107347D01*
X110767Y107344D01*
X110258D01*
X110283Y107347D01*
X110304Y107356D01*
X110323Y107372D01*
X110340Y107393D01*
X110354Y107421D01*
X110365Y107455D01*
X110374Y107495D01*
X110380Y107541D01*
X110384Y107593D01*
X110385Y107652D01*
X110640D01*
X110641Y107593D01*
D02*
G37*
G36*
X109206Y106475D02*
X109201Y106513D01*
X109187Y106547D01*
X109163Y106577D01*
X109129Y106603D01*
X109085Y106625D01*
X109032Y106643D01*
X108969Y106657D01*
X108897Y106667D01*
X108815Y106673D01*
X108723Y106675D01*
Y107075D01*
X108815Y107077D01*
X108969Y107093D01*
X109032Y107107D01*
X109085Y107125D01*
X109129Y107147D01*
X109163Y107173D01*
X109187Y107203D01*
X109201Y107237D01*
X109206Y107275D01*
Y106475D01*
D02*
G37*
D10*
X111250Y111327D02*
G03*
X111227Y111431I-254J-1D01*
G01*
X111178Y111654D02*
G03*
X111227Y111431I528J0D01*
G01*
X111250Y111981D02*
G03*
X111178Y111654I702J-327D01*
G01*
X110572Y111727D02*
G03*
X110727Y112033I-590J492D01*
G01*
X110525Y111675D02*
G03*
X110572Y111727I-543J543D01*
G01*
X110727Y112033D02*
G03*
X110750Y112218I-745J186D01*
G01*
X111500Y109009D02*
G03*
X111400Y109250I-341J0D01*
G01*
X111250Y109612D02*
G03*
X111400Y109250I512J0D01*
G01*
X111250Y114485D02*
G03*
X110745Y114990I-505J0D01*
G01*
D02*
G03*
X110250Y114497I0J-495D01*
G01*
D02*
G03*
X110250Y114495I495J-2D01*
G01*
X111250Y111981D02*
Y113002D01*
X111227Y111431D02*
X111227Y111431D01*
X111250Y113002D02*
X111250Y113600D01*
X111750Y112480D02*
Y113582D01*
X111250Y109612D02*
Y111326D01*
X111250Y111327D02*
X111250Y111326D01*
X111750Y112480D02*
X111806Y111672D01*
X110512Y111662D02*
X110525Y111675D01*
X110512Y106588D02*
Y111662D01*
X110750Y112218D02*
Y113600D01*
X110500Y106575D02*
X110512Y106588D01*
X111250Y113600D02*
Y114485D01*
X111500Y106575D02*
Y109009D01*
X110250Y113600D02*
X110250D01*
X110250D02*
Y114495D01*
D11*
X115638Y114084D02*
G03*
X115770Y114402I-318J318D01*
G01*
D02*
G03*
X115002Y114720I-450J0D01*
G01*
X115160Y113691D02*
G03*
X115361Y113807I-117J434D01*
G01*
X115160Y113691D02*
G03*
X115361Y113807I-117J434D01*
G01*
X114000Y114481D02*
G03*
X114465Y115045I-110J564D01*
G01*
X114000Y114481D02*
G03*
X114465Y115045I-110J564D01*
G01*
X110745Y115367D02*
G03*
X109877Y114575I0J-872D01*
G01*
X114465Y115045D02*
G03*
X113559Y114575I-575J0D01*
G01*
X114465Y115045D02*
G03*
X113559Y114575I-575J0D01*
G01*
X111622D02*
G03*
X110745Y115367I-877J-90D01*
G01*
X114317Y114574D02*
G03*
X114032Y114443I33J-449D01*
G01*
X114000Y113651D02*
G03*
X114335Y113583I250J374D01*
G01*
X114317Y114574D02*
G03*
X114032Y114443I33J-449D01*
G01*
X116200Y112500D02*
G03*
X118200Y110500I2000J0D01*
G01*
X114100Y112000D02*
G03*
X113929Y112440I-650J0D01*
G01*
X123601Y106202D02*
G03*
X119500Y110500I-4303J0D01*
G01*
X123596Y106000D02*
G03*
X123601Y106202I-4298J202D01*
G01*
X123601Y105798D02*
G03*
X123596Y106000I-4303J0D01*
G01*
X119500Y101500D02*
G03*
X123601Y105798I-202J4298D01*
G01*
X112854Y111742D02*
G03*
X114100Y112000I596J258D01*
G01*
X112856Y111672D02*
G03*
X112854Y111742I-1050J0D01*
G01*
X112731Y111175D02*
G03*
X112856Y111672I-925J497D01*
G01*
X110373Y112203D02*
G03*
X110373Y112218I-391J15D01*
G01*
X111627Y111152D02*
G03*
X111700Y111133I179J520D01*
G01*
X110373Y112203D02*
G03*
X110135Y111287I152J-529D01*
G01*
X111877Y109009D02*
G03*
X111667Y109517I-718J0D01*
G01*
X111627Y109612D02*
G03*
X111667Y109517I135J0D01*
G01*
X108441Y114575D02*
G03*
X108685Y115045I-331J470D01*
G01*
X108441Y114575D02*
G03*
X108685Y115045I-331J470D01*
G01*
D02*
G03*
X108000Y114481I-575J0D01*
G01*
X108685Y115045D02*
G03*
X108000Y114481I-575J0D01*
G01*
X109700Y112000D02*
G03*
X109650Y112335I-1150J0D01*
G01*
Y111665D02*
G03*
X109700Y112000I-1100J335D01*
G01*
X107308Y113516D02*
G03*
X108000Y113226I442J84D01*
G01*
Y114408D02*
G03*
X107683Y114574I-350J-283D01*
G01*
X108000Y114408D02*
G03*
X107683Y114574I-350J-283D01*
G01*
X107068Y114743D02*
G03*
X106230Y114515I-388J-228D01*
G01*
Y114125D02*
G03*
X106680Y113675I450J0D01*
G01*
X106230Y114125D02*
G03*
X106680Y113675I450J0D01*
G01*
X108093Y111537D02*
G03*
X108850Y111423I457J463D01*
G01*
X107308Y108372D02*
G03*
X108355Y107325I1047J0D01*
G01*
X107891Y111574D02*
G03*
X107911Y111573I35J449D01*
G01*
X107890Y111574D02*
G03*
X107911Y111573I37J449D01*
G01*
X107890Y111574D02*
G03*
X107308Y111032I-41J-540D01*
G01*
X107951Y112472D02*
G03*
X106408Y111031I-102J-1438D01*
G01*
X103800Y110500D02*
G03*
X105800Y112500I0J2000D01*
G01*
X102665Y110500D02*
G03*
X98400Y106000I117J-4382D01*
G01*
X106408Y108372D02*
G03*
X108355Y106425I1947J0D01*
G01*
X104750Y106000D02*
G03*
X104750Y106000I-2250J0D01*
G01*
X98400Y106000D02*
G03*
X102500Y101500I4300J-200D01*
G01*
X115530Y114800D02*
X116200D01*
X115500Y114815D02*
Y116164D01*
X114980Y114715D02*
X114988Y114706D01*
X114951Y114730D02*
X114980Y114715D01*
X114907Y114753D02*
X114924Y114749D01*
X114892Y114761D02*
X114907Y114753D01*
X114924Y114749D02*
X114951Y114730D01*
X115654Y114100D02*
X116200D01*
X115361Y113807D02*
X115638Y114084D01*
X114988Y114706D02*
X115002Y114720D01*
X114410Y114800D02*
X115110D01*
X114241Y115500D02*
X116200D01*
X114859Y114763D02*
X114892Y114761D01*
X114827Y114770D02*
X114859Y114763D01*
X114810Y114767D02*
X114827Y114770D01*
X114800Y114768D02*
Y116164D01*
X114793Y114769D02*
X114810Y114767D01*
X114762Y114759D02*
X114793Y114769D01*
X114729Y114753D02*
X114762Y114759D01*
X114715Y114744D02*
X114729Y114753D01*
X114698Y114738D02*
X114715Y114744D01*
X114673Y114717D02*
X114698Y114738D01*
X114645Y114700D02*
X114673Y114717D01*
X115156Y113666D02*
X115158Y113685D01*
X115142Y113638D02*
X115156Y113666D01*
X115132Y113608D02*
X115142Y113638D01*
X115119Y113594D02*
X115132Y113608D01*
X115111Y113578D02*
X115119Y113594D01*
X115087Y113557D02*
X115111Y113578D01*
X115066Y113534D02*
X115087Y113557D01*
X115049Y113525D02*
X115066Y113534D01*
X115035Y113513D02*
X115049Y113525D01*
X115005Y113504D02*
X115035Y113513D01*
X114977Y113490D02*
X115005Y113504D01*
X114958Y113489D02*
X114977Y113490D01*
X114734Y113559D02*
X114753Y113537D01*
X114723Y113544D02*
X114734Y113559D01*
X114769Y113528D02*
X114783Y113516D01*
X114753Y113537D02*
X114769Y113528D01*
X114710Y113535D02*
X114723Y113544D01*
X114699Y113523D02*
X114710Y113535D01*
X114669Y113508D02*
X114699Y113523D01*
X114860Y113490D02*
X114877Y113484D01*
X114841Y113491D02*
X114860Y113490D01*
X114877Y113484D02*
X114909Y113486D01*
X114783Y113516D02*
X114813Y113506D01*
X114640Y113489D02*
X114669Y113508D01*
X114813Y113506D02*
X114841Y113491D01*
X114635Y114685D02*
X114645Y114700D01*
X114622Y114674D02*
X114635Y114685D01*
X114607Y114645D02*
X114622Y114674D01*
X114588Y114618D02*
X114607Y114645D01*
X114585Y114601D02*
X114588Y114618D01*
X114100Y115580D02*
Y116164D01*
X114561Y114594D02*
X114584Y114599D01*
X114429Y114582D02*
X114561Y114594D01*
X114345Y114580D02*
X114429Y114582D01*
X113400Y114575D02*
Y114744D01*
X114317Y114574D02*
X114345Y114580D01*
X113400Y115346D02*
Y116164D01*
X111300Y115171D02*
Y116164D01*
X111569Y114800D02*
X113370D01*
X110600Y115355D02*
Y116164D01*
X109900Y114711D02*
Y116164D01*
X109850Y114575D02*
X109877D01*
X112700D02*
Y116164D01*
X112000Y114575D02*
Y116164D01*
X111622Y114575D02*
X111650D01*
X114342Y113570D02*
X114354Y113559D01*
X114335Y113583D02*
X114342Y113570D01*
X114100Y114499D02*
Y114510D01*
X114000Y114411D02*
X114032Y114443D01*
X114432Y113499D02*
X114445Y113490D01*
X114416Y113504D02*
X114432Y113499D01*
X114624Y113486D02*
X114640Y113489D01*
X114363Y113546D02*
X114391Y113527D01*
X114354Y113559D02*
X114363Y113546D01*
X114391Y113527D02*
X114416Y113504D01*
X112150Y114575D02*
X112350D01*
X111850D02*
X112150D01*
X112350D02*
X112650D01*
X111650D02*
X111850D01*
X111622D02*
X111650D01*
X111850D02*
X112150D01*
X113150D02*
X113559D01*
X112900D02*
X113150D01*
X114000Y114411D02*
Y114481D01*
X112650Y114575D02*
X112900D01*
X112350D02*
X112650D01*
X112900D02*
X113150D01*
X114940Y113483D02*
X114958Y113489D01*
X114610Y113479D02*
X114624Y113486D01*
X114909Y113486D02*
X114940Y113483D01*
X114576Y113477D02*
X114610Y113479D01*
X114511Y113472D02*
X114527Y113473D01*
X114478Y113483D02*
X114511Y113472D01*
X114527Y113473D02*
X114543Y113470D01*
X116200Y112500D02*
Y116164D01*
X116200Y101500D02*
Y112472D01*
X115500Y101500D02*
Y113946D01*
X114800Y101500D02*
Y113510D01*
X114543Y113470D02*
X114576Y113477D01*
X114445Y113490D02*
X114478Y113483D01*
X114000Y113400D02*
X116200D01*
X114000Y112700D02*
X116200D01*
X113913Y112625D02*
X114000D01*
Y112869D02*
Y112887D01*
Y113651D01*
X113913Y112625D02*
X113918Y112671D01*
X114100Y101500D02*
Y113601D01*
X114000Y112625D02*
Y112869D01*
X113906Y112486D02*
X113913Y112623D01*
X113905Y112514D02*
X113905Y112494D01*
X113917Y112459D02*
X113929Y112440D01*
X123200Y103984D02*
Y108016D01*
X121100Y101891D02*
Y110109D01*
X118200Y110500D02*
X119500Y110500D01*
X121800Y102297D02*
Y109703D01*
X120400Y101639D02*
Y110361D01*
X119700Y101514D02*
Y110486D01*
X118300Y101500D02*
Y110500D01*
X117600Y101500D02*
Y110592D01*
X119000Y101500D02*
Y110500D01*
X113000Y109900D02*
X121498D01*
X113000Y110600D02*
X117575D01*
X111851Y109200D02*
X122384D01*
X114100Y112000D02*
X116263D01*
X112788Y111300D02*
X116600D01*
X112050Y106400D02*
X123597D01*
X112050Y107100D02*
X123506D01*
X112050Y105700D02*
X123600D01*
X116900Y101500D02*
Y110980D01*
X111877Y108500D02*
X122936D01*
X111877Y107800D02*
X123293D01*
X112731Y111175D02*
X113000D01*
X111627Y110600D02*
X111700D01*
X110373Y112218D02*
Y112548D01*
X113400Y101500D02*
Y111352D01*
X113000Y109825D02*
Y111175D01*
X112700Y101500D02*
Y109825D01*
X111700D02*
Y111133D01*
X111627Y109612D02*
Y111152D01*
Y109900D02*
X111700D01*
X110350Y112625D02*
X110368D01*
X110350D02*
X110368D01*
X110368Y112572D02*
X110373Y112548D01*
X110368Y112622D02*
X110368Y112572D01*
X109850Y112625D02*
X110150D01*
X109850D02*
X110150D01*
X110350D01*
X110135Y107679D02*
Y111287D01*
X110000Y109900D02*
X110135D01*
X110000Y109825D02*
Y111175D01*
X109900D02*
Y112625D01*
X110000Y110600D02*
X110135D01*
X111877Y107679D02*
X111882Y107657D01*
X111700Y109825D02*
X113000D01*
X111884Y107600D02*
X112050D01*
X111882Y107657D02*
X111883Y107609D01*
X111877Y107679D02*
Y109009D01*
X112050Y105550D02*
Y107600D01*
X112000Y101500D02*
Y105550D01*
X111050D02*
X112050D01*
X112000Y107600D02*
Y109825D01*
X110950Y105550D02*
X111050D01*
X111300Y101500D02*
Y105550D01*
X110131Y107657D02*
X110135Y107679D01*
X110130Y107605D02*
X110131Y107657D01*
X110050Y107600D02*
X110129D01*
X109950D02*
X110050D01*
X109900D02*
Y109825D01*
X109950Y107600D02*
X110050D01*
X110600Y101500D02*
Y105550D01*
X110050D02*
X110950D01*
X111050D01*
X109950D02*
X110050D01*
X109900Y101500D02*
Y105550D01*
X109950D02*
X110050D01*
X108461Y115500D02*
X113539D01*
X108630Y114800D02*
X109928D01*
X108500Y115467D02*
Y116164D01*
X107800Y115529D02*
Y116164D01*
X108500Y114575D02*
Y114623D01*
X109650Y114575D02*
X109850D01*
X109350D02*
X109650D01*
X109850D02*
X109877D01*
X109200D02*
Y116164D01*
X109100Y114575D02*
X109350D01*
X109650D01*
X105800Y115500D02*
X107759D01*
X105800Y116164D02*
X116200D01*
X107416Y114599D02*
X107443Y114594D01*
X107028Y114800D02*
X107590D01*
X107393Y114645D02*
X107412Y114618D01*
X107378Y114674D02*
X107393Y114645D01*
X107412Y114618D02*
X107415Y114601D01*
X107655Y114580D02*
X107683Y114574D01*
X107498Y114586D02*
X107568Y114582D01*
X107443Y114594D02*
X107498Y114586D01*
X107568Y114582D02*
X107655Y114580D01*
X108850Y114575D02*
X109100D01*
X108441D02*
X108850D01*
X109650Y112625D02*
X109850D01*
X108850Y114575D02*
X109100D01*
X108084Y112625D02*
X108094Y112485D01*
X108081Y112676D02*
X108084Y112625D01*
X108095Y112494D02*
X108095Y112514D01*
X109700Y112000D02*
X110081D01*
X109650Y112335D02*
Y112625D01*
X108073Y112473D02*
X108083Y112473D01*
X108053Y112473D02*
X108073Y112473D01*
X108000Y114408D02*
Y114481D01*
Y112869D02*
Y112887D01*
Y113226D01*
X107800Y114549D02*
Y114561D01*
X108032Y112469D02*
X108053Y112473D01*
X108000Y112625D02*
X108084D01*
X107951Y112472D02*
X108032Y112469D01*
X108000Y112625D02*
Y112869D01*
X107800Y112474D02*
Y113153D01*
X105800Y112700D02*
X108000D01*
X107190Y114767D02*
X107207Y114769D01*
X107173Y114770D02*
X107190Y114767D01*
X107238Y114759D02*
X107271Y114753D01*
X107207Y114769D02*
X107238Y114759D01*
X107141Y114763D02*
X107173Y114770D01*
X107100Y114757D02*
Y116164D01*
X107108Y114761D02*
X107141Y114763D01*
X107355Y114700D02*
X107365Y114685D01*
X107327Y114717D02*
X107355Y114700D01*
X107365Y114685D02*
X107378Y114674D01*
X107285Y114744D02*
X107302Y114738D01*
X107271Y114753D02*
X107285Y114744D01*
X107302Y114738D02*
X107327Y114717D01*
X106400Y114867D02*
Y116164D01*
X107093Y114753D02*
X107108Y114761D01*
X107076Y114749D02*
X107093Y114753D01*
X106230Y114125D02*
Y114515D01*
X105800Y114800D02*
X106332D01*
X105800Y114100D02*
X106231D01*
X106844Y113666D02*
X106858Y113638D01*
X106680Y113675D02*
X106843D01*
X106858Y113638D02*
X106868Y113608D01*
X105800Y112500D02*
Y116164D01*
X107266Y113559D02*
X107277Y113544D01*
X107247Y113537D02*
X107266Y113559D01*
X107290Y113535D02*
X107301Y113523D01*
X107277Y113544D02*
X107290Y113535D01*
X107231Y113528D02*
X107247Y113537D01*
X107217Y113516D02*
X107231Y113528D01*
X107187Y113506D02*
X107217Y113516D01*
X107159Y113491D02*
X107187Y113506D01*
X107140Y113490D02*
X107159Y113491D01*
X107123Y113484D02*
X107140Y113490D01*
X107091Y113486D02*
X107123Y113484D01*
X107060Y113483D02*
X107091Y113486D01*
X107100Y112265D02*
Y113485D01*
X106934Y113534D02*
X106951Y113525D01*
X106913Y113557D02*
X106934Y113534D01*
X106951Y113525D02*
X106965Y113513D01*
X106881Y113594D02*
X106889Y113578D01*
X106868Y113608D02*
X106881Y113594D01*
X106889Y113578D02*
X106913Y113557D01*
X107042Y113489D02*
X107060Y113483D01*
X107023Y113490D02*
X107042Y113489D01*
X105800Y113400D02*
X107347D01*
X106995Y113504D02*
X107023Y113490D01*
X106965Y113513D02*
X106995Y113504D01*
X105737Y112000D02*
X106780D01*
X109650Y111309D02*
X109655Y111288D01*
X109650Y111309D02*
Y111665D01*
X109655Y111288D02*
X109656Y111229D01*
X109652Y111300D02*
X110122D01*
X108850Y111309D02*
Y111423D01*
X108845Y111287D02*
X108850Y111309D01*
X108844Y111225D02*
X108845Y111287D01*
X109662Y111175D02*
X110000D01*
X109656Y111229D02*
X109662Y111175D01*
X108700Y109825D02*
X110000D01*
X109200Y107600D02*
Y109825D01*
X108840Y111179D02*
X108844Y111225D01*
X108950Y107350D02*
Y107600D01*
X107378Y111300D02*
X108848D01*
X108700Y111175D02*
X108840D01*
X107308Y109900D02*
X108700D01*
Y110914D02*
Y110932D01*
Y111175D01*
X107308Y110600D02*
X108700D01*
X107308Y108500D02*
X110135D01*
X107308Y109200D02*
X110135D01*
X107478Y107800D02*
X110135D01*
X108700Y109825D02*
Y110914D01*
X108500Y107325D02*
Y111352D01*
X108950Y107600D02*
X109950D01*
X108928Y107345D02*
X108950Y107350D01*
X108799Y107332D02*
X108928Y107345D01*
X108717Y106420D02*
X108803Y106418D01*
X108717Y107330D02*
X108799Y107332D01*
X108696Y107325D02*
X108717Y107330D01*
X108696Y106425D02*
X108717Y106420D01*
X109200Y101500D02*
Y105550D01*
X108950D02*
Y106400D01*
Y105550D02*
X109950D01*
X108870Y106413D02*
X108924Y106406D01*
X108803Y106418D02*
X108870Y106413D01*
X108924Y106406D02*
X108950Y106400D01*
X104730Y105700D02*
X108950D01*
X104516Y105000D02*
X123526D01*
X103974Y104300D02*
X123332D01*
X108355Y106425D02*
X108696D01*
X108355Y107325D02*
X108696D01*
X104714Y106400D02*
X108950D01*
X99519Y102900D02*
X122479D01*
X99000Y103600D02*
X122997D01*
X100340Y102200D02*
X121658D01*
X108500Y101500D02*
Y106425D01*
X102497Y101500D02*
X119503D01*
X102500Y101500D02*
X119500Y101500D01*
X108020Y111564D02*
X108040Y111563D01*
X108000Y111569D02*
X108020Y111564D01*
X108074Y111550D02*
X108093Y111537D01*
X108040Y111563D02*
X108051Y111561D01*
X107919Y111572D02*
X108000Y111569D01*
X107800Y107484D02*
Y111573D01*
X107308Y108372D02*
Y111031D01*
X106400Y101500D02*
Y113773D01*
X106408Y108372D02*
Y111031D01*
X105400Y111300D02*
X106433D01*
X104425Y110600D02*
X106408D01*
X102665Y110500D02*
X103800D01*
X102900Y108214D02*
Y110500D01*
X102200Y108230D02*
Y110463D01*
X101500Y108016D02*
Y110310D01*
X105700Y101500D02*
Y111876D01*
X105000Y101500D02*
Y110900D01*
X104300Y107350D02*
Y110564D01*
X103600Y107963D02*
Y110500D01*
X100800Y107474D02*
Y110028D01*
X100566Y109900D02*
X106408D01*
X104463Y107100D02*
X106880D01*
X103850Y107800D02*
X106494D01*
X100800Y101937D02*
Y104526D01*
X101500Y101666D02*
Y103984D01*
X107800Y101500D02*
Y106506D01*
X107100Y101500D02*
Y106883D01*
X104300Y101500D02*
Y104650D01*
X103600Y101500D02*
Y104037D01*
X102900Y101500D02*
Y103786D01*
X102200Y101524D02*
Y103770D01*
X99665Y109200D02*
X106408D01*
X99102Y108500D02*
X106408D01*
X98734Y107800D02*
X101150D01*
X98510Y107100D02*
X100537D01*
X98408Y106400D02*
X100286D01*
X98396Y105700D02*
X100270D01*
X98470Y105000D02*
X100484D01*
X98665Y104300D02*
X101026D01*
X100100Y102369D02*
Y109585D01*
X99400Y103036D02*
Y108907D01*
X98700Y104209D02*
Y107716D01*
X102500Y110500D02*
G03*
X98200Y107327I0J-4500D01*
G01*
X119500Y101500D02*
G03*
X123800Y104673I0J4500D01*
G01*
Y107327D02*
G03*
X119500Y110500I-4300J-1327D01*
G01*
X98200Y104673D02*
G03*
X102500Y101500I4300J1327D01*
G01*
X116200Y112500D02*
G03*
X118200Y110500I2000J0D01*
G01*
X103800D02*
G03*
X105800Y112500I0J2000D01*
G01*
X118200Y110500D02*
X119500D01*
X123800Y104673D02*
Y107327D01*
X102500Y110500D02*
X103800D01*
X116200Y112500D02*
Y120000D01*
X102500Y101500D02*
X119500D01*
X98200Y104673D02*
Y107327D01*
X105800Y112500D02*
Y120000D01*
X116200D01*
D12*
X110750Y113600D02*
D03*
X111750D02*
D03*
X111250D02*
D03*
X110250D02*
D03*
X109750D02*
D03*
X112250D02*
D03*
X112750D02*
D03*
X109250D02*
D03*
D13*
X113450D02*
D03*
X108550D02*
D03*
X114250D02*
D03*
X107750D02*
D03*
D14*
X113800Y102700D02*
D03*
X108200D02*
D03*
D15*
X112500Y106575D02*
D03*
X111500D02*
D03*
X110500D02*
D03*
X109500D02*
D03*
D16*
X108050Y110500D02*
D03*
X109350D02*
D03*
X112350D02*
D03*
X113650D02*
D03*
D26*
X112315Y111268D02*
G03*
X112250Y111083I235J-186D01*
G01*
Y112262D02*
G03*
X112314Y112077I300J1D01*
G01*
X112250Y110741D02*
G03*
X112350Y110500I341J0D01*
G01*
X112250Y110741D02*
G03*
X112350Y110500I341J0D01*
G01*
X112315Y111268D02*
G03*
X112314Y112077I-509J405D01*
G01*
X109264Y111770D02*
G03*
X109250Y111681I286J-91D01*
G01*
Y112319D02*
G03*
X109264Y112230I300J1D01*
G01*
X109250Y110741D02*
G03*
X109350Y110500I341J0D01*
G01*
X109264Y111770D02*
G03*
X109264Y112230I-714J230D01*
G01*
X112250Y112262D02*
Y112262D01*
Y110741D02*
Y111083D01*
Y112262D02*
Y113600D01*
X109250Y112319D02*
Y113600D01*
Y112319D02*
Y112319D01*
Y110741D02*
Y111681D01*
D27*
X107926Y112022D02*
G03*
X106858Y111031I-77J-989D01*
G01*
Y108372D02*
G03*
X108355Y106875I1497J0D01*
G01*
X107934Y112022D02*
X108550Y112000D01*
X106858Y108372D02*
Y111031D01*
X107926Y112022D02*
X107934Y112022D01*
X113450Y112000D02*
Y113600D01*
X108355Y106875D02*
X109500D01*
X108550Y112000D02*
Y113600D01*
X106680Y114125D02*
X107650D01*
X114350D02*
X115043D01*
X115320Y114402D01*
X114250Y114025D02*
X114350Y114125D01*
X107650D02*
X107750Y113600D01*
X106680Y114125D02*
Y114515D01*
D28*
X119500Y106000D02*
D03*
X102500D02*
D03*
D29*
X106680Y114515D02*
D03*
X115320D02*
D03*
D30*
Y118695D02*
D03*
X106680D02*
D03*
D31*
X111806Y111672D02*
D03*
X110525Y111675D02*
D03*
D32*
X114021Y108585D02*
D03*
X108550Y112000D02*
D03*
X113450D02*
D03*
X107975Y108509D02*
D03*
X116400Y107825D02*
D03*
Y104275D02*
D03*
X105600D02*
D03*
Y107825D02*
D03*
M02*
