G04*
G04 #@! TF.GenerationSoftware,Altium Limited,Altium Designer,21.3.2 (30)*
G04*
G04 Layer_Color=8388736*
%FSLAX43Y43*%
%MOMM*%
G71*
G04*
G04 #@! TF.SameCoordinates,DDF0AE4A-8618-4426-8A3D-72610EC7A679*
G04*
G04*
G04 #@! TF.FilePolarity,Negative*
G04*
G01*
G75*
%ADD11C,0.100*%
%ADD17R,0.500X1.650*%
%ADD18R,0.800X1.650*%
%ADD19R,1.400X2.000*%
%ADD20R,0.800X1.750*%
%ADD21R,1.000X1.050*%
%ADD22C,4.200*%
%ADD23O,1.400X2.200*%
%ADD24O,1.600X2.000*%
%ADD25C,0.200*%
D11*
X102500Y110500D02*
G03*
X98200Y107327I0J-4500D01*
G01*
X119500Y101500D02*
G03*
X123800Y104673I0J4500D01*
G01*
Y107327D02*
G03*
X119500Y110500I-4300J-1327D01*
G01*
X98200Y104673D02*
G03*
X102500Y101500I4300J1327D01*
G01*
X116200Y112500D02*
G03*
X118200Y110500I2000J0D01*
G01*
X103800D02*
G03*
X105800Y112500I0J2000D01*
G01*
X118200Y110500D02*
X119500D01*
X123800Y104673D02*
Y107327D01*
X102500Y110500D02*
X103800D01*
X116200Y112500D02*
Y120000D01*
X102500Y101500D02*
X119500D01*
X98200Y104673D02*
Y107327D01*
X105800Y112500D02*
Y120000D01*
X116200D01*
D17*
X110750Y113600D02*
D03*
X111750D02*
D03*
X111250D02*
D03*
X110250D02*
D03*
X109750D02*
D03*
X112250D02*
D03*
X112750D02*
D03*
X109250D02*
D03*
D18*
X113450D02*
D03*
X108550D02*
D03*
X114250D02*
D03*
X107750D02*
D03*
D19*
X113800Y102700D02*
D03*
X108200D02*
D03*
D20*
X112500Y106575D02*
D03*
X111500D02*
D03*
X110500D02*
D03*
X109500D02*
D03*
D21*
X108050Y110500D02*
D03*
X109350D02*
D03*
X112350D02*
D03*
X113650D02*
D03*
D22*
X119500Y106000D02*
D03*
X102500D02*
D03*
D23*
X106680Y114515D02*
D03*
X115320D02*
D03*
D24*
Y118695D02*
D03*
X106680D02*
D03*
D25*
X108110Y115045D02*
D03*
X113890D02*
D03*
M02*
